%TF.GenerationSoftware,KiCad,Pcbnew,(5.1.10)-1*%
%TF.CreationDate,2025-10-24T10:03:21+03:00*%
%TF.ProjectId,PANEL ASSY,50414e45-4c20-4415-9353-592e6b696361,rev?*%
%TF.SameCoordinates,Original*%
%TF.FileFunction,Copper,L1,Top*%
%TF.FilePolarity,Positive*%
%FSLAX46Y46*%
G04 Gerber Fmt 4.6, Leading zero omitted, Abs format (unit mm)*
G04 Created by KiCad (PCBNEW (5.1.10)-1) date 2025-10-24 10:03:21*
%MOMM*%
%LPD*%
G01*
G04 APERTURE LIST*
%TA.AperFunction,ComponentPad*%
%ADD10C,1.700000*%
%TD*%
%TA.AperFunction,ComponentPad*%
%ADD11C,2.000000*%
%TD*%
%TA.AperFunction,ViaPad*%
%ADD12C,0.600000*%
%TD*%
%TA.AperFunction,ViaPad*%
%ADD13C,0.800000*%
%TD*%
%TA.AperFunction,Conductor*%
%ADD14C,0.400000*%
%TD*%
%TA.AperFunction,Conductor*%
%ADD15C,0.600000*%
%TD*%
%TA.AperFunction,Conductor*%
%ADD16C,0.250000*%
%TD*%
%TA.AperFunction,Conductor*%
%ADD17C,0.254000*%
%TD*%
%TA.AperFunction,Conductor*%
%ADD18C,0.100000*%
%TD*%
G04 APERTURE END LIST*
D10*
%TO.P,J1,14*%
%TO.N,GND*%
X88260000Y-114240000D03*
%TO.P,J1,12*%
X90800000Y-114240000D03*
%TO.P,J1,10*%
%TO.N,BT_MENU*%
X93340000Y-114240000D03*
%TO.P,J1,8*%
%TO.N,BT_INFO*%
X95880000Y-114240000D03*
%TO.P,J1,6*%
%TO.N,LED_TAGLIST*%
X98420000Y-114240000D03*
%TO.P,J1,4*%
%TO.N,MENU_TAGLIST*%
X100960000Y-114240000D03*
%TO.P,J1,2*%
%TO.N,BT_BROWSE*%
X103500000Y-114240000D03*
%TO.P,J1,13*%
%TO.N,+8V*%
X88260000Y-111700000D03*
%TO.P,J1,11*%
%TO.N,+3V3*%
X90800000Y-111700000D03*
%TO.P,J1,9*%
%TO.N,BT_TAG*%
X93340000Y-111700000D03*
%TO.P,J1,7*%
%TO.N,BT_BACK*%
X95880000Y-111700000D03*
%TO.P,J1,5*%
%TO.N,LED_BROWSE*%
X98420000Y-111700000D03*
%TO.P,J1,3*%
%TO.N,LED_INFO*%
X100960000Y-111700000D03*
%TO.P,J1,1*%
%TO.N,LED_MENU*%
%TA.AperFunction,ComponentPad*%
G36*
G01*
X102900000Y-110850000D02*
X104100000Y-110850000D01*
G75*
G02*
X104350000Y-111100000I0J-250000D01*
G01*
X104350000Y-112300000D01*
G75*
G02*
X104100000Y-112550000I-250000J0D01*
G01*
X102900000Y-112550000D01*
G75*
G02*
X102650000Y-112300000I0J250000D01*
G01*
X102650000Y-111100000D01*
G75*
G02*
X102900000Y-110850000I250000J0D01*
G01*
G37*
%TD.AperFunction*%
%TD*%
%TO.P,C1,1*%
%TO.N,+8V*%
%TA.AperFunction,SMDPad,CuDef*%
G36*
G01*
X159005000Y-110800000D02*
X157995000Y-110800000D01*
G75*
G02*
X157875000Y-110680000I0J120000D01*
G01*
X157875000Y-109920000D01*
G75*
G02*
X157995000Y-109800000I120000J0D01*
G01*
X159005000Y-109800000D01*
G75*
G02*
X159125000Y-109920000I0J-120000D01*
G01*
X159125000Y-110680000D01*
G75*
G02*
X159005000Y-110800000I-120000J0D01*
G01*
G37*
%TD.AperFunction*%
%TO.P,C1,2*%
%TO.N,GND*%
%TA.AperFunction,SMDPad,CuDef*%
G36*
G01*
X159005000Y-108800000D02*
X157995000Y-108800000D01*
G75*
G02*
X157875000Y-108680000I0J120000D01*
G01*
X157875000Y-107920000D01*
G75*
G02*
X157995000Y-107800000I120000J0D01*
G01*
X159005000Y-107800000D01*
G75*
G02*
X159125000Y-107920000I0J-120000D01*
G01*
X159125000Y-108680000D01*
G75*
G02*
X159005000Y-108800000I-120000J0D01*
G01*
G37*
%TD.AperFunction*%
%TD*%
%TO.P,C2,2*%
%TO.N,GND*%
%TA.AperFunction,SMDPad,CuDef*%
G36*
G01*
X93200000Y-106005000D02*
X93200000Y-104995000D01*
G75*
G02*
X93320000Y-104875000I120000J0D01*
G01*
X94080000Y-104875000D01*
G75*
G02*
X94200000Y-104995000I0J-120000D01*
G01*
X94200000Y-106005000D01*
G75*
G02*
X94080000Y-106125000I-120000J0D01*
G01*
X93320000Y-106125000D01*
G75*
G02*
X93200000Y-106005000I0J120000D01*
G01*
G37*
%TD.AperFunction*%
%TO.P,C2,1*%
%TO.N,+3V3*%
%TA.AperFunction,SMDPad,CuDef*%
G36*
G01*
X91200000Y-106005000D02*
X91200000Y-104995000D01*
G75*
G02*
X91320000Y-104875000I120000J0D01*
G01*
X92080000Y-104875000D01*
G75*
G02*
X92200000Y-104995000I0J-120000D01*
G01*
X92200000Y-106005000D01*
G75*
G02*
X92080000Y-106125000I-120000J0D01*
G01*
X91320000Y-106125000D01*
G75*
G02*
X91200000Y-106005000I0J120000D01*
G01*
G37*
%TD.AperFunction*%
%TD*%
%TO.P,Q1,1*%
%TO.N,Net-(Q1-Pad1)*%
%TA.AperFunction,SMDPad,CuDef*%
G36*
G01*
X233800000Y-104800000D02*
X233800000Y-104100000D01*
G75*
G02*
X233950000Y-103950000I150000J0D01*
G01*
X235050000Y-103950000D01*
G75*
G02*
X235200000Y-104100000I0J-150000D01*
G01*
X235200000Y-104800000D01*
G75*
G02*
X235050000Y-104950000I-150000J0D01*
G01*
X233950000Y-104950000D01*
G75*
G02*
X233800000Y-104800000I0J150000D01*
G01*
G37*
%TD.AperFunction*%
%TO.P,Q1,2*%
%TO.N,GND*%
%TA.AperFunction,SMDPad,CuDef*%
G36*
G01*
X233800000Y-106700000D02*
X233800000Y-106000000D01*
G75*
G02*
X233950000Y-105850000I150000J0D01*
G01*
X235050000Y-105850000D01*
G75*
G02*
X235200000Y-106000000I0J-150000D01*
G01*
X235200000Y-106700000D01*
G75*
G02*
X235050000Y-106850000I-150000J0D01*
G01*
X233950000Y-106850000D01*
G75*
G02*
X233800000Y-106700000I0J150000D01*
G01*
G37*
%TD.AperFunction*%
%TO.P,Q1,3*%
%TO.N,Net-(Q1-Pad3)*%
%TA.AperFunction,SMDPad,CuDef*%
G36*
G01*
X236000000Y-105750000D02*
X236000000Y-105050000D01*
G75*
G02*
X236150000Y-104900000I150000J0D01*
G01*
X237250000Y-104900000D01*
G75*
G02*
X237400000Y-105050000I0J-150000D01*
G01*
X237400000Y-105750000D01*
G75*
G02*
X237250000Y-105900000I-150000J0D01*
G01*
X236150000Y-105900000D01*
G75*
G02*
X236000000Y-105750000I0J150000D01*
G01*
G37*
%TD.AperFunction*%
%TD*%
%TO.P,Q2,3*%
%TO.N,Net-(Q2-Pad3)*%
%TA.AperFunction,SMDPad,CuDef*%
G36*
G01*
X200500000Y-105750000D02*
X200500000Y-105050000D01*
G75*
G02*
X200650000Y-104900000I150000J0D01*
G01*
X201750000Y-104900000D01*
G75*
G02*
X201900000Y-105050000I0J-150000D01*
G01*
X201900000Y-105750000D01*
G75*
G02*
X201750000Y-105900000I-150000J0D01*
G01*
X200650000Y-105900000D01*
G75*
G02*
X200500000Y-105750000I0J150000D01*
G01*
G37*
%TD.AperFunction*%
%TO.P,Q2,2*%
%TO.N,GND*%
%TA.AperFunction,SMDPad,CuDef*%
G36*
G01*
X198300000Y-106700000D02*
X198300000Y-106000000D01*
G75*
G02*
X198450000Y-105850000I150000J0D01*
G01*
X199550000Y-105850000D01*
G75*
G02*
X199700000Y-106000000I0J-150000D01*
G01*
X199700000Y-106700000D01*
G75*
G02*
X199550000Y-106850000I-150000J0D01*
G01*
X198450000Y-106850000D01*
G75*
G02*
X198300000Y-106700000I0J150000D01*
G01*
G37*
%TD.AperFunction*%
%TO.P,Q2,1*%
%TO.N,Net-(Q2-Pad1)*%
%TA.AperFunction,SMDPad,CuDef*%
G36*
G01*
X198300000Y-104800000D02*
X198300000Y-104100000D01*
G75*
G02*
X198450000Y-103950000I150000J0D01*
G01*
X199550000Y-103950000D01*
G75*
G02*
X199700000Y-104100000I0J-150000D01*
G01*
X199700000Y-104800000D01*
G75*
G02*
X199550000Y-104950000I-150000J0D01*
G01*
X198450000Y-104950000D01*
G75*
G02*
X198300000Y-104800000I0J150000D01*
G01*
G37*
%TD.AperFunction*%
%TD*%
%TO.P,Q3,3*%
%TO.N,Net-(Q3-Pad3)*%
%TA.AperFunction,SMDPad,CuDef*%
G36*
G01*
X165000000Y-105750000D02*
X165000000Y-105050000D01*
G75*
G02*
X165150000Y-104900000I150000J0D01*
G01*
X166250000Y-104900000D01*
G75*
G02*
X166400000Y-105050000I0J-150000D01*
G01*
X166400000Y-105750000D01*
G75*
G02*
X166250000Y-105900000I-150000J0D01*
G01*
X165150000Y-105900000D01*
G75*
G02*
X165000000Y-105750000I0J150000D01*
G01*
G37*
%TD.AperFunction*%
%TO.P,Q3,2*%
%TO.N,GND*%
%TA.AperFunction,SMDPad,CuDef*%
G36*
G01*
X162800000Y-106700000D02*
X162800000Y-106000000D01*
G75*
G02*
X162950000Y-105850000I150000J0D01*
G01*
X164050000Y-105850000D01*
G75*
G02*
X164200000Y-106000000I0J-150000D01*
G01*
X164200000Y-106700000D01*
G75*
G02*
X164050000Y-106850000I-150000J0D01*
G01*
X162950000Y-106850000D01*
G75*
G02*
X162800000Y-106700000I0J150000D01*
G01*
G37*
%TD.AperFunction*%
%TO.P,Q3,1*%
%TO.N,Net-(Q3-Pad1)*%
%TA.AperFunction,SMDPad,CuDef*%
G36*
G01*
X162800000Y-104800000D02*
X162800000Y-104100000D01*
G75*
G02*
X162950000Y-103950000I150000J0D01*
G01*
X164050000Y-103950000D01*
G75*
G02*
X164200000Y-104100000I0J-150000D01*
G01*
X164200000Y-104800000D01*
G75*
G02*
X164050000Y-104950000I-150000J0D01*
G01*
X162950000Y-104950000D01*
G75*
G02*
X162800000Y-104800000I0J150000D01*
G01*
G37*
%TD.AperFunction*%
%TD*%
%TO.P,Q4,1*%
%TO.N,Net-(Q4-Pad1)*%
%TA.AperFunction,SMDPad,CuDef*%
G36*
G01*
X127300000Y-104800000D02*
X127300000Y-104100000D01*
G75*
G02*
X127450000Y-103950000I150000J0D01*
G01*
X128550000Y-103950000D01*
G75*
G02*
X128700000Y-104100000I0J-150000D01*
G01*
X128700000Y-104800000D01*
G75*
G02*
X128550000Y-104950000I-150000J0D01*
G01*
X127450000Y-104950000D01*
G75*
G02*
X127300000Y-104800000I0J150000D01*
G01*
G37*
%TD.AperFunction*%
%TO.P,Q4,2*%
%TO.N,GND*%
%TA.AperFunction,SMDPad,CuDef*%
G36*
G01*
X127300000Y-106700000D02*
X127300000Y-106000000D01*
G75*
G02*
X127450000Y-105850000I150000J0D01*
G01*
X128550000Y-105850000D01*
G75*
G02*
X128700000Y-106000000I0J-150000D01*
G01*
X128700000Y-106700000D01*
G75*
G02*
X128550000Y-106850000I-150000J0D01*
G01*
X127450000Y-106850000D01*
G75*
G02*
X127300000Y-106700000I0J150000D01*
G01*
G37*
%TD.AperFunction*%
%TO.P,Q4,3*%
%TO.N,Net-(Q4-Pad3)*%
%TA.AperFunction,SMDPad,CuDef*%
G36*
G01*
X129500000Y-105750000D02*
X129500000Y-105050000D01*
G75*
G02*
X129650000Y-104900000I150000J0D01*
G01*
X130750000Y-104900000D01*
G75*
G02*
X130900000Y-105050000I0J-150000D01*
G01*
X130900000Y-105750000D01*
G75*
G02*
X130750000Y-105900000I-150000J0D01*
G01*
X129650000Y-105900000D01*
G75*
G02*
X129500000Y-105750000I0J150000D01*
G01*
G37*
%TD.AperFunction*%
%TD*%
%TO.P,R1,2*%
%TO.N,+3V3*%
%TA.AperFunction,SMDPad,CuDef*%
G36*
G01*
X117175000Y-107800000D02*
X116425000Y-107800000D01*
G75*
G02*
X116350000Y-107725000I0J75000D01*
G01*
X116350000Y-107375000D01*
G75*
G02*
X116425000Y-107300000I75000J0D01*
G01*
X117175000Y-107300000D01*
G75*
G02*
X117250000Y-107375000I0J-75000D01*
G01*
X117250000Y-107725000D01*
G75*
G02*
X117175000Y-107800000I-75000J0D01*
G01*
G37*
%TD.AperFunction*%
%TO.P,R1,1*%
%TO.N,BT_BROWSE*%
%TA.AperFunction,SMDPad,CuDef*%
G36*
G01*
X117175000Y-109300000D02*
X116425000Y-109300000D01*
G75*
G02*
X116350000Y-109225000I0J75000D01*
G01*
X116350000Y-108875000D01*
G75*
G02*
X116425000Y-108800000I75000J0D01*
G01*
X117175000Y-108800000D01*
G75*
G02*
X117250000Y-108875000I0J-75000D01*
G01*
X117250000Y-109225000D01*
G75*
G02*
X117175000Y-109300000I-75000J0D01*
G01*
G37*
%TD.AperFunction*%
%TD*%
%TO.P,R2,1*%
%TO.N,MENU_TAGLIST*%
%TA.AperFunction,SMDPad,CuDef*%
G36*
G01*
X116425000Y-110800000D02*
X117175000Y-110800000D01*
G75*
G02*
X117250000Y-110875000I0J-75000D01*
G01*
X117250000Y-111225000D01*
G75*
G02*
X117175000Y-111300000I-75000J0D01*
G01*
X116425000Y-111300000D01*
G75*
G02*
X116350000Y-111225000I0J75000D01*
G01*
X116350000Y-110875000D01*
G75*
G02*
X116425000Y-110800000I75000J0D01*
G01*
G37*
%TD.AperFunction*%
%TO.P,R2,2*%
%TO.N,+3V3*%
%TA.AperFunction,SMDPad,CuDef*%
G36*
G01*
X116425000Y-112300000D02*
X117175000Y-112300000D01*
G75*
G02*
X117250000Y-112375000I0J-75000D01*
G01*
X117250000Y-112725000D01*
G75*
G02*
X117175000Y-112800000I-75000J0D01*
G01*
X116425000Y-112800000D01*
G75*
G02*
X116350000Y-112725000I0J75000D01*
G01*
X116350000Y-112375000D01*
G75*
G02*
X116425000Y-112300000I75000J0D01*
G01*
G37*
%TD.AperFunction*%
%TD*%
%TO.P,R3,1*%
%TO.N,Net-(Q1-Pad1)*%
%TA.AperFunction,SMDPad,CuDef*%
G36*
G01*
X233075000Y-104000000D02*
X232325000Y-104000000D01*
G75*
G02*
X232250000Y-103925000I0J75000D01*
G01*
X232250000Y-103575000D01*
G75*
G02*
X232325000Y-103500000I75000J0D01*
G01*
X233075000Y-103500000D01*
G75*
G02*
X233150000Y-103575000I0J-75000D01*
G01*
X233150000Y-103925000D01*
G75*
G02*
X233075000Y-104000000I-75000J0D01*
G01*
G37*
%TD.AperFunction*%
%TO.P,R3,2*%
%TO.N,LED_BROWSE*%
%TA.AperFunction,SMDPad,CuDef*%
G36*
G01*
X233075000Y-102500000D02*
X232325000Y-102500000D01*
G75*
G02*
X232250000Y-102425000I0J75000D01*
G01*
X232250000Y-102075000D01*
G75*
G02*
X232325000Y-102000000I75000J0D01*
G01*
X233075000Y-102000000D01*
G75*
G02*
X233150000Y-102075000I0J-75000D01*
G01*
X233150000Y-102425000D01*
G75*
G02*
X233075000Y-102500000I-75000J0D01*
G01*
G37*
%TD.AperFunction*%
%TD*%
%TO.P,R4,1*%
%TO.N,GND*%
%TA.AperFunction,SMDPad,CuDef*%
G36*
G01*
X233075000Y-106600000D02*
X232325000Y-106600000D01*
G75*
G02*
X232250000Y-106525000I0J75000D01*
G01*
X232250000Y-106175000D01*
G75*
G02*
X232325000Y-106100000I75000J0D01*
G01*
X233075000Y-106100000D01*
G75*
G02*
X233150000Y-106175000I0J-75000D01*
G01*
X233150000Y-106525000D01*
G75*
G02*
X233075000Y-106600000I-75000J0D01*
G01*
G37*
%TD.AperFunction*%
%TO.P,R4,2*%
%TO.N,Net-(Q1-Pad1)*%
%TA.AperFunction,SMDPad,CuDef*%
G36*
G01*
X233075000Y-105100000D02*
X232325000Y-105100000D01*
G75*
G02*
X232250000Y-105025000I0J75000D01*
G01*
X232250000Y-104675000D01*
G75*
G02*
X232325000Y-104600000I75000J0D01*
G01*
X233075000Y-104600000D01*
G75*
G02*
X233150000Y-104675000I0J-75000D01*
G01*
X233150000Y-105025000D01*
G75*
G02*
X233075000Y-105100000I-75000J0D01*
G01*
G37*
%TD.AperFunction*%
%TD*%
%TO.P,R5,1*%
%TO.N,BT_INFO*%
%TA.AperFunction,SMDPad,CuDef*%
G36*
G01*
X121425000Y-111400000D02*
X122175000Y-111400000D01*
G75*
G02*
X122250000Y-111475000I0J-75000D01*
G01*
X122250000Y-111825000D01*
G75*
G02*
X122175000Y-111900000I-75000J0D01*
G01*
X121425000Y-111900000D01*
G75*
G02*
X121350000Y-111825000I0J75000D01*
G01*
X121350000Y-111475000D01*
G75*
G02*
X121425000Y-111400000I75000J0D01*
G01*
G37*
%TD.AperFunction*%
%TO.P,R5,2*%
%TO.N,+3V3*%
%TA.AperFunction,SMDPad,CuDef*%
G36*
G01*
X121425000Y-112900000D02*
X122175000Y-112900000D01*
G75*
G02*
X122250000Y-112975000I0J-75000D01*
G01*
X122250000Y-113325000D01*
G75*
G02*
X122175000Y-113400000I-75000J0D01*
G01*
X121425000Y-113400000D01*
G75*
G02*
X121350000Y-113325000I0J75000D01*
G01*
X121350000Y-112975000D01*
G75*
G02*
X121425000Y-112900000I75000J0D01*
G01*
G37*
%TD.AperFunction*%
%TD*%
%TO.P,R6,2*%
%TO.N,Net-(Q1-Pad3)*%
%TA.AperFunction,SMDPad,CuDef*%
G36*
G01*
X238875000Y-106100000D02*
X238125000Y-106100000D01*
G75*
G02*
X238050000Y-106025000I0J75000D01*
G01*
X238050000Y-105675000D01*
G75*
G02*
X238125000Y-105600000I75000J0D01*
G01*
X238875000Y-105600000D01*
G75*
G02*
X238950000Y-105675000I0J-75000D01*
G01*
X238950000Y-106025000D01*
G75*
G02*
X238875000Y-106100000I-75000J0D01*
G01*
G37*
%TD.AperFunction*%
%TO.P,R6,1*%
%TO.N,Net-(D2-Pad1)*%
%TA.AperFunction,SMDPad,CuDef*%
G36*
G01*
X238875000Y-107600000D02*
X238125000Y-107600000D01*
G75*
G02*
X238050000Y-107525000I0J75000D01*
G01*
X238050000Y-107175000D01*
G75*
G02*
X238125000Y-107100000I75000J0D01*
G01*
X238875000Y-107100000D01*
G75*
G02*
X238950000Y-107175000I0J-75000D01*
G01*
X238950000Y-107525000D01*
G75*
G02*
X238875000Y-107600000I-75000J0D01*
G01*
G37*
%TD.AperFunction*%
%TD*%
%TO.P,R7,1*%
%TO.N,Net-(D1-Pad2)*%
%TA.AperFunction,SMDPad,CuDef*%
G36*
G01*
X226725000Y-108600000D02*
X227475000Y-108600000D01*
G75*
G02*
X227550000Y-108675000I0J-75000D01*
G01*
X227550000Y-109025000D01*
G75*
G02*
X227475000Y-109100000I-75000J0D01*
G01*
X226725000Y-109100000D01*
G75*
G02*
X226650000Y-109025000I0J75000D01*
G01*
X226650000Y-108675000D01*
G75*
G02*
X226725000Y-108600000I75000J0D01*
G01*
G37*
%TD.AperFunction*%
%TO.P,R7,2*%
%TO.N,+8V*%
%TA.AperFunction,SMDPad,CuDef*%
G36*
G01*
X226725000Y-110100000D02*
X227475000Y-110100000D01*
G75*
G02*
X227550000Y-110175000I0J-75000D01*
G01*
X227550000Y-110525000D01*
G75*
G02*
X227475000Y-110600000I-75000J0D01*
G01*
X226725000Y-110600000D01*
G75*
G02*
X226650000Y-110525000I0J75000D01*
G01*
X226650000Y-110175000D01*
G75*
G02*
X226725000Y-110100000I75000J0D01*
G01*
G37*
%TD.AperFunction*%
%TD*%
%TO.P,R8,1*%
%TO.N,GND*%
%TA.AperFunction,SMDPad,CuDef*%
G36*
G01*
X234800000Y-108775000D02*
X234800000Y-108025000D01*
G75*
G02*
X234875000Y-107950000I75000J0D01*
G01*
X235225000Y-107950000D01*
G75*
G02*
X235300000Y-108025000I0J-75000D01*
G01*
X235300000Y-108775000D01*
G75*
G02*
X235225000Y-108850000I-75000J0D01*
G01*
X234875000Y-108850000D01*
G75*
G02*
X234800000Y-108775000I0J75000D01*
G01*
G37*
%TD.AperFunction*%
%TO.P,R8,2*%
%TO.N,Net-(D2-Pad1)*%
%TA.AperFunction,SMDPad,CuDef*%
G36*
G01*
X236300000Y-108775000D02*
X236300000Y-108025000D01*
G75*
G02*
X236375000Y-107950000I75000J0D01*
G01*
X236725000Y-107950000D01*
G75*
G02*
X236800000Y-108025000I0J-75000D01*
G01*
X236800000Y-108775000D01*
G75*
G02*
X236725000Y-108850000I-75000J0D01*
G01*
X236375000Y-108850000D01*
G75*
G02*
X236300000Y-108775000I0J75000D01*
G01*
G37*
%TD.AperFunction*%
%TD*%
%TO.P,R9,1*%
%TO.N,BT_MENU*%
%TA.AperFunction,SMDPad,CuDef*%
G36*
G01*
X126400000Y-112425000D02*
X126400000Y-113175000D01*
G75*
G02*
X126325000Y-113250000I-75000J0D01*
G01*
X125975000Y-113250000D01*
G75*
G02*
X125900000Y-113175000I0J75000D01*
G01*
X125900000Y-112425000D01*
G75*
G02*
X125975000Y-112350000I75000J0D01*
G01*
X126325000Y-112350000D01*
G75*
G02*
X126400000Y-112425000I0J-75000D01*
G01*
G37*
%TD.AperFunction*%
%TO.P,R9,2*%
%TO.N,+3V3*%
%TA.AperFunction,SMDPad,CuDef*%
G36*
G01*
X124900000Y-112425000D02*
X124900000Y-113175000D01*
G75*
G02*
X124825000Y-113250000I-75000J0D01*
G01*
X124475000Y-113250000D01*
G75*
G02*
X124400000Y-113175000I0J75000D01*
G01*
X124400000Y-112425000D01*
G75*
G02*
X124475000Y-112350000I75000J0D01*
G01*
X124825000Y-112350000D01*
G75*
G02*
X124900000Y-112425000I0J-75000D01*
G01*
G37*
%TD.AperFunction*%
%TD*%
%TO.P,R10,2*%
%TO.N,+8V*%
%TA.AperFunction,SMDPad,CuDef*%
G36*
G01*
X239900000Y-109225000D02*
X239900000Y-109975000D01*
G75*
G02*
X239825000Y-110050000I-75000J0D01*
G01*
X239475000Y-110050000D01*
G75*
G02*
X239400000Y-109975000I0J75000D01*
G01*
X239400000Y-109225000D01*
G75*
G02*
X239475000Y-109150000I75000J0D01*
G01*
X239825000Y-109150000D01*
G75*
G02*
X239900000Y-109225000I0J-75000D01*
G01*
G37*
%TD.AperFunction*%
%TO.P,R10,1*%
%TO.N,Net-(D3-Pad2)*%
%TA.AperFunction,SMDPad,CuDef*%
G36*
G01*
X241400000Y-109225000D02*
X241400000Y-109975000D01*
G75*
G02*
X241325000Y-110050000I-75000J0D01*
G01*
X240975000Y-110050000D01*
G75*
G02*
X240900000Y-109975000I0J75000D01*
G01*
X240900000Y-109225000D01*
G75*
G02*
X240975000Y-109150000I75000J0D01*
G01*
X241325000Y-109150000D01*
G75*
G02*
X241400000Y-109225000I0J-75000D01*
G01*
G37*
%TD.AperFunction*%
%TD*%
%TO.P,R11,2*%
%TO.N,LED_TAGLIST*%
%TA.AperFunction,SMDPad,CuDef*%
G36*
G01*
X197575000Y-102500000D02*
X196825000Y-102500000D01*
G75*
G02*
X196750000Y-102425000I0J75000D01*
G01*
X196750000Y-102075000D01*
G75*
G02*
X196825000Y-102000000I75000J0D01*
G01*
X197575000Y-102000000D01*
G75*
G02*
X197650000Y-102075000I0J-75000D01*
G01*
X197650000Y-102425000D01*
G75*
G02*
X197575000Y-102500000I-75000J0D01*
G01*
G37*
%TD.AperFunction*%
%TO.P,R11,1*%
%TO.N,Net-(Q2-Pad1)*%
%TA.AperFunction,SMDPad,CuDef*%
G36*
G01*
X197575000Y-104000000D02*
X196825000Y-104000000D01*
G75*
G02*
X196750000Y-103925000I0J75000D01*
G01*
X196750000Y-103575000D01*
G75*
G02*
X196825000Y-103500000I75000J0D01*
G01*
X197575000Y-103500000D01*
G75*
G02*
X197650000Y-103575000I0J-75000D01*
G01*
X197650000Y-103925000D01*
G75*
G02*
X197575000Y-104000000I-75000J0D01*
G01*
G37*
%TD.AperFunction*%
%TD*%
%TO.P,R12,2*%
%TO.N,Net-(Q2-Pad1)*%
%TA.AperFunction,SMDPad,CuDef*%
G36*
G01*
X197575000Y-105100000D02*
X196825000Y-105100000D01*
G75*
G02*
X196750000Y-105025000I0J75000D01*
G01*
X196750000Y-104675000D01*
G75*
G02*
X196825000Y-104600000I75000J0D01*
G01*
X197575000Y-104600000D01*
G75*
G02*
X197650000Y-104675000I0J-75000D01*
G01*
X197650000Y-105025000D01*
G75*
G02*
X197575000Y-105100000I-75000J0D01*
G01*
G37*
%TD.AperFunction*%
%TO.P,R12,1*%
%TO.N,GND*%
%TA.AperFunction,SMDPad,CuDef*%
G36*
G01*
X197575000Y-106600000D02*
X196825000Y-106600000D01*
G75*
G02*
X196750000Y-106525000I0J75000D01*
G01*
X196750000Y-106175000D01*
G75*
G02*
X196825000Y-106100000I75000J0D01*
G01*
X197575000Y-106100000D01*
G75*
G02*
X197650000Y-106175000I0J-75000D01*
G01*
X197650000Y-106525000D01*
G75*
G02*
X197575000Y-106600000I-75000J0D01*
G01*
G37*
%TD.AperFunction*%
%TD*%
%TO.P,R13,1*%
%TO.N,BT_BACK*%
%TA.AperFunction,SMDPad,CuDef*%
G36*
G01*
X102175000Y-103800000D02*
X101425000Y-103800000D01*
G75*
G02*
X101350000Y-103725000I0J75000D01*
G01*
X101350000Y-103375000D01*
G75*
G02*
X101425000Y-103300000I75000J0D01*
G01*
X102175000Y-103300000D01*
G75*
G02*
X102250000Y-103375000I0J-75000D01*
G01*
X102250000Y-103725000D01*
G75*
G02*
X102175000Y-103800000I-75000J0D01*
G01*
G37*
%TD.AperFunction*%
%TO.P,R13,2*%
%TO.N,+3V3*%
%TA.AperFunction,SMDPad,CuDef*%
G36*
G01*
X102175000Y-102300000D02*
X101425000Y-102300000D01*
G75*
G02*
X101350000Y-102225000I0J75000D01*
G01*
X101350000Y-101875000D01*
G75*
G02*
X101425000Y-101800000I75000J0D01*
G01*
X102175000Y-101800000D01*
G75*
G02*
X102250000Y-101875000I0J-75000D01*
G01*
X102250000Y-102225000D01*
G75*
G02*
X102175000Y-102300000I-75000J0D01*
G01*
G37*
%TD.AperFunction*%
%TD*%
%TO.P,R14,2*%
%TO.N,Net-(Q2-Pad3)*%
%TA.AperFunction,SMDPad,CuDef*%
G36*
G01*
X203375000Y-106100000D02*
X202625000Y-106100000D01*
G75*
G02*
X202550000Y-106025000I0J75000D01*
G01*
X202550000Y-105675000D01*
G75*
G02*
X202625000Y-105600000I75000J0D01*
G01*
X203375000Y-105600000D01*
G75*
G02*
X203450000Y-105675000I0J-75000D01*
G01*
X203450000Y-106025000D01*
G75*
G02*
X203375000Y-106100000I-75000J0D01*
G01*
G37*
%TD.AperFunction*%
%TO.P,R14,1*%
%TO.N,Net-(D6-Pad1)*%
%TA.AperFunction,SMDPad,CuDef*%
G36*
G01*
X203375000Y-107600000D02*
X202625000Y-107600000D01*
G75*
G02*
X202550000Y-107525000I0J75000D01*
G01*
X202550000Y-107175000D01*
G75*
G02*
X202625000Y-107100000I75000J0D01*
G01*
X203375000Y-107100000D01*
G75*
G02*
X203450000Y-107175000I0J-75000D01*
G01*
X203450000Y-107525000D01*
G75*
G02*
X203375000Y-107600000I-75000J0D01*
G01*
G37*
%TD.AperFunction*%
%TD*%
%TO.P,R15,2*%
%TO.N,+8V*%
%TA.AperFunction,SMDPad,CuDef*%
G36*
G01*
X191225000Y-110100000D02*
X191975000Y-110100000D01*
G75*
G02*
X192050000Y-110175000I0J-75000D01*
G01*
X192050000Y-110525000D01*
G75*
G02*
X191975000Y-110600000I-75000J0D01*
G01*
X191225000Y-110600000D01*
G75*
G02*
X191150000Y-110525000I0J75000D01*
G01*
X191150000Y-110175000D01*
G75*
G02*
X191225000Y-110100000I75000J0D01*
G01*
G37*
%TD.AperFunction*%
%TO.P,R15,1*%
%TO.N,Net-(D5-Pad2)*%
%TA.AperFunction,SMDPad,CuDef*%
G36*
G01*
X191225000Y-108600000D02*
X191975000Y-108600000D01*
G75*
G02*
X192050000Y-108675000I0J-75000D01*
G01*
X192050000Y-109025000D01*
G75*
G02*
X191975000Y-109100000I-75000J0D01*
G01*
X191225000Y-109100000D01*
G75*
G02*
X191150000Y-109025000I0J75000D01*
G01*
X191150000Y-108675000D01*
G75*
G02*
X191225000Y-108600000I75000J0D01*
G01*
G37*
%TD.AperFunction*%
%TD*%
%TO.P,R16,2*%
%TO.N,Net-(D6-Pad1)*%
%TA.AperFunction,SMDPad,CuDef*%
G36*
G01*
X200800000Y-108775000D02*
X200800000Y-108025000D01*
G75*
G02*
X200875000Y-107950000I75000J0D01*
G01*
X201225000Y-107950000D01*
G75*
G02*
X201300000Y-108025000I0J-75000D01*
G01*
X201300000Y-108775000D01*
G75*
G02*
X201225000Y-108850000I-75000J0D01*
G01*
X200875000Y-108850000D01*
G75*
G02*
X200800000Y-108775000I0J75000D01*
G01*
G37*
%TD.AperFunction*%
%TO.P,R16,1*%
%TO.N,GND*%
%TA.AperFunction,SMDPad,CuDef*%
G36*
G01*
X199300000Y-108775000D02*
X199300000Y-108025000D01*
G75*
G02*
X199375000Y-107950000I75000J0D01*
G01*
X199725000Y-107950000D01*
G75*
G02*
X199800000Y-108025000I0J-75000D01*
G01*
X199800000Y-108775000D01*
G75*
G02*
X199725000Y-108850000I-75000J0D01*
G01*
X199375000Y-108850000D01*
G75*
G02*
X199300000Y-108775000I0J75000D01*
G01*
G37*
%TD.AperFunction*%
%TD*%
%TO.P,R17,2*%
%TO.N,+8V*%
%TA.AperFunction,SMDPad,CuDef*%
G36*
G01*
X211625000Y-110100000D02*
X212375000Y-110100000D01*
G75*
G02*
X212450000Y-110175000I0J-75000D01*
G01*
X212450000Y-110525000D01*
G75*
G02*
X212375000Y-110600000I-75000J0D01*
G01*
X211625000Y-110600000D01*
G75*
G02*
X211550000Y-110525000I0J75000D01*
G01*
X211550000Y-110175000D01*
G75*
G02*
X211625000Y-110100000I75000J0D01*
G01*
G37*
%TD.AperFunction*%
%TO.P,R17,1*%
%TO.N,Net-(D7-Pad2)*%
%TA.AperFunction,SMDPad,CuDef*%
G36*
G01*
X211625000Y-108600000D02*
X212375000Y-108600000D01*
G75*
G02*
X212450000Y-108675000I0J-75000D01*
G01*
X212450000Y-109025000D01*
G75*
G02*
X212375000Y-109100000I-75000J0D01*
G01*
X211625000Y-109100000D01*
G75*
G02*
X211550000Y-109025000I0J75000D01*
G01*
X211550000Y-108675000D01*
G75*
G02*
X211625000Y-108600000I75000J0D01*
G01*
G37*
%TD.AperFunction*%
%TD*%
%TO.P,R18,1*%
%TO.N,BT_TAG*%
%TA.AperFunction,SMDPad,CuDef*%
G36*
G01*
X83600000Y-105875000D02*
X83600000Y-105125000D01*
G75*
G02*
X83675000Y-105050000I75000J0D01*
G01*
X84025000Y-105050000D01*
G75*
G02*
X84100000Y-105125000I0J-75000D01*
G01*
X84100000Y-105875000D01*
G75*
G02*
X84025000Y-105950000I-75000J0D01*
G01*
X83675000Y-105950000D01*
G75*
G02*
X83600000Y-105875000I0J75000D01*
G01*
G37*
%TD.AperFunction*%
%TO.P,R18,2*%
%TO.N,+3V3*%
%TA.AperFunction,SMDPad,CuDef*%
G36*
G01*
X85100000Y-105875000D02*
X85100000Y-105125000D01*
G75*
G02*
X85175000Y-105050000I75000J0D01*
G01*
X85525000Y-105050000D01*
G75*
G02*
X85600000Y-105125000I0J-75000D01*
G01*
X85600000Y-105875000D01*
G75*
G02*
X85525000Y-105950000I-75000J0D01*
G01*
X85175000Y-105950000D01*
G75*
G02*
X85100000Y-105875000I0J75000D01*
G01*
G37*
%TD.AperFunction*%
%TD*%
%TO.P,R19,2*%
%TO.N,LED_INFO*%
%TA.AperFunction,SMDPad,CuDef*%
G36*
G01*
X162075000Y-102500000D02*
X161325000Y-102500000D01*
G75*
G02*
X161250000Y-102425000I0J75000D01*
G01*
X161250000Y-102075000D01*
G75*
G02*
X161325000Y-102000000I75000J0D01*
G01*
X162075000Y-102000000D01*
G75*
G02*
X162150000Y-102075000I0J-75000D01*
G01*
X162150000Y-102425000D01*
G75*
G02*
X162075000Y-102500000I-75000J0D01*
G01*
G37*
%TD.AperFunction*%
%TO.P,R19,1*%
%TO.N,Net-(Q3-Pad1)*%
%TA.AperFunction,SMDPad,CuDef*%
G36*
G01*
X162075000Y-104000000D02*
X161325000Y-104000000D01*
G75*
G02*
X161250000Y-103925000I0J75000D01*
G01*
X161250000Y-103575000D01*
G75*
G02*
X161325000Y-103500000I75000J0D01*
G01*
X162075000Y-103500000D01*
G75*
G02*
X162150000Y-103575000I0J-75000D01*
G01*
X162150000Y-103925000D01*
G75*
G02*
X162075000Y-104000000I-75000J0D01*
G01*
G37*
%TD.AperFunction*%
%TD*%
%TO.P,R20,1*%
%TO.N,GND*%
%TA.AperFunction,SMDPad,CuDef*%
G36*
G01*
X162075000Y-106600000D02*
X161325000Y-106600000D01*
G75*
G02*
X161250000Y-106525000I0J75000D01*
G01*
X161250000Y-106175000D01*
G75*
G02*
X161325000Y-106100000I75000J0D01*
G01*
X162075000Y-106100000D01*
G75*
G02*
X162150000Y-106175000I0J-75000D01*
G01*
X162150000Y-106525000D01*
G75*
G02*
X162075000Y-106600000I-75000J0D01*
G01*
G37*
%TD.AperFunction*%
%TO.P,R20,2*%
%TO.N,Net-(Q3-Pad1)*%
%TA.AperFunction,SMDPad,CuDef*%
G36*
G01*
X162075000Y-105100000D02*
X161325000Y-105100000D01*
G75*
G02*
X161250000Y-105025000I0J75000D01*
G01*
X161250000Y-104675000D01*
G75*
G02*
X161325000Y-104600000I75000J0D01*
G01*
X162075000Y-104600000D01*
G75*
G02*
X162150000Y-104675000I0J-75000D01*
G01*
X162150000Y-105025000D01*
G75*
G02*
X162075000Y-105100000I-75000J0D01*
G01*
G37*
%TD.AperFunction*%
%TD*%
%TO.P,R21,1*%
%TO.N,Net-(D10-Pad1)*%
%TA.AperFunction,SMDPad,CuDef*%
G36*
G01*
X167875000Y-107600000D02*
X167125000Y-107600000D01*
G75*
G02*
X167050000Y-107525000I0J75000D01*
G01*
X167050000Y-107175000D01*
G75*
G02*
X167125000Y-107100000I75000J0D01*
G01*
X167875000Y-107100000D01*
G75*
G02*
X167950000Y-107175000I0J-75000D01*
G01*
X167950000Y-107525000D01*
G75*
G02*
X167875000Y-107600000I-75000J0D01*
G01*
G37*
%TD.AperFunction*%
%TO.P,R21,2*%
%TO.N,Net-(Q3-Pad3)*%
%TA.AperFunction,SMDPad,CuDef*%
G36*
G01*
X167875000Y-106100000D02*
X167125000Y-106100000D01*
G75*
G02*
X167050000Y-106025000I0J75000D01*
G01*
X167050000Y-105675000D01*
G75*
G02*
X167125000Y-105600000I75000J0D01*
G01*
X167875000Y-105600000D01*
G75*
G02*
X167950000Y-105675000I0J-75000D01*
G01*
X167950000Y-106025000D01*
G75*
G02*
X167875000Y-106100000I-75000J0D01*
G01*
G37*
%TD.AperFunction*%
%TD*%
%TO.P,R22,2*%
%TO.N,+8V*%
%TA.AperFunction,SMDPad,CuDef*%
G36*
G01*
X155725000Y-110100000D02*
X156475000Y-110100000D01*
G75*
G02*
X156550000Y-110175000I0J-75000D01*
G01*
X156550000Y-110525000D01*
G75*
G02*
X156475000Y-110600000I-75000J0D01*
G01*
X155725000Y-110600000D01*
G75*
G02*
X155650000Y-110525000I0J75000D01*
G01*
X155650000Y-110175000D01*
G75*
G02*
X155725000Y-110100000I75000J0D01*
G01*
G37*
%TD.AperFunction*%
%TO.P,R22,1*%
%TO.N,Net-(D9-Pad2)*%
%TA.AperFunction,SMDPad,CuDef*%
G36*
G01*
X155725000Y-108600000D02*
X156475000Y-108600000D01*
G75*
G02*
X156550000Y-108675000I0J-75000D01*
G01*
X156550000Y-109025000D01*
G75*
G02*
X156475000Y-109100000I-75000J0D01*
G01*
X155725000Y-109100000D01*
G75*
G02*
X155650000Y-109025000I0J75000D01*
G01*
X155650000Y-108675000D01*
G75*
G02*
X155725000Y-108600000I75000J0D01*
G01*
G37*
%TD.AperFunction*%
%TD*%
%TO.P,R23,2*%
%TO.N,Net-(D10-Pad1)*%
%TA.AperFunction,SMDPad,CuDef*%
G36*
G01*
X165400000Y-108675000D02*
X165400000Y-107925000D01*
G75*
G02*
X165475000Y-107850000I75000J0D01*
G01*
X165825000Y-107850000D01*
G75*
G02*
X165900000Y-107925000I0J-75000D01*
G01*
X165900000Y-108675000D01*
G75*
G02*
X165825000Y-108750000I-75000J0D01*
G01*
X165475000Y-108750000D01*
G75*
G02*
X165400000Y-108675000I0J75000D01*
G01*
G37*
%TD.AperFunction*%
%TO.P,R23,1*%
%TO.N,GND*%
%TA.AperFunction,SMDPad,CuDef*%
G36*
G01*
X163900000Y-108675000D02*
X163900000Y-107925000D01*
G75*
G02*
X163975000Y-107850000I75000J0D01*
G01*
X164325000Y-107850000D01*
G75*
G02*
X164400000Y-107925000I0J-75000D01*
G01*
X164400000Y-108675000D01*
G75*
G02*
X164325000Y-108750000I-75000J0D01*
G01*
X163975000Y-108750000D01*
G75*
G02*
X163900000Y-108675000I0J75000D01*
G01*
G37*
%TD.AperFunction*%
%TD*%
%TO.P,R24,1*%
%TO.N,Net-(D11-Pad2)*%
%TA.AperFunction,SMDPad,CuDef*%
G36*
G01*
X176125000Y-108600000D02*
X176875000Y-108600000D01*
G75*
G02*
X176950000Y-108675000I0J-75000D01*
G01*
X176950000Y-109025000D01*
G75*
G02*
X176875000Y-109100000I-75000J0D01*
G01*
X176125000Y-109100000D01*
G75*
G02*
X176050000Y-109025000I0J75000D01*
G01*
X176050000Y-108675000D01*
G75*
G02*
X176125000Y-108600000I75000J0D01*
G01*
G37*
%TD.AperFunction*%
%TO.P,R24,2*%
%TO.N,+8V*%
%TA.AperFunction,SMDPad,CuDef*%
G36*
G01*
X176125000Y-110100000D02*
X176875000Y-110100000D01*
G75*
G02*
X176950000Y-110175000I0J-75000D01*
G01*
X176950000Y-110525000D01*
G75*
G02*
X176875000Y-110600000I-75000J0D01*
G01*
X176125000Y-110600000D01*
G75*
G02*
X176050000Y-110525000I0J75000D01*
G01*
X176050000Y-110175000D01*
G75*
G02*
X176125000Y-110100000I75000J0D01*
G01*
G37*
%TD.AperFunction*%
%TD*%
%TO.P,R25,2*%
%TO.N,LED_MENU*%
%TA.AperFunction,SMDPad,CuDef*%
G36*
G01*
X123600000Y-104525000D02*
X123600000Y-105275000D01*
G75*
G02*
X123525000Y-105350000I-75000J0D01*
G01*
X123175000Y-105350000D01*
G75*
G02*
X123100000Y-105275000I0J75000D01*
G01*
X123100000Y-104525000D01*
G75*
G02*
X123175000Y-104450000I75000J0D01*
G01*
X123525000Y-104450000D01*
G75*
G02*
X123600000Y-104525000I0J-75000D01*
G01*
G37*
%TD.AperFunction*%
%TO.P,R25,1*%
%TO.N,Net-(Q4-Pad1)*%
%TA.AperFunction,SMDPad,CuDef*%
G36*
G01*
X125100000Y-104525000D02*
X125100000Y-105275000D01*
G75*
G02*
X125025000Y-105350000I-75000J0D01*
G01*
X124675000Y-105350000D01*
G75*
G02*
X124600000Y-105275000I0J75000D01*
G01*
X124600000Y-104525000D01*
G75*
G02*
X124675000Y-104450000I75000J0D01*
G01*
X125025000Y-104450000D01*
G75*
G02*
X125100000Y-104525000I0J-75000D01*
G01*
G37*
%TD.AperFunction*%
%TD*%
%TO.P,R26,1*%
%TO.N,GND*%
%TA.AperFunction,SMDPad,CuDef*%
G36*
G01*
X126575000Y-106600000D02*
X125825000Y-106600000D01*
G75*
G02*
X125750000Y-106525000I0J75000D01*
G01*
X125750000Y-106175000D01*
G75*
G02*
X125825000Y-106100000I75000J0D01*
G01*
X126575000Y-106100000D01*
G75*
G02*
X126650000Y-106175000I0J-75000D01*
G01*
X126650000Y-106525000D01*
G75*
G02*
X126575000Y-106600000I-75000J0D01*
G01*
G37*
%TD.AperFunction*%
%TO.P,R26,2*%
%TO.N,Net-(Q4-Pad1)*%
%TA.AperFunction,SMDPad,CuDef*%
G36*
G01*
X126575000Y-105100000D02*
X125825000Y-105100000D01*
G75*
G02*
X125750000Y-105025000I0J75000D01*
G01*
X125750000Y-104675000D01*
G75*
G02*
X125825000Y-104600000I75000J0D01*
G01*
X126575000Y-104600000D01*
G75*
G02*
X126650000Y-104675000I0J-75000D01*
G01*
X126650000Y-105025000D01*
G75*
G02*
X126575000Y-105100000I-75000J0D01*
G01*
G37*
%TD.AperFunction*%
%TD*%
%TO.P,R27,2*%
%TO.N,Net-(Q4-Pad3)*%
%TA.AperFunction,SMDPad,CuDef*%
G36*
G01*
X132375000Y-106100000D02*
X131625000Y-106100000D01*
G75*
G02*
X131550000Y-106025000I0J75000D01*
G01*
X131550000Y-105675000D01*
G75*
G02*
X131625000Y-105600000I75000J0D01*
G01*
X132375000Y-105600000D01*
G75*
G02*
X132450000Y-105675000I0J-75000D01*
G01*
X132450000Y-106025000D01*
G75*
G02*
X132375000Y-106100000I-75000J0D01*
G01*
G37*
%TD.AperFunction*%
%TO.P,R27,1*%
%TO.N,Net-(D14-Pad1)*%
%TA.AperFunction,SMDPad,CuDef*%
G36*
G01*
X132375000Y-107600000D02*
X131625000Y-107600000D01*
G75*
G02*
X131550000Y-107525000I0J75000D01*
G01*
X131550000Y-107175000D01*
G75*
G02*
X131625000Y-107100000I75000J0D01*
G01*
X132375000Y-107100000D01*
G75*
G02*
X132450000Y-107175000I0J-75000D01*
G01*
X132450000Y-107525000D01*
G75*
G02*
X132375000Y-107600000I-75000J0D01*
G01*
G37*
%TD.AperFunction*%
%TD*%
%TO.P,R28,1*%
%TO.N,Net-(D13-Pad2)*%
%TA.AperFunction,SMDPad,CuDef*%
G36*
G01*
X119000000Y-107975000D02*
X119000000Y-107225000D01*
G75*
G02*
X119075000Y-107150000I75000J0D01*
G01*
X119425000Y-107150000D01*
G75*
G02*
X119500000Y-107225000I0J-75000D01*
G01*
X119500000Y-107975000D01*
G75*
G02*
X119425000Y-108050000I-75000J0D01*
G01*
X119075000Y-108050000D01*
G75*
G02*
X119000000Y-107975000I0J75000D01*
G01*
G37*
%TD.AperFunction*%
%TO.P,R28,2*%
%TO.N,+8V*%
%TA.AperFunction,SMDPad,CuDef*%
G36*
G01*
X120500000Y-107975000D02*
X120500000Y-107225000D01*
G75*
G02*
X120575000Y-107150000I75000J0D01*
G01*
X120925000Y-107150000D01*
G75*
G02*
X121000000Y-107225000I0J-75000D01*
G01*
X121000000Y-107975000D01*
G75*
G02*
X120925000Y-108050000I-75000J0D01*
G01*
X120575000Y-108050000D01*
G75*
G02*
X120500000Y-107975000I0J75000D01*
G01*
G37*
%TD.AperFunction*%
%TD*%
%TO.P,R29,2*%
%TO.N,Net-(D14-Pad1)*%
%TA.AperFunction,SMDPad,CuDef*%
G36*
G01*
X128800000Y-108275000D02*
X128800000Y-107525000D01*
G75*
G02*
X128875000Y-107450000I75000J0D01*
G01*
X129225000Y-107450000D01*
G75*
G02*
X129300000Y-107525000I0J-75000D01*
G01*
X129300000Y-108275000D01*
G75*
G02*
X129225000Y-108350000I-75000J0D01*
G01*
X128875000Y-108350000D01*
G75*
G02*
X128800000Y-108275000I0J75000D01*
G01*
G37*
%TD.AperFunction*%
%TO.P,R29,1*%
%TO.N,GND*%
%TA.AperFunction,SMDPad,CuDef*%
G36*
G01*
X127300000Y-108275000D02*
X127300000Y-107525000D01*
G75*
G02*
X127375000Y-107450000I75000J0D01*
G01*
X127725000Y-107450000D01*
G75*
G02*
X127800000Y-107525000I0J-75000D01*
G01*
X127800000Y-108275000D01*
G75*
G02*
X127725000Y-108350000I-75000J0D01*
G01*
X127375000Y-108350000D01*
G75*
G02*
X127300000Y-108275000I0J75000D01*
G01*
G37*
%TD.AperFunction*%
%TD*%
%TO.P,R30,1*%
%TO.N,Net-(D15-Pad2)*%
%TA.AperFunction,SMDPad,CuDef*%
G36*
G01*
X140625000Y-108600000D02*
X141375000Y-108600000D01*
G75*
G02*
X141450000Y-108675000I0J-75000D01*
G01*
X141450000Y-109025000D01*
G75*
G02*
X141375000Y-109100000I-75000J0D01*
G01*
X140625000Y-109100000D01*
G75*
G02*
X140550000Y-109025000I0J75000D01*
G01*
X140550000Y-108675000D01*
G75*
G02*
X140625000Y-108600000I75000J0D01*
G01*
G37*
%TD.AperFunction*%
%TO.P,R30,2*%
%TO.N,+8V*%
%TA.AperFunction,SMDPad,CuDef*%
G36*
G01*
X140625000Y-110100000D02*
X141375000Y-110100000D01*
G75*
G02*
X141450000Y-110175000I0J-75000D01*
G01*
X141450000Y-110525000D01*
G75*
G02*
X141375000Y-110600000I-75000J0D01*
G01*
X140625000Y-110600000D01*
G75*
G02*
X140550000Y-110525000I0J75000D01*
G01*
X140550000Y-110175000D01*
G75*
G02*
X140625000Y-110100000I75000J0D01*
G01*
G37*
%TD.AperFunction*%
%TD*%
D11*
%TO.P,SW1,2*%
%TO.N,BT_BROWSE*%
X234760000Y-112800000D03*
%TO.P,SW1,1*%
%TO.N,GND*%
X239840000Y-112800000D03*
%TD*%
%TO.P,SW2,1*%
%TO.N,GND*%
X204340000Y-112800000D03*
%TO.P,SW2,2*%
%TO.N,MENU_TAGLIST*%
X199260000Y-112800000D03*
%TD*%
%TO.P,SW3,1*%
%TO.N,GND*%
X168840000Y-112800000D03*
%TO.P,SW3,2*%
%TO.N,BT_INFO*%
X163760000Y-112800000D03*
%TD*%
%TO.P,SW4,2*%
%TO.N,BT_MENU*%
X128260000Y-112800000D03*
%TO.P,SW4,1*%
%TO.N,GND*%
X133340000Y-112800000D03*
%TD*%
%TO.P,SW5,1*%
%TO.N,GND*%
X96760000Y-105500000D03*
%TO.P,SW5,2*%
%TO.N,BT_BACK*%
X101840000Y-105500000D03*
%TD*%
%TO.P,SW6,2*%
%TO.N,BT_TAG*%
X81440000Y-105500000D03*
%TO.P,SW6,1*%
%TO.N,GND*%
X76360000Y-105500000D03*
%TD*%
%TO.P,TP1,1*%
%TO.N,+8V*%
X89200000Y-104400000D03*
%TD*%
%TO.P,TP2,1*%
%TO.N,GND*%
X173900000Y-114500000D03*
%TD*%
%TO.P,TP3,1*%
%TO.N,GND*%
X243800000Y-114500000D03*
%TD*%
%TO.P,TP4,1*%
%TO.N,GND*%
X77500000Y-113900000D03*
%TD*%
D12*
%TO.N,+8V*%
X120700000Y-105700000D03*
X120700000Y-101200000D03*
%TO.N,GND*%
X195500000Y-106000000D03*
X160450000Y-106350000D03*
X231000000Y-106200000D03*
X124100000Y-106300000D03*
D13*
X76000000Y-99000000D03*
D12*
X84000000Y-99000000D03*
X92000000Y-99000000D03*
X254000000Y-114000000D03*
X254000000Y-100000000D03*
X229000000Y-100000000D03*
X204000000Y-100000000D03*
X220000000Y-107000000D03*
X219900000Y-115100000D03*
X184000000Y-107000000D03*
X184000000Y-115000000D03*
X148000000Y-107000000D03*
X148000000Y-115000000D03*
X95250000Y-109000000D03*
X112750000Y-98750000D03*
X134100000Y-103900000D03*
X168600000Y-103900000D03*
X204100000Y-103900000D03*
X114400000Y-106200000D03*
X106500000Y-112800000D03*
X113800000Y-115750000D03*
X168600000Y-99000000D03*
X134100000Y-99000000D03*
%TO.N,+3V3*%
X85300000Y-108300000D03*
X120500000Y-113100000D03*
X118300000Y-112200000D03*
X109400000Y-102100000D03*
X116800000Y-106900000D03*
%TO.N,Net-(D1-Pad2)*%
X225800000Y-108900000D03*
%TO.N,Net-(D2-Pad1)*%
X236600000Y-107300000D03*
%TO.N,Net-(D3-Pad2)*%
X248800000Y-108900000D03*
%TO.N,Net-(D5-Pad2)*%
X190300000Y-108900000D03*
%TO.N,Net-(D6-Pad1)*%
X201000000Y-107300000D03*
%TO.N,Net-(D7-Pad2)*%
X213300000Y-108900000D03*
%TO.N,Net-(D9-Pad2)*%
X154800000Y-108900000D03*
%TO.N,Net-(D10-Pad1)*%
X165600000Y-107300000D03*
%TO.N,Net-(D11-Pad2)*%
X177800000Y-108900000D03*
%TO.N,Net-(D13-Pad2)*%
X119300000Y-108900000D03*
%TO.N,Net-(D14-Pad1)*%
X130100000Y-107300000D03*
%TO.N,Net-(D15-Pad2)*%
X142300000Y-108900000D03*
%TD*%
D14*
%TO.N,+8V*%
X158450000Y-110350000D02*
X158500000Y-110300000D01*
X156100000Y-110350000D02*
X158450000Y-110350000D01*
X176500000Y-110350000D02*
X191600000Y-110350000D01*
X191600000Y-110350000D02*
X212000000Y-110350000D01*
X212000000Y-110350000D02*
X227100000Y-110350000D01*
X156100000Y-110350000D02*
X141000000Y-110350000D01*
X158550000Y-110350000D02*
X158500000Y-110300000D01*
X161150000Y-110350000D02*
X158550000Y-110350000D01*
X161900000Y-109600000D02*
X161150000Y-110350000D01*
X170500000Y-109600000D02*
X161900000Y-109600000D01*
X171250000Y-110350000D02*
X170500000Y-109600000D01*
X176500000Y-110350000D02*
X171250000Y-110350000D01*
X236950000Y-110350000D02*
X227100000Y-110350000D01*
X237700000Y-109600000D02*
X236950000Y-110350000D01*
X239650000Y-109600000D02*
X237700000Y-109600000D01*
X120750000Y-105750000D02*
X120750000Y-107600000D01*
X120700000Y-105700000D02*
X120750000Y-105750000D01*
D15*
X88260000Y-105940000D02*
X88260000Y-111700000D01*
X88260000Y-105340000D02*
X88260000Y-105940000D01*
X89200000Y-104400000D02*
X88260000Y-105340000D01*
D14*
X92400000Y-101200000D02*
X120700000Y-101200000D01*
X89200000Y-104400000D02*
X92400000Y-101200000D01*
X137250000Y-110350000D02*
X141000000Y-110350000D01*
X122900000Y-108900000D02*
X135800000Y-108900000D01*
X135800000Y-108900000D02*
X137250000Y-110350000D01*
X121600000Y-107600000D02*
X122900000Y-108900000D01*
X120750000Y-107600000D02*
X121600000Y-107600000D01*
%TO.N,GND*%
X90640000Y-114240000D02*
X90800000Y-114240000D01*
X126200000Y-106350000D02*
X128000000Y-106350000D01*
X161700000Y-106350000D02*
X163500000Y-106350000D01*
X197200000Y-106350000D02*
X199000000Y-106350000D01*
X232700000Y-106350000D02*
X234500000Y-106350000D01*
X235050000Y-106900000D02*
X234500000Y-106350000D01*
X235050000Y-108400000D02*
X235050000Y-106900000D01*
X199550000Y-106900000D02*
X199000000Y-106350000D01*
X199550000Y-108400000D02*
X199550000Y-106900000D01*
X164150000Y-107000000D02*
X163500000Y-106350000D01*
X164150000Y-108300000D02*
X164150000Y-107000000D01*
X160450000Y-106350000D02*
X160450000Y-106350000D01*
X161700000Y-106350000D02*
X160450000Y-106350000D01*
X239840000Y-113300000D02*
X239800000Y-113300000D01*
X127550000Y-106800000D02*
X128000000Y-106350000D01*
X127550000Y-107900000D02*
X127550000Y-106800000D01*
X195850000Y-106350000D02*
X195500000Y-106000000D01*
X197200000Y-106350000D02*
X195850000Y-106350000D01*
X160450000Y-106350000D02*
X158500000Y-108300000D01*
X231150000Y-106350000D02*
X231000000Y-106200000D01*
X232700000Y-106350000D02*
X231150000Y-106350000D01*
X124150000Y-106350000D02*
X124100000Y-106300000D01*
X126200000Y-106350000D02*
X124150000Y-106350000D01*
X93700000Y-105500000D02*
X96760000Y-105500000D01*
D16*
X90800000Y-114240000D02*
X90860000Y-114240000D01*
X90860000Y-114240000D02*
X92100000Y-113000000D01*
X92100000Y-113000000D02*
X92100000Y-109400000D01*
X93700000Y-107800000D02*
X93700000Y-105500000D01*
X92100000Y-109400000D02*
X93700000Y-107800000D01*
D14*
%TO.N,+3V3*%
X101800000Y-102050000D02*
X94750000Y-102050000D01*
X85350000Y-108250000D02*
X85300000Y-108300000D01*
X85350000Y-105500000D02*
X85350000Y-108250000D01*
X121800000Y-113150000D02*
X123050000Y-113150000D01*
X123400000Y-112800000D02*
X124650000Y-112800000D01*
X123050000Y-113150000D02*
X123400000Y-112800000D01*
X120550000Y-113150000D02*
X120500000Y-113100000D01*
X121800000Y-113150000D02*
X120550000Y-113150000D01*
X117950000Y-112550000D02*
X118300000Y-112200000D01*
X116800000Y-112550000D02*
X117950000Y-112550000D01*
X91700000Y-105500000D02*
X91700000Y-105100000D01*
X91700000Y-105500000D02*
X91700000Y-103800000D01*
X93450000Y-102050000D02*
X94750000Y-102050000D01*
X91700000Y-103800000D02*
X93450000Y-102050000D01*
D15*
X91700000Y-107200000D02*
X91700000Y-105500000D01*
X90800000Y-108100000D02*
X91700000Y-107200000D01*
X90800000Y-111700000D02*
X90800000Y-108100000D01*
D14*
X109350000Y-102050000D02*
X101800000Y-102050000D01*
X109400000Y-102100000D02*
X109350000Y-102050000D01*
X116800000Y-106900000D02*
X116800000Y-107550000D01*
%TO.N,Net-(D1-Pad2)*%
X225850000Y-108850000D02*
X225800000Y-108900000D01*
X227100000Y-108850000D02*
X225850000Y-108850000D01*
%TO.N,Net-(D2-Pad1)*%
X236650000Y-107350000D02*
X236600000Y-107300000D01*
X238500000Y-107350000D02*
X236650000Y-107350000D01*
X236550000Y-107350000D02*
X236600000Y-107300000D01*
X236550000Y-108400000D02*
X236550000Y-107350000D01*
%TO.N,Net-(D3-Pad2)*%
X248750000Y-108850000D02*
X248800000Y-108900000D01*
X242700000Y-108900000D02*
X248800000Y-108900000D01*
X242000000Y-109600000D02*
X242700000Y-108900000D01*
X241150000Y-109600000D02*
X242000000Y-109600000D01*
%TO.N,Net-(D5-Pad2)*%
X190350000Y-108850000D02*
X190300000Y-108900000D01*
X191600000Y-108850000D02*
X190350000Y-108850000D01*
%TO.N,Net-(D6-Pad1)*%
X201050000Y-107350000D02*
X201000000Y-107300000D01*
X203000000Y-107350000D02*
X201050000Y-107350000D01*
X201050000Y-108400000D02*
X201050000Y-107350000D01*
%TO.N,Net-(D7-Pad2)*%
X213250000Y-108850000D02*
X213300000Y-108900000D01*
X212000000Y-108850000D02*
X213250000Y-108850000D01*
%TO.N,Net-(D9-Pad2)*%
X154850000Y-108850000D02*
X154800000Y-108900000D01*
X156100000Y-108850000D02*
X154850000Y-108850000D01*
%TO.N,Net-(D10-Pad1)*%
X165650000Y-107350000D02*
X165600000Y-107300000D01*
X167500000Y-107350000D02*
X165650000Y-107350000D01*
X165650000Y-108300000D02*
X165650000Y-107350000D01*
%TO.N,Net-(D11-Pad2)*%
X177750000Y-108850000D02*
X177800000Y-108900000D01*
X176500000Y-108850000D02*
X177750000Y-108850000D01*
%TO.N,Net-(D13-Pad2)*%
X119350000Y-108850000D02*
X119300000Y-108900000D01*
X119250000Y-108850000D02*
X119300000Y-108900000D01*
X119250000Y-107600000D02*
X119250000Y-108850000D01*
%TO.N,Net-(D14-Pad1)*%
X130150000Y-107350000D02*
X130100000Y-107300000D01*
X132000000Y-107350000D02*
X130150000Y-107350000D01*
X129500000Y-107900000D02*
X130100000Y-107300000D01*
X129050000Y-107900000D02*
X129500000Y-107900000D01*
%TO.N,Net-(D15-Pad2)*%
X142250000Y-108850000D02*
X142300000Y-108900000D01*
X141000000Y-108850000D02*
X142250000Y-108850000D01*
%TO.N,Net-(Q1-Pad1)*%
X232850000Y-104450000D02*
X232700000Y-104300000D01*
X234500000Y-104450000D02*
X232850000Y-104450000D01*
X232700000Y-104300000D02*
X232700000Y-104850000D01*
X232700000Y-103750000D02*
X232700000Y-104300000D01*
%TO.N,Net-(Q1-Pad3)*%
X238050000Y-105400000D02*
X238500000Y-105850000D01*
X236700000Y-105400000D02*
X238050000Y-105400000D01*
%TO.N,Net-(Q2-Pad3)*%
X202550000Y-105400000D02*
X203000000Y-105850000D01*
X201200000Y-105400000D02*
X202550000Y-105400000D01*
%TO.N,Net-(Q2-Pad1)*%
X199000000Y-104450000D02*
X197250000Y-104450000D01*
X197200000Y-104500000D02*
X197200000Y-104850000D01*
X197250000Y-104450000D02*
X197200000Y-104500000D01*
X197200000Y-103750000D02*
X197200000Y-104500000D01*
%TO.N,Net-(Q3-Pad3)*%
X167050000Y-105400000D02*
X167500000Y-105850000D01*
X165700000Y-105400000D02*
X167050000Y-105400000D01*
%TO.N,Net-(Q3-Pad1)*%
X161750000Y-104450000D02*
X161700000Y-104500000D01*
X163500000Y-104450000D02*
X161750000Y-104450000D01*
X161700000Y-104500000D02*
X161700000Y-104850000D01*
X161700000Y-103750000D02*
X161700000Y-104500000D01*
%TO.N,Net-(Q4-Pad1)*%
X124900000Y-104850000D02*
X124850000Y-104900000D01*
X126200000Y-104850000D02*
X124900000Y-104850000D01*
X126600000Y-104450000D02*
X126200000Y-104850000D01*
X128000000Y-104450000D02*
X126600000Y-104450000D01*
%TO.N,Net-(Q4-Pad3)*%
X131550000Y-105400000D02*
X132000000Y-105850000D01*
X130200000Y-105400000D02*
X131550000Y-105400000D01*
%TO.N,BT_BROWSE*%
X137000000Y-111200000D02*
X135400000Y-109600000D01*
X161450000Y-111200000D02*
X137000000Y-111200000D01*
X162350000Y-110300000D02*
X161450000Y-111200000D01*
X170100000Y-110300000D02*
X162350000Y-110300000D01*
X233100000Y-111200000D02*
X171000000Y-111200000D01*
X234700000Y-112800000D02*
X233100000Y-111200000D01*
X171000000Y-111200000D02*
X170100000Y-110300000D01*
X234760000Y-112800000D02*
X234700000Y-112800000D01*
X116800000Y-109050000D02*
X116800000Y-109600000D01*
X135400000Y-109600000D02*
X116800000Y-109600000D01*
X110860000Y-114240000D02*
X103500000Y-114240000D01*
X115500000Y-109600000D02*
X110860000Y-114240000D01*
X116800000Y-109600000D02*
X115500000Y-109600000D01*
%TO.N,MENU_TAGLIST*%
X136600000Y-111900000D02*
X135000000Y-110300000D01*
X169800000Y-111000000D02*
X162800000Y-111000000D01*
X170800000Y-112000000D02*
X169800000Y-111000000D01*
X161900000Y-111900000D02*
X136600000Y-111900000D01*
X198460000Y-112000000D02*
X170800000Y-112000000D01*
X162800000Y-111000000D02*
X161900000Y-111900000D01*
X199260000Y-112800000D02*
X198460000Y-112000000D01*
X116800000Y-111050000D02*
X116800000Y-110300000D01*
X135000000Y-110300000D02*
X116800000Y-110300000D01*
X102320000Y-115600000D02*
X100960000Y-114240000D01*
X110700000Y-115600000D02*
X102320000Y-115600000D01*
X116000000Y-110300000D02*
X110700000Y-115600000D01*
X116800000Y-110300000D02*
X116000000Y-110300000D01*
%TO.N,LED_BROWSE*%
X98420000Y-110280000D02*
X98420000Y-111700000D01*
X105100000Y-108200000D02*
X100500000Y-108200000D01*
X111300000Y-102000000D02*
X105100000Y-108200000D01*
X100500000Y-108200000D02*
X98420000Y-110280000D01*
X125600000Y-102000000D02*
X111300000Y-102000000D01*
X197600000Y-100600000D02*
X127000000Y-100600000D01*
X127000000Y-100600000D02*
X125600000Y-102000000D01*
X199250000Y-102250000D02*
X197600000Y-100600000D01*
X232700000Y-102250000D02*
X199250000Y-102250000D01*
%TO.N,BT_INFO*%
X136200000Y-112600000D02*
X134600000Y-111000000D01*
X161700000Y-112600000D02*
X136200000Y-112600000D01*
X161900000Y-112800000D02*
X161700000Y-112600000D01*
X163760000Y-112800000D02*
X161900000Y-112800000D01*
X134600000Y-111000000D02*
X121800000Y-111000000D01*
X121800000Y-111650000D02*
X121800000Y-111000000D01*
X114100000Y-113400000D02*
X111100000Y-116400000D01*
X118300000Y-113400000D02*
X114100000Y-113400000D01*
X120700000Y-111000000D02*
X118300000Y-113400000D01*
X121800000Y-111000000D02*
X120700000Y-111000000D01*
X100080000Y-115880000D02*
X100600000Y-116400000D01*
X97520000Y-115880000D02*
X100080000Y-115880000D01*
X111100000Y-116400000D02*
X100600000Y-116400000D01*
X97520000Y-115880000D02*
X95880000Y-114240000D01*
%TO.N,BT_MENU*%
X126150000Y-112800000D02*
X128260000Y-112800000D01*
%TO.N,LED_TAGLIST*%
X163650000Y-102250000D02*
X197200000Y-102250000D01*
X162700000Y-101300000D02*
X163650000Y-102250000D01*
X126000000Y-102800000D02*
X127500000Y-101300000D01*
X111700000Y-102800000D02*
X126000000Y-102800000D01*
X105500000Y-109000000D02*
X111700000Y-102800000D01*
X127500000Y-101300000D02*
X162700000Y-101300000D01*
X101400000Y-109000000D02*
X105500000Y-109000000D01*
X99670001Y-110729999D02*
X101400000Y-109000000D01*
X99670001Y-112989999D02*
X99670001Y-110729999D01*
X98420000Y-114240000D02*
X99670001Y-112989999D01*
%TO.N,BT_BACK*%
X101800000Y-105460000D02*
X101840000Y-105500000D01*
X101800000Y-103550000D02*
X101800000Y-105460000D01*
X101700000Y-105500000D02*
X101840000Y-105500000D01*
X95880000Y-111320000D02*
X101700000Y-105500000D01*
X95880000Y-111700000D02*
X95880000Y-111320000D01*
%TO.N,BT_TAG*%
X93300000Y-111660000D02*
X93340000Y-111700000D01*
X83850000Y-105500000D02*
X81440000Y-105500000D01*
%TO.N,LED_INFO*%
X100960000Y-111340000D02*
X100960000Y-111700000D01*
X105900000Y-109800000D02*
X102500000Y-109800000D01*
X126400000Y-103600000D02*
X112100000Y-103600000D01*
X102500000Y-109800000D02*
X100960000Y-111340000D01*
X127750000Y-102250000D02*
X126400000Y-103600000D01*
X112100000Y-103600000D02*
X105900000Y-109800000D01*
X161700000Y-102250000D02*
X127750000Y-102250000D01*
%TO.N,LED_MENU*%
X105200000Y-111700000D02*
X103500000Y-111700000D01*
X112600000Y-104300000D02*
X105200000Y-111700000D01*
X121500000Y-104300000D02*
X112600000Y-104300000D01*
X122100000Y-104900000D02*
X121500000Y-104300000D01*
X123350000Y-104900000D02*
X122100000Y-104900000D01*
%TD*%
D17*
%TO.N,GND*%
X85740001Y-100767571D02*
X85736807Y-100800000D01*
X85749550Y-100929383D01*
X85787290Y-101053793D01*
X85848575Y-101168450D01*
X85931052Y-101268948D01*
X86031550Y-101351425D01*
X86146207Y-101412710D01*
X86270617Y-101450450D01*
X86367581Y-101460000D01*
X86400000Y-101463193D01*
X86432419Y-101460000D01*
X89167581Y-101460000D01*
X89200000Y-101463193D01*
X89232419Y-101460000D01*
X89265824Y-101456710D01*
X89329383Y-101450450D01*
X89453793Y-101412710D01*
X89568450Y-101351425D01*
X89668948Y-101268948D01*
X89751425Y-101168450D01*
X89812710Y-101053793D01*
X89850450Y-100929383D01*
X89860000Y-100832419D01*
X89863193Y-100800000D01*
X89860000Y-100767581D01*
X89860000Y-97660000D01*
X255940000Y-97660000D01*
X255940001Y-116340000D01*
X112340867Y-116340000D01*
X114445869Y-114235000D01*
X118258982Y-114235000D01*
X118300000Y-114239040D01*
X118341018Y-114235000D01*
X118341019Y-114235000D01*
X118463689Y-114222918D01*
X118621087Y-114175172D01*
X118766146Y-114097636D01*
X118893291Y-113993291D01*
X118919446Y-113961421D01*
X119585536Y-113295331D01*
X119600932Y-113372729D01*
X119671414Y-113542889D01*
X119773738Y-113696028D01*
X119903972Y-113826262D01*
X120057111Y-113928586D01*
X120227271Y-113999068D01*
X120407911Y-114035000D01*
X120592089Y-114035000D01*
X120772729Y-113999068D01*
X120806692Y-113985000D01*
X121156098Y-113985000D01*
X121285887Y-114024371D01*
X121425000Y-114038072D01*
X122175000Y-114038072D01*
X122314113Y-114024371D01*
X122443902Y-113985000D01*
X123008982Y-113985000D01*
X123050000Y-113989040D01*
X123091018Y-113985000D01*
X123091019Y-113985000D01*
X123213689Y-113972918D01*
X123371087Y-113925172D01*
X123516146Y-113847636D01*
X123643291Y-113743291D01*
X123669445Y-113711422D01*
X123745867Y-113635000D01*
X123934493Y-113635000D01*
X123970782Y-113679218D01*
X124078838Y-113767898D01*
X124202119Y-113833793D01*
X124335887Y-113874371D01*
X124475000Y-113888072D01*
X124825000Y-113888072D01*
X124964113Y-113874371D01*
X125097881Y-113833793D01*
X125221162Y-113767898D01*
X125329218Y-113679218D01*
X125400000Y-113592971D01*
X125470782Y-113679218D01*
X125578838Y-113767898D01*
X125702119Y-113833793D01*
X125835887Y-113874371D01*
X125975000Y-113888072D01*
X126325000Y-113888072D01*
X126464113Y-113874371D01*
X126597881Y-113833793D01*
X126721162Y-113767898D01*
X126829218Y-113679218D01*
X126857804Y-113644387D01*
X126990013Y-113842252D01*
X127217748Y-114069987D01*
X127485537Y-114248918D01*
X127783088Y-114372168D01*
X128098967Y-114435000D01*
X128421033Y-114435000D01*
X128736912Y-114372168D01*
X129034463Y-114248918D01*
X129302252Y-114069987D01*
X129529987Y-113842252D01*
X129708918Y-113574463D01*
X129832168Y-113276912D01*
X129895000Y-112961033D01*
X129895000Y-112638967D01*
X129832168Y-112323088D01*
X129708918Y-112025537D01*
X129581605Y-111835000D01*
X134254133Y-111835000D01*
X135580563Y-113161432D01*
X135606709Y-113193291D01*
X135638568Y-113219437D01*
X135638570Y-113219439D01*
X135692488Y-113263688D01*
X135733854Y-113297636D01*
X135878913Y-113375172D01*
X136036311Y-113422918D01*
X136158981Y-113435000D01*
X136158982Y-113435000D01*
X136200000Y-113439040D01*
X136241018Y-113435000D01*
X161357532Y-113435000D01*
X161433854Y-113497636D01*
X161578913Y-113575172D01*
X161736311Y-113622918D01*
X161858981Y-113635000D01*
X161858982Y-113635000D01*
X161900000Y-113639040D01*
X161941018Y-113635000D01*
X162351532Y-113635000D01*
X162490013Y-113842252D01*
X162717748Y-114069987D01*
X162985537Y-114248918D01*
X163283088Y-114372168D01*
X163598967Y-114435000D01*
X163921033Y-114435000D01*
X164236912Y-114372168D01*
X164534463Y-114248918D01*
X164802252Y-114069987D01*
X165029987Y-113842252D01*
X165208918Y-113574463D01*
X165332168Y-113276912D01*
X165395000Y-112961033D01*
X165395000Y-112638967D01*
X165332168Y-112323088D01*
X165208918Y-112025537D01*
X165081605Y-111835000D01*
X169454132Y-111835000D01*
X170180563Y-112561432D01*
X170206709Y-112593291D01*
X170333854Y-112697636D01*
X170478913Y-112775172D01*
X170636311Y-112822918D01*
X170758981Y-112835000D01*
X170758982Y-112835000D01*
X170800000Y-112839040D01*
X170841018Y-112835000D01*
X197625000Y-112835000D01*
X197625000Y-112961033D01*
X197687832Y-113276912D01*
X197811082Y-113574463D01*
X197990013Y-113842252D01*
X198217748Y-114069987D01*
X198485537Y-114248918D01*
X198783088Y-114372168D01*
X199098967Y-114435000D01*
X199421033Y-114435000D01*
X199736912Y-114372168D01*
X200034463Y-114248918D01*
X200302252Y-114069987D01*
X200529987Y-113842252D01*
X200708918Y-113574463D01*
X200832168Y-113276912D01*
X200895000Y-112961033D01*
X200895000Y-112638967D01*
X200832168Y-112323088D01*
X200712838Y-112035000D01*
X232754133Y-112035000D01*
X233163674Y-112444541D01*
X233125000Y-112638967D01*
X233125000Y-112961033D01*
X233187832Y-113276912D01*
X233311082Y-113574463D01*
X233490013Y-113842252D01*
X233717748Y-114069987D01*
X233985537Y-114248918D01*
X234283088Y-114372168D01*
X234598967Y-114435000D01*
X234921033Y-114435000D01*
X235236912Y-114372168D01*
X235534463Y-114248918D01*
X235802252Y-114069987D01*
X236029987Y-113842252D01*
X236208918Y-113574463D01*
X236332168Y-113276912D01*
X236395000Y-112961033D01*
X236395000Y-112638967D01*
X236332168Y-112323088D01*
X236208918Y-112025537D01*
X236029987Y-111757748D01*
X235802252Y-111530013D01*
X235534463Y-111351082D01*
X235236912Y-111227832D01*
X235021580Y-111185000D01*
X236908982Y-111185000D01*
X236950000Y-111189040D01*
X236991018Y-111185000D01*
X236991019Y-111185000D01*
X237113689Y-111172918D01*
X237271087Y-111125172D01*
X237416146Y-111047636D01*
X237543291Y-110943291D01*
X237569446Y-110911422D01*
X238045868Y-110435000D01*
X238934493Y-110435000D01*
X238970782Y-110479218D01*
X239078838Y-110567898D01*
X239202119Y-110633793D01*
X239335887Y-110674371D01*
X239475000Y-110688072D01*
X239825000Y-110688072D01*
X239964113Y-110674371D01*
X240097881Y-110633793D01*
X240221162Y-110567898D01*
X240329218Y-110479218D01*
X240400000Y-110392971D01*
X240470782Y-110479218D01*
X240578838Y-110567898D01*
X240702119Y-110633793D01*
X240835887Y-110674371D01*
X240975000Y-110688072D01*
X241325000Y-110688072D01*
X241464113Y-110674371D01*
X241597881Y-110633793D01*
X241721162Y-110567898D01*
X241829218Y-110479218D01*
X241865507Y-110435000D01*
X241958982Y-110435000D01*
X242000000Y-110439040D01*
X242041018Y-110435000D01*
X242041019Y-110435000D01*
X242163689Y-110422918D01*
X242321087Y-110375172D01*
X242466146Y-110297636D01*
X242593291Y-110193291D01*
X242619446Y-110161422D01*
X243045868Y-109735000D01*
X248372596Y-109735000D01*
X248527271Y-109799068D01*
X248707911Y-109835000D01*
X248892089Y-109835000D01*
X249072729Y-109799068D01*
X249242889Y-109728586D01*
X249396028Y-109626262D01*
X249526262Y-109496028D01*
X249628586Y-109342889D01*
X249699068Y-109172729D01*
X249735000Y-108992089D01*
X249735000Y-108807911D01*
X249699068Y-108627271D01*
X249628586Y-108457111D01*
X249526262Y-108303972D01*
X249396028Y-108173738D01*
X249242889Y-108071414D01*
X249072729Y-108000932D01*
X248892089Y-107965000D01*
X248707911Y-107965000D01*
X248527271Y-108000932D01*
X248372596Y-108065000D01*
X242741007Y-108065000D01*
X242699999Y-108060961D01*
X242658991Y-108065000D01*
X242658981Y-108065000D01*
X242536311Y-108077082D01*
X242378913Y-108124828D01*
X242233854Y-108202364D01*
X242106709Y-108306709D01*
X242080561Y-108338571D01*
X241757340Y-108661793D01*
X241721162Y-108632102D01*
X241597881Y-108566207D01*
X241464113Y-108525629D01*
X241325000Y-108511928D01*
X240975000Y-108511928D01*
X240835887Y-108525629D01*
X240702119Y-108566207D01*
X240578838Y-108632102D01*
X240470782Y-108720782D01*
X240400000Y-108807029D01*
X240329218Y-108720782D01*
X240221162Y-108632102D01*
X240097881Y-108566207D01*
X239964113Y-108525629D01*
X239825000Y-108511928D01*
X239475000Y-108511928D01*
X239335887Y-108525629D01*
X239202119Y-108566207D01*
X239078838Y-108632102D01*
X238970782Y-108720782D01*
X238934493Y-108765000D01*
X237741018Y-108765000D01*
X237699999Y-108760960D01*
X237557450Y-108775000D01*
X237536311Y-108777082D01*
X237434835Y-108807864D01*
X237438072Y-108775000D01*
X237438072Y-108185000D01*
X237856098Y-108185000D01*
X237985887Y-108224371D01*
X238125000Y-108238072D01*
X238875000Y-108238072D01*
X239014113Y-108224371D01*
X239147881Y-108183793D01*
X239271162Y-108117898D01*
X239379218Y-108029218D01*
X239467898Y-107921162D01*
X239533793Y-107797881D01*
X239574371Y-107664113D01*
X239588072Y-107525000D01*
X239588072Y-107175000D01*
X239574371Y-107035887D01*
X239533793Y-106902119D01*
X239467898Y-106778838D01*
X239379218Y-106670782D01*
X239292971Y-106600000D01*
X239379218Y-106529218D01*
X239467898Y-106421162D01*
X239533793Y-106297881D01*
X239574371Y-106164113D01*
X239588072Y-106025000D01*
X239588072Y-105675000D01*
X239574371Y-105535887D01*
X239533793Y-105402119D01*
X239467898Y-105278838D01*
X239379218Y-105170782D01*
X239271162Y-105082102D01*
X239147881Y-105016207D01*
X239014113Y-104975629D01*
X238875000Y-104961928D01*
X238792795Y-104961928D01*
X238669446Y-104838579D01*
X238643291Y-104806709D01*
X238516146Y-104702364D01*
X238371087Y-104624828D01*
X238213689Y-104577082D01*
X238091019Y-104565000D01*
X238091018Y-104565000D01*
X238050000Y-104560960D01*
X238008982Y-104565000D01*
X237866546Y-104565000D01*
X237807251Y-104492749D01*
X237687829Y-104394742D01*
X237551582Y-104321916D01*
X237403745Y-104277071D01*
X237250000Y-104261928D01*
X236150000Y-104261928D01*
X235996255Y-104277071D01*
X235848418Y-104321916D01*
X235838072Y-104327446D01*
X235838072Y-104100000D01*
X235822929Y-103946255D01*
X235778084Y-103798418D01*
X235705258Y-103662171D01*
X235607251Y-103542749D01*
X235487829Y-103444742D01*
X235351582Y-103371916D01*
X235203745Y-103327071D01*
X235050000Y-103311928D01*
X233950000Y-103311928D01*
X233796255Y-103327071D01*
X233745988Y-103342319D01*
X233733793Y-103302119D01*
X233667898Y-103178838D01*
X233579218Y-103070782D01*
X233492971Y-103000000D01*
X233579218Y-102929218D01*
X233667898Y-102821162D01*
X233733793Y-102697881D01*
X233774371Y-102564113D01*
X233788072Y-102425000D01*
X233788072Y-102075000D01*
X233774371Y-101935887D01*
X233733793Y-101802119D01*
X233667898Y-101678838D01*
X233579218Y-101570782D01*
X233471162Y-101482102D01*
X233347881Y-101416207D01*
X233214113Y-101375629D01*
X233075000Y-101361928D01*
X232325000Y-101361928D01*
X232185887Y-101375629D01*
X232056098Y-101415000D01*
X199595868Y-101415000D01*
X198219446Y-100038579D01*
X198193291Y-100006709D01*
X198066146Y-99902364D01*
X197921087Y-99824828D01*
X197763689Y-99777082D01*
X197641019Y-99765000D01*
X197641018Y-99765000D01*
X197600000Y-99760960D01*
X197558982Y-99765000D01*
X127041018Y-99765000D01*
X127000000Y-99760960D01*
X126958981Y-99765000D01*
X126836311Y-99777082D01*
X126678913Y-99824828D01*
X126533854Y-99902364D01*
X126406709Y-100006709D01*
X126380558Y-100038574D01*
X125254133Y-101165000D01*
X121635000Y-101165000D01*
X121635000Y-101107911D01*
X121599068Y-100927271D01*
X121528586Y-100757111D01*
X121426262Y-100603972D01*
X121296028Y-100473738D01*
X121142889Y-100371414D01*
X120972729Y-100300932D01*
X120792089Y-100265000D01*
X120607911Y-100265000D01*
X120427271Y-100300932D01*
X120272596Y-100365000D01*
X92441007Y-100365000D01*
X92399999Y-100360961D01*
X92358991Y-100365000D01*
X92358981Y-100365000D01*
X92236311Y-100377082D01*
X92078913Y-100424828D01*
X91933854Y-100502364D01*
X91806709Y-100606709D01*
X91780559Y-100638573D01*
X89605504Y-102813628D01*
X89361033Y-102765000D01*
X89038967Y-102765000D01*
X88723088Y-102827832D01*
X88425537Y-102951082D01*
X88157748Y-103130013D01*
X87930013Y-103357748D01*
X87751082Y-103625537D01*
X87627832Y-103923088D01*
X87565000Y-104238967D01*
X87565000Y-104561033D01*
X87589333Y-104683361D01*
X87478814Y-104818029D01*
X87391993Y-104980461D01*
X87363263Y-105075172D01*
X87338529Y-105156709D01*
X87320476Y-105340000D01*
X87325000Y-105385932D01*
X87325000Y-105894069D01*
X87325001Y-110538752D01*
X87313368Y-110546525D01*
X87106525Y-110753368D01*
X86944010Y-110996589D01*
X86832068Y-111266842D01*
X86775000Y-111553740D01*
X86775000Y-111846260D01*
X86832068Y-112133158D01*
X86944010Y-112403411D01*
X87106525Y-112646632D01*
X87313368Y-112853475D01*
X87556589Y-113015990D01*
X87826842Y-113127932D01*
X88113740Y-113185000D01*
X88406260Y-113185000D01*
X88693158Y-113127932D01*
X88963411Y-113015990D01*
X89206632Y-112853475D01*
X89413475Y-112646632D01*
X89530000Y-112472240D01*
X89646525Y-112646632D01*
X89853368Y-112853475D01*
X90096589Y-113015990D01*
X90366842Y-113127932D01*
X90653740Y-113185000D01*
X90946260Y-113185000D01*
X91233158Y-113127932D01*
X91503411Y-113015990D01*
X91746632Y-112853475D01*
X91953475Y-112646632D01*
X92070000Y-112472240D01*
X92186525Y-112646632D01*
X92393368Y-112853475D01*
X92567760Y-112970000D01*
X92393368Y-113086525D01*
X92186525Y-113293368D01*
X92024010Y-113536589D01*
X91912068Y-113806842D01*
X91855000Y-114093740D01*
X91855000Y-114386260D01*
X91912068Y-114673158D01*
X92024010Y-114943411D01*
X92186525Y-115186632D01*
X92393368Y-115393475D01*
X92636589Y-115555990D01*
X92906842Y-115667932D01*
X93193740Y-115725000D01*
X93486260Y-115725000D01*
X93773158Y-115667932D01*
X94043411Y-115555990D01*
X94286632Y-115393475D01*
X94493475Y-115186632D01*
X94610000Y-115012240D01*
X94726525Y-115186632D01*
X94933368Y-115393475D01*
X95176589Y-115555990D01*
X95446842Y-115667932D01*
X95733740Y-115725000D01*
X96026260Y-115725000D01*
X96157940Y-115698807D01*
X96799132Y-116340000D01*
X74260000Y-116340000D01*
X74260000Y-105338967D01*
X79805000Y-105338967D01*
X79805000Y-105661033D01*
X79867832Y-105976912D01*
X79991082Y-106274463D01*
X80170013Y-106542252D01*
X80397748Y-106769987D01*
X80665537Y-106948918D01*
X80963088Y-107072168D01*
X81278967Y-107135000D01*
X81601033Y-107135000D01*
X81916912Y-107072168D01*
X82214463Y-106948918D01*
X82482252Y-106769987D01*
X82709987Y-106542252D01*
X82848468Y-106335000D01*
X83134493Y-106335000D01*
X83170782Y-106379218D01*
X83278838Y-106467898D01*
X83402119Y-106533793D01*
X83535887Y-106574371D01*
X83675000Y-106588072D01*
X84025000Y-106588072D01*
X84164113Y-106574371D01*
X84297881Y-106533793D01*
X84421162Y-106467898D01*
X84515000Y-106390886D01*
X84515001Y-107791879D01*
X84471414Y-107857111D01*
X84400932Y-108027271D01*
X84365000Y-108207911D01*
X84365000Y-108392089D01*
X84400932Y-108572729D01*
X84471414Y-108742889D01*
X84573738Y-108896028D01*
X84703972Y-109026262D01*
X84857111Y-109128586D01*
X85027271Y-109199068D01*
X85207911Y-109235000D01*
X85392089Y-109235000D01*
X85572729Y-109199068D01*
X85742889Y-109128586D01*
X85896028Y-109026262D01*
X86026262Y-108896028D01*
X86128586Y-108742889D01*
X86199068Y-108572729D01*
X86235000Y-108392089D01*
X86235000Y-108207911D01*
X86199068Y-108027271D01*
X86185000Y-107993308D01*
X86185000Y-106143902D01*
X86224371Y-106014113D01*
X86238072Y-105875000D01*
X86238072Y-105125000D01*
X86224371Y-104985887D01*
X86183793Y-104852119D01*
X86117898Y-104728838D01*
X86029218Y-104620782D01*
X85921162Y-104532102D01*
X85797881Y-104466207D01*
X85664113Y-104425629D01*
X85525000Y-104411928D01*
X85175000Y-104411928D01*
X85035887Y-104425629D01*
X84902119Y-104466207D01*
X84778838Y-104532102D01*
X84670782Y-104620782D01*
X84600000Y-104707029D01*
X84529218Y-104620782D01*
X84421162Y-104532102D01*
X84297881Y-104466207D01*
X84164113Y-104425629D01*
X84025000Y-104411928D01*
X83675000Y-104411928D01*
X83535887Y-104425629D01*
X83402119Y-104466207D01*
X83278838Y-104532102D01*
X83170782Y-104620782D01*
X83134493Y-104665000D01*
X82848468Y-104665000D01*
X82709987Y-104457748D01*
X82482252Y-104230013D01*
X82214463Y-104051082D01*
X81916912Y-103927832D01*
X81601033Y-103865000D01*
X81278967Y-103865000D01*
X80963088Y-103927832D01*
X80665537Y-104051082D01*
X80397748Y-104230013D01*
X80170013Y-104457748D01*
X79991082Y-104725537D01*
X79867832Y-105023088D01*
X79805000Y-105338967D01*
X74260000Y-105338967D01*
X74260000Y-99532279D01*
X74298147Y-99143225D01*
X74401763Y-98800033D01*
X74570062Y-98483511D01*
X74796637Y-98205701D01*
X75072856Y-97977194D01*
X75388197Y-97806690D01*
X75730656Y-97700681D01*
X76117712Y-97660000D01*
X85740000Y-97660000D01*
X85740001Y-100767571D01*
%TA.AperFunction,Conductor*%
D18*
G36*
X85740001Y-100767571D02*
G01*
X85736807Y-100800000D01*
X85749550Y-100929383D01*
X85787290Y-101053793D01*
X85848575Y-101168450D01*
X85931052Y-101268948D01*
X86031550Y-101351425D01*
X86146207Y-101412710D01*
X86270617Y-101450450D01*
X86367581Y-101460000D01*
X86400000Y-101463193D01*
X86432419Y-101460000D01*
X89167581Y-101460000D01*
X89200000Y-101463193D01*
X89232419Y-101460000D01*
X89265824Y-101456710D01*
X89329383Y-101450450D01*
X89453793Y-101412710D01*
X89568450Y-101351425D01*
X89668948Y-101268948D01*
X89751425Y-101168450D01*
X89812710Y-101053793D01*
X89850450Y-100929383D01*
X89860000Y-100832419D01*
X89863193Y-100800000D01*
X89860000Y-100767581D01*
X89860000Y-97660000D01*
X255940000Y-97660000D01*
X255940001Y-116340000D01*
X112340867Y-116340000D01*
X114445869Y-114235000D01*
X118258982Y-114235000D01*
X118300000Y-114239040D01*
X118341018Y-114235000D01*
X118341019Y-114235000D01*
X118463689Y-114222918D01*
X118621087Y-114175172D01*
X118766146Y-114097636D01*
X118893291Y-113993291D01*
X118919446Y-113961421D01*
X119585536Y-113295331D01*
X119600932Y-113372729D01*
X119671414Y-113542889D01*
X119773738Y-113696028D01*
X119903972Y-113826262D01*
X120057111Y-113928586D01*
X120227271Y-113999068D01*
X120407911Y-114035000D01*
X120592089Y-114035000D01*
X120772729Y-113999068D01*
X120806692Y-113985000D01*
X121156098Y-113985000D01*
X121285887Y-114024371D01*
X121425000Y-114038072D01*
X122175000Y-114038072D01*
X122314113Y-114024371D01*
X122443902Y-113985000D01*
X123008982Y-113985000D01*
X123050000Y-113989040D01*
X123091018Y-113985000D01*
X123091019Y-113985000D01*
X123213689Y-113972918D01*
X123371087Y-113925172D01*
X123516146Y-113847636D01*
X123643291Y-113743291D01*
X123669445Y-113711422D01*
X123745867Y-113635000D01*
X123934493Y-113635000D01*
X123970782Y-113679218D01*
X124078838Y-113767898D01*
X124202119Y-113833793D01*
X124335887Y-113874371D01*
X124475000Y-113888072D01*
X124825000Y-113888072D01*
X124964113Y-113874371D01*
X125097881Y-113833793D01*
X125221162Y-113767898D01*
X125329218Y-113679218D01*
X125400000Y-113592971D01*
X125470782Y-113679218D01*
X125578838Y-113767898D01*
X125702119Y-113833793D01*
X125835887Y-113874371D01*
X125975000Y-113888072D01*
X126325000Y-113888072D01*
X126464113Y-113874371D01*
X126597881Y-113833793D01*
X126721162Y-113767898D01*
X126829218Y-113679218D01*
X126857804Y-113644387D01*
X126990013Y-113842252D01*
X127217748Y-114069987D01*
X127485537Y-114248918D01*
X127783088Y-114372168D01*
X128098967Y-114435000D01*
X128421033Y-114435000D01*
X128736912Y-114372168D01*
X129034463Y-114248918D01*
X129302252Y-114069987D01*
X129529987Y-113842252D01*
X129708918Y-113574463D01*
X129832168Y-113276912D01*
X129895000Y-112961033D01*
X129895000Y-112638967D01*
X129832168Y-112323088D01*
X129708918Y-112025537D01*
X129581605Y-111835000D01*
X134254133Y-111835000D01*
X135580563Y-113161432D01*
X135606709Y-113193291D01*
X135638568Y-113219437D01*
X135638570Y-113219439D01*
X135692488Y-113263688D01*
X135733854Y-113297636D01*
X135878913Y-113375172D01*
X136036311Y-113422918D01*
X136158981Y-113435000D01*
X136158982Y-113435000D01*
X136200000Y-113439040D01*
X136241018Y-113435000D01*
X161357532Y-113435000D01*
X161433854Y-113497636D01*
X161578913Y-113575172D01*
X161736311Y-113622918D01*
X161858981Y-113635000D01*
X161858982Y-113635000D01*
X161900000Y-113639040D01*
X161941018Y-113635000D01*
X162351532Y-113635000D01*
X162490013Y-113842252D01*
X162717748Y-114069987D01*
X162985537Y-114248918D01*
X163283088Y-114372168D01*
X163598967Y-114435000D01*
X163921033Y-114435000D01*
X164236912Y-114372168D01*
X164534463Y-114248918D01*
X164802252Y-114069987D01*
X165029987Y-113842252D01*
X165208918Y-113574463D01*
X165332168Y-113276912D01*
X165395000Y-112961033D01*
X165395000Y-112638967D01*
X165332168Y-112323088D01*
X165208918Y-112025537D01*
X165081605Y-111835000D01*
X169454132Y-111835000D01*
X170180563Y-112561432D01*
X170206709Y-112593291D01*
X170333854Y-112697636D01*
X170478913Y-112775172D01*
X170636311Y-112822918D01*
X170758981Y-112835000D01*
X170758982Y-112835000D01*
X170800000Y-112839040D01*
X170841018Y-112835000D01*
X197625000Y-112835000D01*
X197625000Y-112961033D01*
X197687832Y-113276912D01*
X197811082Y-113574463D01*
X197990013Y-113842252D01*
X198217748Y-114069987D01*
X198485537Y-114248918D01*
X198783088Y-114372168D01*
X199098967Y-114435000D01*
X199421033Y-114435000D01*
X199736912Y-114372168D01*
X200034463Y-114248918D01*
X200302252Y-114069987D01*
X200529987Y-113842252D01*
X200708918Y-113574463D01*
X200832168Y-113276912D01*
X200895000Y-112961033D01*
X200895000Y-112638967D01*
X200832168Y-112323088D01*
X200712838Y-112035000D01*
X232754133Y-112035000D01*
X233163674Y-112444541D01*
X233125000Y-112638967D01*
X233125000Y-112961033D01*
X233187832Y-113276912D01*
X233311082Y-113574463D01*
X233490013Y-113842252D01*
X233717748Y-114069987D01*
X233985537Y-114248918D01*
X234283088Y-114372168D01*
X234598967Y-114435000D01*
X234921033Y-114435000D01*
X235236912Y-114372168D01*
X235534463Y-114248918D01*
X235802252Y-114069987D01*
X236029987Y-113842252D01*
X236208918Y-113574463D01*
X236332168Y-113276912D01*
X236395000Y-112961033D01*
X236395000Y-112638967D01*
X236332168Y-112323088D01*
X236208918Y-112025537D01*
X236029987Y-111757748D01*
X235802252Y-111530013D01*
X235534463Y-111351082D01*
X235236912Y-111227832D01*
X235021580Y-111185000D01*
X236908982Y-111185000D01*
X236950000Y-111189040D01*
X236991018Y-111185000D01*
X236991019Y-111185000D01*
X237113689Y-111172918D01*
X237271087Y-111125172D01*
X237416146Y-111047636D01*
X237543291Y-110943291D01*
X237569446Y-110911422D01*
X238045868Y-110435000D01*
X238934493Y-110435000D01*
X238970782Y-110479218D01*
X239078838Y-110567898D01*
X239202119Y-110633793D01*
X239335887Y-110674371D01*
X239475000Y-110688072D01*
X239825000Y-110688072D01*
X239964113Y-110674371D01*
X240097881Y-110633793D01*
X240221162Y-110567898D01*
X240329218Y-110479218D01*
X240400000Y-110392971D01*
X240470782Y-110479218D01*
X240578838Y-110567898D01*
X240702119Y-110633793D01*
X240835887Y-110674371D01*
X240975000Y-110688072D01*
X241325000Y-110688072D01*
X241464113Y-110674371D01*
X241597881Y-110633793D01*
X241721162Y-110567898D01*
X241829218Y-110479218D01*
X241865507Y-110435000D01*
X241958982Y-110435000D01*
X242000000Y-110439040D01*
X242041018Y-110435000D01*
X242041019Y-110435000D01*
X242163689Y-110422918D01*
X242321087Y-110375172D01*
X242466146Y-110297636D01*
X242593291Y-110193291D01*
X242619446Y-110161422D01*
X243045868Y-109735000D01*
X248372596Y-109735000D01*
X248527271Y-109799068D01*
X248707911Y-109835000D01*
X248892089Y-109835000D01*
X249072729Y-109799068D01*
X249242889Y-109728586D01*
X249396028Y-109626262D01*
X249526262Y-109496028D01*
X249628586Y-109342889D01*
X249699068Y-109172729D01*
X249735000Y-108992089D01*
X249735000Y-108807911D01*
X249699068Y-108627271D01*
X249628586Y-108457111D01*
X249526262Y-108303972D01*
X249396028Y-108173738D01*
X249242889Y-108071414D01*
X249072729Y-108000932D01*
X248892089Y-107965000D01*
X248707911Y-107965000D01*
X248527271Y-108000932D01*
X248372596Y-108065000D01*
X242741007Y-108065000D01*
X242699999Y-108060961D01*
X242658991Y-108065000D01*
X242658981Y-108065000D01*
X242536311Y-108077082D01*
X242378913Y-108124828D01*
X242233854Y-108202364D01*
X242106709Y-108306709D01*
X242080561Y-108338571D01*
X241757340Y-108661793D01*
X241721162Y-108632102D01*
X241597881Y-108566207D01*
X241464113Y-108525629D01*
X241325000Y-108511928D01*
X240975000Y-108511928D01*
X240835887Y-108525629D01*
X240702119Y-108566207D01*
X240578838Y-108632102D01*
X240470782Y-108720782D01*
X240400000Y-108807029D01*
X240329218Y-108720782D01*
X240221162Y-108632102D01*
X240097881Y-108566207D01*
X239964113Y-108525629D01*
X239825000Y-108511928D01*
X239475000Y-108511928D01*
X239335887Y-108525629D01*
X239202119Y-108566207D01*
X239078838Y-108632102D01*
X238970782Y-108720782D01*
X238934493Y-108765000D01*
X237741018Y-108765000D01*
X237699999Y-108760960D01*
X237557450Y-108775000D01*
X237536311Y-108777082D01*
X237434835Y-108807864D01*
X237438072Y-108775000D01*
X237438072Y-108185000D01*
X237856098Y-108185000D01*
X237985887Y-108224371D01*
X238125000Y-108238072D01*
X238875000Y-108238072D01*
X239014113Y-108224371D01*
X239147881Y-108183793D01*
X239271162Y-108117898D01*
X239379218Y-108029218D01*
X239467898Y-107921162D01*
X239533793Y-107797881D01*
X239574371Y-107664113D01*
X239588072Y-107525000D01*
X239588072Y-107175000D01*
X239574371Y-107035887D01*
X239533793Y-106902119D01*
X239467898Y-106778838D01*
X239379218Y-106670782D01*
X239292971Y-106600000D01*
X239379218Y-106529218D01*
X239467898Y-106421162D01*
X239533793Y-106297881D01*
X239574371Y-106164113D01*
X239588072Y-106025000D01*
X239588072Y-105675000D01*
X239574371Y-105535887D01*
X239533793Y-105402119D01*
X239467898Y-105278838D01*
X239379218Y-105170782D01*
X239271162Y-105082102D01*
X239147881Y-105016207D01*
X239014113Y-104975629D01*
X238875000Y-104961928D01*
X238792795Y-104961928D01*
X238669446Y-104838579D01*
X238643291Y-104806709D01*
X238516146Y-104702364D01*
X238371087Y-104624828D01*
X238213689Y-104577082D01*
X238091019Y-104565000D01*
X238091018Y-104565000D01*
X238050000Y-104560960D01*
X238008982Y-104565000D01*
X237866546Y-104565000D01*
X237807251Y-104492749D01*
X237687829Y-104394742D01*
X237551582Y-104321916D01*
X237403745Y-104277071D01*
X237250000Y-104261928D01*
X236150000Y-104261928D01*
X235996255Y-104277071D01*
X235848418Y-104321916D01*
X235838072Y-104327446D01*
X235838072Y-104100000D01*
X235822929Y-103946255D01*
X235778084Y-103798418D01*
X235705258Y-103662171D01*
X235607251Y-103542749D01*
X235487829Y-103444742D01*
X235351582Y-103371916D01*
X235203745Y-103327071D01*
X235050000Y-103311928D01*
X233950000Y-103311928D01*
X233796255Y-103327071D01*
X233745988Y-103342319D01*
X233733793Y-103302119D01*
X233667898Y-103178838D01*
X233579218Y-103070782D01*
X233492971Y-103000000D01*
X233579218Y-102929218D01*
X233667898Y-102821162D01*
X233733793Y-102697881D01*
X233774371Y-102564113D01*
X233788072Y-102425000D01*
X233788072Y-102075000D01*
X233774371Y-101935887D01*
X233733793Y-101802119D01*
X233667898Y-101678838D01*
X233579218Y-101570782D01*
X233471162Y-101482102D01*
X233347881Y-101416207D01*
X233214113Y-101375629D01*
X233075000Y-101361928D01*
X232325000Y-101361928D01*
X232185887Y-101375629D01*
X232056098Y-101415000D01*
X199595868Y-101415000D01*
X198219446Y-100038579D01*
X198193291Y-100006709D01*
X198066146Y-99902364D01*
X197921087Y-99824828D01*
X197763689Y-99777082D01*
X197641019Y-99765000D01*
X197641018Y-99765000D01*
X197600000Y-99760960D01*
X197558982Y-99765000D01*
X127041018Y-99765000D01*
X127000000Y-99760960D01*
X126958981Y-99765000D01*
X126836311Y-99777082D01*
X126678913Y-99824828D01*
X126533854Y-99902364D01*
X126406709Y-100006709D01*
X126380558Y-100038574D01*
X125254133Y-101165000D01*
X121635000Y-101165000D01*
X121635000Y-101107911D01*
X121599068Y-100927271D01*
X121528586Y-100757111D01*
X121426262Y-100603972D01*
X121296028Y-100473738D01*
X121142889Y-100371414D01*
X120972729Y-100300932D01*
X120792089Y-100265000D01*
X120607911Y-100265000D01*
X120427271Y-100300932D01*
X120272596Y-100365000D01*
X92441007Y-100365000D01*
X92399999Y-100360961D01*
X92358991Y-100365000D01*
X92358981Y-100365000D01*
X92236311Y-100377082D01*
X92078913Y-100424828D01*
X91933854Y-100502364D01*
X91806709Y-100606709D01*
X91780559Y-100638573D01*
X89605504Y-102813628D01*
X89361033Y-102765000D01*
X89038967Y-102765000D01*
X88723088Y-102827832D01*
X88425537Y-102951082D01*
X88157748Y-103130013D01*
X87930013Y-103357748D01*
X87751082Y-103625537D01*
X87627832Y-103923088D01*
X87565000Y-104238967D01*
X87565000Y-104561033D01*
X87589333Y-104683361D01*
X87478814Y-104818029D01*
X87391993Y-104980461D01*
X87363263Y-105075172D01*
X87338529Y-105156709D01*
X87320476Y-105340000D01*
X87325000Y-105385932D01*
X87325000Y-105894069D01*
X87325001Y-110538752D01*
X87313368Y-110546525D01*
X87106525Y-110753368D01*
X86944010Y-110996589D01*
X86832068Y-111266842D01*
X86775000Y-111553740D01*
X86775000Y-111846260D01*
X86832068Y-112133158D01*
X86944010Y-112403411D01*
X87106525Y-112646632D01*
X87313368Y-112853475D01*
X87556589Y-113015990D01*
X87826842Y-113127932D01*
X88113740Y-113185000D01*
X88406260Y-113185000D01*
X88693158Y-113127932D01*
X88963411Y-113015990D01*
X89206632Y-112853475D01*
X89413475Y-112646632D01*
X89530000Y-112472240D01*
X89646525Y-112646632D01*
X89853368Y-112853475D01*
X90096589Y-113015990D01*
X90366842Y-113127932D01*
X90653740Y-113185000D01*
X90946260Y-113185000D01*
X91233158Y-113127932D01*
X91503411Y-113015990D01*
X91746632Y-112853475D01*
X91953475Y-112646632D01*
X92070000Y-112472240D01*
X92186525Y-112646632D01*
X92393368Y-112853475D01*
X92567760Y-112970000D01*
X92393368Y-113086525D01*
X92186525Y-113293368D01*
X92024010Y-113536589D01*
X91912068Y-113806842D01*
X91855000Y-114093740D01*
X91855000Y-114386260D01*
X91912068Y-114673158D01*
X92024010Y-114943411D01*
X92186525Y-115186632D01*
X92393368Y-115393475D01*
X92636589Y-115555990D01*
X92906842Y-115667932D01*
X93193740Y-115725000D01*
X93486260Y-115725000D01*
X93773158Y-115667932D01*
X94043411Y-115555990D01*
X94286632Y-115393475D01*
X94493475Y-115186632D01*
X94610000Y-115012240D01*
X94726525Y-115186632D01*
X94933368Y-115393475D01*
X95176589Y-115555990D01*
X95446842Y-115667932D01*
X95733740Y-115725000D01*
X96026260Y-115725000D01*
X96157940Y-115698807D01*
X96799132Y-116340000D01*
X74260000Y-116340000D01*
X74260000Y-105338967D01*
X79805000Y-105338967D01*
X79805000Y-105661033D01*
X79867832Y-105976912D01*
X79991082Y-106274463D01*
X80170013Y-106542252D01*
X80397748Y-106769987D01*
X80665537Y-106948918D01*
X80963088Y-107072168D01*
X81278967Y-107135000D01*
X81601033Y-107135000D01*
X81916912Y-107072168D01*
X82214463Y-106948918D01*
X82482252Y-106769987D01*
X82709987Y-106542252D01*
X82848468Y-106335000D01*
X83134493Y-106335000D01*
X83170782Y-106379218D01*
X83278838Y-106467898D01*
X83402119Y-106533793D01*
X83535887Y-106574371D01*
X83675000Y-106588072D01*
X84025000Y-106588072D01*
X84164113Y-106574371D01*
X84297881Y-106533793D01*
X84421162Y-106467898D01*
X84515000Y-106390886D01*
X84515001Y-107791879D01*
X84471414Y-107857111D01*
X84400932Y-108027271D01*
X84365000Y-108207911D01*
X84365000Y-108392089D01*
X84400932Y-108572729D01*
X84471414Y-108742889D01*
X84573738Y-108896028D01*
X84703972Y-109026262D01*
X84857111Y-109128586D01*
X85027271Y-109199068D01*
X85207911Y-109235000D01*
X85392089Y-109235000D01*
X85572729Y-109199068D01*
X85742889Y-109128586D01*
X85896028Y-109026262D01*
X86026262Y-108896028D01*
X86128586Y-108742889D01*
X86199068Y-108572729D01*
X86235000Y-108392089D01*
X86235000Y-108207911D01*
X86199068Y-108027271D01*
X86185000Y-107993308D01*
X86185000Y-106143902D01*
X86224371Y-106014113D01*
X86238072Y-105875000D01*
X86238072Y-105125000D01*
X86224371Y-104985887D01*
X86183793Y-104852119D01*
X86117898Y-104728838D01*
X86029218Y-104620782D01*
X85921162Y-104532102D01*
X85797881Y-104466207D01*
X85664113Y-104425629D01*
X85525000Y-104411928D01*
X85175000Y-104411928D01*
X85035887Y-104425629D01*
X84902119Y-104466207D01*
X84778838Y-104532102D01*
X84670782Y-104620782D01*
X84600000Y-104707029D01*
X84529218Y-104620782D01*
X84421162Y-104532102D01*
X84297881Y-104466207D01*
X84164113Y-104425629D01*
X84025000Y-104411928D01*
X83675000Y-104411928D01*
X83535887Y-104425629D01*
X83402119Y-104466207D01*
X83278838Y-104532102D01*
X83170782Y-104620782D01*
X83134493Y-104665000D01*
X82848468Y-104665000D01*
X82709987Y-104457748D01*
X82482252Y-104230013D01*
X82214463Y-104051082D01*
X81916912Y-103927832D01*
X81601033Y-103865000D01*
X81278967Y-103865000D01*
X80963088Y-103927832D01*
X80665537Y-104051082D01*
X80397748Y-104230013D01*
X80170013Y-104457748D01*
X79991082Y-104725537D01*
X79867832Y-105023088D01*
X79805000Y-105338967D01*
X74260000Y-105338967D01*
X74260000Y-99532279D01*
X74298147Y-99143225D01*
X74401763Y-98800033D01*
X74570062Y-98483511D01*
X74796637Y-98205701D01*
X75072856Y-97977194D01*
X75388197Y-97806690D01*
X75730656Y-97700681D01*
X76117712Y-97660000D01*
X85740000Y-97660000D01*
X85740001Y-100767571D01*
G37*
%TD.AperFunction*%
D17*
X119871414Y-105257111D02*
X119800932Y-105427271D01*
X119765000Y-105607911D01*
X119765000Y-105792089D01*
X119800932Y-105972729D01*
X119871414Y-106142889D01*
X119915000Y-106208121D01*
X119915001Y-106709114D01*
X119821162Y-106632102D01*
X119697881Y-106566207D01*
X119564113Y-106525629D01*
X119425000Y-106511928D01*
X119075000Y-106511928D01*
X118935887Y-106525629D01*
X118802119Y-106566207D01*
X118678838Y-106632102D01*
X118570782Y-106720782D01*
X118482102Y-106828838D01*
X118416207Y-106952119D01*
X118375629Y-107085887D01*
X118361928Y-107225000D01*
X118361928Y-107975000D01*
X118375629Y-108114113D01*
X118415001Y-108243904D01*
X118415001Y-108593306D01*
X118400932Y-108627271D01*
X118373536Y-108765000D01*
X117877238Y-108765000D01*
X117874371Y-108735887D01*
X117833793Y-108602119D01*
X117767898Y-108478838D01*
X117679218Y-108370782D01*
X117592971Y-108300000D01*
X117679218Y-108229218D01*
X117767898Y-108121162D01*
X117833793Y-107997881D01*
X117874371Y-107864113D01*
X117888072Y-107725000D01*
X117888072Y-107375000D01*
X117874371Y-107235887D01*
X117833793Y-107102119D01*
X117767898Y-106978838D01*
X117735000Y-106938752D01*
X117735000Y-106807911D01*
X117699068Y-106627271D01*
X117628586Y-106457111D01*
X117526262Y-106303972D01*
X117396028Y-106173738D01*
X117242889Y-106071414D01*
X117072729Y-106000932D01*
X116892089Y-105965000D01*
X116707911Y-105965000D01*
X116527271Y-106000932D01*
X116357111Y-106071414D01*
X116203972Y-106173738D01*
X116073738Y-106303972D01*
X115971414Y-106457111D01*
X115900932Y-106627271D01*
X115865000Y-106807911D01*
X115865000Y-106938752D01*
X115832102Y-106978838D01*
X115766207Y-107102119D01*
X115725629Y-107235887D01*
X115711928Y-107375000D01*
X115711928Y-107725000D01*
X115725629Y-107864113D01*
X115766207Y-107997881D01*
X115832102Y-108121162D01*
X115920782Y-108229218D01*
X116007029Y-108300000D01*
X115920782Y-108370782D01*
X115832102Y-108478838D01*
X115766207Y-108602119D01*
X115725629Y-108735887D01*
X115722762Y-108765000D01*
X115541018Y-108765000D01*
X115500000Y-108760960D01*
X115336311Y-108777082D01*
X115178913Y-108824828D01*
X115033854Y-108902364D01*
X114942810Y-108977082D01*
X114906709Y-109006709D01*
X114880563Y-109038568D01*
X110514133Y-113405000D01*
X104728065Y-113405000D01*
X104653475Y-113293368D01*
X104466392Y-113106285D01*
X104593386Y-113038405D01*
X104727962Y-112927962D01*
X104838405Y-112793386D01*
X104920472Y-112639850D01*
X104952278Y-112535000D01*
X105158982Y-112535000D01*
X105200000Y-112539040D01*
X105241018Y-112535000D01*
X105241019Y-112535000D01*
X105363689Y-112522918D01*
X105521087Y-112475172D01*
X105666146Y-112397636D01*
X105793291Y-112293291D01*
X105819446Y-112261421D01*
X112945868Y-105135000D01*
X119953006Y-105135000D01*
X119871414Y-105257111D01*
%TA.AperFunction,Conductor*%
D18*
G36*
X119871414Y-105257111D02*
G01*
X119800932Y-105427271D01*
X119765000Y-105607911D01*
X119765000Y-105792089D01*
X119800932Y-105972729D01*
X119871414Y-106142889D01*
X119915000Y-106208121D01*
X119915001Y-106709114D01*
X119821162Y-106632102D01*
X119697881Y-106566207D01*
X119564113Y-106525629D01*
X119425000Y-106511928D01*
X119075000Y-106511928D01*
X118935887Y-106525629D01*
X118802119Y-106566207D01*
X118678838Y-106632102D01*
X118570782Y-106720782D01*
X118482102Y-106828838D01*
X118416207Y-106952119D01*
X118375629Y-107085887D01*
X118361928Y-107225000D01*
X118361928Y-107975000D01*
X118375629Y-108114113D01*
X118415001Y-108243904D01*
X118415001Y-108593306D01*
X118400932Y-108627271D01*
X118373536Y-108765000D01*
X117877238Y-108765000D01*
X117874371Y-108735887D01*
X117833793Y-108602119D01*
X117767898Y-108478838D01*
X117679218Y-108370782D01*
X117592971Y-108300000D01*
X117679218Y-108229218D01*
X117767898Y-108121162D01*
X117833793Y-107997881D01*
X117874371Y-107864113D01*
X117888072Y-107725000D01*
X117888072Y-107375000D01*
X117874371Y-107235887D01*
X117833793Y-107102119D01*
X117767898Y-106978838D01*
X117735000Y-106938752D01*
X117735000Y-106807911D01*
X117699068Y-106627271D01*
X117628586Y-106457111D01*
X117526262Y-106303972D01*
X117396028Y-106173738D01*
X117242889Y-106071414D01*
X117072729Y-106000932D01*
X116892089Y-105965000D01*
X116707911Y-105965000D01*
X116527271Y-106000932D01*
X116357111Y-106071414D01*
X116203972Y-106173738D01*
X116073738Y-106303972D01*
X115971414Y-106457111D01*
X115900932Y-106627271D01*
X115865000Y-106807911D01*
X115865000Y-106938752D01*
X115832102Y-106978838D01*
X115766207Y-107102119D01*
X115725629Y-107235887D01*
X115711928Y-107375000D01*
X115711928Y-107725000D01*
X115725629Y-107864113D01*
X115766207Y-107997881D01*
X115832102Y-108121162D01*
X115920782Y-108229218D01*
X116007029Y-108300000D01*
X115920782Y-108370782D01*
X115832102Y-108478838D01*
X115766207Y-108602119D01*
X115725629Y-108735887D01*
X115722762Y-108765000D01*
X115541018Y-108765000D01*
X115500000Y-108760960D01*
X115336311Y-108777082D01*
X115178913Y-108824828D01*
X115033854Y-108902364D01*
X114942810Y-108977082D01*
X114906709Y-109006709D01*
X114880563Y-109038568D01*
X110514133Y-113405000D01*
X104728065Y-113405000D01*
X104653475Y-113293368D01*
X104466392Y-113106285D01*
X104593386Y-113038405D01*
X104727962Y-112927962D01*
X104838405Y-112793386D01*
X104920472Y-112639850D01*
X104952278Y-112535000D01*
X105158982Y-112535000D01*
X105200000Y-112539040D01*
X105241018Y-112535000D01*
X105241019Y-112535000D01*
X105363689Y-112522918D01*
X105521087Y-112475172D01*
X105666146Y-112397636D01*
X105793291Y-112293291D01*
X105819446Y-112261421D01*
X112945868Y-105135000D01*
X119953006Y-105135000D01*
X119871414Y-105257111D01*
G37*
%TD.AperFunction*%
D17*
X100832102Y-102978838D02*
X100766207Y-103102119D01*
X100725629Y-103235887D01*
X100711928Y-103375000D01*
X100711928Y-103725000D01*
X100725629Y-103864113D01*
X100766207Y-103997881D01*
X100832102Y-104121162D01*
X100877630Y-104176638D01*
X100797748Y-104230013D01*
X100570013Y-104457748D01*
X100391082Y-104725537D01*
X100267832Y-105023088D01*
X100205000Y-105338967D01*
X100205000Y-105661033D01*
X100230401Y-105788731D01*
X95804133Y-110215000D01*
X95733740Y-110215000D01*
X95446842Y-110272068D01*
X95176589Y-110384010D01*
X94933368Y-110546525D01*
X94726525Y-110753368D01*
X94610000Y-110927760D01*
X94493475Y-110753368D01*
X94286632Y-110546525D01*
X94043411Y-110384010D01*
X93773158Y-110272068D01*
X93486260Y-110215000D01*
X93193740Y-110215000D01*
X92906842Y-110272068D01*
X92636589Y-110384010D01*
X92393368Y-110546525D01*
X92186525Y-110753368D01*
X92070000Y-110927760D01*
X91953475Y-110753368D01*
X91746632Y-110546525D01*
X91735000Y-110538753D01*
X91735000Y-108487289D01*
X92328665Y-107893625D01*
X92364344Y-107864344D01*
X92481186Y-107721972D01*
X92568007Y-107559540D01*
X92616120Y-107400932D01*
X92621471Y-107383293D01*
X92639524Y-107200001D01*
X92635000Y-107154069D01*
X92635000Y-106517933D01*
X92710314Y-106426162D01*
X92780367Y-106295102D01*
X92823506Y-106152893D01*
X92838072Y-106005000D01*
X92838072Y-104995000D01*
X92823506Y-104847107D01*
X92780367Y-104704898D01*
X92710314Y-104573838D01*
X92616038Y-104458962D01*
X92535000Y-104392456D01*
X92535000Y-104145867D01*
X93795869Y-102885000D01*
X100909113Y-102885000D01*
X100832102Y-102978838D01*
%TA.AperFunction,Conductor*%
D18*
G36*
X100832102Y-102978838D02*
G01*
X100766207Y-103102119D01*
X100725629Y-103235887D01*
X100711928Y-103375000D01*
X100711928Y-103725000D01*
X100725629Y-103864113D01*
X100766207Y-103997881D01*
X100832102Y-104121162D01*
X100877630Y-104176638D01*
X100797748Y-104230013D01*
X100570013Y-104457748D01*
X100391082Y-104725537D01*
X100267832Y-105023088D01*
X100205000Y-105338967D01*
X100205000Y-105661033D01*
X100230401Y-105788731D01*
X95804133Y-110215000D01*
X95733740Y-110215000D01*
X95446842Y-110272068D01*
X95176589Y-110384010D01*
X94933368Y-110546525D01*
X94726525Y-110753368D01*
X94610000Y-110927760D01*
X94493475Y-110753368D01*
X94286632Y-110546525D01*
X94043411Y-110384010D01*
X93773158Y-110272068D01*
X93486260Y-110215000D01*
X93193740Y-110215000D01*
X92906842Y-110272068D01*
X92636589Y-110384010D01*
X92393368Y-110546525D01*
X92186525Y-110753368D01*
X92070000Y-110927760D01*
X91953475Y-110753368D01*
X91746632Y-110546525D01*
X91735000Y-110538753D01*
X91735000Y-108487289D01*
X92328665Y-107893625D01*
X92364344Y-107864344D01*
X92481186Y-107721972D01*
X92568007Y-107559540D01*
X92616120Y-107400932D01*
X92621471Y-107383293D01*
X92639524Y-107200001D01*
X92635000Y-107154069D01*
X92635000Y-106517933D01*
X92710314Y-106426162D01*
X92780367Y-106295102D01*
X92823506Y-106152893D01*
X92838072Y-106005000D01*
X92838072Y-104995000D01*
X92823506Y-104847107D01*
X92780367Y-104704898D01*
X92710314Y-104573838D01*
X92616038Y-104458962D01*
X92535000Y-104392456D01*
X92535000Y-104145867D01*
X93795869Y-102885000D01*
X100909113Y-102885000D01*
X100832102Y-102978838D01*
G37*
%TD.AperFunction*%
D17*
X160732102Y-103178838D02*
X160666207Y-103302119D01*
X160625629Y-103435887D01*
X160611928Y-103575000D01*
X160611928Y-103925000D01*
X160625629Y-104064113D01*
X160666207Y-104197881D01*
X160720791Y-104300000D01*
X160666207Y-104402119D01*
X160625629Y-104535887D01*
X160611928Y-104675000D01*
X160611928Y-105025000D01*
X160625629Y-105164113D01*
X160666207Y-105297881D01*
X160732102Y-105421162D01*
X160820782Y-105529218D01*
X160928838Y-105617898D01*
X161052119Y-105683793D01*
X161185887Y-105724371D01*
X161325000Y-105738072D01*
X162075000Y-105738072D01*
X162214113Y-105724371D01*
X162347881Y-105683793D01*
X162471162Y-105617898D01*
X162579218Y-105529218D01*
X162600965Y-105502720D01*
X162648418Y-105528084D01*
X162796255Y-105572929D01*
X162950000Y-105588072D01*
X164050000Y-105588072D01*
X164203745Y-105572929D01*
X164351582Y-105528084D01*
X164361928Y-105522554D01*
X164361928Y-105750000D01*
X164377071Y-105903745D01*
X164421916Y-106051582D01*
X164494742Y-106187829D01*
X164592749Y-106307251D01*
X164712171Y-106405258D01*
X164848418Y-106478084D01*
X164996255Y-106522929D01*
X165069253Y-106530119D01*
X165003972Y-106573738D01*
X164873738Y-106703972D01*
X164771414Y-106857111D01*
X164700932Y-107027271D01*
X164665000Y-107207911D01*
X164665000Y-107392089D01*
X164700932Y-107572729D01*
X164771414Y-107742889D01*
X164783284Y-107760653D01*
X164775629Y-107785887D01*
X164761928Y-107925000D01*
X164761928Y-108675000D01*
X164770792Y-108765000D01*
X161941018Y-108765000D01*
X161899999Y-108760960D01*
X161757450Y-108775000D01*
X161736311Y-108777082D01*
X161578913Y-108824828D01*
X161433854Y-108902364D01*
X161306709Y-109006709D01*
X161280561Y-109038571D01*
X160804133Y-109515000D01*
X159643953Y-109515000D01*
X159635314Y-109498838D01*
X159541038Y-109383962D01*
X159426162Y-109289686D01*
X159295102Y-109219633D01*
X159152893Y-109176494D01*
X159005000Y-109161928D01*
X157995000Y-109161928D01*
X157847107Y-109176494D01*
X157704898Y-109219633D01*
X157573838Y-109289686D01*
X157458962Y-109383962D01*
X157364686Y-109498838D01*
X157356047Y-109515000D01*
X156990887Y-109515000D01*
X157067898Y-109421162D01*
X157133793Y-109297881D01*
X157174371Y-109164113D01*
X157188072Y-109025000D01*
X157188072Y-108675000D01*
X157174371Y-108535887D01*
X157133793Y-108402119D01*
X157067898Y-108278838D01*
X156979218Y-108170782D01*
X156871162Y-108082102D01*
X156747881Y-108016207D01*
X156614113Y-107975629D01*
X156475000Y-107961928D01*
X155725000Y-107961928D01*
X155585887Y-107975629D01*
X155456098Y-108015000D01*
X155106692Y-108015000D01*
X155072729Y-108000932D01*
X154892089Y-107965000D01*
X154707911Y-107965000D01*
X154527271Y-108000932D01*
X154357111Y-108071414D01*
X154203972Y-108173738D01*
X154073738Y-108303972D01*
X153971414Y-108457111D01*
X153900932Y-108627271D01*
X153865000Y-108807911D01*
X153865000Y-108992089D01*
X153900932Y-109172729D01*
X153971414Y-109342889D01*
X154073738Y-109496028D01*
X154092710Y-109515000D01*
X143007290Y-109515000D01*
X143026262Y-109496028D01*
X143128586Y-109342889D01*
X143199068Y-109172729D01*
X143235000Y-108992089D01*
X143235000Y-108807911D01*
X143199068Y-108627271D01*
X143128586Y-108457111D01*
X143026262Y-108303972D01*
X142896028Y-108173738D01*
X142742889Y-108071414D01*
X142572729Y-108000932D01*
X142392089Y-107965000D01*
X142207911Y-107965000D01*
X142027271Y-108000932D01*
X141993308Y-108015000D01*
X141643902Y-108015000D01*
X141514113Y-107975629D01*
X141375000Y-107961928D01*
X140625000Y-107961928D01*
X140485887Y-107975629D01*
X140352119Y-108016207D01*
X140228838Y-108082102D01*
X140120782Y-108170782D01*
X140032102Y-108278838D01*
X139966207Y-108402119D01*
X139925629Y-108535887D01*
X139911928Y-108675000D01*
X139911928Y-109025000D01*
X139925629Y-109164113D01*
X139966207Y-109297881D01*
X140032102Y-109421162D01*
X140109113Y-109515000D01*
X137595869Y-109515000D01*
X136419446Y-108338578D01*
X136393291Y-108306709D01*
X136266146Y-108202364D01*
X136121087Y-108124828D01*
X135963689Y-108077082D01*
X135841019Y-108065000D01*
X135841018Y-108065000D01*
X135800000Y-108060960D01*
X135758982Y-108065000D01*
X132835618Y-108065000D01*
X132879218Y-108029218D01*
X132967898Y-107921162D01*
X133033793Y-107797881D01*
X133074371Y-107664113D01*
X133088072Y-107525000D01*
X133088072Y-107175000D01*
X133074371Y-107035887D01*
X133033793Y-106902119D01*
X132967898Y-106778838D01*
X132879218Y-106670782D01*
X132792971Y-106600000D01*
X132879218Y-106529218D01*
X132967898Y-106421162D01*
X133033793Y-106297881D01*
X133074371Y-106164113D01*
X133088072Y-106025000D01*
X133088072Y-105675000D01*
X133074371Y-105535887D01*
X133033793Y-105402119D01*
X132967898Y-105278838D01*
X132879218Y-105170782D01*
X132771162Y-105082102D01*
X132647881Y-105016207D01*
X132514113Y-104975629D01*
X132375000Y-104961928D01*
X132292795Y-104961928D01*
X132169446Y-104838579D01*
X132143291Y-104806709D01*
X132016146Y-104702364D01*
X131871087Y-104624828D01*
X131713689Y-104577082D01*
X131591019Y-104565000D01*
X131591018Y-104565000D01*
X131550000Y-104560960D01*
X131508982Y-104565000D01*
X131366546Y-104565000D01*
X131307251Y-104492749D01*
X131187829Y-104394742D01*
X131051582Y-104321916D01*
X130903745Y-104277071D01*
X130750000Y-104261928D01*
X129650000Y-104261928D01*
X129496255Y-104277071D01*
X129348418Y-104321916D01*
X129338072Y-104327446D01*
X129338072Y-104100000D01*
X129322929Y-103946255D01*
X129278084Y-103798418D01*
X129205258Y-103662171D01*
X129107251Y-103542749D01*
X128987829Y-103444742D01*
X128851582Y-103371916D01*
X128703745Y-103327071D01*
X128550000Y-103311928D01*
X127868940Y-103311928D01*
X128095868Y-103085000D01*
X160809113Y-103085000D01*
X160732102Y-103178838D01*
%TA.AperFunction,Conductor*%
D18*
G36*
X160732102Y-103178838D02*
G01*
X160666207Y-103302119D01*
X160625629Y-103435887D01*
X160611928Y-103575000D01*
X160611928Y-103925000D01*
X160625629Y-104064113D01*
X160666207Y-104197881D01*
X160720791Y-104300000D01*
X160666207Y-104402119D01*
X160625629Y-104535887D01*
X160611928Y-104675000D01*
X160611928Y-105025000D01*
X160625629Y-105164113D01*
X160666207Y-105297881D01*
X160732102Y-105421162D01*
X160820782Y-105529218D01*
X160928838Y-105617898D01*
X161052119Y-105683793D01*
X161185887Y-105724371D01*
X161325000Y-105738072D01*
X162075000Y-105738072D01*
X162214113Y-105724371D01*
X162347881Y-105683793D01*
X162471162Y-105617898D01*
X162579218Y-105529218D01*
X162600965Y-105502720D01*
X162648418Y-105528084D01*
X162796255Y-105572929D01*
X162950000Y-105588072D01*
X164050000Y-105588072D01*
X164203745Y-105572929D01*
X164351582Y-105528084D01*
X164361928Y-105522554D01*
X164361928Y-105750000D01*
X164377071Y-105903745D01*
X164421916Y-106051582D01*
X164494742Y-106187829D01*
X164592749Y-106307251D01*
X164712171Y-106405258D01*
X164848418Y-106478084D01*
X164996255Y-106522929D01*
X165069253Y-106530119D01*
X165003972Y-106573738D01*
X164873738Y-106703972D01*
X164771414Y-106857111D01*
X164700932Y-107027271D01*
X164665000Y-107207911D01*
X164665000Y-107392089D01*
X164700932Y-107572729D01*
X164771414Y-107742889D01*
X164783284Y-107760653D01*
X164775629Y-107785887D01*
X164761928Y-107925000D01*
X164761928Y-108675000D01*
X164770792Y-108765000D01*
X161941018Y-108765000D01*
X161899999Y-108760960D01*
X161757450Y-108775000D01*
X161736311Y-108777082D01*
X161578913Y-108824828D01*
X161433854Y-108902364D01*
X161306709Y-109006709D01*
X161280561Y-109038571D01*
X160804133Y-109515000D01*
X159643953Y-109515000D01*
X159635314Y-109498838D01*
X159541038Y-109383962D01*
X159426162Y-109289686D01*
X159295102Y-109219633D01*
X159152893Y-109176494D01*
X159005000Y-109161928D01*
X157995000Y-109161928D01*
X157847107Y-109176494D01*
X157704898Y-109219633D01*
X157573838Y-109289686D01*
X157458962Y-109383962D01*
X157364686Y-109498838D01*
X157356047Y-109515000D01*
X156990887Y-109515000D01*
X157067898Y-109421162D01*
X157133793Y-109297881D01*
X157174371Y-109164113D01*
X157188072Y-109025000D01*
X157188072Y-108675000D01*
X157174371Y-108535887D01*
X157133793Y-108402119D01*
X157067898Y-108278838D01*
X156979218Y-108170782D01*
X156871162Y-108082102D01*
X156747881Y-108016207D01*
X156614113Y-107975629D01*
X156475000Y-107961928D01*
X155725000Y-107961928D01*
X155585887Y-107975629D01*
X155456098Y-108015000D01*
X155106692Y-108015000D01*
X155072729Y-108000932D01*
X154892089Y-107965000D01*
X154707911Y-107965000D01*
X154527271Y-108000932D01*
X154357111Y-108071414D01*
X154203972Y-108173738D01*
X154073738Y-108303972D01*
X153971414Y-108457111D01*
X153900932Y-108627271D01*
X153865000Y-108807911D01*
X153865000Y-108992089D01*
X153900932Y-109172729D01*
X153971414Y-109342889D01*
X154073738Y-109496028D01*
X154092710Y-109515000D01*
X143007290Y-109515000D01*
X143026262Y-109496028D01*
X143128586Y-109342889D01*
X143199068Y-109172729D01*
X143235000Y-108992089D01*
X143235000Y-108807911D01*
X143199068Y-108627271D01*
X143128586Y-108457111D01*
X143026262Y-108303972D01*
X142896028Y-108173738D01*
X142742889Y-108071414D01*
X142572729Y-108000932D01*
X142392089Y-107965000D01*
X142207911Y-107965000D01*
X142027271Y-108000932D01*
X141993308Y-108015000D01*
X141643902Y-108015000D01*
X141514113Y-107975629D01*
X141375000Y-107961928D01*
X140625000Y-107961928D01*
X140485887Y-107975629D01*
X140352119Y-108016207D01*
X140228838Y-108082102D01*
X140120782Y-108170782D01*
X140032102Y-108278838D01*
X139966207Y-108402119D01*
X139925629Y-108535887D01*
X139911928Y-108675000D01*
X139911928Y-109025000D01*
X139925629Y-109164113D01*
X139966207Y-109297881D01*
X140032102Y-109421162D01*
X140109113Y-109515000D01*
X137595869Y-109515000D01*
X136419446Y-108338578D01*
X136393291Y-108306709D01*
X136266146Y-108202364D01*
X136121087Y-108124828D01*
X135963689Y-108077082D01*
X135841019Y-108065000D01*
X135841018Y-108065000D01*
X135800000Y-108060960D01*
X135758982Y-108065000D01*
X132835618Y-108065000D01*
X132879218Y-108029218D01*
X132967898Y-107921162D01*
X133033793Y-107797881D01*
X133074371Y-107664113D01*
X133088072Y-107525000D01*
X133088072Y-107175000D01*
X133074371Y-107035887D01*
X133033793Y-106902119D01*
X132967898Y-106778838D01*
X132879218Y-106670782D01*
X132792971Y-106600000D01*
X132879218Y-106529218D01*
X132967898Y-106421162D01*
X133033793Y-106297881D01*
X133074371Y-106164113D01*
X133088072Y-106025000D01*
X133088072Y-105675000D01*
X133074371Y-105535887D01*
X133033793Y-105402119D01*
X132967898Y-105278838D01*
X132879218Y-105170782D01*
X132771162Y-105082102D01*
X132647881Y-105016207D01*
X132514113Y-104975629D01*
X132375000Y-104961928D01*
X132292795Y-104961928D01*
X132169446Y-104838579D01*
X132143291Y-104806709D01*
X132016146Y-104702364D01*
X131871087Y-104624828D01*
X131713689Y-104577082D01*
X131591019Y-104565000D01*
X131591018Y-104565000D01*
X131550000Y-104560960D01*
X131508982Y-104565000D01*
X131366546Y-104565000D01*
X131307251Y-104492749D01*
X131187829Y-104394742D01*
X131051582Y-104321916D01*
X130903745Y-104277071D01*
X130750000Y-104261928D01*
X129650000Y-104261928D01*
X129496255Y-104277071D01*
X129348418Y-104321916D01*
X129338072Y-104327446D01*
X129338072Y-104100000D01*
X129322929Y-103946255D01*
X129278084Y-103798418D01*
X129205258Y-103662171D01*
X129107251Y-103542749D01*
X128987829Y-103444742D01*
X128851582Y-103371916D01*
X128703745Y-103327071D01*
X128550000Y-103311928D01*
X127868940Y-103311928D01*
X128095868Y-103085000D01*
X160809113Y-103085000D01*
X160732102Y-103178838D01*
G37*
%TD.AperFunction*%
D17*
X198630559Y-102811426D02*
X198656709Y-102843291D01*
X198783854Y-102947636D01*
X198928913Y-103025172D01*
X199086311Y-103072918D01*
X199208981Y-103085000D01*
X199208991Y-103085000D01*
X199249999Y-103089039D01*
X199291007Y-103085000D01*
X231809113Y-103085000D01*
X231732102Y-103178838D01*
X231666207Y-103302119D01*
X231625629Y-103435887D01*
X231611928Y-103575000D01*
X231611928Y-103925000D01*
X231625629Y-104064113D01*
X231666207Y-104197881D01*
X231720791Y-104300000D01*
X231666207Y-104402119D01*
X231625629Y-104535887D01*
X231611928Y-104675000D01*
X231611928Y-105025000D01*
X231625629Y-105164113D01*
X231666207Y-105297881D01*
X231732102Y-105421162D01*
X231820782Y-105529218D01*
X231928838Y-105617898D01*
X232052119Y-105683793D01*
X232185887Y-105724371D01*
X232325000Y-105738072D01*
X233075000Y-105738072D01*
X233214113Y-105724371D01*
X233347881Y-105683793D01*
X233471162Y-105617898D01*
X233579218Y-105529218D01*
X233600965Y-105502720D01*
X233648418Y-105528084D01*
X233796255Y-105572929D01*
X233950000Y-105588072D01*
X235050000Y-105588072D01*
X235203745Y-105572929D01*
X235351582Y-105528084D01*
X235361928Y-105522554D01*
X235361928Y-105750000D01*
X235377071Y-105903745D01*
X235421916Y-106051582D01*
X235494742Y-106187829D01*
X235592749Y-106307251D01*
X235712171Y-106405258D01*
X235848418Y-106478084D01*
X235996255Y-106522929D01*
X236069253Y-106530119D01*
X236003972Y-106573738D01*
X235873738Y-106703972D01*
X235771414Y-106857111D01*
X235700932Y-107027271D01*
X235665000Y-107207911D01*
X235665000Y-107392089D01*
X235700932Y-107572729D01*
X235715001Y-107606694D01*
X235715001Y-107756096D01*
X235675629Y-107885887D01*
X235661928Y-108025000D01*
X235661928Y-108775000D01*
X235675629Y-108914113D01*
X235716207Y-109047881D01*
X235782102Y-109171162D01*
X235870782Y-109279218D01*
X235978838Y-109367898D01*
X236102119Y-109433793D01*
X236235887Y-109474371D01*
X236375000Y-109488072D01*
X236631061Y-109488072D01*
X236604133Y-109515000D01*
X227990887Y-109515000D01*
X228067898Y-109421162D01*
X228133793Y-109297881D01*
X228174371Y-109164113D01*
X228188072Y-109025000D01*
X228188072Y-108675000D01*
X228174371Y-108535887D01*
X228133793Y-108402119D01*
X228067898Y-108278838D01*
X227979218Y-108170782D01*
X227871162Y-108082102D01*
X227747881Y-108016207D01*
X227614113Y-107975629D01*
X227475000Y-107961928D01*
X226725000Y-107961928D01*
X226585887Y-107975629D01*
X226456098Y-108015000D01*
X226106692Y-108015000D01*
X226072729Y-108000932D01*
X225892089Y-107965000D01*
X225707911Y-107965000D01*
X225527271Y-108000932D01*
X225357111Y-108071414D01*
X225203972Y-108173738D01*
X225073738Y-108303972D01*
X224971414Y-108457111D01*
X224900932Y-108627271D01*
X224865000Y-108807911D01*
X224865000Y-108992089D01*
X224900932Y-109172729D01*
X224971414Y-109342889D01*
X225073738Y-109496028D01*
X225092710Y-109515000D01*
X214007290Y-109515000D01*
X214026262Y-109496028D01*
X214128586Y-109342889D01*
X214199068Y-109172729D01*
X214235000Y-108992089D01*
X214235000Y-108807911D01*
X214199068Y-108627271D01*
X214128586Y-108457111D01*
X214026262Y-108303972D01*
X213896028Y-108173738D01*
X213742889Y-108071414D01*
X213572729Y-108000932D01*
X213392089Y-107965000D01*
X213207911Y-107965000D01*
X213027271Y-108000932D01*
X212993308Y-108015000D01*
X212643902Y-108015000D01*
X212514113Y-107975629D01*
X212375000Y-107961928D01*
X211625000Y-107961928D01*
X211485887Y-107975629D01*
X211352119Y-108016207D01*
X211228838Y-108082102D01*
X211120782Y-108170782D01*
X211032102Y-108278838D01*
X210966207Y-108402119D01*
X210925629Y-108535887D01*
X210911928Y-108675000D01*
X210911928Y-109025000D01*
X210925629Y-109164113D01*
X210966207Y-109297881D01*
X211032102Y-109421162D01*
X211109113Y-109515000D01*
X192490887Y-109515000D01*
X192567898Y-109421162D01*
X192633793Y-109297881D01*
X192674371Y-109164113D01*
X192688072Y-109025000D01*
X192688072Y-108675000D01*
X192674371Y-108535887D01*
X192633793Y-108402119D01*
X192567898Y-108278838D01*
X192479218Y-108170782D01*
X192371162Y-108082102D01*
X192247881Y-108016207D01*
X192114113Y-107975629D01*
X191975000Y-107961928D01*
X191225000Y-107961928D01*
X191085887Y-107975629D01*
X190956098Y-108015000D01*
X190606692Y-108015000D01*
X190572729Y-108000932D01*
X190392089Y-107965000D01*
X190207911Y-107965000D01*
X190027271Y-108000932D01*
X189857111Y-108071414D01*
X189703972Y-108173738D01*
X189573738Y-108303972D01*
X189471414Y-108457111D01*
X189400932Y-108627271D01*
X189365000Y-108807911D01*
X189365000Y-108992089D01*
X189400932Y-109172729D01*
X189471414Y-109342889D01*
X189573738Y-109496028D01*
X189592710Y-109515000D01*
X178507290Y-109515000D01*
X178526262Y-109496028D01*
X178628586Y-109342889D01*
X178699068Y-109172729D01*
X178735000Y-108992089D01*
X178735000Y-108807911D01*
X178699068Y-108627271D01*
X178628586Y-108457111D01*
X178526262Y-108303972D01*
X178396028Y-108173738D01*
X178242889Y-108071414D01*
X178072729Y-108000932D01*
X177892089Y-107965000D01*
X177707911Y-107965000D01*
X177527271Y-108000932D01*
X177493308Y-108015000D01*
X177143902Y-108015000D01*
X177014113Y-107975629D01*
X176875000Y-107961928D01*
X176125000Y-107961928D01*
X175985887Y-107975629D01*
X175852119Y-108016207D01*
X175728838Y-108082102D01*
X175620782Y-108170782D01*
X175532102Y-108278838D01*
X175466207Y-108402119D01*
X175425629Y-108535887D01*
X175411928Y-108675000D01*
X175411928Y-109025000D01*
X175425629Y-109164113D01*
X175466207Y-109297881D01*
X175532102Y-109421162D01*
X175609113Y-109515000D01*
X171595868Y-109515000D01*
X171119446Y-109038578D01*
X171093291Y-109006709D01*
X170966146Y-108902364D01*
X170821087Y-108824828D01*
X170663689Y-108777082D01*
X170541019Y-108765000D01*
X170541018Y-108765000D01*
X170500000Y-108760960D01*
X170458982Y-108765000D01*
X166529208Y-108765000D01*
X166538072Y-108675000D01*
X166538072Y-108185000D01*
X166856098Y-108185000D01*
X166985887Y-108224371D01*
X167125000Y-108238072D01*
X167875000Y-108238072D01*
X168014113Y-108224371D01*
X168147881Y-108183793D01*
X168271162Y-108117898D01*
X168379218Y-108029218D01*
X168467898Y-107921162D01*
X168533793Y-107797881D01*
X168574371Y-107664113D01*
X168588072Y-107525000D01*
X168588072Y-107175000D01*
X168574371Y-107035887D01*
X168533793Y-106902119D01*
X168467898Y-106778838D01*
X168379218Y-106670782D01*
X168292971Y-106600000D01*
X168379218Y-106529218D01*
X168467898Y-106421162D01*
X168533793Y-106297881D01*
X168574371Y-106164113D01*
X168588072Y-106025000D01*
X168588072Y-105675000D01*
X168574371Y-105535887D01*
X168533793Y-105402119D01*
X168467898Y-105278838D01*
X168379218Y-105170782D01*
X168271162Y-105082102D01*
X168147881Y-105016207D01*
X168014113Y-104975629D01*
X167875000Y-104961928D01*
X167792795Y-104961928D01*
X167669446Y-104838579D01*
X167643291Y-104806709D01*
X167516146Y-104702364D01*
X167371087Y-104624828D01*
X167213689Y-104577082D01*
X167091019Y-104565000D01*
X167091018Y-104565000D01*
X167050000Y-104560960D01*
X167008982Y-104565000D01*
X166866546Y-104565000D01*
X166807251Y-104492749D01*
X166687829Y-104394742D01*
X166551582Y-104321916D01*
X166403745Y-104277071D01*
X166250000Y-104261928D01*
X165150000Y-104261928D01*
X164996255Y-104277071D01*
X164848418Y-104321916D01*
X164838072Y-104327446D01*
X164838072Y-104100000D01*
X164822929Y-103946255D01*
X164778084Y-103798418D01*
X164705258Y-103662171D01*
X164607251Y-103542749D01*
X164487829Y-103444742D01*
X164351582Y-103371916D01*
X164203745Y-103327071D01*
X164050000Y-103311928D01*
X162950000Y-103311928D01*
X162796255Y-103327071D01*
X162745988Y-103342319D01*
X162733793Y-103302119D01*
X162667898Y-103178838D01*
X162579218Y-103070782D01*
X162492971Y-103000000D01*
X162579218Y-102929218D01*
X162667898Y-102821162D01*
X162733793Y-102697881D01*
X162774371Y-102564113D01*
X162775167Y-102556035D01*
X163030561Y-102811430D01*
X163056709Y-102843291D01*
X163088568Y-102869437D01*
X163088570Y-102869439D01*
X163183854Y-102947636D01*
X163328913Y-103025172D01*
X163486311Y-103072918D01*
X163650000Y-103089040D01*
X163691018Y-103085000D01*
X196309113Y-103085000D01*
X196232102Y-103178838D01*
X196166207Y-103302119D01*
X196125629Y-103435887D01*
X196111928Y-103575000D01*
X196111928Y-103925000D01*
X196125629Y-104064113D01*
X196166207Y-104197881D01*
X196220791Y-104300000D01*
X196166207Y-104402119D01*
X196125629Y-104535887D01*
X196111928Y-104675000D01*
X196111928Y-105025000D01*
X196125629Y-105164113D01*
X196166207Y-105297881D01*
X196232102Y-105421162D01*
X196320782Y-105529218D01*
X196428838Y-105617898D01*
X196552119Y-105683793D01*
X196685887Y-105724371D01*
X196825000Y-105738072D01*
X197575000Y-105738072D01*
X197714113Y-105724371D01*
X197847881Y-105683793D01*
X197971162Y-105617898D01*
X198079218Y-105529218D01*
X198100965Y-105502720D01*
X198148418Y-105528084D01*
X198296255Y-105572929D01*
X198450000Y-105588072D01*
X199550000Y-105588072D01*
X199703745Y-105572929D01*
X199851582Y-105528084D01*
X199861928Y-105522554D01*
X199861928Y-105750000D01*
X199877071Y-105903745D01*
X199921916Y-106051582D01*
X199994742Y-106187829D01*
X200092749Y-106307251D01*
X200212171Y-106405258D01*
X200348418Y-106478084D01*
X200485084Y-106519541D01*
X200403972Y-106573738D01*
X200273738Y-106703972D01*
X200171414Y-106857111D01*
X200100932Y-107027271D01*
X200065000Y-107207911D01*
X200065000Y-107392089D01*
X200100932Y-107572729D01*
X200171414Y-107742889D01*
X200204147Y-107791877D01*
X200175629Y-107885887D01*
X200161928Y-108025000D01*
X200161928Y-108775000D01*
X200175629Y-108914113D01*
X200216207Y-109047881D01*
X200282102Y-109171162D01*
X200370782Y-109279218D01*
X200478838Y-109367898D01*
X200602119Y-109433793D01*
X200735887Y-109474371D01*
X200875000Y-109488072D01*
X201225000Y-109488072D01*
X201364113Y-109474371D01*
X201497881Y-109433793D01*
X201621162Y-109367898D01*
X201729218Y-109279218D01*
X201817898Y-109171162D01*
X201883793Y-109047881D01*
X201924371Y-108914113D01*
X201938072Y-108775000D01*
X201938072Y-108185000D01*
X202356098Y-108185000D01*
X202485887Y-108224371D01*
X202625000Y-108238072D01*
X203375000Y-108238072D01*
X203514113Y-108224371D01*
X203647881Y-108183793D01*
X203771162Y-108117898D01*
X203879218Y-108029218D01*
X203967898Y-107921162D01*
X204033793Y-107797881D01*
X204074371Y-107664113D01*
X204088072Y-107525000D01*
X204088072Y-107175000D01*
X204074371Y-107035887D01*
X204033793Y-106902119D01*
X203967898Y-106778838D01*
X203879218Y-106670782D01*
X203792971Y-106600000D01*
X203879218Y-106529218D01*
X203967898Y-106421162D01*
X204033793Y-106297881D01*
X204074371Y-106164113D01*
X204088072Y-106025000D01*
X204088072Y-105675000D01*
X204074371Y-105535887D01*
X204033793Y-105402119D01*
X203967898Y-105278838D01*
X203879218Y-105170782D01*
X203771162Y-105082102D01*
X203647881Y-105016207D01*
X203514113Y-104975629D01*
X203375000Y-104961928D01*
X203292795Y-104961928D01*
X203169446Y-104838579D01*
X203143291Y-104806709D01*
X203016146Y-104702364D01*
X202871087Y-104624828D01*
X202713689Y-104577082D01*
X202591019Y-104565000D01*
X202591018Y-104565000D01*
X202550000Y-104560960D01*
X202508982Y-104565000D01*
X202366546Y-104565000D01*
X202307251Y-104492749D01*
X202187829Y-104394742D01*
X202051582Y-104321916D01*
X201903745Y-104277071D01*
X201750000Y-104261928D01*
X200650000Y-104261928D01*
X200496255Y-104277071D01*
X200348418Y-104321916D01*
X200338072Y-104327446D01*
X200338072Y-104100000D01*
X200322929Y-103946255D01*
X200278084Y-103798418D01*
X200205258Y-103662171D01*
X200107251Y-103542749D01*
X199987829Y-103444742D01*
X199851582Y-103371916D01*
X199703745Y-103327071D01*
X199550000Y-103311928D01*
X198450000Y-103311928D01*
X198296255Y-103327071D01*
X198245988Y-103342319D01*
X198233793Y-103302119D01*
X198167898Y-103178838D01*
X198079218Y-103070782D01*
X197992971Y-103000000D01*
X198079218Y-102929218D01*
X198167898Y-102821162D01*
X198233793Y-102697881D01*
X198274371Y-102564113D01*
X198284132Y-102465000D01*
X198630559Y-102811426D01*
%TA.AperFunction,Conductor*%
D18*
G36*
X198630559Y-102811426D02*
G01*
X198656709Y-102843291D01*
X198783854Y-102947636D01*
X198928913Y-103025172D01*
X199086311Y-103072918D01*
X199208981Y-103085000D01*
X199208991Y-103085000D01*
X199249999Y-103089039D01*
X199291007Y-103085000D01*
X231809113Y-103085000D01*
X231732102Y-103178838D01*
X231666207Y-103302119D01*
X231625629Y-103435887D01*
X231611928Y-103575000D01*
X231611928Y-103925000D01*
X231625629Y-104064113D01*
X231666207Y-104197881D01*
X231720791Y-104300000D01*
X231666207Y-104402119D01*
X231625629Y-104535887D01*
X231611928Y-104675000D01*
X231611928Y-105025000D01*
X231625629Y-105164113D01*
X231666207Y-105297881D01*
X231732102Y-105421162D01*
X231820782Y-105529218D01*
X231928838Y-105617898D01*
X232052119Y-105683793D01*
X232185887Y-105724371D01*
X232325000Y-105738072D01*
X233075000Y-105738072D01*
X233214113Y-105724371D01*
X233347881Y-105683793D01*
X233471162Y-105617898D01*
X233579218Y-105529218D01*
X233600965Y-105502720D01*
X233648418Y-105528084D01*
X233796255Y-105572929D01*
X233950000Y-105588072D01*
X235050000Y-105588072D01*
X235203745Y-105572929D01*
X235351582Y-105528084D01*
X235361928Y-105522554D01*
X235361928Y-105750000D01*
X235377071Y-105903745D01*
X235421916Y-106051582D01*
X235494742Y-106187829D01*
X235592749Y-106307251D01*
X235712171Y-106405258D01*
X235848418Y-106478084D01*
X235996255Y-106522929D01*
X236069253Y-106530119D01*
X236003972Y-106573738D01*
X235873738Y-106703972D01*
X235771414Y-106857111D01*
X235700932Y-107027271D01*
X235665000Y-107207911D01*
X235665000Y-107392089D01*
X235700932Y-107572729D01*
X235715001Y-107606694D01*
X235715001Y-107756096D01*
X235675629Y-107885887D01*
X235661928Y-108025000D01*
X235661928Y-108775000D01*
X235675629Y-108914113D01*
X235716207Y-109047881D01*
X235782102Y-109171162D01*
X235870782Y-109279218D01*
X235978838Y-109367898D01*
X236102119Y-109433793D01*
X236235887Y-109474371D01*
X236375000Y-109488072D01*
X236631061Y-109488072D01*
X236604133Y-109515000D01*
X227990887Y-109515000D01*
X228067898Y-109421162D01*
X228133793Y-109297881D01*
X228174371Y-109164113D01*
X228188072Y-109025000D01*
X228188072Y-108675000D01*
X228174371Y-108535887D01*
X228133793Y-108402119D01*
X228067898Y-108278838D01*
X227979218Y-108170782D01*
X227871162Y-108082102D01*
X227747881Y-108016207D01*
X227614113Y-107975629D01*
X227475000Y-107961928D01*
X226725000Y-107961928D01*
X226585887Y-107975629D01*
X226456098Y-108015000D01*
X226106692Y-108015000D01*
X226072729Y-108000932D01*
X225892089Y-107965000D01*
X225707911Y-107965000D01*
X225527271Y-108000932D01*
X225357111Y-108071414D01*
X225203972Y-108173738D01*
X225073738Y-108303972D01*
X224971414Y-108457111D01*
X224900932Y-108627271D01*
X224865000Y-108807911D01*
X224865000Y-108992089D01*
X224900932Y-109172729D01*
X224971414Y-109342889D01*
X225073738Y-109496028D01*
X225092710Y-109515000D01*
X214007290Y-109515000D01*
X214026262Y-109496028D01*
X214128586Y-109342889D01*
X214199068Y-109172729D01*
X214235000Y-108992089D01*
X214235000Y-108807911D01*
X214199068Y-108627271D01*
X214128586Y-108457111D01*
X214026262Y-108303972D01*
X213896028Y-108173738D01*
X213742889Y-108071414D01*
X213572729Y-108000932D01*
X213392089Y-107965000D01*
X213207911Y-107965000D01*
X213027271Y-108000932D01*
X212993308Y-108015000D01*
X212643902Y-108015000D01*
X212514113Y-107975629D01*
X212375000Y-107961928D01*
X211625000Y-107961928D01*
X211485887Y-107975629D01*
X211352119Y-108016207D01*
X211228838Y-108082102D01*
X211120782Y-108170782D01*
X211032102Y-108278838D01*
X210966207Y-108402119D01*
X210925629Y-108535887D01*
X210911928Y-108675000D01*
X210911928Y-109025000D01*
X210925629Y-109164113D01*
X210966207Y-109297881D01*
X211032102Y-109421162D01*
X211109113Y-109515000D01*
X192490887Y-109515000D01*
X192567898Y-109421162D01*
X192633793Y-109297881D01*
X192674371Y-109164113D01*
X192688072Y-109025000D01*
X192688072Y-108675000D01*
X192674371Y-108535887D01*
X192633793Y-108402119D01*
X192567898Y-108278838D01*
X192479218Y-108170782D01*
X192371162Y-108082102D01*
X192247881Y-108016207D01*
X192114113Y-107975629D01*
X191975000Y-107961928D01*
X191225000Y-107961928D01*
X191085887Y-107975629D01*
X190956098Y-108015000D01*
X190606692Y-108015000D01*
X190572729Y-108000932D01*
X190392089Y-107965000D01*
X190207911Y-107965000D01*
X190027271Y-108000932D01*
X189857111Y-108071414D01*
X189703972Y-108173738D01*
X189573738Y-108303972D01*
X189471414Y-108457111D01*
X189400932Y-108627271D01*
X189365000Y-108807911D01*
X189365000Y-108992089D01*
X189400932Y-109172729D01*
X189471414Y-109342889D01*
X189573738Y-109496028D01*
X189592710Y-109515000D01*
X178507290Y-109515000D01*
X178526262Y-109496028D01*
X178628586Y-109342889D01*
X178699068Y-109172729D01*
X178735000Y-108992089D01*
X178735000Y-108807911D01*
X178699068Y-108627271D01*
X178628586Y-108457111D01*
X178526262Y-108303972D01*
X178396028Y-108173738D01*
X178242889Y-108071414D01*
X178072729Y-108000932D01*
X177892089Y-107965000D01*
X177707911Y-107965000D01*
X177527271Y-108000932D01*
X177493308Y-108015000D01*
X177143902Y-108015000D01*
X177014113Y-107975629D01*
X176875000Y-107961928D01*
X176125000Y-107961928D01*
X175985887Y-107975629D01*
X175852119Y-108016207D01*
X175728838Y-108082102D01*
X175620782Y-108170782D01*
X175532102Y-108278838D01*
X175466207Y-108402119D01*
X175425629Y-108535887D01*
X175411928Y-108675000D01*
X175411928Y-109025000D01*
X175425629Y-109164113D01*
X175466207Y-109297881D01*
X175532102Y-109421162D01*
X175609113Y-109515000D01*
X171595868Y-109515000D01*
X171119446Y-109038578D01*
X171093291Y-109006709D01*
X170966146Y-108902364D01*
X170821087Y-108824828D01*
X170663689Y-108777082D01*
X170541019Y-108765000D01*
X170541018Y-108765000D01*
X170500000Y-108760960D01*
X170458982Y-108765000D01*
X166529208Y-108765000D01*
X166538072Y-108675000D01*
X166538072Y-108185000D01*
X166856098Y-108185000D01*
X166985887Y-108224371D01*
X167125000Y-108238072D01*
X167875000Y-108238072D01*
X168014113Y-108224371D01*
X168147881Y-108183793D01*
X168271162Y-108117898D01*
X168379218Y-108029218D01*
X168467898Y-107921162D01*
X168533793Y-107797881D01*
X168574371Y-107664113D01*
X168588072Y-107525000D01*
X168588072Y-107175000D01*
X168574371Y-107035887D01*
X168533793Y-106902119D01*
X168467898Y-106778838D01*
X168379218Y-106670782D01*
X168292971Y-106600000D01*
X168379218Y-106529218D01*
X168467898Y-106421162D01*
X168533793Y-106297881D01*
X168574371Y-106164113D01*
X168588072Y-106025000D01*
X168588072Y-105675000D01*
X168574371Y-105535887D01*
X168533793Y-105402119D01*
X168467898Y-105278838D01*
X168379218Y-105170782D01*
X168271162Y-105082102D01*
X168147881Y-105016207D01*
X168014113Y-104975629D01*
X167875000Y-104961928D01*
X167792795Y-104961928D01*
X167669446Y-104838579D01*
X167643291Y-104806709D01*
X167516146Y-104702364D01*
X167371087Y-104624828D01*
X167213689Y-104577082D01*
X167091019Y-104565000D01*
X167091018Y-104565000D01*
X167050000Y-104560960D01*
X167008982Y-104565000D01*
X166866546Y-104565000D01*
X166807251Y-104492749D01*
X166687829Y-104394742D01*
X166551582Y-104321916D01*
X166403745Y-104277071D01*
X166250000Y-104261928D01*
X165150000Y-104261928D01*
X164996255Y-104277071D01*
X164848418Y-104321916D01*
X164838072Y-104327446D01*
X164838072Y-104100000D01*
X164822929Y-103946255D01*
X164778084Y-103798418D01*
X164705258Y-103662171D01*
X164607251Y-103542749D01*
X164487829Y-103444742D01*
X164351582Y-103371916D01*
X164203745Y-103327071D01*
X164050000Y-103311928D01*
X162950000Y-103311928D01*
X162796255Y-103327071D01*
X162745988Y-103342319D01*
X162733793Y-103302119D01*
X162667898Y-103178838D01*
X162579218Y-103070782D01*
X162492971Y-103000000D01*
X162579218Y-102929218D01*
X162667898Y-102821162D01*
X162733793Y-102697881D01*
X162774371Y-102564113D01*
X162775167Y-102556035D01*
X163030561Y-102811430D01*
X163056709Y-102843291D01*
X163088568Y-102869437D01*
X163088570Y-102869439D01*
X163183854Y-102947636D01*
X163328913Y-103025172D01*
X163486311Y-103072918D01*
X163650000Y-103089040D01*
X163691018Y-103085000D01*
X196309113Y-103085000D01*
X196232102Y-103178838D01*
X196166207Y-103302119D01*
X196125629Y-103435887D01*
X196111928Y-103575000D01*
X196111928Y-103925000D01*
X196125629Y-104064113D01*
X196166207Y-104197881D01*
X196220791Y-104300000D01*
X196166207Y-104402119D01*
X196125629Y-104535887D01*
X196111928Y-104675000D01*
X196111928Y-105025000D01*
X196125629Y-105164113D01*
X196166207Y-105297881D01*
X196232102Y-105421162D01*
X196320782Y-105529218D01*
X196428838Y-105617898D01*
X196552119Y-105683793D01*
X196685887Y-105724371D01*
X196825000Y-105738072D01*
X197575000Y-105738072D01*
X197714113Y-105724371D01*
X197847881Y-105683793D01*
X197971162Y-105617898D01*
X198079218Y-105529218D01*
X198100965Y-105502720D01*
X198148418Y-105528084D01*
X198296255Y-105572929D01*
X198450000Y-105588072D01*
X199550000Y-105588072D01*
X199703745Y-105572929D01*
X199851582Y-105528084D01*
X199861928Y-105522554D01*
X199861928Y-105750000D01*
X199877071Y-105903745D01*
X199921916Y-106051582D01*
X199994742Y-106187829D01*
X200092749Y-106307251D01*
X200212171Y-106405258D01*
X200348418Y-106478084D01*
X200485084Y-106519541D01*
X200403972Y-106573738D01*
X200273738Y-106703972D01*
X200171414Y-106857111D01*
X200100932Y-107027271D01*
X200065000Y-107207911D01*
X200065000Y-107392089D01*
X200100932Y-107572729D01*
X200171414Y-107742889D01*
X200204147Y-107791877D01*
X200175629Y-107885887D01*
X200161928Y-108025000D01*
X200161928Y-108775000D01*
X200175629Y-108914113D01*
X200216207Y-109047881D01*
X200282102Y-109171162D01*
X200370782Y-109279218D01*
X200478838Y-109367898D01*
X200602119Y-109433793D01*
X200735887Y-109474371D01*
X200875000Y-109488072D01*
X201225000Y-109488072D01*
X201364113Y-109474371D01*
X201497881Y-109433793D01*
X201621162Y-109367898D01*
X201729218Y-109279218D01*
X201817898Y-109171162D01*
X201883793Y-109047881D01*
X201924371Y-108914113D01*
X201938072Y-108775000D01*
X201938072Y-108185000D01*
X202356098Y-108185000D01*
X202485887Y-108224371D01*
X202625000Y-108238072D01*
X203375000Y-108238072D01*
X203514113Y-108224371D01*
X203647881Y-108183793D01*
X203771162Y-108117898D01*
X203879218Y-108029218D01*
X203967898Y-107921162D01*
X204033793Y-107797881D01*
X204074371Y-107664113D01*
X204088072Y-107525000D01*
X204088072Y-107175000D01*
X204074371Y-107035887D01*
X204033793Y-106902119D01*
X203967898Y-106778838D01*
X203879218Y-106670782D01*
X203792971Y-106600000D01*
X203879218Y-106529218D01*
X203967898Y-106421162D01*
X204033793Y-106297881D01*
X204074371Y-106164113D01*
X204088072Y-106025000D01*
X204088072Y-105675000D01*
X204074371Y-105535887D01*
X204033793Y-105402119D01*
X203967898Y-105278838D01*
X203879218Y-105170782D01*
X203771162Y-105082102D01*
X203647881Y-105016207D01*
X203514113Y-104975629D01*
X203375000Y-104961928D01*
X203292795Y-104961928D01*
X203169446Y-104838579D01*
X203143291Y-104806709D01*
X203016146Y-104702364D01*
X202871087Y-104624828D01*
X202713689Y-104577082D01*
X202591019Y-104565000D01*
X202591018Y-104565000D01*
X202550000Y-104560960D01*
X202508982Y-104565000D01*
X202366546Y-104565000D01*
X202307251Y-104492749D01*
X202187829Y-104394742D01*
X202051582Y-104321916D01*
X201903745Y-104277071D01*
X201750000Y-104261928D01*
X200650000Y-104261928D01*
X200496255Y-104277071D01*
X200348418Y-104321916D01*
X200338072Y-104327446D01*
X200338072Y-104100000D01*
X200322929Y-103946255D01*
X200278084Y-103798418D01*
X200205258Y-103662171D01*
X200107251Y-103542749D01*
X199987829Y-103444742D01*
X199851582Y-103371916D01*
X199703745Y-103327071D01*
X199550000Y-103311928D01*
X198450000Y-103311928D01*
X198296255Y-103327071D01*
X198245988Y-103342319D01*
X198233793Y-103302119D01*
X198167898Y-103178838D01*
X198079218Y-103070782D01*
X197992971Y-103000000D01*
X198079218Y-102929218D01*
X198167898Y-102821162D01*
X198233793Y-102697881D01*
X198274371Y-102564113D01*
X198284132Y-102465000D01*
X198630559Y-102811426D01*
G37*
%TD.AperFunction*%
D17*
X127148418Y-105528084D02*
X127296255Y-105572929D01*
X127450000Y-105588072D01*
X128550000Y-105588072D01*
X128703745Y-105572929D01*
X128851582Y-105528084D01*
X128861928Y-105522554D01*
X128861928Y-105750000D01*
X128877071Y-105903745D01*
X128921916Y-106051582D01*
X128994742Y-106187829D01*
X129092749Y-106307251D01*
X129212171Y-106405258D01*
X129348418Y-106478084D01*
X129496255Y-106522929D01*
X129569253Y-106530119D01*
X129503972Y-106573738D01*
X129373738Y-106703972D01*
X129296874Y-106819007D01*
X129225000Y-106811928D01*
X128875000Y-106811928D01*
X128735887Y-106825629D01*
X128602119Y-106866207D01*
X128478838Y-106932102D01*
X128370782Y-107020782D01*
X128282102Y-107128838D01*
X128216207Y-107252119D01*
X128175629Y-107385887D01*
X128161928Y-107525000D01*
X128161928Y-108065000D01*
X123245869Y-108065000D01*
X122219446Y-107038578D01*
X122193291Y-107006709D01*
X122066146Y-106902364D01*
X121921087Y-106824828D01*
X121763689Y-106777082D01*
X121641019Y-106765000D01*
X121641018Y-106765000D01*
X121600000Y-106760960D01*
X121585000Y-106762437D01*
X121585000Y-106006692D01*
X121599068Y-105972729D01*
X121635000Y-105792089D01*
X121635000Y-105607911D01*
X121632781Y-105596755D01*
X121633854Y-105597636D01*
X121778913Y-105675172D01*
X121936311Y-105722918D01*
X122099999Y-105739040D01*
X122141018Y-105735000D01*
X122634493Y-105735000D01*
X122670782Y-105779218D01*
X122778838Y-105867898D01*
X122902119Y-105933793D01*
X123035887Y-105974371D01*
X123175000Y-105988072D01*
X123525000Y-105988072D01*
X123664113Y-105974371D01*
X123797881Y-105933793D01*
X123921162Y-105867898D01*
X124029218Y-105779218D01*
X124100000Y-105692971D01*
X124170782Y-105779218D01*
X124278838Y-105867898D01*
X124402119Y-105933793D01*
X124535887Y-105974371D01*
X124675000Y-105988072D01*
X125025000Y-105988072D01*
X125164113Y-105974371D01*
X125297881Y-105933793D01*
X125421162Y-105867898D01*
X125529218Y-105779218D01*
X125596487Y-105697252D01*
X125685887Y-105724371D01*
X125825000Y-105738072D01*
X126575000Y-105738072D01*
X126714113Y-105724371D01*
X126847881Y-105683793D01*
X126971162Y-105617898D01*
X127079218Y-105529218D01*
X127100965Y-105502720D01*
X127148418Y-105528084D01*
%TA.AperFunction,Conductor*%
D18*
G36*
X127148418Y-105528084D02*
G01*
X127296255Y-105572929D01*
X127450000Y-105588072D01*
X128550000Y-105588072D01*
X128703745Y-105572929D01*
X128851582Y-105528084D01*
X128861928Y-105522554D01*
X128861928Y-105750000D01*
X128877071Y-105903745D01*
X128921916Y-106051582D01*
X128994742Y-106187829D01*
X129092749Y-106307251D01*
X129212171Y-106405258D01*
X129348418Y-106478084D01*
X129496255Y-106522929D01*
X129569253Y-106530119D01*
X129503972Y-106573738D01*
X129373738Y-106703972D01*
X129296874Y-106819007D01*
X129225000Y-106811928D01*
X128875000Y-106811928D01*
X128735887Y-106825629D01*
X128602119Y-106866207D01*
X128478838Y-106932102D01*
X128370782Y-107020782D01*
X128282102Y-107128838D01*
X128216207Y-107252119D01*
X128175629Y-107385887D01*
X128161928Y-107525000D01*
X128161928Y-108065000D01*
X123245869Y-108065000D01*
X122219446Y-107038578D01*
X122193291Y-107006709D01*
X122066146Y-106902364D01*
X121921087Y-106824828D01*
X121763689Y-106777082D01*
X121641019Y-106765000D01*
X121641018Y-106765000D01*
X121600000Y-106760960D01*
X121585000Y-106762437D01*
X121585000Y-106006692D01*
X121599068Y-105972729D01*
X121635000Y-105792089D01*
X121635000Y-105607911D01*
X121632781Y-105596755D01*
X121633854Y-105597636D01*
X121778913Y-105675172D01*
X121936311Y-105722918D01*
X122099999Y-105739040D01*
X122141018Y-105735000D01*
X122634493Y-105735000D01*
X122670782Y-105779218D01*
X122778838Y-105867898D01*
X122902119Y-105933793D01*
X123035887Y-105974371D01*
X123175000Y-105988072D01*
X123525000Y-105988072D01*
X123664113Y-105974371D01*
X123797881Y-105933793D01*
X123921162Y-105867898D01*
X124029218Y-105779218D01*
X124100000Y-105692971D01*
X124170782Y-105779218D01*
X124278838Y-105867898D01*
X124402119Y-105933793D01*
X124535887Y-105974371D01*
X124675000Y-105988072D01*
X125025000Y-105988072D01*
X125164113Y-105974371D01*
X125297881Y-105933793D01*
X125421162Y-105867898D01*
X125529218Y-105779218D01*
X125596487Y-105697252D01*
X125685887Y-105724371D01*
X125825000Y-105738072D01*
X126575000Y-105738072D01*
X126714113Y-105724371D01*
X126847881Y-105683793D01*
X126971162Y-105617898D01*
X127079218Y-105529218D01*
X127100965Y-105502720D01*
X127148418Y-105528084D01*
G37*
%TD.AperFunction*%
%TD*%
M02*
