%TF.GenerationSoftware,KiCad,Pcbnew,(5.1.10)-1*%
%TF.CreationDate,2025-10-24T10:03:21+03:00*%
%TF.ProjectId,PANEL ASSY,50414e45-4c20-4415-9353-592e6b696361,rev?*%
%TF.SameCoordinates,Original*%
%TF.FileFunction,Copper,L2,Bot*%
%TF.FilePolarity,Positive*%
%FSLAX46Y46*%
G04 Gerber Fmt 4.6, Leading zero omitted, Abs format (unit mm)*
G04 Created by KiCad (PCBNEW (5.1.10)-1) date 2025-10-24 10:03:21*
%MOMM*%
%LPD*%
G01*
G04 APERTURE LIST*
%TA.AperFunction,ComponentPad*%
%ADD10C,1.700000*%
%TD*%
%TA.AperFunction,ComponentPad*%
%ADD11C,2.000000*%
%TD*%
%TA.AperFunction,ViaPad*%
%ADD12C,0.600000*%
%TD*%
%TA.AperFunction,ViaPad*%
%ADD13C,0.800000*%
%TD*%
%TA.AperFunction,Conductor*%
%ADD14C,0.400000*%
%TD*%
%TA.AperFunction,Conductor*%
%ADD15C,0.250000*%
%TD*%
%TA.AperFunction,Conductor*%
%ADD16C,0.254000*%
%TD*%
%TA.AperFunction,Conductor*%
%ADD17C,0.100000*%
%TD*%
G04 APERTURE END LIST*
D10*
%TO.P,J1,14*%
%TO.N,GND*%
X88260000Y-114240000D03*
%TO.P,J1,12*%
X90800000Y-114240000D03*
%TO.P,J1,10*%
%TO.N,BT_MENU*%
X93340000Y-114240000D03*
%TO.P,J1,8*%
%TO.N,BT_INFO*%
X95880000Y-114240000D03*
%TO.P,J1,6*%
%TO.N,LED_TAGLIST*%
X98420000Y-114240000D03*
%TO.P,J1,4*%
%TO.N,MENU_TAGLIST*%
X100960000Y-114240000D03*
%TO.P,J1,2*%
%TO.N,BT_BROWSE*%
X103500000Y-114240000D03*
%TO.P,J1,13*%
%TO.N,+8V*%
X88260000Y-111700000D03*
%TO.P,J1,11*%
%TO.N,+3V3*%
X90800000Y-111700000D03*
%TO.P,J1,9*%
%TO.N,BT_TAG*%
X93340000Y-111700000D03*
%TO.P,J1,7*%
%TO.N,BT_BACK*%
X95880000Y-111700000D03*
%TO.P,J1,5*%
%TO.N,LED_BROWSE*%
X98420000Y-111700000D03*
%TO.P,J1,3*%
%TO.N,LED_INFO*%
X100960000Y-111700000D03*
%TO.P,J1,1*%
%TO.N,LED_MENU*%
%TA.AperFunction,ComponentPad*%
G36*
G01*
X102900000Y-110850000D02*
X104100000Y-110850000D01*
G75*
G02*
X104350000Y-111100000I0J-250000D01*
G01*
X104350000Y-112300000D01*
G75*
G02*
X104100000Y-112550000I-250000J0D01*
G01*
X102900000Y-112550000D01*
G75*
G02*
X102650000Y-112300000I0J250000D01*
G01*
X102650000Y-111100000D01*
G75*
G02*
X102900000Y-110850000I250000J0D01*
G01*
G37*
%TD.AperFunction*%
%TD*%
%TO.P,D1,2*%
%TO.N,Net-(D1-Pad2)*%
%TA.AperFunction,SMDPad,CuDef*%
G36*
G01*
X226350000Y-106849999D02*
X226350000Y-107750001D01*
G75*
G02*
X226100001Y-108000000I-249999J0D01*
G01*
X225449999Y-108000000D01*
G75*
G02*
X225200000Y-107750001I0J249999D01*
G01*
X225200000Y-106849999D01*
G75*
G02*
X225449999Y-106600000I249999J0D01*
G01*
X226100001Y-106600000D01*
G75*
G02*
X226350000Y-106849999I0J-249999D01*
G01*
G37*
%TD.AperFunction*%
%TO.P,D1,1*%
%TO.N,Net-(D1-Pad1)*%
%TA.AperFunction,SMDPad,CuDef*%
G36*
G01*
X228400000Y-106849999D02*
X228400000Y-107750001D01*
G75*
G02*
X228150001Y-108000000I-249999J0D01*
G01*
X227499999Y-108000000D01*
G75*
G02*
X227250000Y-107750001I0J249999D01*
G01*
X227250000Y-106849999D01*
G75*
G02*
X227499999Y-106600000I249999J0D01*
G01*
X228150001Y-106600000D01*
G75*
G02*
X228400000Y-106849999I0J-249999D01*
G01*
G37*
%TD.AperFunction*%
%TD*%
%TO.P,D2,2*%
%TO.N,Net-(D1-Pad1)*%
%TA.AperFunction,SMDPad,CuDef*%
G36*
G01*
X233350000Y-106849999D02*
X233350000Y-107750001D01*
G75*
G02*
X233100001Y-108000000I-249999J0D01*
G01*
X232449999Y-108000000D01*
G75*
G02*
X232200000Y-107750001I0J249999D01*
G01*
X232200000Y-106849999D01*
G75*
G02*
X232449999Y-106600000I249999J0D01*
G01*
X233100001Y-106600000D01*
G75*
G02*
X233350000Y-106849999I0J-249999D01*
G01*
G37*
%TD.AperFunction*%
%TO.P,D2,1*%
%TO.N,Net-(D2-Pad1)*%
%TA.AperFunction,SMDPad,CuDef*%
G36*
G01*
X235400000Y-106849999D02*
X235400000Y-107750001D01*
G75*
G02*
X235150001Y-108000000I-249999J0D01*
G01*
X234499999Y-108000000D01*
G75*
G02*
X234250000Y-107750001I0J249999D01*
G01*
X234250000Y-106849999D01*
G75*
G02*
X234499999Y-106600000I249999J0D01*
G01*
X235150001Y-106600000D01*
G75*
G02*
X235400000Y-106849999I0J-249999D01*
G01*
G37*
%TD.AperFunction*%
%TD*%
%TO.P,D3,1*%
%TO.N,Net-(D3-Pad1)*%
%TA.AperFunction,SMDPad,CuDef*%
G36*
G01*
X246200000Y-107750001D02*
X246200000Y-106849999D01*
G75*
G02*
X246449999Y-106600000I249999J0D01*
G01*
X247100001Y-106600000D01*
G75*
G02*
X247350000Y-106849999I0J-249999D01*
G01*
X247350000Y-107750001D01*
G75*
G02*
X247100001Y-108000000I-249999J0D01*
G01*
X246449999Y-108000000D01*
G75*
G02*
X246200000Y-107750001I0J249999D01*
G01*
G37*
%TD.AperFunction*%
%TO.P,D3,2*%
%TO.N,Net-(D3-Pad2)*%
%TA.AperFunction,SMDPad,CuDef*%
G36*
G01*
X248250000Y-107750001D02*
X248250000Y-106849999D01*
G75*
G02*
X248499999Y-106600000I249999J0D01*
G01*
X249150001Y-106600000D01*
G75*
G02*
X249400000Y-106849999I0J-249999D01*
G01*
X249400000Y-107750001D01*
G75*
G02*
X249150001Y-108000000I-249999J0D01*
G01*
X248499999Y-108000000D01*
G75*
G02*
X248250000Y-107750001I0J249999D01*
G01*
G37*
%TD.AperFunction*%
%TD*%
%TO.P,D4,1*%
%TO.N,Net-(D2-Pad1)*%
%TA.AperFunction,SMDPad,CuDef*%
G36*
G01*
X239200000Y-107750001D02*
X239200000Y-106849999D01*
G75*
G02*
X239449999Y-106600000I249999J0D01*
G01*
X240100001Y-106600000D01*
G75*
G02*
X240350000Y-106849999I0J-249999D01*
G01*
X240350000Y-107750001D01*
G75*
G02*
X240100001Y-108000000I-249999J0D01*
G01*
X239449999Y-108000000D01*
G75*
G02*
X239200000Y-107750001I0J249999D01*
G01*
G37*
%TD.AperFunction*%
%TO.P,D4,2*%
%TO.N,Net-(D3-Pad1)*%
%TA.AperFunction,SMDPad,CuDef*%
G36*
G01*
X241250000Y-107750001D02*
X241250000Y-106849999D01*
G75*
G02*
X241499999Y-106600000I249999J0D01*
G01*
X242150001Y-106600000D01*
G75*
G02*
X242400000Y-106849999I0J-249999D01*
G01*
X242400000Y-107750001D01*
G75*
G02*
X242150001Y-108000000I-249999J0D01*
G01*
X241499999Y-108000000D01*
G75*
G02*
X241250000Y-107750001I0J249999D01*
G01*
G37*
%TD.AperFunction*%
%TD*%
%TO.P,D5,1*%
%TO.N,Net-(D5-Pad1)*%
%TA.AperFunction,SMDPad,CuDef*%
G36*
G01*
X192900000Y-106849999D02*
X192900000Y-107750001D01*
G75*
G02*
X192650001Y-108000000I-249999J0D01*
G01*
X191999999Y-108000000D01*
G75*
G02*
X191750000Y-107750001I0J249999D01*
G01*
X191750000Y-106849999D01*
G75*
G02*
X191999999Y-106600000I249999J0D01*
G01*
X192650001Y-106600000D01*
G75*
G02*
X192900000Y-106849999I0J-249999D01*
G01*
G37*
%TD.AperFunction*%
%TO.P,D5,2*%
%TO.N,Net-(D5-Pad2)*%
%TA.AperFunction,SMDPad,CuDef*%
G36*
G01*
X190850000Y-106849999D02*
X190850000Y-107750001D01*
G75*
G02*
X190600001Y-108000000I-249999J0D01*
G01*
X189949999Y-108000000D01*
G75*
G02*
X189700000Y-107750001I0J249999D01*
G01*
X189700000Y-106849999D01*
G75*
G02*
X189949999Y-106600000I249999J0D01*
G01*
X190600001Y-106600000D01*
G75*
G02*
X190850000Y-106849999I0J-249999D01*
G01*
G37*
%TD.AperFunction*%
%TD*%
%TO.P,D6,1*%
%TO.N,Net-(D6-Pad1)*%
%TA.AperFunction,SMDPad,CuDef*%
G36*
G01*
X199900000Y-106849999D02*
X199900000Y-107750001D01*
G75*
G02*
X199650001Y-108000000I-249999J0D01*
G01*
X198999999Y-108000000D01*
G75*
G02*
X198750000Y-107750001I0J249999D01*
G01*
X198750000Y-106849999D01*
G75*
G02*
X198999999Y-106600000I249999J0D01*
G01*
X199650001Y-106600000D01*
G75*
G02*
X199900000Y-106849999I0J-249999D01*
G01*
G37*
%TD.AperFunction*%
%TO.P,D6,2*%
%TO.N,Net-(D5-Pad1)*%
%TA.AperFunction,SMDPad,CuDef*%
G36*
G01*
X197850000Y-106849999D02*
X197850000Y-107750001D01*
G75*
G02*
X197600001Y-108000000I-249999J0D01*
G01*
X196949999Y-108000000D01*
G75*
G02*
X196700000Y-107750001I0J249999D01*
G01*
X196700000Y-106849999D01*
G75*
G02*
X196949999Y-106600000I249999J0D01*
G01*
X197600001Y-106600000D01*
G75*
G02*
X197850000Y-106849999I0J-249999D01*
G01*
G37*
%TD.AperFunction*%
%TD*%
%TO.P,D7,2*%
%TO.N,Net-(D7-Pad2)*%
%TA.AperFunction,SMDPad,CuDef*%
G36*
G01*
X212750000Y-107750001D02*
X212750000Y-106849999D01*
G75*
G02*
X212999999Y-106600000I249999J0D01*
G01*
X213650001Y-106600000D01*
G75*
G02*
X213900000Y-106849999I0J-249999D01*
G01*
X213900000Y-107750001D01*
G75*
G02*
X213650001Y-108000000I-249999J0D01*
G01*
X212999999Y-108000000D01*
G75*
G02*
X212750000Y-107750001I0J249999D01*
G01*
G37*
%TD.AperFunction*%
%TO.P,D7,1*%
%TO.N,Net-(D7-Pad1)*%
%TA.AperFunction,SMDPad,CuDef*%
G36*
G01*
X210700000Y-107750001D02*
X210700000Y-106849999D01*
G75*
G02*
X210949999Y-106600000I249999J0D01*
G01*
X211600001Y-106600000D01*
G75*
G02*
X211850000Y-106849999I0J-249999D01*
G01*
X211850000Y-107750001D01*
G75*
G02*
X211600001Y-108000000I-249999J0D01*
G01*
X210949999Y-108000000D01*
G75*
G02*
X210700000Y-107750001I0J249999D01*
G01*
G37*
%TD.AperFunction*%
%TD*%
%TO.P,D8,1*%
%TO.N,Net-(D6-Pad1)*%
%TA.AperFunction,SMDPad,CuDef*%
G36*
G01*
X203700000Y-107750001D02*
X203700000Y-106849999D01*
G75*
G02*
X203949999Y-106600000I249999J0D01*
G01*
X204600001Y-106600000D01*
G75*
G02*
X204850000Y-106849999I0J-249999D01*
G01*
X204850000Y-107750001D01*
G75*
G02*
X204600001Y-108000000I-249999J0D01*
G01*
X203949999Y-108000000D01*
G75*
G02*
X203700000Y-107750001I0J249999D01*
G01*
G37*
%TD.AperFunction*%
%TO.P,D8,2*%
%TO.N,Net-(D7-Pad1)*%
%TA.AperFunction,SMDPad,CuDef*%
G36*
G01*
X205750000Y-107750001D02*
X205750000Y-106849999D01*
G75*
G02*
X205999999Y-106600000I249999J0D01*
G01*
X206650001Y-106600000D01*
G75*
G02*
X206900000Y-106849999I0J-249999D01*
G01*
X206900000Y-107750001D01*
G75*
G02*
X206650001Y-108000000I-249999J0D01*
G01*
X205999999Y-108000000D01*
G75*
G02*
X205750000Y-107750001I0J249999D01*
G01*
G37*
%TD.AperFunction*%
%TD*%
%TO.P,D9,1*%
%TO.N,Net-(D10-Pad2)*%
%TA.AperFunction,SMDPad,CuDef*%
G36*
G01*
X157400000Y-106849999D02*
X157400000Y-107750001D01*
G75*
G02*
X157150001Y-108000000I-249999J0D01*
G01*
X156499999Y-108000000D01*
G75*
G02*
X156250000Y-107750001I0J249999D01*
G01*
X156250000Y-106849999D01*
G75*
G02*
X156499999Y-106600000I249999J0D01*
G01*
X157150001Y-106600000D01*
G75*
G02*
X157400000Y-106849999I0J-249999D01*
G01*
G37*
%TD.AperFunction*%
%TO.P,D9,2*%
%TO.N,Net-(D9-Pad2)*%
%TA.AperFunction,SMDPad,CuDef*%
G36*
G01*
X155350000Y-106849999D02*
X155350000Y-107750001D01*
G75*
G02*
X155100001Y-108000000I-249999J0D01*
G01*
X154449999Y-108000000D01*
G75*
G02*
X154200000Y-107750001I0J249999D01*
G01*
X154200000Y-106849999D01*
G75*
G02*
X154449999Y-106600000I249999J0D01*
G01*
X155100001Y-106600000D01*
G75*
G02*
X155350000Y-106849999I0J-249999D01*
G01*
G37*
%TD.AperFunction*%
%TD*%
%TO.P,D10,2*%
%TO.N,Net-(D10-Pad2)*%
%TA.AperFunction,SMDPad,CuDef*%
G36*
G01*
X162350000Y-106849999D02*
X162350000Y-107750001D01*
G75*
G02*
X162100001Y-108000000I-249999J0D01*
G01*
X161449999Y-108000000D01*
G75*
G02*
X161200000Y-107750001I0J249999D01*
G01*
X161200000Y-106849999D01*
G75*
G02*
X161449999Y-106600000I249999J0D01*
G01*
X162100001Y-106600000D01*
G75*
G02*
X162350000Y-106849999I0J-249999D01*
G01*
G37*
%TD.AperFunction*%
%TO.P,D10,1*%
%TO.N,Net-(D10-Pad1)*%
%TA.AperFunction,SMDPad,CuDef*%
G36*
G01*
X164400000Y-106849999D02*
X164400000Y-107750001D01*
G75*
G02*
X164150001Y-108000000I-249999J0D01*
G01*
X163499999Y-108000000D01*
G75*
G02*
X163250000Y-107750001I0J249999D01*
G01*
X163250000Y-106849999D01*
G75*
G02*
X163499999Y-106600000I249999J0D01*
G01*
X164150001Y-106600000D01*
G75*
G02*
X164400000Y-106849999I0J-249999D01*
G01*
G37*
%TD.AperFunction*%
%TD*%
%TO.P,D11,2*%
%TO.N,Net-(D11-Pad2)*%
%TA.AperFunction,SMDPad,CuDef*%
G36*
G01*
X177250000Y-107750001D02*
X177250000Y-106849999D01*
G75*
G02*
X177499999Y-106600000I249999J0D01*
G01*
X178150001Y-106600000D01*
G75*
G02*
X178400000Y-106849999I0J-249999D01*
G01*
X178400000Y-107750001D01*
G75*
G02*
X178150001Y-108000000I-249999J0D01*
G01*
X177499999Y-108000000D01*
G75*
G02*
X177250000Y-107750001I0J249999D01*
G01*
G37*
%TD.AperFunction*%
%TO.P,D11,1*%
%TO.N,Net-(D11-Pad1)*%
%TA.AperFunction,SMDPad,CuDef*%
G36*
G01*
X175200000Y-107750001D02*
X175200000Y-106849999D01*
G75*
G02*
X175449999Y-106600000I249999J0D01*
G01*
X176100001Y-106600000D01*
G75*
G02*
X176350000Y-106849999I0J-249999D01*
G01*
X176350000Y-107750001D01*
G75*
G02*
X176100001Y-108000000I-249999J0D01*
G01*
X175449999Y-108000000D01*
G75*
G02*
X175200000Y-107750001I0J249999D01*
G01*
G37*
%TD.AperFunction*%
%TD*%
%TO.P,D12,2*%
%TO.N,Net-(D11-Pad1)*%
%TA.AperFunction,SMDPad,CuDef*%
G36*
G01*
X170250000Y-107750001D02*
X170250000Y-106849999D01*
G75*
G02*
X170499999Y-106600000I249999J0D01*
G01*
X171150001Y-106600000D01*
G75*
G02*
X171400000Y-106849999I0J-249999D01*
G01*
X171400000Y-107750001D01*
G75*
G02*
X171150001Y-108000000I-249999J0D01*
G01*
X170499999Y-108000000D01*
G75*
G02*
X170250000Y-107750001I0J249999D01*
G01*
G37*
%TD.AperFunction*%
%TO.P,D12,1*%
%TO.N,Net-(D10-Pad1)*%
%TA.AperFunction,SMDPad,CuDef*%
G36*
G01*
X168200000Y-107750001D02*
X168200000Y-106849999D01*
G75*
G02*
X168449999Y-106600000I249999J0D01*
G01*
X169100001Y-106600000D01*
G75*
G02*
X169350000Y-106849999I0J-249999D01*
G01*
X169350000Y-107750001D01*
G75*
G02*
X169100001Y-108000000I-249999J0D01*
G01*
X168449999Y-108000000D01*
G75*
G02*
X168200000Y-107750001I0J249999D01*
G01*
G37*
%TD.AperFunction*%
%TD*%
%TO.P,D13,1*%
%TO.N,Net-(D13-Pad1)*%
%TA.AperFunction,SMDPad,CuDef*%
G36*
G01*
X121900000Y-106849999D02*
X121900000Y-107750001D01*
G75*
G02*
X121650001Y-108000000I-249999J0D01*
G01*
X120999999Y-108000000D01*
G75*
G02*
X120750000Y-107750001I0J249999D01*
G01*
X120750000Y-106849999D01*
G75*
G02*
X120999999Y-106600000I249999J0D01*
G01*
X121650001Y-106600000D01*
G75*
G02*
X121900000Y-106849999I0J-249999D01*
G01*
G37*
%TD.AperFunction*%
%TO.P,D13,2*%
%TO.N,Net-(D13-Pad2)*%
%TA.AperFunction,SMDPad,CuDef*%
G36*
G01*
X119850000Y-106849999D02*
X119850000Y-107750001D01*
G75*
G02*
X119600001Y-108000000I-249999J0D01*
G01*
X118949999Y-108000000D01*
G75*
G02*
X118700000Y-107750001I0J249999D01*
G01*
X118700000Y-106849999D01*
G75*
G02*
X118949999Y-106600000I249999J0D01*
G01*
X119600001Y-106600000D01*
G75*
G02*
X119850000Y-106849999I0J-249999D01*
G01*
G37*
%TD.AperFunction*%
%TD*%
%TO.P,D14,2*%
%TO.N,Net-(D13-Pad1)*%
%TA.AperFunction,SMDPad,CuDef*%
G36*
G01*
X126850000Y-106849999D02*
X126850000Y-107750001D01*
G75*
G02*
X126600001Y-108000000I-249999J0D01*
G01*
X125949999Y-108000000D01*
G75*
G02*
X125700000Y-107750001I0J249999D01*
G01*
X125700000Y-106849999D01*
G75*
G02*
X125949999Y-106600000I249999J0D01*
G01*
X126600001Y-106600000D01*
G75*
G02*
X126850000Y-106849999I0J-249999D01*
G01*
G37*
%TD.AperFunction*%
%TO.P,D14,1*%
%TO.N,Net-(D14-Pad1)*%
%TA.AperFunction,SMDPad,CuDef*%
G36*
G01*
X128900000Y-106849999D02*
X128900000Y-107750001D01*
G75*
G02*
X128650001Y-108000000I-249999J0D01*
G01*
X127999999Y-108000000D01*
G75*
G02*
X127750000Y-107750001I0J249999D01*
G01*
X127750000Y-106849999D01*
G75*
G02*
X127999999Y-106600000I249999J0D01*
G01*
X128650001Y-106600000D01*
G75*
G02*
X128900000Y-106849999I0J-249999D01*
G01*
G37*
%TD.AperFunction*%
%TD*%
%TO.P,D15,1*%
%TO.N,Net-(D15-Pad1)*%
%TA.AperFunction,SMDPad,CuDef*%
G36*
G01*
X139700000Y-107750001D02*
X139700000Y-106849999D01*
G75*
G02*
X139949999Y-106600000I249999J0D01*
G01*
X140600001Y-106600000D01*
G75*
G02*
X140850000Y-106849999I0J-249999D01*
G01*
X140850000Y-107750001D01*
G75*
G02*
X140600001Y-108000000I-249999J0D01*
G01*
X139949999Y-108000000D01*
G75*
G02*
X139700000Y-107750001I0J249999D01*
G01*
G37*
%TD.AperFunction*%
%TO.P,D15,2*%
%TO.N,Net-(D15-Pad2)*%
%TA.AperFunction,SMDPad,CuDef*%
G36*
G01*
X141750000Y-107750001D02*
X141750000Y-106849999D01*
G75*
G02*
X141999999Y-106600000I249999J0D01*
G01*
X142650001Y-106600000D01*
G75*
G02*
X142900000Y-106849999I0J-249999D01*
G01*
X142900000Y-107750001D01*
G75*
G02*
X142650001Y-108000000I-249999J0D01*
G01*
X141999999Y-108000000D01*
G75*
G02*
X141750000Y-107750001I0J249999D01*
G01*
G37*
%TD.AperFunction*%
%TD*%
%TO.P,D16,2*%
%TO.N,Net-(D15-Pad1)*%
%TA.AperFunction,SMDPad,CuDef*%
G36*
G01*
X134750000Y-107750001D02*
X134750000Y-106849999D01*
G75*
G02*
X134999999Y-106600000I249999J0D01*
G01*
X135650001Y-106600000D01*
G75*
G02*
X135900000Y-106849999I0J-249999D01*
G01*
X135900000Y-107750001D01*
G75*
G02*
X135650001Y-108000000I-249999J0D01*
G01*
X134999999Y-108000000D01*
G75*
G02*
X134750000Y-107750001I0J249999D01*
G01*
G37*
%TD.AperFunction*%
%TO.P,D16,1*%
%TO.N,Net-(D14-Pad1)*%
%TA.AperFunction,SMDPad,CuDef*%
G36*
G01*
X132700000Y-107750001D02*
X132700000Y-106849999D01*
G75*
G02*
X132949999Y-106600000I249999J0D01*
G01*
X133600001Y-106600000D01*
G75*
G02*
X133850000Y-106849999I0J-249999D01*
G01*
X133850000Y-107750001D01*
G75*
G02*
X133600001Y-108000000I-249999J0D01*
G01*
X132949999Y-108000000D01*
G75*
G02*
X132700000Y-107750001I0J249999D01*
G01*
G37*
%TD.AperFunction*%
%TD*%
D11*
%TO.P,SW1,2*%
%TO.N,BT_BROWSE*%
X234760000Y-112800000D03*
%TO.P,SW1,1*%
%TO.N,GND*%
X239840000Y-112800000D03*
%TD*%
%TO.P,SW2,1*%
%TO.N,GND*%
X204340000Y-112800000D03*
%TO.P,SW2,2*%
%TO.N,MENU_TAGLIST*%
X199260000Y-112800000D03*
%TD*%
%TO.P,SW3,1*%
%TO.N,GND*%
X168840000Y-112800000D03*
%TO.P,SW3,2*%
%TO.N,BT_INFO*%
X163760000Y-112800000D03*
%TD*%
%TO.P,SW4,2*%
%TO.N,BT_MENU*%
X128260000Y-112800000D03*
%TO.P,SW4,1*%
%TO.N,GND*%
X133340000Y-112800000D03*
%TD*%
%TO.P,SW5,1*%
%TO.N,GND*%
X96760000Y-105500000D03*
%TO.P,SW5,2*%
%TO.N,BT_BACK*%
X101840000Y-105500000D03*
%TD*%
%TO.P,SW6,2*%
%TO.N,BT_TAG*%
X81440000Y-105500000D03*
%TO.P,SW6,1*%
%TO.N,GND*%
X76360000Y-105500000D03*
%TD*%
%TO.P,TP1,1*%
%TO.N,+8V*%
X89200000Y-104400000D03*
%TD*%
%TO.P,TP2,1*%
%TO.N,GND*%
X173900000Y-114500000D03*
%TD*%
%TO.P,TP3,1*%
%TO.N,GND*%
X243800000Y-114500000D03*
%TD*%
%TO.P,TP4,1*%
%TO.N,GND*%
X77500000Y-113900000D03*
%TD*%
D12*
%TO.N,+8V*%
X120700000Y-105700000D03*
X120700000Y-101200000D03*
%TO.N,GND*%
X195500000Y-106000000D03*
X160450000Y-106350000D03*
X231000000Y-106200000D03*
X124100000Y-106300000D03*
D13*
X76000000Y-99000000D03*
D12*
X84000000Y-99000000D03*
X92000000Y-99000000D03*
X254000000Y-114000000D03*
X254000000Y-100000000D03*
X229000000Y-100000000D03*
X204000000Y-100000000D03*
X220000000Y-107000000D03*
X219900000Y-115100000D03*
X184000000Y-107000000D03*
X184000000Y-115000000D03*
X148000000Y-107000000D03*
X148000000Y-115000000D03*
X95250000Y-109000000D03*
X112750000Y-98750000D03*
X134100000Y-103900000D03*
X168600000Y-103900000D03*
X204100000Y-103900000D03*
X114400000Y-106200000D03*
X106500000Y-112800000D03*
X113800000Y-115750000D03*
X168600000Y-99000000D03*
X134100000Y-99000000D03*
%TO.N,+3V3*%
X85300000Y-108300000D03*
X120500000Y-113100000D03*
X118300000Y-112200000D03*
X109400000Y-102100000D03*
X116800000Y-106900000D03*
%TO.N,Net-(D1-Pad2)*%
X225800000Y-108900000D03*
%TO.N,Net-(D2-Pad1)*%
X236600000Y-107300000D03*
%TO.N,Net-(D3-Pad2)*%
X248800000Y-108900000D03*
%TO.N,Net-(D5-Pad2)*%
X190300000Y-108900000D03*
%TO.N,Net-(D6-Pad1)*%
X201000000Y-107300000D03*
%TO.N,Net-(D7-Pad2)*%
X213300000Y-108900000D03*
%TO.N,Net-(D9-Pad2)*%
X154800000Y-108900000D03*
%TO.N,Net-(D10-Pad1)*%
X165600000Y-107300000D03*
%TO.N,Net-(D11-Pad2)*%
X177800000Y-108900000D03*
%TO.N,Net-(D13-Pad2)*%
X119300000Y-108900000D03*
%TO.N,Net-(D14-Pad1)*%
X130100000Y-107300000D03*
%TO.N,Net-(D15-Pad2)*%
X142300000Y-108900000D03*
%TD*%
D14*
%TO.N,+8V*%
X120700000Y-105700000D02*
X120700000Y-101200000D01*
%TO.N,GND*%
X239840000Y-112860000D02*
X239840000Y-112800000D01*
X133340000Y-112800000D02*
X133400000Y-112800000D01*
D15*
X237540000Y-115100000D02*
X239840000Y-112800000D01*
X124100000Y-106300000D02*
X124100000Y-105900000D01*
X124100000Y-105900000D02*
X126100000Y-103900000D01*
X228700000Y-103900000D02*
X231000000Y-106200000D01*
X160450000Y-104050000D02*
X160300000Y-103900000D01*
X160450000Y-106350000D02*
X160450000Y-104050000D01*
X195500000Y-104000000D02*
X195400000Y-103900000D01*
X195500000Y-106000000D02*
X195500000Y-104000000D01*
X195400000Y-103900000D02*
X204100000Y-103900000D01*
X160300000Y-103900000D02*
X168600000Y-103900000D01*
X149100000Y-103900000D02*
X160300000Y-103900000D01*
X126100000Y-103900000D02*
X134100000Y-103900000D01*
X96760000Y-105500000D02*
X96760000Y-102540000D01*
X96760000Y-102540000D02*
X99900000Y-99400000D01*
X90800000Y-114240000D02*
X88260000Y-114240000D01*
X76360000Y-105500000D02*
X76360000Y-102540000D01*
X76360000Y-102540000D02*
X77800000Y-101100000D01*
X83000000Y-101100000D02*
X84100000Y-102200000D01*
X95040000Y-102540000D02*
X96760000Y-102540000D01*
X94700000Y-102200000D02*
X95040000Y-102540000D01*
X76360000Y-112760000D02*
X77500000Y-113900000D01*
X76360000Y-105500000D02*
X76360000Y-112760000D01*
X77840000Y-114240000D02*
X77500000Y-113900000D01*
X88260000Y-114240000D02*
X77840000Y-114240000D01*
X242100000Y-112800000D02*
X243800000Y-114500000D01*
X239840000Y-112800000D02*
X242100000Y-112800000D01*
X219900000Y-115100000D02*
X237540000Y-115100000D01*
X148000000Y-115000000D02*
X148000000Y-107000000D01*
X148000000Y-104000000D02*
X147900000Y-103900000D01*
X148000000Y-107000000D02*
X148000000Y-104000000D01*
X147900000Y-103900000D02*
X149100000Y-103900000D01*
X134100000Y-103900000D02*
X147900000Y-103900000D01*
X133340000Y-112840000D02*
X133340000Y-112800000D01*
X135500000Y-115000000D02*
X133340000Y-112840000D01*
X148000000Y-115000000D02*
X135500000Y-115000000D01*
X184100000Y-115100000D02*
X184000000Y-115000000D01*
X219900000Y-115100000D02*
X184100000Y-115100000D01*
X184000000Y-115000000D02*
X184000000Y-107000000D01*
X184000000Y-104000000D02*
X184100000Y-103900000D01*
X184000000Y-107000000D02*
X184000000Y-104000000D01*
X184100000Y-103900000D02*
X195400000Y-103900000D01*
X168600000Y-103900000D02*
X184100000Y-103900000D01*
X174400000Y-115000000D02*
X173900000Y-114500000D01*
X184000000Y-115000000D02*
X174400000Y-115000000D01*
X170540000Y-114500000D02*
X168840000Y-112800000D01*
X173900000Y-114500000D02*
X170540000Y-114500000D01*
X168840000Y-112800000D02*
X168840000Y-113060000D01*
X166900000Y-115000000D02*
X148000000Y-115000000D01*
X168840000Y-113060000D02*
X166900000Y-115000000D01*
X79800000Y-99000000D02*
X79800000Y-101100000D01*
X79800000Y-101100000D02*
X83000000Y-101100000D01*
X77800000Y-101100000D02*
X79800000Y-101100000D01*
X84000000Y-99000000D02*
X79800000Y-99000000D01*
X79800000Y-99000000D02*
X76000000Y-99000000D01*
X95250000Y-107010000D02*
X96760000Y-105500000D01*
X95250000Y-109000000D02*
X95250000Y-107010000D01*
X92000000Y-102100000D02*
X92100000Y-102200000D01*
X92100000Y-102200000D02*
X94700000Y-102200000D01*
X92000000Y-99000000D02*
X92000000Y-102100000D01*
X84100000Y-102200000D02*
X92100000Y-102200000D01*
X126100000Y-102400000D02*
X126100000Y-103900000D01*
X122450000Y-98750000D02*
X126100000Y-102400000D01*
X112750000Y-98750000D02*
X122450000Y-98750000D01*
X100550000Y-98750000D02*
X99900000Y-99400000D01*
X112750000Y-98750000D02*
X100550000Y-98750000D01*
X204000000Y-103800000D02*
X204100000Y-103900000D01*
X204000000Y-100000000D02*
X204000000Y-103800000D01*
X220000000Y-104000000D02*
X219900000Y-103900000D01*
X220000000Y-107000000D02*
X220000000Y-104000000D01*
X219900000Y-103900000D02*
X228700000Y-103900000D01*
X204100000Y-103900000D02*
X219900000Y-103900000D01*
X220000000Y-115000000D02*
X219900000Y-115100000D01*
X220000000Y-107000000D02*
X220000000Y-115000000D01*
X244300000Y-114000000D02*
X243800000Y-114500000D01*
X254000000Y-114000000D02*
X244300000Y-114000000D01*
X254000000Y-114000000D02*
X254000000Y-100000000D01*
X254000000Y-100000000D02*
X229000000Y-100000000D01*
X229000000Y-100000000D02*
X204000000Y-100000000D01*
X107800000Y-112800000D02*
X114400000Y-106200000D01*
X106500000Y-112800000D02*
X107800000Y-112800000D01*
X96760000Y-105500000D02*
X97000000Y-105500000D01*
X97000000Y-105500000D02*
X99800000Y-108300000D01*
X99800000Y-108300000D02*
X105100000Y-108300000D01*
X106500000Y-109700000D02*
X106500000Y-112800000D01*
X105100000Y-108300000D02*
X106500000Y-109700000D01*
X130390000Y-115750000D02*
X133340000Y-112800000D01*
X113800000Y-115750000D02*
X130390000Y-115750000D01*
X134100000Y-99000000D02*
X134100000Y-103900000D01*
X168600000Y-99000000D02*
X168600000Y-103900000D01*
D14*
%TO.N,+3V3*%
X90800000Y-111700000D02*
X90800000Y-109800000D01*
X89300000Y-108300000D02*
X85300000Y-108300000D01*
X90800000Y-109800000D02*
X89300000Y-108300000D01*
X119200000Y-113100000D02*
X118300000Y-112200000D01*
X120500000Y-113100000D02*
X119200000Y-113100000D01*
X116800000Y-110700000D02*
X118300000Y-112200000D01*
X116800000Y-106900000D02*
X116800000Y-110700000D01*
X110300000Y-103000000D02*
X109400000Y-102100000D01*
X112900000Y-103000000D02*
X110300000Y-103000000D01*
X116800000Y-106900000D02*
X112900000Y-103000000D01*
%TO.N,Net-(D1-Pad2)*%
X225775000Y-108875000D02*
X225800000Y-108900000D01*
X225775000Y-107300000D02*
X225775000Y-108875000D01*
%TO.N,Net-(D1-Pad1)*%
X227825000Y-107300000D02*
X232775000Y-107300000D01*
%TO.N,Net-(D2-Pad1)*%
X234825000Y-107300000D02*
X236600000Y-107300000D01*
X236600000Y-107300000D02*
X239775000Y-107300000D01*
%TO.N,Net-(D3-Pad1)*%
X241825000Y-107300000D02*
X246775000Y-107300000D01*
%TO.N,Net-(D3-Pad2)*%
X248825000Y-108875000D02*
X248800000Y-108900000D01*
X248825000Y-107300000D02*
X248825000Y-108875000D01*
%TO.N,Net-(D5-Pad1)*%
X192325000Y-107300000D02*
X197275000Y-107300000D01*
%TO.N,Net-(D5-Pad2)*%
X190275000Y-108875000D02*
X190300000Y-108900000D01*
X190275000Y-107300000D02*
X190275000Y-108875000D01*
%TO.N,Net-(D6-Pad1)*%
X199325000Y-107300000D02*
X201000000Y-107300000D01*
X201000000Y-107300000D02*
X204275000Y-107300000D01*
%TO.N,Net-(D7-Pad2)*%
X213325000Y-108875000D02*
X213300000Y-108900000D01*
X213325000Y-107300000D02*
X213325000Y-108875000D01*
%TO.N,Net-(D7-Pad1)*%
X206325000Y-107300000D02*
X211275000Y-107300000D01*
%TO.N,Net-(D10-Pad2)*%
X161775000Y-107300000D02*
X156825000Y-107300000D01*
%TO.N,Net-(D9-Pad2)*%
X154775000Y-108875000D02*
X154800000Y-108900000D01*
X154775000Y-107300000D02*
X154775000Y-108875000D01*
%TO.N,Net-(D10-Pad1)*%
X163825000Y-107300000D02*
X165600000Y-107300000D01*
X165600000Y-107300000D02*
X168775000Y-107300000D01*
%TO.N,Net-(D11-Pad2)*%
X177825000Y-108875000D02*
X177800000Y-108900000D01*
X177825000Y-107300000D02*
X177825000Y-108875000D01*
%TO.N,Net-(D11-Pad1)*%
X170825000Y-107300000D02*
X175775000Y-107300000D01*
%TO.N,Net-(D13-Pad1)*%
X121325000Y-107300000D02*
X126275000Y-107300000D01*
%TO.N,Net-(D13-Pad2)*%
X119275000Y-108875000D02*
X119300000Y-108900000D01*
X119275000Y-107300000D02*
X119275000Y-108875000D01*
%TO.N,Net-(D14-Pad1)*%
X128325000Y-107300000D02*
X130100000Y-107300000D01*
X130100000Y-107300000D02*
X133275000Y-107300000D01*
%TO.N,Net-(D15-Pad1)*%
X135325000Y-107300000D02*
X140275000Y-107300000D01*
%TO.N,Net-(D15-Pad2)*%
X142325000Y-108875000D02*
X142300000Y-108900000D01*
X142325000Y-107300000D02*
X142325000Y-108875000D01*
%TO.N,LED_BROWSE*%
X98420000Y-111700000D02*
X98400000Y-111700000D01*
%TO.N,BT_MENU*%
X95200000Y-116100000D02*
X93340000Y-114240000D01*
X108200000Y-114000000D02*
X106100000Y-116100000D01*
X106100000Y-116100000D02*
X95200000Y-116100000D01*
X121100000Y-114000000D02*
X108200000Y-114000000D01*
X122300000Y-112800000D02*
X121100000Y-114000000D01*
X128260000Y-112800000D02*
X122300000Y-112800000D01*
%TO.N,LED_TAGLIST*%
X98420000Y-114240000D02*
X98510000Y-114240000D01*
%TO.N,BT_TAG*%
X83040000Y-107100000D02*
X81440000Y-105500000D01*
X93340000Y-111700000D02*
X93340000Y-110040000D01*
X90400000Y-107100000D02*
X83040000Y-107100000D01*
X93340000Y-110040000D02*
X90400000Y-107100000D01*
%TD*%
D16*
%TO.N,GND*%
X85740001Y-100767571D02*
X85736807Y-100800000D01*
X85749550Y-100929383D01*
X85787290Y-101053793D01*
X85848575Y-101168450D01*
X85931052Y-101268948D01*
X86031550Y-101351425D01*
X86146207Y-101412710D01*
X86270617Y-101450450D01*
X86367581Y-101460000D01*
X86400000Y-101463193D01*
X86432419Y-101460000D01*
X89167581Y-101460000D01*
X89200000Y-101463193D01*
X89232419Y-101460000D01*
X89329383Y-101450450D01*
X89453793Y-101412710D01*
X89568450Y-101351425D01*
X89668948Y-101268948D01*
X89751425Y-101168450D01*
X89812710Y-101053793D01*
X89850450Y-100929383D01*
X89863193Y-100800000D01*
X89860000Y-100767581D01*
X89860000Y-97660000D01*
X255940000Y-97660000D01*
X255940001Y-116340000D01*
X107040867Y-116340000D01*
X108545868Y-114835000D01*
X121058982Y-114835000D01*
X121100000Y-114839040D01*
X121141018Y-114835000D01*
X121141019Y-114835000D01*
X121263689Y-114822918D01*
X121421087Y-114775172D01*
X121566146Y-114697636D01*
X121693291Y-114593291D01*
X121719446Y-114561421D01*
X122645868Y-113635000D01*
X126851532Y-113635000D01*
X126990013Y-113842252D01*
X127217748Y-114069987D01*
X127485537Y-114248918D01*
X127783088Y-114372168D01*
X128098967Y-114435000D01*
X128421033Y-114435000D01*
X128736912Y-114372168D01*
X129034463Y-114248918D01*
X129302252Y-114069987D01*
X129529987Y-113842252D01*
X129708918Y-113574463D01*
X129832168Y-113276912D01*
X129895000Y-112961033D01*
X129895000Y-112638967D01*
X162125000Y-112638967D01*
X162125000Y-112961033D01*
X162187832Y-113276912D01*
X162311082Y-113574463D01*
X162490013Y-113842252D01*
X162717748Y-114069987D01*
X162985537Y-114248918D01*
X163283088Y-114372168D01*
X163598967Y-114435000D01*
X163921033Y-114435000D01*
X164236912Y-114372168D01*
X164534463Y-114248918D01*
X164802252Y-114069987D01*
X165029987Y-113842252D01*
X165208918Y-113574463D01*
X165332168Y-113276912D01*
X165395000Y-112961033D01*
X165395000Y-112638967D01*
X197625000Y-112638967D01*
X197625000Y-112961033D01*
X197687832Y-113276912D01*
X197811082Y-113574463D01*
X197990013Y-113842252D01*
X198217748Y-114069987D01*
X198485537Y-114248918D01*
X198783088Y-114372168D01*
X199098967Y-114435000D01*
X199421033Y-114435000D01*
X199736912Y-114372168D01*
X200034463Y-114248918D01*
X200302252Y-114069987D01*
X200529987Y-113842252D01*
X200708918Y-113574463D01*
X200832168Y-113276912D01*
X200895000Y-112961033D01*
X200895000Y-112638967D01*
X233125000Y-112638967D01*
X233125000Y-112961033D01*
X233187832Y-113276912D01*
X233311082Y-113574463D01*
X233490013Y-113842252D01*
X233717748Y-114069987D01*
X233985537Y-114248918D01*
X234283088Y-114372168D01*
X234598967Y-114435000D01*
X234921033Y-114435000D01*
X235236912Y-114372168D01*
X235534463Y-114248918D01*
X235802252Y-114069987D01*
X236029987Y-113842252D01*
X236208918Y-113574463D01*
X236332168Y-113276912D01*
X236395000Y-112961033D01*
X236395000Y-112638967D01*
X236332168Y-112323088D01*
X236208918Y-112025537D01*
X236029987Y-111757748D01*
X235802252Y-111530013D01*
X235534463Y-111351082D01*
X235236912Y-111227832D01*
X234921033Y-111165000D01*
X234598967Y-111165000D01*
X234283088Y-111227832D01*
X233985537Y-111351082D01*
X233717748Y-111530013D01*
X233490013Y-111757748D01*
X233311082Y-112025537D01*
X233187832Y-112323088D01*
X233125000Y-112638967D01*
X200895000Y-112638967D01*
X200832168Y-112323088D01*
X200708918Y-112025537D01*
X200529987Y-111757748D01*
X200302252Y-111530013D01*
X200034463Y-111351082D01*
X199736912Y-111227832D01*
X199421033Y-111165000D01*
X199098967Y-111165000D01*
X198783088Y-111227832D01*
X198485537Y-111351082D01*
X198217748Y-111530013D01*
X197990013Y-111757748D01*
X197811082Y-112025537D01*
X197687832Y-112323088D01*
X197625000Y-112638967D01*
X165395000Y-112638967D01*
X165332168Y-112323088D01*
X165208918Y-112025537D01*
X165029987Y-111757748D01*
X164802252Y-111530013D01*
X164534463Y-111351082D01*
X164236912Y-111227832D01*
X163921033Y-111165000D01*
X163598967Y-111165000D01*
X163283088Y-111227832D01*
X162985537Y-111351082D01*
X162717748Y-111530013D01*
X162490013Y-111757748D01*
X162311082Y-112025537D01*
X162187832Y-112323088D01*
X162125000Y-112638967D01*
X129895000Y-112638967D01*
X129832168Y-112323088D01*
X129708918Y-112025537D01*
X129529987Y-111757748D01*
X129302252Y-111530013D01*
X129034463Y-111351082D01*
X128736912Y-111227832D01*
X128421033Y-111165000D01*
X128098967Y-111165000D01*
X127783088Y-111227832D01*
X127485537Y-111351082D01*
X127217748Y-111530013D01*
X126990013Y-111757748D01*
X126851532Y-111965000D01*
X122341007Y-111965000D01*
X122299999Y-111960961D01*
X122258991Y-111965000D01*
X122258981Y-111965000D01*
X122136311Y-111977082D01*
X121978913Y-112024828D01*
X121833854Y-112102364D01*
X121706709Y-112206709D01*
X121680558Y-112238574D01*
X121301924Y-112617208D01*
X121226262Y-112503972D01*
X121096028Y-112373738D01*
X120942889Y-112271414D01*
X120772729Y-112200932D01*
X120592089Y-112165000D01*
X120407911Y-112165000D01*
X120227271Y-112200932D01*
X120072596Y-112265000D01*
X119545868Y-112265000D01*
X119192654Y-111911787D01*
X119128586Y-111757111D01*
X119026262Y-111603972D01*
X118896028Y-111473738D01*
X118742889Y-111371414D01*
X118588214Y-111307346D01*
X117635000Y-110354133D01*
X117635000Y-107327404D01*
X117699068Y-107172729D01*
X117735000Y-106992089D01*
X117735000Y-106849999D01*
X118061928Y-106849999D01*
X118061928Y-107750001D01*
X118078992Y-107923255D01*
X118129528Y-108089851D01*
X118211595Y-108243387D01*
X118322038Y-108377962D01*
X118440001Y-108474772D01*
X118440001Y-108532950D01*
X118400932Y-108627271D01*
X118365000Y-108807911D01*
X118365000Y-108992089D01*
X118400932Y-109172729D01*
X118471414Y-109342889D01*
X118573738Y-109496028D01*
X118703972Y-109626262D01*
X118857111Y-109728586D01*
X119027271Y-109799068D01*
X119207911Y-109835000D01*
X119392089Y-109835000D01*
X119572729Y-109799068D01*
X119742889Y-109728586D01*
X119896028Y-109626262D01*
X120026262Y-109496028D01*
X120128586Y-109342889D01*
X120199068Y-109172729D01*
X120235000Y-108992089D01*
X120235000Y-108807911D01*
X120199068Y-108627271D01*
X120129330Y-108458907D01*
X120227962Y-108377962D01*
X120300000Y-108290184D01*
X120372038Y-108377962D01*
X120506613Y-108488405D01*
X120660149Y-108570472D01*
X120826745Y-108621008D01*
X120999999Y-108638072D01*
X121650001Y-108638072D01*
X121823255Y-108621008D01*
X121989851Y-108570472D01*
X122143387Y-108488405D01*
X122277962Y-108377962D01*
X122388405Y-108243387D01*
X122446339Y-108135000D01*
X125153661Y-108135000D01*
X125211595Y-108243387D01*
X125322038Y-108377962D01*
X125456613Y-108488405D01*
X125610149Y-108570472D01*
X125776745Y-108621008D01*
X125949999Y-108638072D01*
X126600001Y-108638072D01*
X126773255Y-108621008D01*
X126939851Y-108570472D01*
X127093387Y-108488405D01*
X127227962Y-108377962D01*
X127300000Y-108290184D01*
X127372038Y-108377962D01*
X127506613Y-108488405D01*
X127660149Y-108570472D01*
X127826745Y-108621008D01*
X127999999Y-108638072D01*
X128650001Y-108638072D01*
X128823255Y-108621008D01*
X128989851Y-108570472D01*
X129143387Y-108488405D01*
X129277962Y-108377962D01*
X129388405Y-108243387D01*
X129446339Y-108135000D01*
X129672596Y-108135000D01*
X129827271Y-108199068D01*
X130007911Y-108235000D01*
X130192089Y-108235000D01*
X130372729Y-108199068D01*
X130527404Y-108135000D01*
X132153661Y-108135000D01*
X132211595Y-108243387D01*
X132322038Y-108377962D01*
X132456613Y-108488405D01*
X132610149Y-108570472D01*
X132776745Y-108621008D01*
X132949999Y-108638072D01*
X133600001Y-108638072D01*
X133773255Y-108621008D01*
X133939851Y-108570472D01*
X134093387Y-108488405D01*
X134227962Y-108377962D01*
X134300000Y-108290184D01*
X134372038Y-108377962D01*
X134506613Y-108488405D01*
X134660149Y-108570472D01*
X134826745Y-108621008D01*
X134999999Y-108638072D01*
X135650001Y-108638072D01*
X135823255Y-108621008D01*
X135989851Y-108570472D01*
X136143387Y-108488405D01*
X136277962Y-108377962D01*
X136388405Y-108243387D01*
X136446339Y-108135000D01*
X139153661Y-108135000D01*
X139211595Y-108243387D01*
X139322038Y-108377962D01*
X139456613Y-108488405D01*
X139610149Y-108570472D01*
X139776745Y-108621008D01*
X139949999Y-108638072D01*
X140600001Y-108638072D01*
X140773255Y-108621008D01*
X140939851Y-108570472D01*
X141093387Y-108488405D01*
X141227962Y-108377962D01*
X141300000Y-108290184D01*
X141372038Y-108377962D01*
X141470670Y-108458907D01*
X141400932Y-108627271D01*
X141365000Y-108807911D01*
X141365000Y-108992089D01*
X141400932Y-109172729D01*
X141471414Y-109342889D01*
X141573738Y-109496028D01*
X141703972Y-109626262D01*
X141857111Y-109728586D01*
X142027271Y-109799068D01*
X142207911Y-109835000D01*
X142392089Y-109835000D01*
X142572729Y-109799068D01*
X142742889Y-109728586D01*
X142896028Y-109626262D01*
X143026262Y-109496028D01*
X143128586Y-109342889D01*
X143199068Y-109172729D01*
X143235000Y-108992089D01*
X143235000Y-108807911D01*
X143199068Y-108627271D01*
X143160000Y-108532952D01*
X143160000Y-108474771D01*
X143277962Y-108377962D01*
X143388405Y-108243387D01*
X143470472Y-108089851D01*
X143521008Y-107923255D01*
X143538072Y-107750001D01*
X143538072Y-106849999D01*
X153561928Y-106849999D01*
X153561928Y-107750001D01*
X153578992Y-107923255D01*
X153629528Y-108089851D01*
X153711595Y-108243387D01*
X153822038Y-108377962D01*
X153940001Y-108474772D01*
X153940001Y-108532950D01*
X153900932Y-108627271D01*
X153865000Y-108807911D01*
X153865000Y-108992089D01*
X153900932Y-109172729D01*
X153971414Y-109342889D01*
X154073738Y-109496028D01*
X154203972Y-109626262D01*
X154357111Y-109728586D01*
X154527271Y-109799068D01*
X154707911Y-109835000D01*
X154892089Y-109835000D01*
X155072729Y-109799068D01*
X155242889Y-109728586D01*
X155396028Y-109626262D01*
X155526262Y-109496028D01*
X155628586Y-109342889D01*
X155699068Y-109172729D01*
X155735000Y-108992089D01*
X155735000Y-108807911D01*
X155699068Y-108627271D01*
X155629330Y-108458907D01*
X155727962Y-108377962D01*
X155800000Y-108290184D01*
X155872038Y-108377962D01*
X156006613Y-108488405D01*
X156160149Y-108570472D01*
X156326745Y-108621008D01*
X156499999Y-108638072D01*
X157150001Y-108638072D01*
X157323255Y-108621008D01*
X157489851Y-108570472D01*
X157643387Y-108488405D01*
X157777962Y-108377962D01*
X157888405Y-108243387D01*
X157946339Y-108135000D01*
X160653661Y-108135000D01*
X160711595Y-108243387D01*
X160822038Y-108377962D01*
X160956613Y-108488405D01*
X161110149Y-108570472D01*
X161276745Y-108621008D01*
X161449999Y-108638072D01*
X162100001Y-108638072D01*
X162273255Y-108621008D01*
X162439851Y-108570472D01*
X162593387Y-108488405D01*
X162727962Y-108377962D01*
X162800000Y-108290184D01*
X162872038Y-108377962D01*
X163006613Y-108488405D01*
X163160149Y-108570472D01*
X163326745Y-108621008D01*
X163499999Y-108638072D01*
X164150001Y-108638072D01*
X164323255Y-108621008D01*
X164489851Y-108570472D01*
X164643387Y-108488405D01*
X164777962Y-108377962D01*
X164888405Y-108243387D01*
X164946339Y-108135000D01*
X165172596Y-108135000D01*
X165327271Y-108199068D01*
X165507911Y-108235000D01*
X165692089Y-108235000D01*
X165872729Y-108199068D01*
X166027404Y-108135000D01*
X167653661Y-108135000D01*
X167711595Y-108243387D01*
X167822038Y-108377962D01*
X167956613Y-108488405D01*
X168110149Y-108570472D01*
X168276745Y-108621008D01*
X168449999Y-108638072D01*
X169100001Y-108638072D01*
X169273255Y-108621008D01*
X169439851Y-108570472D01*
X169593387Y-108488405D01*
X169727962Y-108377962D01*
X169800000Y-108290184D01*
X169872038Y-108377962D01*
X170006613Y-108488405D01*
X170160149Y-108570472D01*
X170326745Y-108621008D01*
X170499999Y-108638072D01*
X171150001Y-108638072D01*
X171323255Y-108621008D01*
X171489851Y-108570472D01*
X171643387Y-108488405D01*
X171777962Y-108377962D01*
X171888405Y-108243387D01*
X171946339Y-108135000D01*
X174653661Y-108135000D01*
X174711595Y-108243387D01*
X174822038Y-108377962D01*
X174956613Y-108488405D01*
X175110149Y-108570472D01*
X175276745Y-108621008D01*
X175449999Y-108638072D01*
X176100001Y-108638072D01*
X176273255Y-108621008D01*
X176439851Y-108570472D01*
X176593387Y-108488405D01*
X176727962Y-108377962D01*
X176800000Y-108290184D01*
X176872038Y-108377962D01*
X176970670Y-108458907D01*
X176900932Y-108627271D01*
X176865000Y-108807911D01*
X176865000Y-108992089D01*
X176900932Y-109172729D01*
X176971414Y-109342889D01*
X177073738Y-109496028D01*
X177203972Y-109626262D01*
X177357111Y-109728586D01*
X177527271Y-109799068D01*
X177707911Y-109835000D01*
X177892089Y-109835000D01*
X178072729Y-109799068D01*
X178242889Y-109728586D01*
X178396028Y-109626262D01*
X178526262Y-109496028D01*
X178628586Y-109342889D01*
X178699068Y-109172729D01*
X178735000Y-108992089D01*
X178735000Y-108807911D01*
X178699068Y-108627271D01*
X178660000Y-108532952D01*
X178660000Y-108474771D01*
X178777962Y-108377962D01*
X178888405Y-108243387D01*
X178970472Y-108089851D01*
X179021008Y-107923255D01*
X179038072Y-107750001D01*
X179038072Y-106849999D01*
X189061928Y-106849999D01*
X189061928Y-107750001D01*
X189078992Y-107923255D01*
X189129528Y-108089851D01*
X189211595Y-108243387D01*
X189322038Y-108377962D01*
X189440001Y-108474772D01*
X189440001Y-108532950D01*
X189400932Y-108627271D01*
X189365000Y-108807911D01*
X189365000Y-108992089D01*
X189400932Y-109172729D01*
X189471414Y-109342889D01*
X189573738Y-109496028D01*
X189703972Y-109626262D01*
X189857111Y-109728586D01*
X190027271Y-109799068D01*
X190207911Y-109835000D01*
X190392089Y-109835000D01*
X190572729Y-109799068D01*
X190742889Y-109728586D01*
X190896028Y-109626262D01*
X191026262Y-109496028D01*
X191128586Y-109342889D01*
X191199068Y-109172729D01*
X191235000Y-108992089D01*
X191235000Y-108807911D01*
X191199068Y-108627271D01*
X191129330Y-108458907D01*
X191227962Y-108377962D01*
X191300000Y-108290184D01*
X191372038Y-108377962D01*
X191506613Y-108488405D01*
X191660149Y-108570472D01*
X191826745Y-108621008D01*
X191999999Y-108638072D01*
X192650001Y-108638072D01*
X192823255Y-108621008D01*
X192989851Y-108570472D01*
X193143387Y-108488405D01*
X193277962Y-108377962D01*
X193388405Y-108243387D01*
X193446339Y-108135000D01*
X196153661Y-108135000D01*
X196211595Y-108243387D01*
X196322038Y-108377962D01*
X196456613Y-108488405D01*
X196610149Y-108570472D01*
X196776745Y-108621008D01*
X196949999Y-108638072D01*
X197600001Y-108638072D01*
X197773255Y-108621008D01*
X197939851Y-108570472D01*
X198093387Y-108488405D01*
X198227962Y-108377962D01*
X198300000Y-108290184D01*
X198372038Y-108377962D01*
X198506613Y-108488405D01*
X198660149Y-108570472D01*
X198826745Y-108621008D01*
X198999999Y-108638072D01*
X199650001Y-108638072D01*
X199823255Y-108621008D01*
X199989851Y-108570472D01*
X200143387Y-108488405D01*
X200277962Y-108377962D01*
X200388405Y-108243387D01*
X200446339Y-108135000D01*
X200572596Y-108135000D01*
X200727271Y-108199068D01*
X200907911Y-108235000D01*
X201092089Y-108235000D01*
X201272729Y-108199068D01*
X201427404Y-108135000D01*
X203153661Y-108135000D01*
X203211595Y-108243387D01*
X203322038Y-108377962D01*
X203456613Y-108488405D01*
X203610149Y-108570472D01*
X203776745Y-108621008D01*
X203949999Y-108638072D01*
X204600001Y-108638072D01*
X204773255Y-108621008D01*
X204939851Y-108570472D01*
X205093387Y-108488405D01*
X205227962Y-108377962D01*
X205300000Y-108290184D01*
X205372038Y-108377962D01*
X205506613Y-108488405D01*
X205660149Y-108570472D01*
X205826745Y-108621008D01*
X205999999Y-108638072D01*
X206650001Y-108638072D01*
X206823255Y-108621008D01*
X206989851Y-108570472D01*
X207143387Y-108488405D01*
X207277962Y-108377962D01*
X207388405Y-108243387D01*
X207446339Y-108135000D01*
X210153661Y-108135000D01*
X210211595Y-108243387D01*
X210322038Y-108377962D01*
X210456613Y-108488405D01*
X210610149Y-108570472D01*
X210776745Y-108621008D01*
X210949999Y-108638072D01*
X211600001Y-108638072D01*
X211773255Y-108621008D01*
X211939851Y-108570472D01*
X212093387Y-108488405D01*
X212227962Y-108377962D01*
X212300000Y-108290184D01*
X212372038Y-108377962D01*
X212470670Y-108458907D01*
X212400932Y-108627271D01*
X212365000Y-108807911D01*
X212365000Y-108992089D01*
X212400932Y-109172729D01*
X212471414Y-109342889D01*
X212573738Y-109496028D01*
X212703972Y-109626262D01*
X212857111Y-109728586D01*
X213027271Y-109799068D01*
X213207911Y-109835000D01*
X213392089Y-109835000D01*
X213572729Y-109799068D01*
X213742889Y-109728586D01*
X213896028Y-109626262D01*
X214026262Y-109496028D01*
X214128586Y-109342889D01*
X214199068Y-109172729D01*
X214235000Y-108992089D01*
X214235000Y-108807911D01*
X214199068Y-108627271D01*
X214160000Y-108532952D01*
X214160000Y-108474771D01*
X214277962Y-108377962D01*
X214388405Y-108243387D01*
X214470472Y-108089851D01*
X214521008Y-107923255D01*
X214538072Y-107750001D01*
X214538072Y-106849999D01*
X224561928Y-106849999D01*
X224561928Y-107750001D01*
X224578992Y-107923255D01*
X224629528Y-108089851D01*
X224711595Y-108243387D01*
X224822038Y-108377962D01*
X224940001Y-108474772D01*
X224940001Y-108532950D01*
X224900932Y-108627271D01*
X224865000Y-108807911D01*
X224865000Y-108992089D01*
X224900932Y-109172729D01*
X224971414Y-109342889D01*
X225073738Y-109496028D01*
X225203972Y-109626262D01*
X225357111Y-109728586D01*
X225527271Y-109799068D01*
X225707911Y-109835000D01*
X225892089Y-109835000D01*
X226072729Y-109799068D01*
X226242889Y-109728586D01*
X226396028Y-109626262D01*
X226526262Y-109496028D01*
X226628586Y-109342889D01*
X226699068Y-109172729D01*
X226735000Y-108992089D01*
X226735000Y-108807911D01*
X226699068Y-108627271D01*
X226629330Y-108458907D01*
X226727962Y-108377962D01*
X226800000Y-108290184D01*
X226872038Y-108377962D01*
X227006613Y-108488405D01*
X227160149Y-108570472D01*
X227326745Y-108621008D01*
X227499999Y-108638072D01*
X228150001Y-108638072D01*
X228323255Y-108621008D01*
X228489851Y-108570472D01*
X228643387Y-108488405D01*
X228777962Y-108377962D01*
X228888405Y-108243387D01*
X228946339Y-108135000D01*
X231653661Y-108135000D01*
X231711595Y-108243387D01*
X231822038Y-108377962D01*
X231956613Y-108488405D01*
X232110149Y-108570472D01*
X232276745Y-108621008D01*
X232449999Y-108638072D01*
X233100001Y-108638072D01*
X233273255Y-108621008D01*
X233439851Y-108570472D01*
X233593387Y-108488405D01*
X233727962Y-108377962D01*
X233800000Y-108290184D01*
X233872038Y-108377962D01*
X234006613Y-108488405D01*
X234160149Y-108570472D01*
X234326745Y-108621008D01*
X234499999Y-108638072D01*
X235150001Y-108638072D01*
X235323255Y-108621008D01*
X235489851Y-108570472D01*
X235643387Y-108488405D01*
X235777962Y-108377962D01*
X235888405Y-108243387D01*
X235946339Y-108135000D01*
X236172596Y-108135000D01*
X236327271Y-108199068D01*
X236507911Y-108235000D01*
X236692089Y-108235000D01*
X236872729Y-108199068D01*
X237027404Y-108135000D01*
X238653661Y-108135000D01*
X238711595Y-108243387D01*
X238822038Y-108377962D01*
X238956613Y-108488405D01*
X239110149Y-108570472D01*
X239276745Y-108621008D01*
X239449999Y-108638072D01*
X240100001Y-108638072D01*
X240273255Y-108621008D01*
X240439851Y-108570472D01*
X240593387Y-108488405D01*
X240727962Y-108377962D01*
X240800000Y-108290184D01*
X240872038Y-108377962D01*
X241006613Y-108488405D01*
X241160149Y-108570472D01*
X241326745Y-108621008D01*
X241499999Y-108638072D01*
X242150001Y-108638072D01*
X242323255Y-108621008D01*
X242489851Y-108570472D01*
X242643387Y-108488405D01*
X242777962Y-108377962D01*
X242888405Y-108243387D01*
X242946339Y-108135000D01*
X245653661Y-108135000D01*
X245711595Y-108243387D01*
X245822038Y-108377962D01*
X245956613Y-108488405D01*
X246110149Y-108570472D01*
X246276745Y-108621008D01*
X246449999Y-108638072D01*
X247100001Y-108638072D01*
X247273255Y-108621008D01*
X247439851Y-108570472D01*
X247593387Y-108488405D01*
X247727962Y-108377962D01*
X247800000Y-108290184D01*
X247872038Y-108377962D01*
X247970670Y-108458907D01*
X247900932Y-108627271D01*
X247865000Y-108807911D01*
X247865000Y-108992089D01*
X247900932Y-109172729D01*
X247971414Y-109342889D01*
X248073738Y-109496028D01*
X248203972Y-109626262D01*
X248357111Y-109728586D01*
X248527271Y-109799068D01*
X248707911Y-109835000D01*
X248892089Y-109835000D01*
X249072729Y-109799068D01*
X249242889Y-109728586D01*
X249396028Y-109626262D01*
X249526262Y-109496028D01*
X249628586Y-109342889D01*
X249699068Y-109172729D01*
X249735000Y-108992089D01*
X249735000Y-108807911D01*
X249699068Y-108627271D01*
X249660000Y-108532952D01*
X249660000Y-108474771D01*
X249777962Y-108377962D01*
X249888405Y-108243387D01*
X249970472Y-108089851D01*
X250021008Y-107923255D01*
X250038072Y-107750001D01*
X250038072Y-106849999D01*
X250021008Y-106676745D01*
X249970472Y-106510149D01*
X249888405Y-106356613D01*
X249777962Y-106222038D01*
X249643387Y-106111595D01*
X249489851Y-106029528D01*
X249323255Y-105978992D01*
X249150001Y-105961928D01*
X248499999Y-105961928D01*
X248326745Y-105978992D01*
X248160149Y-106029528D01*
X248006613Y-106111595D01*
X247872038Y-106222038D01*
X247800000Y-106309816D01*
X247727962Y-106222038D01*
X247593387Y-106111595D01*
X247439851Y-106029528D01*
X247273255Y-105978992D01*
X247100001Y-105961928D01*
X246449999Y-105961928D01*
X246276745Y-105978992D01*
X246110149Y-106029528D01*
X245956613Y-106111595D01*
X245822038Y-106222038D01*
X245711595Y-106356613D01*
X245653661Y-106465000D01*
X242946339Y-106465000D01*
X242888405Y-106356613D01*
X242777962Y-106222038D01*
X242643387Y-106111595D01*
X242489851Y-106029528D01*
X242323255Y-105978992D01*
X242150001Y-105961928D01*
X241499999Y-105961928D01*
X241326745Y-105978992D01*
X241160149Y-106029528D01*
X241006613Y-106111595D01*
X240872038Y-106222038D01*
X240800000Y-106309816D01*
X240727962Y-106222038D01*
X240593387Y-106111595D01*
X240439851Y-106029528D01*
X240273255Y-105978992D01*
X240100001Y-105961928D01*
X239449999Y-105961928D01*
X239276745Y-105978992D01*
X239110149Y-106029528D01*
X238956613Y-106111595D01*
X238822038Y-106222038D01*
X238711595Y-106356613D01*
X238653661Y-106465000D01*
X237027404Y-106465000D01*
X236872729Y-106400932D01*
X236692089Y-106365000D01*
X236507911Y-106365000D01*
X236327271Y-106400932D01*
X236172596Y-106465000D01*
X235946339Y-106465000D01*
X235888405Y-106356613D01*
X235777962Y-106222038D01*
X235643387Y-106111595D01*
X235489851Y-106029528D01*
X235323255Y-105978992D01*
X235150001Y-105961928D01*
X234499999Y-105961928D01*
X234326745Y-105978992D01*
X234160149Y-106029528D01*
X234006613Y-106111595D01*
X233872038Y-106222038D01*
X233800000Y-106309816D01*
X233727962Y-106222038D01*
X233593387Y-106111595D01*
X233439851Y-106029528D01*
X233273255Y-105978992D01*
X233100001Y-105961928D01*
X232449999Y-105961928D01*
X232276745Y-105978992D01*
X232110149Y-106029528D01*
X231956613Y-106111595D01*
X231822038Y-106222038D01*
X231711595Y-106356613D01*
X231653661Y-106465000D01*
X228946339Y-106465000D01*
X228888405Y-106356613D01*
X228777962Y-106222038D01*
X228643387Y-106111595D01*
X228489851Y-106029528D01*
X228323255Y-105978992D01*
X228150001Y-105961928D01*
X227499999Y-105961928D01*
X227326745Y-105978992D01*
X227160149Y-106029528D01*
X227006613Y-106111595D01*
X226872038Y-106222038D01*
X226800000Y-106309816D01*
X226727962Y-106222038D01*
X226593387Y-106111595D01*
X226439851Y-106029528D01*
X226273255Y-105978992D01*
X226100001Y-105961928D01*
X225449999Y-105961928D01*
X225276745Y-105978992D01*
X225110149Y-106029528D01*
X224956613Y-106111595D01*
X224822038Y-106222038D01*
X224711595Y-106356613D01*
X224629528Y-106510149D01*
X224578992Y-106676745D01*
X224561928Y-106849999D01*
X214538072Y-106849999D01*
X214521008Y-106676745D01*
X214470472Y-106510149D01*
X214388405Y-106356613D01*
X214277962Y-106222038D01*
X214143387Y-106111595D01*
X213989851Y-106029528D01*
X213823255Y-105978992D01*
X213650001Y-105961928D01*
X212999999Y-105961928D01*
X212826745Y-105978992D01*
X212660149Y-106029528D01*
X212506613Y-106111595D01*
X212372038Y-106222038D01*
X212300000Y-106309816D01*
X212227962Y-106222038D01*
X212093387Y-106111595D01*
X211939851Y-106029528D01*
X211773255Y-105978992D01*
X211600001Y-105961928D01*
X210949999Y-105961928D01*
X210776745Y-105978992D01*
X210610149Y-106029528D01*
X210456613Y-106111595D01*
X210322038Y-106222038D01*
X210211595Y-106356613D01*
X210153661Y-106465000D01*
X207446339Y-106465000D01*
X207388405Y-106356613D01*
X207277962Y-106222038D01*
X207143387Y-106111595D01*
X206989851Y-106029528D01*
X206823255Y-105978992D01*
X206650001Y-105961928D01*
X205999999Y-105961928D01*
X205826745Y-105978992D01*
X205660149Y-106029528D01*
X205506613Y-106111595D01*
X205372038Y-106222038D01*
X205300000Y-106309816D01*
X205227962Y-106222038D01*
X205093387Y-106111595D01*
X204939851Y-106029528D01*
X204773255Y-105978992D01*
X204600001Y-105961928D01*
X203949999Y-105961928D01*
X203776745Y-105978992D01*
X203610149Y-106029528D01*
X203456613Y-106111595D01*
X203322038Y-106222038D01*
X203211595Y-106356613D01*
X203153661Y-106465000D01*
X201427404Y-106465000D01*
X201272729Y-106400932D01*
X201092089Y-106365000D01*
X200907911Y-106365000D01*
X200727271Y-106400932D01*
X200572596Y-106465000D01*
X200446339Y-106465000D01*
X200388405Y-106356613D01*
X200277962Y-106222038D01*
X200143387Y-106111595D01*
X199989851Y-106029528D01*
X199823255Y-105978992D01*
X199650001Y-105961928D01*
X198999999Y-105961928D01*
X198826745Y-105978992D01*
X198660149Y-106029528D01*
X198506613Y-106111595D01*
X198372038Y-106222038D01*
X198300000Y-106309816D01*
X198227962Y-106222038D01*
X198093387Y-106111595D01*
X197939851Y-106029528D01*
X197773255Y-105978992D01*
X197600001Y-105961928D01*
X196949999Y-105961928D01*
X196776745Y-105978992D01*
X196610149Y-106029528D01*
X196456613Y-106111595D01*
X196322038Y-106222038D01*
X196211595Y-106356613D01*
X196153661Y-106465000D01*
X193446339Y-106465000D01*
X193388405Y-106356613D01*
X193277962Y-106222038D01*
X193143387Y-106111595D01*
X192989851Y-106029528D01*
X192823255Y-105978992D01*
X192650001Y-105961928D01*
X191999999Y-105961928D01*
X191826745Y-105978992D01*
X191660149Y-106029528D01*
X191506613Y-106111595D01*
X191372038Y-106222038D01*
X191300000Y-106309816D01*
X191227962Y-106222038D01*
X191093387Y-106111595D01*
X190939851Y-106029528D01*
X190773255Y-105978992D01*
X190600001Y-105961928D01*
X189949999Y-105961928D01*
X189776745Y-105978992D01*
X189610149Y-106029528D01*
X189456613Y-106111595D01*
X189322038Y-106222038D01*
X189211595Y-106356613D01*
X189129528Y-106510149D01*
X189078992Y-106676745D01*
X189061928Y-106849999D01*
X179038072Y-106849999D01*
X179021008Y-106676745D01*
X178970472Y-106510149D01*
X178888405Y-106356613D01*
X178777962Y-106222038D01*
X178643387Y-106111595D01*
X178489851Y-106029528D01*
X178323255Y-105978992D01*
X178150001Y-105961928D01*
X177499999Y-105961928D01*
X177326745Y-105978992D01*
X177160149Y-106029528D01*
X177006613Y-106111595D01*
X176872038Y-106222038D01*
X176800000Y-106309816D01*
X176727962Y-106222038D01*
X176593387Y-106111595D01*
X176439851Y-106029528D01*
X176273255Y-105978992D01*
X176100001Y-105961928D01*
X175449999Y-105961928D01*
X175276745Y-105978992D01*
X175110149Y-106029528D01*
X174956613Y-106111595D01*
X174822038Y-106222038D01*
X174711595Y-106356613D01*
X174653661Y-106465000D01*
X171946339Y-106465000D01*
X171888405Y-106356613D01*
X171777962Y-106222038D01*
X171643387Y-106111595D01*
X171489851Y-106029528D01*
X171323255Y-105978992D01*
X171150001Y-105961928D01*
X170499999Y-105961928D01*
X170326745Y-105978992D01*
X170160149Y-106029528D01*
X170006613Y-106111595D01*
X169872038Y-106222038D01*
X169800000Y-106309816D01*
X169727962Y-106222038D01*
X169593387Y-106111595D01*
X169439851Y-106029528D01*
X169273255Y-105978992D01*
X169100001Y-105961928D01*
X168449999Y-105961928D01*
X168276745Y-105978992D01*
X168110149Y-106029528D01*
X167956613Y-106111595D01*
X167822038Y-106222038D01*
X167711595Y-106356613D01*
X167653661Y-106465000D01*
X166027404Y-106465000D01*
X165872729Y-106400932D01*
X165692089Y-106365000D01*
X165507911Y-106365000D01*
X165327271Y-106400932D01*
X165172596Y-106465000D01*
X164946339Y-106465000D01*
X164888405Y-106356613D01*
X164777962Y-106222038D01*
X164643387Y-106111595D01*
X164489851Y-106029528D01*
X164323255Y-105978992D01*
X164150001Y-105961928D01*
X163499999Y-105961928D01*
X163326745Y-105978992D01*
X163160149Y-106029528D01*
X163006613Y-106111595D01*
X162872038Y-106222038D01*
X162800000Y-106309816D01*
X162727962Y-106222038D01*
X162593387Y-106111595D01*
X162439851Y-106029528D01*
X162273255Y-105978992D01*
X162100001Y-105961928D01*
X161449999Y-105961928D01*
X161276745Y-105978992D01*
X161110149Y-106029528D01*
X160956613Y-106111595D01*
X160822038Y-106222038D01*
X160711595Y-106356613D01*
X160653661Y-106465000D01*
X157946339Y-106465000D01*
X157888405Y-106356613D01*
X157777962Y-106222038D01*
X157643387Y-106111595D01*
X157489851Y-106029528D01*
X157323255Y-105978992D01*
X157150001Y-105961928D01*
X156499999Y-105961928D01*
X156326745Y-105978992D01*
X156160149Y-106029528D01*
X156006613Y-106111595D01*
X155872038Y-106222038D01*
X155800000Y-106309816D01*
X155727962Y-106222038D01*
X155593387Y-106111595D01*
X155439851Y-106029528D01*
X155273255Y-105978992D01*
X155100001Y-105961928D01*
X154449999Y-105961928D01*
X154276745Y-105978992D01*
X154110149Y-106029528D01*
X153956613Y-106111595D01*
X153822038Y-106222038D01*
X153711595Y-106356613D01*
X153629528Y-106510149D01*
X153578992Y-106676745D01*
X153561928Y-106849999D01*
X143538072Y-106849999D01*
X143521008Y-106676745D01*
X143470472Y-106510149D01*
X143388405Y-106356613D01*
X143277962Y-106222038D01*
X143143387Y-106111595D01*
X142989851Y-106029528D01*
X142823255Y-105978992D01*
X142650001Y-105961928D01*
X141999999Y-105961928D01*
X141826745Y-105978992D01*
X141660149Y-106029528D01*
X141506613Y-106111595D01*
X141372038Y-106222038D01*
X141300000Y-106309816D01*
X141227962Y-106222038D01*
X141093387Y-106111595D01*
X140939851Y-106029528D01*
X140773255Y-105978992D01*
X140600001Y-105961928D01*
X139949999Y-105961928D01*
X139776745Y-105978992D01*
X139610149Y-106029528D01*
X139456613Y-106111595D01*
X139322038Y-106222038D01*
X139211595Y-106356613D01*
X139153661Y-106465000D01*
X136446339Y-106465000D01*
X136388405Y-106356613D01*
X136277962Y-106222038D01*
X136143387Y-106111595D01*
X135989851Y-106029528D01*
X135823255Y-105978992D01*
X135650001Y-105961928D01*
X134999999Y-105961928D01*
X134826745Y-105978992D01*
X134660149Y-106029528D01*
X134506613Y-106111595D01*
X134372038Y-106222038D01*
X134300000Y-106309816D01*
X134227962Y-106222038D01*
X134093387Y-106111595D01*
X133939851Y-106029528D01*
X133773255Y-105978992D01*
X133600001Y-105961928D01*
X132949999Y-105961928D01*
X132776745Y-105978992D01*
X132610149Y-106029528D01*
X132456613Y-106111595D01*
X132322038Y-106222038D01*
X132211595Y-106356613D01*
X132153661Y-106465000D01*
X130527404Y-106465000D01*
X130372729Y-106400932D01*
X130192089Y-106365000D01*
X130007911Y-106365000D01*
X129827271Y-106400932D01*
X129672596Y-106465000D01*
X129446339Y-106465000D01*
X129388405Y-106356613D01*
X129277962Y-106222038D01*
X129143387Y-106111595D01*
X128989851Y-106029528D01*
X128823255Y-105978992D01*
X128650001Y-105961928D01*
X127999999Y-105961928D01*
X127826745Y-105978992D01*
X127660149Y-106029528D01*
X127506613Y-106111595D01*
X127372038Y-106222038D01*
X127300000Y-106309816D01*
X127227962Y-106222038D01*
X127093387Y-106111595D01*
X126939851Y-106029528D01*
X126773255Y-105978992D01*
X126600001Y-105961928D01*
X125949999Y-105961928D01*
X125776745Y-105978992D01*
X125610149Y-106029528D01*
X125456613Y-106111595D01*
X125322038Y-106222038D01*
X125211595Y-106356613D01*
X125153661Y-106465000D01*
X122446339Y-106465000D01*
X122388405Y-106356613D01*
X122277962Y-106222038D01*
X122143387Y-106111595D01*
X121989851Y-106029528D01*
X121823255Y-105978992D01*
X121650001Y-105961928D01*
X121601216Y-105961928D01*
X121635000Y-105792089D01*
X121635000Y-105607911D01*
X121599068Y-105427271D01*
X121535000Y-105272596D01*
X121535000Y-101627404D01*
X121599068Y-101472729D01*
X121635000Y-101292089D01*
X121635000Y-101107911D01*
X121599068Y-100927271D01*
X121528586Y-100757111D01*
X121426262Y-100603972D01*
X121296028Y-100473738D01*
X121142889Y-100371414D01*
X120972729Y-100300932D01*
X120792089Y-100265000D01*
X120607911Y-100265000D01*
X120427271Y-100300932D01*
X120257111Y-100371414D01*
X120103972Y-100473738D01*
X119973738Y-100603972D01*
X119871414Y-100757111D01*
X119800932Y-100927271D01*
X119765000Y-101107911D01*
X119765000Y-101292089D01*
X119800932Y-101472729D01*
X119865001Y-101627406D01*
X119865000Y-105272596D01*
X119800932Y-105427271D01*
X119765000Y-105607911D01*
X119765000Y-105792089D01*
X119800932Y-105972729D01*
X119807876Y-105989494D01*
X119773255Y-105978992D01*
X119600001Y-105961928D01*
X118949999Y-105961928D01*
X118776745Y-105978992D01*
X118610149Y-106029528D01*
X118456613Y-106111595D01*
X118322038Y-106222038D01*
X118211595Y-106356613D01*
X118129528Y-106510149D01*
X118078992Y-106676745D01*
X118061928Y-106849999D01*
X117735000Y-106849999D01*
X117735000Y-106807911D01*
X117699068Y-106627271D01*
X117628586Y-106457111D01*
X117526262Y-106303972D01*
X117396028Y-106173738D01*
X117242889Y-106071414D01*
X117088215Y-106007347D01*
X113519446Y-102438579D01*
X113493291Y-102406709D01*
X113366146Y-102302364D01*
X113221087Y-102224828D01*
X113063689Y-102177082D01*
X112941019Y-102165000D01*
X112941018Y-102165000D01*
X112900000Y-102160960D01*
X112858982Y-102165000D01*
X110645868Y-102165000D01*
X110292654Y-101811787D01*
X110228586Y-101657111D01*
X110126262Y-101503972D01*
X109996028Y-101373738D01*
X109842889Y-101271414D01*
X109672729Y-101200932D01*
X109492089Y-101165000D01*
X109307911Y-101165000D01*
X109127271Y-101200932D01*
X108957111Y-101271414D01*
X108803972Y-101373738D01*
X108673738Y-101503972D01*
X108571414Y-101657111D01*
X108500932Y-101827271D01*
X108465000Y-102007911D01*
X108465000Y-102192089D01*
X108500932Y-102372729D01*
X108571414Y-102542889D01*
X108673738Y-102696028D01*
X108803972Y-102826262D01*
X108957111Y-102928586D01*
X109111787Y-102992654D01*
X109680558Y-103561426D01*
X109706709Y-103593291D01*
X109833854Y-103697636D01*
X109978913Y-103775172D01*
X110136311Y-103822918D01*
X110258981Y-103835000D01*
X110258983Y-103835000D01*
X110299999Y-103839040D01*
X110341015Y-103835000D01*
X112554133Y-103835000D01*
X115907347Y-107188215D01*
X115965000Y-107327404D01*
X115965001Y-110658972D01*
X115960960Y-110700000D01*
X115977082Y-110863688D01*
X116024828Y-111021086D01*
X116024829Y-111021087D01*
X116102365Y-111166146D01*
X116206710Y-111293291D01*
X116238574Y-111319441D01*
X117407346Y-112488214D01*
X117471414Y-112642889D01*
X117573738Y-112796028D01*
X117703972Y-112926262D01*
X117857111Y-113028586D01*
X118011787Y-113092654D01*
X118084133Y-113165000D01*
X108241007Y-113165000D01*
X108199999Y-113160961D01*
X108158991Y-113165000D01*
X108158981Y-113165000D01*
X108036311Y-113177082D01*
X107878913Y-113224828D01*
X107733854Y-113302364D01*
X107606709Y-113406709D01*
X107580561Y-113438571D01*
X105754133Y-115265000D01*
X104575107Y-115265000D01*
X104653475Y-115186632D01*
X104815990Y-114943411D01*
X104927932Y-114673158D01*
X104985000Y-114386260D01*
X104985000Y-114093740D01*
X104927932Y-113806842D01*
X104815990Y-113536589D01*
X104653475Y-113293368D01*
X104466392Y-113106285D01*
X104593386Y-113038405D01*
X104727962Y-112927962D01*
X104838405Y-112793386D01*
X104920472Y-112639850D01*
X104971008Y-112473254D01*
X104988072Y-112300000D01*
X104988072Y-111100000D01*
X104971008Y-110926746D01*
X104920472Y-110760150D01*
X104838405Y-110606614D01*
X104727962Y-110472038D01*
X104593386Y-110361595D01*
X104439850Y-110279528D01*
X104273254Y-110228992D01*
X104100000Y-110211928D01*
X102900000Y-110211928D01*
X102726746Y-110228992D01*
X102560150Y-110279528D01*
X102406614Y-110361595D01*
X102272038Y-110472038D01*
X102161595Y-110606614D01*
X102093715Y-110733608D01*
X101906632Y-110546525D01*
X101663411Y-110384010D01*
X101393158Y-110272068D01*
X101106260Y-110215000D01*
X100813740Y-110215000D01*
X100526842Y-110272068D01*
X100256589Y-110384010D01*
X100013368Y-110546525D01*
X99806525Y-110753368D01*
X99690000Y-110927760D01*
X99573475Y-110753368D01*
X99366632Y-110546525D01*
X99123411Y-110384010D01*
X98853158Y-110272068D01*
X98566260Y-110215000D01*
X98273740Y-110215000D01*
X97986842Y-110272068D01*
X97716589Y-110384010D01*
X97473368Y-110546525D01*
X97266525Y-110753368D01*
X97150000Y-110927760D01*
X97033475Y-110753368D01*
X96826632Y-110546525D01*
X96583411Y-110384010D01*
X96313158Y-110272068D01*
X96026260Y-110215000D01*
X95733740Y-110215000D01*
X95446842Y-110272068D01*
X95176589Y-110384010D01*
X94933368Y-110546525D01*
X94726525Y-110753368D01*
X94610000Y-110927760D01*
X94493475Y-110753368D01*
X94286632Y-110546525D01*
X94175000Y-110471935D01*
X94175000Y-110081018D01*
X94179040Y-110040000D01*
X94162918Y-109876311D01*
X94115172Y-109718913D01*
X94037636Y-109573854D01*
X93959439Y-109478570D01*
X93959437Y-109478568D01*
X93933291Y-109446709D01*
X93901432Y-109420563D01*
X91019446Y-106538579D01*
X90993291Y-106506709D01*
X90866146Y-106402364D01*
X90721087Y-106324828D01*
X90563689Y-106277082D01*
X90441019Y-106265000D01*
X90441018Y-106265000D01*
X90400000Y-106260960D01*
X90358982Y-106265000D01*
X83385869Y-106265000D01*
X83026372Y-105905504D01*
X83075000Y-105661033D01*
X83075000Y-105338967D01*
X83012168Y-105023088D01*
X82888918Y-104725537D01*
X82709987Y-104457748D01*
X82491206Y-104238967D01*
X87565000Y-104238967D01*
X87565000Y-104561033D01*
X87627832Y-104876912D01*
X87751082Y-105174463D01*
X87930013Y-105442252D01*
X88157748Y-105669987D01*
X88425537Y-105848918D01*
X88723088Y-105972168D01*
X89038967Y-106035000D01*
X89361033Y-106035000D01*
X89676912Y-105972168D01*
X89974463Y-105848918D01*
X90242252Y-105669987D01*
X90469987Y-105442252D01*
X90538999Y-105338967D01*
X100205000Y-105338967D01*
X100205000Y-105661033D01*
X100267832Y-105976912D01*
X100391082Y-106274463D01*
X100570013Y-106542252D01*
X100797748Y-106769987D01*
X101065537Y-106948918D01*
X101363088Y-107072168D01*
X101678967Y-107135000D01*
X102001033Y-107135000D01*
X102316912Y-107072168D01*
X102614463Y-106948918D01*
X102882252Y-106769987D01*
X103109987Y-106542252D01*
X103288918Y-106274463D01*
X103412168Y-105976912D01*
X103475000Y-105661033D01*
X103475000Y-105338967D01*
X103412168Y-105023088D01*
X103288918Y-104725537D01*
X103109987Y-104457748D01*
X102882252Y-104230013D01*
X102614463Y-104051082D01*
X102316912Y-103927832D01*
X102001033Y-103865000D01*
X101678967Y-103865000D01*
X101363088Y-103927832D01*
X101065537Y-104051082D01*
X100797748Y-104230013D01*
X100570013Y-104457748D01*
X100391082Y-104725537D01*
X100267832Y-105023088D01*
X100205000Y-105338967D01*
X90538999Y-105338967D01*
X90648918Y-105174463D01*
X90772168Y-104876912D01*
X90835000Y-104561033D01*
X90835000Y-104238967D01*
X90772168Y-103923088D01*
X90648918Y-103625537D01*
X90469987Y-103357748D01*
X90242252Y-103130013D01*
X89974463Y-102951082D01*
X89676912Y-102827832D01*
X89361033Y-102765000D01*
X89038967Y-102765000D01*
X88723088Y-102827832D01*
X88425537Y-102951082D01*
X88157748Y-103130013D01*
X87930013Y-103357748D01*
X87751082Y-103625537D01*
X87627832Y-103923088D01*
X87565000Y-104238967D01*
X82491206Y-104238967D01*
X82482252Y-104230013D01*
X82214463Y-104051082D01*
X81916912Y-103927832D01*
X81601033Y-103865000D01*
X81278967Y-103865000D01*
X80963088Y-103927832D01*
X80665537Y-104051082D01*
X80397748Y-104230013D01*
X80170013Y-104457748D01*
X79991082Y-104725537D01*
X79867832Y-105023088D01*
X79805000Y-105338967D01*
X79805000Y-105661033D01*
X79867832Y-105976912D01*
X79991082Y-106274463D01*
X80170013Y-106542252D01*
X80397748Y-106769987D01*
X80665537Y-106948918D01*
X80963088Y-107072168D01*
X81278967Y-107135000D01*
X81601033Y-107135000D01*
X81845504Y-107086372D01*
X82420563Y-107661432D01*
X82446709Y-107693291D01*
X82478568Y-107719437D01*
X82478570Y-107719439D01*
X82489716Y-107728586D01*
X82573854Y-107797636D01*
X82718913Y-107875172D01*
X82876311Y-107922918D01*
X82998981Y-107935000D01*
X82998982Y-107935000D01*
X83040000Y-107939040D01*
X83081018Y-107935000D01*
X84439152Y-107935000D01*
X84400932Y-108027271D01*
X84365000Y-108207911D01*
X84365000Y-108392089D01*
X84400932Y-108572729D01*
X84471414Y-108742889D01*
X84573738Y-108896028D01*
X84703972Y-109026262D01*
X84857111Y-109128586D01*
X85027271Y-109199068D01*
X85207911Y-109235000D01*
X85392089Y-109235000D01*
X85572729Y-109199068D01*
X85727404Y-109135000D01*
X88954133Y-109135000D01*
X89965001Y-110145869D01*
X89965001Y-110471934D01*
X89853368Y-110546525D01*
X89646525Y-110753368D01*
X89530000Y-110927760D01*
X89413475Y-110753368D01*
X89206632Y-110546525D01*
X88963411Y-110384010D01*
X88693158Y-110272068D01*
X88406260Y-110215000D01*
X88113740Y-110215000D01*
X87826842Y-110272068D01*
X87556589Y-110384010D01*
X87313368Y-110546525D01*
X87106525Y-110753368D01*
X86944010Y-110996589D01*
X86832068Y-111266842D01*
X86775000Y-111553740D01*
X86775000Y-111846260D01*
X86832068Y-112133158D01*
X86944010Y-112403411D01*
X87106525Y-112646632D01*
X87313368Y-112853475D01*
X87556589Y-113015990D01*
X87826842Y-113127932D01*
X88113740Y-113185000D01*
X88406260Y-113185000D01*
X88693158Y-113127932D01*
X88963411Y-113015990D01*
X89206632Y-112853475D01*
X89413475Y-112646632D01*
X89530000Y-112472240D01*
X89646525Y-112646632D01*
X89853368Y-112853475D01*
X90096589Y-113015990D01*
X90366842Y-113127932D01*
X90653740Y-113185000D01*
X90946260Y-113185000D01*
X91233158Y-113127932D01*
X91503411Y-113015990D01*
X91746632Y-112853475D01*
X91953475Y-112646632D01*
X92070000Y-112472240D01*
X92186525Y-112646632D01*
X92393368Y-112853475D01*
X92567760Y-112970000D01*
X92393368Y-113086525D01*
X92186525Y-113293368D01*
X92024010Y-113536589D01*
X91912068Y-113806842D01*
X91855000Y-114093740D01*
X91855000Y-114386260D01*
X91912068Y-114673158D01*
X92024010Y-114943411D01*
X92186525Y-115186632D01*
X92393368Y-115393475D01*
X92636589Y-115555990D01*
X92906842Y-115667932D01*
X93193740Y-115725000D01*
X93486260Y-115725000D01*
X93617940Y-115698807D01*
X94259132Y-116340000D01*
X74260000Y-116340000D01*
X74260000Y-99532279D01*
X74298147Y-99143225D01*
X74401763Y-98800033D01*
X74570062Y-98483511D01*
X74796637Y-98205701D01*
X75072856Y-97977194D01*
X75388197Y-97806690D01*
X75730656Y-97700681D01*
X76117712Y-97660000D01*
X85740000Y-97660000D01*
X85740001Y-100767571D01*
%TA.AperFunction,Conductor*%
D17*
G36*
X85740001Y-100767571D02*
G01*
X85736807Y-100800000D01*
X85749550Y-100929383D01*
X85787290Y-101053793D01*
X85848575Y-101168450D01*
X85931052Y-101268948D01*
X86031550Y-101351425D01*
X86146207Y-101412710D01*
X86270617Y-101450450D01*
X86367581Y-101460000D01*
X86400000Y-101463193D01*
X86432419Y-101460000D01*
X89167581Y-101460000D01*
X89200000Y-101463193D01*
X89232419Y-101460000D01*
X89329383Y-101450450D01*
X89453793Y-101412710D01*
X89568450Y-101351425D01*
X89668948Y-101268948D01*
X89751425Y-101168450D01*
X89812710Y-101053793D01*
X89850450Y-100929383D01*
X89863193Y-100800000D01*
X89860000Y-100767581D01*
X89860000Y-97660000D01*
X255940000Y-97660000D01*
X255940001Y-116340000D01*
X107040867Y-116340000D01*
X108545868Y-114835000D01*
X121058982Y-114835000D01*
X121100000Y-114839040D01*
X121141018Y-114835000D01*
X121141019Y-114835000D01*
X121263689Y-114822918D01*
X121421087Y-114775172D01*
X121566146Y-114697636D01*
X121693291Y-114593291D01*
X121719446Y-114561421D01*
X122645868Y-113635000D01*
X126851532Y-113635000D01*
X126990013Y-113842252D01*
X127217748Y-114069987D01*
X127485537Y-114248918D01*
X127783088Y-114372168D01*
X128098967Y-114435000D01*
X128421033Y-114435000D01*
X128736912Y-114372168D01*
X129034463Y-114248918D01*
X129302252Y-114069987D01*
X129529987Y-113842252D01*
X129708918Y-113574463D01*
X129832168Y-113276912D01*
X129895000Y-112961033D01*
X129895000Y-112638967D01*
X162125000Y-112638967D01*
X162125000Y-112961033D01*
X162187832Y-113276912D01*
X162311082Y-113574463D01*
X162490013Y-113842252D01*
X162717748Y-114069987D01*
X162985537Y-114248918D01*
X163283088Y-114372168D01*
X163598967Y-114435000D01*
X163921033Y-114435000D01*
X164236912Y-114372168D01*
X164534463Y-114248918D01*
X164802252Y-114069987D01*
X165029987Y-113842252D01*
X165208918Y-113574463D01*
X165332168Y-113276912D01*
X165395000Y-112961033D01*
X165395000Y-112638967D01*
X197625000Y-112638967D01*
X197625000Y-112961033D01*
X197687832Y-113276912D01*
X197811082Y-113574463D01*
X197990013Y-113842252D01*
X198217748Y-114069987D01*
X198485537Y-114248918D01*
X198783088Y-114372168D01*
X199098967Y-114435000D01*
X199421033Y-114435000D01*
X199736912Y-114372168D01*
X200034463Y-114248918D01*
X200302252Y-114069987D01*
X200529987Y-113842252D01*
X200708918Y-113574463D01*
X200832168Y-113276912D01*
X200895000Y-112961033D01*
X200895000Y-112638967D01*
X233125000Y-112638967D01*
X233125000Y-112961033D01*
X233187832Y-113276912D01*
X233311082Y-113574463D01*
X233490013Y-113842252D01*
X233717748Y-114069987D01*
X233985537Y-114248918D01*
X234283088Y-114372168D01*
X234598967Y-114435000D01*
X234921033Y-114435000D01*
X235236912Y-114372168D01*
X235534463Y-114248918D01*
X235802252Y-114069987D01*
X236029987Y-113842252D01*
X236208918Y-113574463D01*
X236332168Y-113276912D01*
X236395000Y-112961033D01*
X236395000Y-112638967D01*
X236332168Y-112323088D01*
X236208918Y-112025537D01*
X236029987Y-111757748D01*
X235802252Y-111530013D01*
X235534463Y-111351082D01*
X235236912Y-111227832D01*
X234921033Y-111165000D01*
X234598967Y-111165000D01*
X234283088Y-111227832D01*
X233985537Y-111351082D01*
X233717748Y-111530013D01*
X233490013Y-111757748D01*
X233311082Y-112025537D01*
X233187832Y-112323088D01*
X233125000Y-112638967D01*
X200895000Y-112638967D01*
X200832168Y-112323088D01*
X200708918Y-112025537D01*
X200529987Y-111757748D01*
X200302252Y-111530013D01*
X200034463Y-111351082D01*
X199736912Y-111227832D01*
X199421033Y-111165000D01*
X199098967Y-111165000D01*
X198783088Y-111227832D01*
X198485537Y-111351082D01*
X198217748Y-111530013D01*
X197990013Y-111757748D01*
X197811082Y-112025537D01*
X197687832Y-112323088D01*
X197625000Y-112638967D01*
X165395000Y-112638967D01*
X165332168Y-112323088D01*
X165208918Y-112025537D01*
X165029987Y-111757748D01*
X164802252Y-111530013D01*
X164534463Y-111351082D01*
X164236912Y-111227832D01*
X163921033Y-111165000D01*
X163598967Y-111165000D01*
X163283088Y-111227832D01*
X162985537Y-111351082D01*
X162717748Y-111530013D01*
X162490013Y-111757748D01*
X162311082Y-112025537D01*
X162187832Y-112323088D01*
X162125000Y-112638967D01*
X129895000Y-112638967D01*
X129832168Y-112323088D01*
X129708918Y-112025537D01*
X129529987Y-111757748D01*
X129302252Y-111530013D01*
X129034463Y-111351082D01*
X128736912Y-111227832D01*
X128421033Y-111165000D01*
X128098967Y-111165000D01*
X127783088Y-111227832D01*
X127485537Y-111351082D01*
X127217748Y-111530013D01*
X126990013Y-111757748D01*
X126851532Y-111965000D01*
X122341007Y-111965000D01*
X122299999Y-111960961D01*
X122258991Y-111965000D01*
X122258981Y-111965000D01*
X122136311Y-111977082D01*
X121978913Y-112024828D01*
X121833854Y-112102364D01*
X121706709Y-112206709D01*
X121680558Y-112238574D01*
X121301924Y-112617208D01*
X121226262Y-112503972D01*
X121096028Y-112373738D01*
X120942889Y-112271414D01*
X120772729Y-112200932D01*
X120592089Y-112165000D01*
X120407911Y-112165000D01*
X120227271Y-112200932D01*
X120072596Y-112265000D01*
X119545868Y-112265000D01*
X119192654Y-111911787D01*
X119128586Y-111757111D01*
X119026262Y-111603972D01*
X118896028Y-111473738D01*
X118742889Y-111371414D01*
X118588214Y-111307346D01*
X117635000Y-110354133D01*
X117635000Y-107327404D01*
X117699068Y-107172729D01*
X117735000Y-106992089D01*
X117735000Y-106849999D01*
X118061928Y-106849999D01*
X118061928Y-107750001D01*
X118078992Y-107923255D01*
X118129528Y-108089851D01*
X118211595Y-108243387D01*
X118322038Y-108377962D01*
X118440001Y-108474772D01*
X118440001Y-108532950D01*
X118400932Y-108627271D01*
X118365000Y-108807911D01*
X118365000Y-108992089D01*
X118400932Y-109172729D01*
X118471414Y-109342889D01*
X118573738Y-109496028D01*
X118703972Y-109626262D01*
X118857111Y-109728586D01*
X119027271Y-109799068D01*
X119207911Y-109835000D01*
X119392089Y-109835000D01*
X119572729Y-109799068D01*
X119742889Y-109728586D01*
X119896028Y-109626262D01*
X120026262Y-109496028D01*
X120128586Y-109342889D01*
X120199068Y-109172729D01*
X120235000Y-108992089D01*
X120235000Y-108807911D01*
X120199068Y-108627271D01*
X120129330Y-108458907D01*
X120227962Y-108377962D01*
X120300000Y-108290184D01*
X120372038Y-108377962D01*
X120506613Y-108488405D01*
X120660149Y-108570472D01*
X120826745Y-108621008D01*
X120999999Y-108638072D01*
X121650001Y-108638072D01*
X121823255Y-108621008D01*
X121989851Y-108570472D01*
X122143387Y-108488405D01*
X122277962Y-108377962D01*
X122388405Y-108243387D01*
X122446339Y-108135000D01*
X125153661Y-108135000D01*
X125211595Y-108243387D01*
X125322038Y-108377962D01*
X125456613Y-108488405D01*
X125610149Y-108570472D01*
X125776745Y-108621008D01*
X125949999Y-108638072D01*
X126600001Y-108638072D01*
X126773255Y-108621008D01*
X126939851Y-108570472D01*
X127093387Y-108488405D01*
X127227962Y-108377962D01*
X127300000Y-108290184D01*
X127372038Y-108377962D01*
X127506613Y-108488405D01*
X127660149Y-108570472D01*
X127826745Y-108621008D01*
X127999999Y-108638072D01*
X128650001Y-108638072D01*
X128823255Y-108621008D01*
X128989851Y-108570472D01*
X129143387Y-108488405D01*
X129277962Y-108377962D01*
X129388405Y-108243387D01*
X129446339Y-108135000D01*
X129672596Y-108135000D01*
X129827271Y-108199068D01*
X130007911Y-108235000D01*
X130192089Y-108235000D01*
X130372729Y-108199068D01*
X130527404Y-108135000D01*
X132153661Y-108135000D01*
X132211595Y-108243387D01*
X132322038Y-108377962D01*
X132456613Y-108488405D01*
X132610149Y-108570472D01*
X132776745Y-108621008D01*
X132949999Y-108638072D01*
X133600001Y-108638072D01*
X133773255Y-108621008D01*
X133939851Y-108570472D01*
X134093387Y-108488405D01*
X134227962Y-108377962D01*
X134300000Y-108290184D01*
X134372038Y-108377962D01*
X134506613Y-108488405D01*
X134660149Y-108570472D01*
X134826745Y-108621008D01*
X134999999Y-108638072D01*
X135650001Y-108638072D01*
X135823255Y-108621008D01*
X135989851Y-108570472D01*
X136143387Y-108488405D01*
X136277962Y-108377962D01*
X136388405Y-108243387D01*
X136446339Y-108135000D01*
X139153661Y-108135000D01*
X139211595Y-108243387D01*
X139322038Y-108377962D01*
X139456613Y-108488405D01*
X139610149Y-108570472D01*
X139776745Y-108621008D01*
X139949999Y-108638072D01*
X140600001Y-108638072D01*
X140773255Y-108621008D01*
X140939851Y-108570472D01*
X141093387Y-108488405D01*
X141227962Y-108377962D01*
X141300000Y-108290184D01*
X141372038Y-108377962D01*
X141470670Y-108458907D01*
X141400932Y-108627271D01*
X141365000Y-108807911D01*
X141365000Y-108992089D01*
X141400932Y-109172729D01*
X141471414Y-109342889D01*
X141573738Y-109496028D01*
X141703972Y-109626262D01*
X141857111Y-109728586D01*
X142027271Y-109799068D01*
X142207911Y-109835000D01*
X142392089Y-109835000D01*
X142572729Y-109799068D01*
X142742889Y-109728586D01*
X142896028Y-109626262D01*
X143026262Y-109496028D01*
X143128586Y-109342889D01*
X143199068Y-109172729D01*
X143235000Y-108992089D01*
X143235000Y-108807911D01*
X143199068Y-108627271D01*
X143160000Y-108532952D01*
X143160000Y-108474771D01*
X143277962Y-108377962D01*
X143388405Y-108243387D01*
X143470472Y-108089851D01*
X143521008Y-107923255D01*
X143538072Y-107750001D01*
X143538072Y-106849999D01*
X153561928Y-106849999D01*
X153561928Y-107750001D01*
X153578992Y-107923255D01*
X153629528Y-108089851D01*
X153711595Y-108243387D01*
X153822038Y-108377962D01*
X153940001Y-108474772D01*
X153940001Y-108532950D01*
X153900932Y-108627271D01*
X153865000Y-108807911D01*
X153865000Y-108992089D01*
X153900932Y-109172729D01*
X153971414Y-109342889D01*
X154073738Y-109496028D01*
X154203972Y-109626262D01*
X154357111Y-109728586D01*
X154527271Y-109799068D01*
X154707911Y-109835000D01*
X154892089Y-109835000D01*
X155072729Y-109799068D01*
X155242889Y-109728586D01*
X155396028Y-109626262D01*
X155526262Y-109496028D01*
X155628586Y-109342889D01*
X155699068Y-109172729D01*
X155735000Y-108992089D01*
X155735000Y-108807911D01*
X155699068Y-108627271D01*
X155629330Y-108458907D01*
X155727962Y-108377962D01*
X155800000Y-108290184D01*
X155872038Y-108377962D01*
X156006613Y-108488405D01*
X156160149Y-108570472D01*
X156326745Y-108621008D01*
X156499999Y-108638072D01*
X157150001Y-108638072D01*
X157323255Y-108621008D01*
X157489851Y-108570472D01*
X157643387Y-108488405D01*
X157777962Y-108377962D01*
X157888405Y-108243387D01*
X157946339Y-108135000D01*
X160653661Y-108135000D01*
X160711595Y-108243387D01*
X160822038Y-108377962D01*
X160956613Y-108488405D01*
X161110149Y-108570472D01*
X161276745Y-108621008D01*
X161449999Y-108638072D01*
X162100001Y-108638072D01*
X162273255Y-108621008D01*
X162439851Y-108570472D01*
X162593387Y-108488405D01*
X162727962Y-108377962D01*
X162800000Y-108290184D01*
X162872038Y-108377962D01*
X163006613Y-108488405D01*
X163160149Y-108570472D01*
X163326745Y-108621008D01*
X163499999Y-108638072D01*
X164150001Y-108638072D01*
X164323255Y-108621008D01*
X164489851Y-108570472D01*
X164643387Y-108488405D01*
X164777962Y-108377962D01*
X164888405Y-108243387D01*
X164946339Y-108135000D01*
X165172596Y-108135000D01*
X165327271Y-108199068D01*
X165507911Y-108235000D01*
X165692089Y-108235000D01*
X165872729Y-108199068D01*
X166027404Y-108135000D01*
X167653661Y-108135000D01*
X167711595Y-108243387D01*
X167822038Y-108377962D01*
X167956613Y-108488405D01*
X168110149Y-108570472D01*
X168276745Y-108621008D01*
X168449999Y-108638072D01*
X169100001Y-108638072D01*
X169273255Y-108621008D01*
X169439851Y-108570472D01*
X169593387Y-108488405D01*
X169727962Y-108377962D01*
X169800000Y-108290184D01*
X169872038Y-108377962D01*
X170006613Y-108488405D01*
X170160149Y-108570472D01*
X170326745Y-108621008D01*
X170499999Y-108638072D01*
X171150001Y-108638072D01*
X171323255Y-108621008D01*
X171489851Y-108570472D01*
X171643387Y-108488405D01*
X171777962Y-108377962D01*
X171888405Y-108243387D01*
X171946339Y-108135000D01*
X174653661Y-108135000D01*
X174711595Y-108243387D01*
X174822038Y-108377962D01*
X174956613Y-108488405D01*
X175110149Y-108570472D01*
X175276745Y-108621008D01*
X175449999Y-108638072D01*
X176100001Y-108638072D01*
X176273255Y-108621008D01*
X176439851Y-108570472D01*
X176593387Y-108488405D01*
X176727962Y-108377962D01*
X176800000Y-108290184D01*
X176872038Y-108377962D01*
X176970670Y-108458907D01*
X176900932Y-108627271D01*
X176865000Y-108807911D01*
X176865000Y-108992089D01*
X176900932Y-109172729D01*
X176971414Y-109342889D01*
X177073738Y-109496028D01*
X177203972Y-109626262D01*
X177357111Y-109728586D01*
X177527271Y-109799068D01*
X177707911Y-109835000D01*
X177892089Y-109835000D01*
X178072729Y-109799068D01*
X178242889Y-109728586D01*
X178396028Y-109626262D01*
X178526262Y-109496028D01*
X178628586Y-109342889D01*
X178699068Y-109172729D01*
X178735000Y-108992089D01*
X178735000Y-108807911D01*
X178699068Y-108627271D01*
X178660000Y-108532952D01*
X178660000Y-108474771D01*
X178777962Y-108377962D01*
X178888405Y-108243387D01*
X178970472Y-108089851D01*
X179021008Y-107923255D01*
X179038072Y-107750001D01*
X179038072Y-106849999D01*
X189061928Y-106849999D01*
X189061928Y-107750001D01*
X189078992Y-107923255D01*
X189129528Y-108089851D01*
X189211595Y-108243387D01*
X189322038Y-108377962D01*
X189440001Y-108474772D01*
X189440001Y-108532950D01*
X189400932Y-108627271D01*
X189365000Y-108807911D01*
X189365000Y-108992089D01*
X189400932Y-109172729D01*
X189471414Y-109342889D01*
X189573738Y-109496028D01*
X189703972Y-109626262D01*
X189857111Y-109728586D01*
X190027271Y-109799068D01*
X190207911Y-109835000D01*
X190392089Y-109835000D01*
X190572729Y-109799068D01*
X190742889Y-109728586D01*
X190896028Y-109626262D01*
X191026262Y-109496028D01*
X191128586Y-109342889D01*
X191199068Y-109172729D01*
X191235000Y-108992089D01*
X191235000Y-108807911D01*
X191199068Y-108627271D01*
X191129330Y-108458907D01*
X191227962Y-108377962D01*
X191300000Y-108290184D01*
X191372038Y-108377962D01*
X191506613Y-108488405D01*
X191660149Y-108570472D01*
X191826745Y-108621008D01*
X191999999Y-108638072D01*
X192650001Y-108638072D01*
X192823255Y-108621008D01*
X192989851Y-108570472D01*
X193143387Y-108488405D01*
X193277962Y-108377962D01*
X193388405Y-108243387D01*
X193446339Y-108135000D01*
X196153661Y-108135000D01*
X196211595Y-108243387D01*
X196322038Y-108377962D01*
X196456613Y-108488405D01*
X196610149Y-108570472D01*
X196776745Y-108621008D01*
X196949999Y-108638072D01*
X197600001Y-108638072D01*
X197773255Y-108621008D01*
X197939851Y-108570472D01*
X198093387Y-108488405D01*
X198227962Y-108377962D01*
X198300000Y-108290184D01*
X198372038Y-108377962D01*
X198506613Y-108488405D01*
X198660149Y-108570472D01*
X198826745Y-108621008D01*
X198999999Y-108638072D01*
X199650001Y-108638072D01*
X199823255Y-108621008D01*
X199989851Y-108570472D01*
X200143387Y-108488405D01*
X200277962Y-108377962D01*
X200388405Y-108243387D01*
X200446339Y-108135000D01*
X200572596Y-108135000D01*
X200727271Y-108199068D01*
X200907911Y-108235000D01*
X201092089Y-108235000D01*
X201272729Y-108199068D01*
X201427404Y-108135000D01*
X203153661Y-108135000D01*
X203211595Y-108243387D01*
X203322038Y-108377962D01*
X203456613Y-108488405D01*
X203610149Y-108570472D01*
X203776745Y-108621008D01*
X203949999Y-108638072D01*
X204600001Y-108638072D01*
X204773255Y-108621008D01*
X204939851Y-108570472D01*
X205093387Y-108488405D01*
X205227962Y-108377962D01*
X205300000Y-108290184D01*
X205372038Y-108377962D01*
X205506613Y-108488405D01*
X205660149Y-108570472D01*
X205826745Y-108621008D01*
X205999999Y-108638072D01*
X206650001Y-108638072D01*
X206823255Y-108621008D01*
X206989851Y-108570472D01*
X207143387Y-108488405D01*
X207277962Y-108377962D01*
X207388405Y-108243387D01*
X207446339Y-108135000D01*
X210153661Y-108135000D01*
X210211595Y-108243387D01*
X210322038Y-108377962D01*
X210456613Y-108488405D01*
X210610149Y-108570472D01*
X210776745Y-108621008D01*
X210949999Y-108638072D01*
X211600001Y-108638072D01*
X211773255Y-108621008D01*
X211939851Y-108570472D01*
X212093387Y-108488405D01*
X212227962Y-108377962D01*
X212300000Y-108290184D01*
X212372038Y-108377962D01*
X212470670Y-108458907D01*
X212400932Y-108627271D01*
X212365000Y-108807911D01*
X212365000Y-108992089D01*
X212400932Y-109172729D01*
X212471414Y-109342889D01*
X212573738Y-109496028D01*
X212703972Y-109626262D01*
X212857111Y-109728586D01*
X213027271Y-109799068D01*
X213207911Y-109835000D01*
X213392089Y-109835000D01*
X213572729Y-109799068D01*
X213742889Y-109728586D01*
X213896028Y-109626262D01*
X214026262Y-109496028D01*
X214128586Y-109342889D01*
X214199068Y-109172729D01*
X214235000Y-108992089D01*
X214235000Y-108807911D01*
X214199068Y-108627271D01*
X214160000Y-108532952D01*
X214160000Y-108474771D01*
X214277962Y-108377962D01*
X214388405Y-108243387D01*
X214470472Y-108089851D01*
X214521008Y-107923255D01*
X214538072Y-107750001D01*
X214538072Y-106849999D01*
X224561928Y-106849999D01*
X224561928Y-107750001D01*
X224578992Y-107923255D01*
X224629528Y-108089851D01*
X224711595Y-108243387D01*
X224822038Y-108377962D01*
X224940001Y-108474772D01*
X224940001Y-108532950D01*
X224900932Y-108627271D01*
X224865000Y-108807911D01*
X224865000Y-108992089D01*
X224900932Y-109172729D01*
X224971414Y-109342889D01*
X225073738Y-109496028D01*
X225203972Y-109626262D01*
X225357111Y-109728586D01*
X225527271Y-109799068D01*
X225707911Y-109835000D01*
X225892089Y-109835000D01*
X226072729Y-109799068D01*
X226242889Y-109728586D01*
X226396028Y-109626262D01*
X226526262Y-109496028D01*
X226628586Y-109342889D01*
X226699068Y-109172729D01*
X226735000Y-108992089D01*
X226735000Y-108807911D01*
X226699068Y-108627271D01*
X226629330Y-108458907D01*
X226727962Y-108377962D01*
X226800000Y-108290184D01*
X226872038Y-108377962D01*
X227006613Y-108488405D01*
X227160149Y-108570472D01*
X227326745Y-108621008D01*
X227499999Y-108638072D01*
X228150001Y-108638072D01*
X228323255Y-108621008D01*
X228489851Y-108570472D01*
X228643387Y-108488405D01*
X228777962Y-108377962D01*
X228888405Y-108243387D01*
X228946339Y-108135000D01*
X231653661Y-108135000D01*
X231711595Y-108243387D01*
X231822038Y-108377962D01*
X231956613Y-108488405D01*
X232110149Y-108570472D01*
X232276745Y-108621008D01*
X232449999Y-108638072D01*
X233100001Y-108638072D01*
X233273255Y-108621008D01*
X233439851Y-108570472D01*
X233593387Y-108488405D01*
X233727962Y-108377962D01*
X233800000Y-108290184D01*
X233872038Y-108377962D01*
X234006613Y-108488405D01*
X234160149Y-108570472D01*
X234326745Y-108621008D01*
X234499999Y-108638072D01*
X235150001Y-108638072D01*
X235323255Y-108621008D01*
X235489851Y-108570472D01*
X235643387Y-108488405D01*
X235777962Y-108377962D01*
X235888405Y-108243387D01*
X235946339Y-108135000D01*
X236172596Y-108135000D01*
X236327271Y-108199068D01*
X236507911Y-108235000D01*
X236692089Y-108235000D01*
X236872729Y-108199068D01*
X237027404Y-108135000D01*
X238653661Y-108135000D01*
X238711595Y-108243387D01*
X238822038Y-108377962D01*
X238956613Y-108488405D01*
X239110149Y-108570472D01*
X239276745Y-108621008D01*
X239449999Y-108638072D01*
X240100001Y-108638072D01*
X240273255Y-108621008D01*
X240439851Y-108570472D01*
X240593387Y-108488405D01*
X240727962Y-108377962D01*
X240800000Y-108290184D01*
X240872038Y-108377962D01*
X241006613Y-108488405D01*
X241160149Y-108570472D01*
X241326745Y-108621008D01*
X241499999Y-108638072D01*
X242150001Y-108638072D01*
X242323255Y-108621008D01*
X242489851Y-108570472D01*
X242643387Y-108488405D01*
X242777962Y-108377962D01*
X242888405Y-108243387D01*
X242946339Y-108135000D01*
X245653661Y-108135000D01*
X245711595Y-108243387D01*
X245822038Y-108377962D01*
X245956613Y-108488405D01*
X246110149Y-108570472D01*
X246276745Y-108621008D01*
X246449999Y-108638072D01*
X247100001Y-108638072D01*
X247273255Y-108621008D01*
X247439851Y-108570472D01*
X247593387Y-108488405D01*
X247727962Y-108377962D01*
X247800000Y-108290184D01*
X247872038Y-108377962D01*
X247970670Y-108458907D01*
X247900932Y-108627271D01*
X247865000Y-108807911D01*
X247865000Y-108992089D01*
X247900932Y-109172729D01*
X247971414Y-109342889D01*
X248073738Y-109496028D01*
X248203972Y-109626262D01*
X248357111Y-109728586D01*
X248527271Y-109799068D01*
X248707911Y-109835000D01*
X248892089Y-109835000D01*
X249072729Y-109799068D01*
X249242889Y-109728586D01*
X249396028Y-109626262D01*
X249526262Y-109496028D01*
X249628586Y-109342889D01*
X249699068Y-109172729D01*
X249735000Y-108992089D01*
X249735000Y-108807911D01*
X249699068Y-108627271D01*
X249660000Y-108532952D01*
X249660000Y-108474771D01*
X249777962Y-108377962D01*
X249888405Y-108243387D01*
X249970472Y-108089851D01*
X250021008Y-107923255D01*
X250038072Y-107750001D01*
X250038072Y-106849999D01*
X250021008Y-106676745D01*
X249970472Y-106510149D01*
X249888405Y-106356613D01*
X249777962Y-106222038D01*
X249643387Y-106111595D01*
X249489851Y-106029528D01*
X249323255Y-105978992D01*
X249150001Y-105961928D01*
X248499999Y-105961928D01*
X248326745Y-105978992D01*
X248160149Y-106029528D01*
X248006613Y-106111595D01*
X247872038Y-106222038D01*
X247800000Y-106309816D01*
X247727962Y-106222038D01*
X247593387Y-106111595D01*
X247439851Y-106029528D01*
X247273255Y-105978992D01*
X247100001Y-105961928D01*
X246449999Y-105961928D01*
X246276745Y-105978992D01*
X246110149Y-106029528D01*
X245956613Y-106111595D01*
X245822038Y-106222038D01*
X245711595Y-106356613D01*
X245653661Y-106465000D01*
X242946339Y-106465000D01*
X242888405Y-106356613D01*
X242777962Y-106222038D01*
X242643387Y-106111595D01*
X242489851Y-106029528D01*
X242323255Y-105978992D01*
X242150001Y-105961928D01*
X241499999Y-105961928D01*
X241326745Y-105978992D01*
X241160149Y-106029528D01*
X241006613Y-106111595D01*
X240872038Y-106222038D01*
X240800000Y-106309816D01*
X240727962Y-106222038D01*
X240593387Y-106111595D01*
X240439851Y-106029528D01*
X240273255Y-105978992D01*
X240100001Y-105961928D01*
X239449999Y-105961928D01*
X239276745Y-105978992D01*
X239110149Y-106029528D01*
X238956613Y-106111595D01*
X238822038Y-106222038D01*
X238711595Y-106356613D01*
X238653661Y-106465000D01*
X237027404Y-106465000D01*
X236872729Y-106400932D01*
X236692089Y-106365000D01*
X236507911Y-106365000D01*
X236327271Y-106400932D01*
X236172596Y-106465000D01*
X235946339Y-106465000D01*
X235888405Y-106356613D01*
X235777962Y-106222038D01*
X235643387Y-106111595D01*
X235489851Y-106029528D01*
X235323255Y-105978992D01*
X235150001Y-105961928D01*
X234499999Y-105961928D01*
X234326745Y-105978992D01*
X234160149Y-106029528D01*
X234006613Y-106111595D01*
X233872038Y-106222038D01*
X233800000Y-106309816D01*
X233727962Y-106222038D01*
X233593387Y-106111595D01*
X233439851Y-106029528D01*
X233273255Y-105978992D01*
X233100001Y-105961928D01*
X232449999Y-105961928D01*
X232276745Y-105978992D01*
X232110149Y-106029528D01*
X231956613Y-106111595D01*
X231822038Y-106222038D01*
X231711595Y-106356613D01*
X231653661Y-106465000D01*
X228946339Y-106465000D01*
X228888405Y-106356613D01*
X228777962Y-106222038D01*
X228643387Y-106111595D01*
X228489851Y-106029528D01*
X228323255Y-105978992D01*
X228150001Y-105961928D01*
X227499999Y-105961928D01*
X227326745Y-105978992D01*
X227160149Y-106029528D01*
X227006613Y-106111595D01*
X226872038Y-106222038D01*
X226800000Y-106309816D01*
X226727962Y-106222038D01*
X226593387Y-106111595D01*
X226439851Y-106029528D01*
X226273255Y-105978992D01*
X226100001Y-105961928D01*
X225449999Y-105961928D01*
X225276745Y-105978992D01*
X225110149Y-106029528D01*
X224956613Y-106111595D01*
X224822038Y-106222038D01*
X224711595Y-106356613D01*
X224629528Y-106510149D01*
X224578992Y-106676745D01*
X224561928Y-106849999D01*
X214538072Y-106849999D01*
X214521008Y-106676745D01*
X214470472Y-106510149D01*
X214388405Y-106356613D01*
X214277962Y-106222038D01*
X214143387Y-106111595D01*
X213989851Y-106029528D01*
X213823255Y-105978992D01*
X213650001Y-105961928D01*
X212999999Y-105961928D01*
X212826745Y-105978992D01*
X212660149Y-106029528D01*
X212506613Y-106111595D01*
X212372038Y-106222038D01*
X212300000Y-106309816D01*
X212227962Y-106222038D01*
X212093387Y-106111595D01*
X211939851Y-106029528D01*
X211773255Y-105978992D01*
X211600001Y-105961928D01*
X210949999Y-105961928D01*
X210776745Y-105978992D01*
X210610149Y-106029528D01*
X210456613Y-106111595D01*
X210322038Y-106222038D01*
X210211595Y-106356613D01*
X210153661Y-106465000D01*
X207446339Y-106465000D01*
X207388405Y-106356613D01*
X207277962Y-106222038D01*
X207143387Y-106111595D01*
X206989851Y-106029528D01*
X206823255Y-105978992D01*
X206650001Y-105961928D01*
X205999999Y-105961928D01*
X205826745Y-105978992D01*
X205660149Y-106029528D01*
X205506613Y-106111595D01*
X205372038Y-106222038D01*
X205300000Y-106309816D01*
X205227962Y-106222038D01*
X205093387Y-106111595D01*
X204939851Y-106029528D01*
X204773255Y-105978992D01*
X204600001Y-105961928D01*
X203949999Y-105961928D01*
X203776745Y-105978992D01*
X203610149Y-106029528D01*
X203456613Y-106111595D01*
X203322038Y-106222038D01*
X203211595Y-106356613D01*
X203153661Y-106465000D01*
X201427404Y-106465000D01*
X201272729Y-106400932D01*
X201092089Y-106365000D01*
X200907911Y-106365000D01*
X200727271Y-106400932D01*
X200572596Y-106465000D01*
X200446339Y-106465000D01*
X200388405Y-106356613D01*
X200277962Y-106222038D01*
X200143387Y-106111595D01*
X199989851Y-106029528D01*
X199823255Y-105978992D01*
X199650001Y-105961928D01*
X198999999Y-105961928D01*
X198826745Y-105978992D01*
X198660149Y-106029528D01*
X198506613Y-106111595D01*
X198372038Y-106222038D01*
X198300000Y-106309816D01*
X198227962Y-106222038D01*
X198093387Y-106111595D01*
X197939851Y-106029528D01*
X197773255Y-105978992D01*
X197600001Y-105961928D01*
X196949999Y-105961928D01*
X196776745Y-105978992D01*
X196610149Y-106029528D01*
X196456613Y-106111595D01*
X196322038Y-106222038D01*
X196211595Y-106356613D01*
X196153661Y-106465000D01*
X193446339Y-106465000D01*
X193388405Y-106356613D01*
X193277962Y-106222038D01*
X193143387Y-106111595D01*
X192989851Y-106029528D01*
X192823255Y-105978992D01*
X192650001Y-105961928D01*
X191999999Y-105961928D01*
X191826745Y-105978992D01*
X191660149Y-106029528D01*
X191506613Y-106111595D01*
X191372038Y-106222038D01*
X191300000Y-106309816D01*
X191227962Y-106222038D01*
X191093387Y-106111595D01*
X190939851Y-106029528D01*
X190773255Y-105978992D01*
X190600001Y-105961928D01*
X189949999Y-105961928D01*
X189776745Y-105978992D01*
X189610149Y-106029528D01*
X189456613Y-106111595D01*
X189322038Y-106222038D01*
X189211595Y-106356613D01*
X189129528Y-106510149D01*
X189078992Y-106676745D01*
X189061928Y-106849999D01*
X179038072Y-106849999D01*
X179021008Y-106676745D01*
X178970472Y-106510149D01*
X178888405Y-106356613D01*
X178777962Y-106222038D01*
X178643387Y-106111595D01*
X178489851Y-106029528D01*
X178323255Y-105978992D01*
X178150001Y-105961928D01*
X177499999Y-105961928D01*
X177326745Y-105978992D01*
X177160149Y-106029528D01*
X177006613Y-106111595D01*
X176872038Y-106222038D01*
X176800000Y-106309816D01*
X176727962Y-106222038D01*
X176593387Y-106111595D01*
X176439851Y-106029528D01*
X176273255Y-105978992D01*
X176100001Y-105961928D01*
X175449999Y-105961928D01*
X175276745Y-105978992D01*
X175110149Y-106029528D01*
X174956613Y-106111595D01*
X174822038Y-106222038D01*
X174711595Y-106356613D01*
X174653661Y-106465000D01*
X171946339Y-106465000D01*
X171888405Y-106356613D01*
X171777962Y-106222038D01*
X171643387Y-106111595D01*
X171489851Y-106029528D01*
X171323255Y-105978992D01*
X171150001Y-105961928D01*
X170499999Y-105961928D01*
X170326745Y-105978992D01*
X170160149Y-106029528D01*
X170006613Y-106111595D01*
X169872038Y-106222038D01*
X169800000Y-106309816D01*
X169727962Y-106222038D01*
X169593387Y-106111595D01*
X169439851Y-106029528D01*
X169273255Y-105978992D01*
X169100001Y-105961928D01*
X168449999Y-105961928D01*
X168276745Y-105978992D01*
X168110149Y-106029528D01*
X167956613Y-106111595D01*
X167822038Y-106222038D01*
X167711595Y-106356613D01*
X167653661Y-106465000D01*
X166027404Y-106465000D01*
X165872729Y-106400932D01*
X165692089Y-106365000D01*
X165507911Y-106365000D01*
X165327271Y-106400932D01*
X165172596Y-106465000D01*
X164946339Y-106465000D01*
X164888405Y-106356613D01*
X164777962Y-106222038D01*
X164643387Y-106111595D01*
X164489851Y-106029528D01*
X164323255Y-105978992D01*
X164150001Y-105961928D01*
X163499999Y-105961928D01*
X163326745Y-105978992D01*
X163160149Y-106029528D01*
X163006613Y-106111595D01*
X162872038Y-106222038D01*
X162800000Y-106309816D01*
X162727962Y-106222038D01*
X162593387Y-106111595D01*
X162439851Y-106029528D01*
X162273255Y-105978992D01*
X162100001Y-105961928D01*
X161449999Y-105961928D01*
X161276745Y-105978992D01*
X161110149Y-106029528D01*
X160956613Y-106111595D01*
X160822038Y-106222038D01*
X160711595Y-106356613D01*
X160653661Y-106465000D01*
X157946339Y-106465000D01*
X157888405Y-106356613D01*
X157777962Y-106222038D01*
X157643387Y-106111595D01*
X157489851Y-106029528D01*
X157323255Y-105978992D01*
X157150001Y-105961928D01*
X156499999Y-105961928D01*
X156326745Y-105978992D01*
X156160149Y-106029528D01*
X156006613Y-106111595D01*
X155872038Y-106222038D01*
X155800000Y-106309816D01*
X155727962Y-106222038D01*
X155593387Y-106111595D01*
X155439851Y-106029528D01*
X155273255Y-105978992D01*
X155100001Y-105961928D01*
X154449999Y-105961928D01*
X154276745Y-105978992D01*
X154110149Y-106029528D01*
X153956613Y-106111595D01*
X153822038Y-106222038D01*
X153711595Y-106356613D01*
X153629528Y-106510149D01*
X153578992Y-106676745D01*
X153561928Y-106849999D01*
X143538072Y-106849999D01*
X143521008Y-106676745D01*
X143470472Y-106510149D01*
X143388405Y-106356613D01*
X143277962Y-106222038D01*
X143143387Y-106111595D01*
X142989851Y-106029528D01*
X142823255Y-105978992D01*
X142650001Y-105961928D01*
X141999999Y-105961928D01*
X141826745Y-105978992D01*
X141660149Y-106029528D01*
X141506613Y-106111595D01*
X141372038Y-106222038D01*
X141300000Y-106309816D01*
X141227962Y-106222038D01*
X141093387Y-106111595D01*
X140939851Y-106029528D01*
X140773255Y-105978992D01*
X140600001Y-105961928D01*
X139949999Y-105961928D01*
X139776745Y-105978992D01*
X139610149Y-106029528D01*
X139456613Y-106111595D01*
X139322038Y-106222038D01*
X139211595Y-106356613D01*
X139153661Y-106465000D01*
X136446339Y-106465000D01*
X136388405Y-106356613D01*
X136277962Y-106222038D01*
X136143387Y-106111595D01*
X135989851Y-106029528D01*
X135823255Y-105978992D01*
X135650001Y-105961928D01*
X134999999Y-105961928D01*
X134826745Y-105978992D01*
X134660149Y-106029528D01*
X134506613Y-106111595D01*
X134372038Y-106222038D01*
X134300000Y-106309816D01*
X134227962Y-106222038D01*
X134093387Y-106111595D01*
X133939851Y-106029528D01*
X133773255Y-105978992D01*
X133600001Y-105961928D01*
X132949999Y-105961928D01*
X132776745Y-105978992D01*
X132610149Y-106029528D01*
X132456613Y-106111595D01*
X132322038Y-106222038D01*
X132211595Y-106356613D01*
X132153661Y-106465000D01*
X130527404Y-106465000D01*
X130372729Y-106400932D01*
X130192089Y-106365000D01*
X130007911Y-106365000D01*
X129827271Y-106400932D01*
X129672596Y-106465000D01*
X129446339Y-106465000D01*
X129388405Y-106356613D01*
X129277962Y-106222038D01*
X129143387Y-106111595D01*
X128989851Y-106029528D01*
X128823255Y-105978992D01*
X128650001Y-105961928D01*
X127999999Y-105961928D01*
X127826745Y-105978992D01*
X127660149Y-106029528D01*
X127506613Y-106111595D01*
X127372038Y-106222038D01*
X127300000Y-106309816D01*
X127227962Y-106222038D01*
X127093387Y-106111595D01*
X126939851Y-106029528D01*
X126773255Y-105978992D01*
X126600001Y-105961928D01*
X125949999Y-105961928D01*
X125776745Y-105978992D01*
X125610149Y-106029528D01*
X125456613Y-106111595D01*
X125322038Y-106222038D01*
X125211595Y-106356613D01*
X125153661Y-106465000D01*
X122446339Y-106465000D01*
X122388405Y-106356613D01*
X122277962Y-106222038D01*
X122143387Y-106111595D01*
X121989851Y-106029528D01*
X121823255Y-105978992D01*
X121650001Y-105961928D01*
X121601216Y-105961928D01*
X121635000Y-105792089D01*
X121635000Y-105607911D01*
X121599068Y-105427271D01*
X121535000Y-105272596D01*
X121535000Y-101627404D01*
X121599068Y-101472729D01*
X121635000Y-101292089D01*
X121635000Y-101107911D01*
X121599068Y-100927271D01*
X121528586Y-100757111D01*
X121426262Y-100603972D01*
X121296028Y-100473738D01*
X121142889Y-100371414D01*
X120972729Y-100300932D01*
X120792089Y-100265000D01*
X120607911Y-100265000D01*
X120427271Y-100300932D01*
X120257111Y-100371414D01*
X120103972Y-100473738D01*
X119973738Y-100603972D01*
X119871414Y-100757111D01*
X119800932Y-100927271D01*
X119765000Y-101107911D01*
X119765000Y-101292089D01*
X119800932Y-101472729D01*
X119865001Y-101627406D01*
X119865000Y-105272596D01*
X119800932Y-105427271D01*
X119765000Y-105607911D01*
X119765000Y-105792089D01*
X119800932Y-105972729D01*
X119807876Y-105989494D01*
X119773255Y-105978992D01*
X119600001Y-105961928D01*
X118949999Y-105961928D01*
X118776745Y-105978992D01*
X118610149Y-106029528D01*
X118456613Y-106111595D01*
X118322038Y-106222038D01*
X118211595Y-106356613D01*
X118129528Y-106510149D01*
X118078992Y-106676745D01*
X118061928Y-106849999D01*
X117735000Y-106849999D01*
X117735000Y-106807911D01*
X117699068Y-106627271D01*
X117628586Y-106457111D01*
X117526262Y-106303972D01*
X117396028Y-106173738D01*
X117242889Y-106071414D01*
X117088215Y-106007347D01*
X113519446Y-102438579D01*
X113493291Y-102406709D01*
X113366146Y-102302364D01*
X113221087Y-102224828D01*
X113063689Y-102177082D01*
X112941019Y-102165000D01*
X112941018Y-102165000D01*
X112900000Y-102160960D01*
X112858982Y-102165000D01*
X110645868Y-102165000D01*
X110292654Y-101811787D01*
X110228586Y-101657111D01*
X110126262Y-101503972D01*
X109996028Y-101373738D01*
X109842889Y-101271414D01*
X109672729Y-101200932D01*
X109492089Y-101165000D01*
X109307911Y-101165000D01*
X109127271Y-101200932D01*
X108957111Y-101271414D01*
X108803972Y-101373738D01*
X108673738Y-101503972D01*
X108571414Y-101657111D01*
X108500932Y-101827271D01*
X108465000Y-102007911D01*
X108465000Y-102192089D01*
X108500932Y-102372729D01*
X108571414Y-102542889D01*
X108673738Y-102696028D01*
X108803972Y-102826262D01*
X108957111Y-102928586D01*
X109111787Y-102992654D01*
X109680558Y-103561426D01*
X109706709Y-103593291D01*
X109833854Y-103697636D01*
X109978913Y-103775172D01*
X110136311Y-103822918D01*
X110258981Y-103835000D01*
X110258983Y-103835000D01*
X110299999Y-103839040D01*
X110341015Y-103835000D01*
X112554133Y-103835000D01*
X115907347Y-107188215D01*
X115965000Y-107327404D01*
X115965001Y-110658972D01*
X115960960Y-110700000D01*
X115977082Y-110863688D01*
X116024828Y-111021086D01*
X116024829Y-111021087D01*
X116102365Y-111166146D01*
X116206710Y-111293291D01*
X116238574Y-111319441D01*
X117407346Y-112488214D01*
X117471414Y-112642889D01*
X117573738Y-112796028D01*
X117703972Y-112926262D01*
X117857111Y-113028586D01*
X118011787Y-113092654D01*
X118084133Y-113165000D01*
X108241007Y-113165000D01*
X108199999Y-113160961D01*
X108158991Y-113165000D01*
X108158981Y-113165000D01*
X108036311Y-113177082D01*
X107878913Y-113224828D01*
X107733854Y-113302364D01*
X107606709Y-113406709D01*
X107580561Y-113438571D01*
X105754133Y-115265000D01*
X104575107Y-115265000D01*
X104653475Y-115186632D01*
X104815990Y-114943411D01*
X104927932Y-114673158D01*
X104985000Y-114386260D01*
X104985000Y-114093740D01*
X104927932Y-113806842D01*
X104815990Y-113536589D01*
X104653475Y-113293368D01*
X104466392Y-113106285D01*
X104593386Y-113038405D01*
X104727962Y-112927962D01*
X104838405Y-112793386D01*
X104920472Y-112639850D01*
X104971008Y-112473254D01*
X104988072Y-112300000D01*
X104988072Y-111100000D01*
X104971008Y-110926746D01*
X104920472Y-110760150D01*
X104838405Y-110606614D01*
X104727962Y-110472038D01*
X104593386Y-110361595D01*
X104439850Y-110279528D01*
X104273254Y-110228992D01*
X104100000Y-110211928D01*
X102900000Y-110211928D01*
X102726746Y-110228992D01*
X102560150Y-110279528D01*
X102406614Y-110361595D01*
X102272038Y-110472038D01*
X102161595Y-110606614D01*
X102093715Y-110733608D01*
X101906632Y-110546525D01*
X101663411Y-110384010D01*
X101393158Y-110272068D01*
X101106260Y-110215000D01*
X100813740Y-110215000D01*
X100526842Y-110272068D01*
X100256589Y-110384010D01*
X100013368Y-110546525D01*
X99806525Y-110753368D01*
X99690000Y-110927760D01*
X99573475Y-110753368D01*
X99366632Y-110546525D01*
X99123411Y-110384010D01*
X98853158Y-110272068D01*
X98566260Y-110215000D01*
X98273740Y-110215000D01*
X97986842Y-110272068D01*
X97716589Y-110384010D01*
X97473368Y-110546525D01*
X97266525Y-110753368D01*
X97150000Y-110927760D01*
X97033475Y-110753368D01*
X96826632Y-110546525D01*
X96583411Y-110384010D01*
X96313158Y-110272068D01*
X96026260Y-110215000D01*
X95733740Y-110215000D01*
X95446842Y-110272068D01*
X95176589Y-110384010D01*
X94933368Y-110546525D01*
X94726525Y-110753368D01*
X94610000Y-110927760D01*
X94493475Y-110753368D01*
X94286632Y-110546525D01*
X94175000Y-110471935D01*
X94175000Y-110081018D01*
X94179040Y-110040000D01*
X94162918Y-109876311D01*
X94115172Y-109718913D01*
X94037636Y-109573854D01*
X93959439Y-109478570D01*
X93959437Y-109478568D01*
X93933291Y-109446709D01*
X93901432Y-109420563D01*
X91019446Y-106538579D01*
X90993291Y-106506709D01*
X90866146Y-106402364D01*
X90721087Y-106324828D01*
X90563689Y-106277082D01*
X90441019Y-106265000D01*
X90441018Y-106265000D01*
X90400000Y-106260960D01*
X90358982Y-106265000D01*
X83385869Y-106265000D01*
X83026372Y-105905504D01*
X83075000Y-105661033D01*
X83075000Y-105338967D01*
X83012168Y-105023088D01*
X82888918Y-104725537D01*
X82709987Y-104457748D01*
X82491206Y-104238967D01*
X87565000Y-104238967D01*
X87565000Y-104561033D01*
X87627832Y-104876912D01*
X87751082Y-105174463D01*
X87930013Y-105442252D01*
X88157748Y-105669987D01*
X88425537Y-105848918D01*
X88723088Y-105972168D01*
X89038967Y-106035000D01*
X89361033Y-106035000D01*
X89676912Y-105972168D01*
X89974463Y-105848918D01*
X90242252Y-105669987D01*
X90469987Y-105442252D01*
X90538999Y-105338967D01*
X100205000Y-105338967D01*
X100205000Y-105661033D01*
X100267832Y-105976912D01*
X100391082Y-106274463D01*
X100570013Y-106542252D01*
X100797748Y-106769987D01*
X101065537Y-106948918D01*
X101363088Y-107072168D01*
X101678967Y-107135000D01*
X102001033Y-107135000D01*
X102316912Y-107072168D01*
X102614463Y-106948918D01*
X102882252Y-106769987D01*
X103109987Y-106542252D01*
X103288918Y-106274463D01*
X103412168Y-105976912D01*
X103475000Y-105661033D01*
X103475000Y-105338967D01*
X103412168Y-105023088D01*
X103288918Y-104725537D01*
X103109987Y-104457748D01*
X102882252Y-104230013D01*
X102614463Y-104051082D01*
X102316912Y-103927832D01*
X102001033Y-103865000D01*
X101678967Y-103865000D01*
X101363088Y-103927832D01*
X101065537Y-104051082D01*
X100797748Y-104230013D01*
X100570013Y-104457748D01*
X100391082Y-104725537D01*
X100267832Y-105023088D01*
X100205000Y-105338967D01*
X90538999Y-105338967D01*
X90648918Y-105174463D01*
X90772168Y-104876912D01*
X90835000Y-104561033D01*
X90835000Y-104238967D01*
X90772168Y-103923088D01*
X90648918Y-103625537D01*
X90469987Y-103357748D01*
X90242252Y-103130013D01*
X89974463Y-102951082D01*
X89676912Y-102827832D01*
X89361033Y-102765000D01*
X89038967Y-102765000D01*
X88723088Y-102827832D01*
X88425537Y-102951082D01*
X88157748Y-103130013D01*
X87930013Y-103357748D01*
X87751082Y-103625537D01*
X87627832Y-103923088D01*
X87565000Y-104238967D01*
X82491206Y-104238967D01*
X82482252Y-104230013D01*
X82214463Y-104051082D01*
X81916912Y-103927832D01*
X81601033Y-103865000D01*
X81278967Y-103865000D01*
X80963088Y-103927832D01*
X80665537Y-104051082D01*
X80397748Y-104230013D01*
X80170013Y-104457748D01*
X79991082Y-104725537D01*
X79867832Y-105023088D01*
X79805000Y-105338967D01*
X79805000Y-105661033D01*
X79867832Y-105976912D01*
X79991082Y-106274463D01*
X80170013Y-106542252D01*
X80397748Y-106769987D01*
X80665537Y-106948918D01*
X80963088Y-107072168D01*
X81278967Y-107135000D01*
X81601033Y-107135000D01*
X81845504Y-107086372D01*
X82420563Y-107661432D01*
X82446709Y-107693291D01*
X82478568Y-107719437D01*
X82478570Y-107719439D01*
X82489716Y-107728586D01*
X82573854Y-107797636D01*
X82718913Y-107875172D01*
X82876311Y-107922918D01*
X82998981Y-107935000D01*
X82998982Y-107935000D01*
X83040000Y-107939040D01*
X83081018Y-107935000D01*
X84439152Y-107935000D01*
X84400932Y-108027271D01*
X84365000Y-108207911D01*
X84365000Y-108392089D01*
X84400932Y-108572729D01*
X84471414Y-108742889D01*
X84573738Y-108896028D01*
X84703972Y-109026262D01*
X84857111Y-109128586D01*
X85027271Y-109199068D01*
X85207911Y-109235000D01*
X85392089Y-109235000D01*
X85572729Y-109199068D01*
X85727404Y-109135000D01*
X88954133Y-109135000D01*
X89965001Y-110145869D01*
X89965001Y-110471934D01*
X89853368Y-110546525D01*
X89646525Y-110753368D01*
X89530000Y-110927760D01*
X89413475Y-110753368D01*
X89206632Y-110546525D01*
X88963411Y-110384010D01*
X88693158Y-110272068D01*
X88406260Y-110215000D01*
X88113740Y-110215000D01*
X87826842Y-110272068D01*
X87556589Y-110384010D01*
X87313368Y-110546525D01*
X87106525Y-110753368D01*
X86944010Y-110996589D01*
X86832068Y-111266842D01*
X86775000Y-111553740D01*
X86775000Y-111846260D01*
X86832068Y-112133158D01*
X86944010Y-112403411D01*
X87106525Y-112646632D01*
X87313368Y-112853475D01*
X87556589Y-113015990D01*
X87826842Y-113127932D01*
X88113740Y-113185000D01*
X88406260Y-113185000D01*
X88693158Y-113127932D01*
X88963411Y-113015990D01*
X89206632Y-112853475D01*
X89413475Y-112646632D01*
X89530000Y-112472240D01*
X89646525Y-112646632D01*
X89853368Y-112853475D01*
X90096589Y-113015990D01*
X90366842Y-113127932D01*
X90653740Y-113185000D01*
X90946260Y-113185000D01*
X91233158Y-113127932D01*
X91503411Y-113015990D01*
X91746632Y-112853475D01*
X91953475Y-112646632D01*
X92070000Y-112472240D01*
X92186525Y-112646632D01*
X92393368Y-112853475D01*
X92567760Y-112970000D01*
X92393368Y-113086525D01*
X92186525Y-113293368D01*
X92024010Y-113536589D01*
X91912068Y-113806842D01*
X91855000Y-114093740D01*
X91855000Y-114386260D01*
X91912068Y-114673158D01*
X92024010Y-114943411D01*
X92186525Y-115186632D01*
X92393368Y-115393475D01*
X92636589Y-115555990D01*
X92906842Y-115667932D01*
X93193740Y-115725000D01*
X93486260Y-115725000D01*
X93617940Y-115698807D01*
X94259132Y-116340000D01*
X74260000Y-116340000D01*
X74260000Y-99532279D01*
X74298147Y-99143225D01*
X74401763Y-98800033D01*
X74570062Y-98483511D01*
X74796637Y-98205701D01*
X75072856Y-97977194D01*
X75388197Y-97806690D01*
X75730656Y-97700681D01*
X76117712Y-97660000D01*
X85740000Y-97660000D01*
X85740001Y-100767571D01*
G37*
%TD.AperFunction*%
%TD*%
M02*
