M48
; DRILL file {KiCad (5.1.10)-1} date 10/24/25 10:03:33
; FORMAT={-:-/ absolute / inch / decimal}
; #@! TF.CreationDate,2025-10-24T10:03:33+03:00
; #@! TF.GenerationSoftware,Kicad,Pcbnew,(5.1.10)-1
; #@! TF.FileFunction,Plated,1,2,PTH
FMAT,2
INCH
T1C0.0118
T2C0.0157
T3C0.0394
%
G90
G05
T1
X3.3071Y-3.8976
X3.3583Y-4.2638
X3.622Y-3.8976
X3.75Y-4.2913
X4.1929Y-4.4409
X4.3071Y-4.0197
X4.439Y-3.8878
X4.4803Y-4.5571
X4.5039Y-4.1811
X4.5984Y-4.2087
X4.6575Y-4.4173
X4.6969Y-4.2874
X4.7441Y-4.4528
X4.752Y-3.9843
X4.752Y-4.1614
X4.8858Y-4.185
X5.122Y-4.2244
X5.2795Y-3.8976
X5.2795Y-4.0906
X5.6024Y-4.2874
X5.8268Y-4.2126
X5.8268Y-4.5276
X6.0945Y-4.2874
X6.3169Y-4.187
X6.5197Y-4.2244
X6.6378Y-3.8976
X6.6378Y-4.0906
X7.0Y-4.2874
X7.2441Y-4.2126
X7.2441Y-4.5276
X7.4921Y-4.2874
X7.6969Y-4.1732
X7.9134Y-4.2244
X8.0315Y-3.937
X8.0354Y-4.0906
X8.3976Y-4.2874
X8.6575Y-4.5315
X8.6614Y-4.2126
X8.8898Y-4.2874
X9.0157Y-3.937
X9.0945Y-4.1811
X9.315Y-4.2244
X9.7953Y-4.2874
X10.0Y-3.937
X10.0Y-4.4882
T2
X2.9921Y-3.8976
T3
X3.0063Y-4.1535
X3.0512Y-4.4843
X3.2063Y-4.1535
X3.4748Y-4.3976
X3.4748Y-4.4976
X3.5118Y-4.1102
X3.5748Y-4.3976
X3.5748Y-4.4976
X3.6748Y-4.3976
X3.6748Y-4.4976
X3.7748Y-4.3976
X3.7748Y-4.4976
X3.8094Y-4.1535
X3.8748Y-4.3976
X3.8748Y-4.4976
X3.9748Y-4.3976
X3.9748Y-4.4976
X4.0094Y-4.1535
X4.0748Y-4.3976
X4.0748Y-4.4976
X5.0496Y-4.4409
X5.2496Y-4.4409
X6.4472Y-4.4409
X6.6472Y-4.4409
X6.8465Y-4.5079
X7.8449Y-4.4409
X8.0449Y-4.4409
X9.2425Y-4.4409
X9.4425Y-4.4409
X9.5984Y-4.5079
T0
M30
