%TF.GenerationSoftware,KiCad,Pcbnew,(5.1.10)-1*%
%TF.CreationDate,2025-10-24T10:03:21+03:00*%
%TF.ProjectId,PANEL ASSY,50414e45-4c20-4415-9353-592e6b696361,rev?*%
%TF.SameCoordinates,Original*%
%TF.FileFunction,Legend,Bot*%
%TF.FilePolarity,Positive*%
%FSLAX46Y46*%
G04 Gerber Fmt 4.6, Leading zero omitted, Abs format (unit mm)*
G04 Created by KiCad (PCBNEW (5.1.10)-1) date 2025-10-24 10:03:21*
%MOMM*%
%LPD*%
G01*
G04 APERTURE LIST*
%ADD10C,0.100000*%
%ADD11C,0.120000*%
%ADD12C,0.200000*%
%ADD13C,0.150000*%
G04 APERTURE END LIST*
D10*
G36*
X236600000Y-103200000D02*
G01*
X252000000Y-103200000D01*
X252700000Y-103900000D01*
X252700000Y-110600000D01*
X252000000Y-111300000D01*
X240700000Y-111300000D01*
X240000000Y-110300000D01*
X239300000Y-109700000D01*
X238300000Y-109200000D01*
X237100000Y-109100000D01*
X236000000Y-109300000D01*
X235100000Y-109800000D01*
X234300000Y-110600000D01*
X233900000Y-111300000D01*
X222600000Y-111300000D01*
X221900000Y-110600000D01*
X221900000Y-108300000D01*
X224900000Y-108300000D01*
X228800000Y-108300000D01*
X231800000Y-108300000D01*
X235800000Y-108300000D01*
X238800000Y-108300000D01*
X242700000Y-108300000D01*
X245800000Y-108300000D01*
X249700000Y-108300000D01*
X249700000Y-106300000D01*
X245800000Y-106270229D01*
X245800000Y-108300000D01*
X242700000Y-108300000D01*
X242700000Y-106246565D01*
X238800000Y-106216794D01*
X238800000Y-108300000D01*
X235800000Y-108300000D01*
X235800000Y-106200000D01*
X231800000Y-106200000D01*
X231800000Y-108300000D01*
X228800000Y-108300000D01*
X228800000Y-106200000D01*
X224900000Y-106200000D01*
X224900000Y-108300000D01*
X221900000Y-108300000D01*
X221900000Y-103900000D01*
X222600000Y-103200000D01*
X236500000Y-103200000D01*
X236500000Y-106200000D01*
X236600000Y-106200000D01*
X236600000Y-103200000D01*
G37*
X236600000Y-103200000D02*
X252000000Y-103200000D01*
X252700000Y-103900000D01*
X252700000Y-110600000D01*
X252000000Y-111300000D01*
X240700000Y-111300000D01*
X240000000Y-110300000D01*
X239300000Y-109700000D01*
X238300000Y-109200000D01*
X237100000Y-109100000D01*
X236000000Y-109300000D01*
X235100000Y-109800000D01*
X234300000Y-110600000D01*
X233900000Y-111300000D01*
X222600000Y-111300000D01*
X221900000Y-110600000D01*
X221900000Y-108300000D01*
X224900000Y-108300000D01*
X228800000Y-108300000D01*
X231800000Y-108300000D01*
X235800000Y-108300000D01*
X238800000Y-108300000D01*
X242700000Y-108300000D01*
X245800000Y-108300000D01*
X249700000Y-108300000D01*
X249700000Y-106300000D01*
X245800000Y-106270229D01*
X245800000Y-108300000D01*
X242700000Y-108300000D01*
X242700000Y-106246565D01*
X238800000Y-106216794D01*
X238800000Y-108300000D01*
X235800000Y-108300000D01*
X235800000Y-106200000D01*
X231800000Y-106200000D01*
X231800000Y-108300000D01*
X228800000Y-108300000D01*
X228800000Y-106200000D01*
X224900000Y-106200000D01*
X224900000Y-108300000D01*
X221900000Y-108300000D01*
X221900000Y-103900000D01*
X222600000Y-103200000D01*
X236500000Y-103200000D01*
X236500000Y-106200000D01*
X236600000Y-106200000D01*
X236600000Y-103200000D01*
G36*
X201100000Y-103200000D02*
G01*
X216500000Y-103200000D01*
X217200000Y-103900000D01*
X217200000Y-110600000D01*
X216500000Y-111300000D01*
X205200000Y-111300000D01*
X204500000Y-110300000D01*
X203800000Y-109700000D01*
X202800000Y-109200000D01*
X201600000Y-109100000D01*
X200500000Y-109300000D01*
X199600000Y-109800000D01*
X198800000Y-110600000D01*
X198400000Y-111300000D01*
X187100000Y-111300000D01*
X186400000Y-110600000D01*
X186400000Y-108300000D01*
X189400000Y-108300000D01*
X193300000Y-108300000D01*
X196300000Y-108300000D01*
X200300000Y-108300000D01*
X203300000Y-108300000D01*
X207200000Y-108300000D01*
X210300000Y-108300000D01*
X214200000Y-108300000D01*
X214200000Y-106300000D01*
X210300000Y-106270229D01*
X210300000Y-108300000D01*
X207200000Y-108300000D01*
X207200000Y-106246565D01*
X203300000Y-106216794D01*
X203300000Y-108300000D01*
X200300000Y-108300000D01*
X200300000Y-106200000D01*
X196300000Y-106200000D01*
X196300000Y-108300000D01*
X193300000Y-108300000D01*
X193300000Y-106200000D01*
X189400000Y-106200000D01*
X189400000Y-108300000D01*
X186400000Y-108300000D01*
X186400000Y-103900000D01*
X187100000Y-103200000D01*
X201000000Y-103200000D01*
X201000000Y-106200000D01*
X201100000Y-106200000D01*
X201100000Y-103200000D01*
G37*
X201100000Y-103200000D02*
X216500000Y-103200000D01*
X217200000Y-103900000D01*
X217200000Y-110600000D01*
X216500000Y-111300000D01*
X205200000Y-111300000D01*
X204500000Y-110300000D01*
X203800000Y-109700000D01*
X202800000Y-109200000D01*
X201600000Y-109100000D01*
X200500000Y-109300000D01*
X199600000Y-109800000D01*
X198800000Y-110600000D01*
X198400000Y-111300000D01*
X187100000Y-111300000D01*
X186400000Y-110600000D01*
X186400000Y-108300000D01*
X189400000Y-108300000D01*
X193300000Y-108300000D01*
X196300000Y-108300000D01*
X200300000Y-108300000D01*
X203300000Y-108300000D01*
X207200000Y-108300000D01*
X210300000Y-108300000D01*
X214200000Y-108300000D01*
X214200000Y-106300000D01*
X210300000Y-106270229D01*
X210300000Y-108300000D01*
X207200000Y-108300000D01*
X207200000Y-106246565D01*
X203300000Y-106216794D01*
X203300000Y-108300000D01*
X200300000Y-108300000D01*
X200300000Y-106200000D01*
X196300000Y-106200000D01*
X196300000Y-108300000D01*
X193300000Y-108300000D01*
X193300000Y-106200000D01*
X189400000Y-106200000D01*
X189400000Y-108300000D01*
X186400000Y-108300000D01*
X186400000Y-103900000D01*
X187100000Y-103200000D01*
X201000000Y-103200000D01*
X201000000Y-106200000D01*
X201100000Y-106200000D01*
X201100000Y-103200000D01*
G36*
X165600000Y-103200000D02*
G01*
X181000000Y-103200000D01*
X181700000Y-103900000D01*
X181700000Y-110600000D01*
X181000000Y-111300000D01*
X169700000Y-111300000D01*
X169000000Y-110300000D01*
X168300000Y-109700000D01*
X167300000Y-109200000D01*
X166100000Y-109100000D01*
X165000000Y-109300000D01*
X164100000Y-109800000D01*
X163300000Y-110600000D01*
X162900000Y-111300000D01*
X151600000Y-111300000D01*
X150900000Y-110600000D01*
X150900000Y-108300000D01*
X153900000Y-108300000D01*
X157800000Y-108300000D01*
X160800000Y-108300000D01*
X164800000Y-108300000D01*
X167800000Y-108300000D01*
X171700000Y-108300000D01*
X174800000Y-108300000D01*
X178700000Y-108300000D01*
X178700000Y-106300000D01*
X174800000Y-106270229D01*
X174800000Y-108300000D01*
X171700000Y-108300000D01*
X171700000Y-106246565D01*
X167800000Y-106216794D01*
X167800000Y-108300000D01*
X164800000Y-108300000D01*
X164800000Y-106200000D01*
X160800000Y-106200000D01*
X160800000Y-108300000D01*
X157800000Y-108300000D01*
X157800000Y-106200000D01*
X153900000Y-106200000D01*
X153900000Y-108300000D01*
X150900000Y-108300000D01*
X150900000Y-103900000D01*
X151600000Y-103200000D01*
X165500000Y-103200000D01*
X165500000Y-106200000D01*
X165600000Y-106200000D01*
X165600000Y-103200000D01*
G37*
X165600000Y-103200000D02*
X181000000Y-103200000D01*
X181700000Y-103900000D01*
X181700000Y-110600000D01*
X181000000Y-111300000D01*
X169700000Y-111300000D01*
X169000000Y-110300000D01*
X168300000Y-109700000D01*
X167300000Y-109200000D01*
X166100000Y-109100000D01*
X165000000Y-109300000D01*
X164100000Y-109800000D01*
X163300000Y-110600000D01*
X162900000Y-111300000D01*
X151600000Y-111300000D01*
X150900000Y-110600000D01*
X150900000Y-108300000D01*
X153900000Y-108300000D01*
X157800000Y-108300000D01*
X160800000Y-108300000D01*
X164800000Y-108300000D01*
X167800000Y-108300000D01*
X171700000Y-108300000D01*
X174800000Y-108300000D01*
X178700000Y-108300000D01*
X178700000Y-106300000D01*
X174800000Y-106270229D01*
X174800000Y-108300000D01*
X171700000Y-108300000D01*
X171700000Y-106246565D01*
X167800000Y-106216794D01*
X167800000Y-108300000D01*
X164800000Y-108300000D01*
X164800000Y-106200000D01*
X160800000Y-106200000D01*
X160800000Y-108300000D01*
X157800000Y-108300000D01*
X157800000Y-106200000D01*
X153900000Y-106200000D01*
X153900000Y-108300000D01*
X150900000Y-108300000D01*
X150900000Y-103900000D01*
X151600000Y-103200000D01*
X165500000Y-103200000D01*
X165500000Y-106200000D01*
X165600000Y-106200000D01*
X165600000Y-103200000D01*
G36*
X130100000Y-103200000D02*
G01*
X145500000Y-103200000D01*
X146200000Y-103900000D01*
X146200000Y-110600000D01*
X145500000Y-111300000D01*
X134200000Y-111300000D01*
X133500000Y-110300000D01*
X132800000Y-109700000D01*
X131800000Y-109200000D01*
X130600000Y-109100000D01*
X129500000Y-109300000D01*
X128600000Y-109800000D01*
X127800000Y-110600000D01*
X127400000Y-111300000D01*
X116100000Y-111300000D01*
X115400000Y-110600000D01*
X115400000Y-108300000D01*
X118400000Y-108300000D01*
X122300000Y-108300000D01*
X125300000Y-108300000D01*
X129300000Y-108300000D01*
X132300000Y-108300000D01*
X136200000Y-108300000D01*
X139300000Y-108300000D01*
X143200000Y-108300000D01*
X143200000Y-106300000D01*
X139300000Y-106270229D01*
X139300000Y-108300000D01*
X136200000Y-108300000D01*
X136200000Y-106246565D01*
X132300000Y-106216794D01*
X132300000Y-108300000D01*
X129300000Y-108300000D01*
X129300000Y-106200000D01*
X125300000Y-106200000D01*
X125300000Y-108300000D01*
X122300000Y-108300000D01*
X122300000Y-106200000D01*
X118400000Y-106200000D01*
X118400000Y-108300000D01*
X115400000Y-108300000D01*
X115400000Y-103900000D01*
X116100000Y-103200000D01*
X130000000Y-103200000D01*
X130000000Y-106200000D01*
X130100000Y-106200000D01*
X130100000Y-103200000D01*
G37*
X130100000Y-103200000D02*
X145500000Y-103200000D01*
X146200000Y-103900000D01*
X146200000Y-110600000D01*
X145500000Y-111300000D01*
X134200000Y-111300000D01*
X133500000Y-110300000D01*
X132800000Y-109700000D01*
X131800000Y-109200000D01*
X130600000Y-109100000D01*
X129500000Y-109300000D01*
X128600000Y-109800000D01*
X127800000Y-110600000D01*
X127400000Y-111300000D01*
X116100000Y-111300000D01*
X115400000Y-110600000D01*
X115400000Y-108300000D01*
X118400000Y-108300000D01*
X122300000Y-108300000D01*
X125300000Y-108300000D01*
X129300000Y-108300000D01*
X132300000Y-108300000D01*
X136200000Y-108300000D01*
X139300000Y-108300000D01*
X143200000Y-108300000D01*
X143200000Y-106300000D01*
X139300000Y-106270229D01*
X139300000Y-108300000D01*
X136200000Y-108300000D01*
X136200000Y-106246565D01*
X132300000Y-106216794D01*
X132300000Y-108300000D01*
X129300000Y-108300000D01*
X129300000Y-106200000D01*
X125300000Y-106200000D01*
X125300000Y-108300000D01*
X122300000Y-108300000D01*
X122300000Y-106200000D01*
X118400000Y-106200000D01*
X118400000Y-108300000D01*
X115400000Y-108300000D01*
X115400000Y-103900000D01*
X116100000Y-103200000D01*
X130000000Y-103200000D01*
X130000000Y-106200000D01*
X130100000Y-106200000D01*
X130100000Y-103200000D01*
D11*
%TO.C,D1*%
X228660000Y-108260000D02*
X225800000Y-108260000D01*
X228660000Y-106340000D02*
X228660000Y-108260000D01*
X225800000Y-106340000D02*
X228660000Y-106340000D01*
%TO.C,D2*%
X235660000Y-108260000D02*
X232800000Y-108260000D01*
X235660000Y-106340000D02*
X235660000Y-108260000D01*
X232800000Y-106340000D02*
X235660000Y-106340000D01*
%TO.C,D3*%
X248800000Y-108260000D02*
X245940000Y-108260000D01*
X245940000Y-108260000D02*
X245940000Y-106340000D01*
X245940000Y-106340000D02*
X248800000Y-106340000D01*
%TO.C,D4*%
X241800000Y-108260000D02*
X238940000Y-108260000D01*
X238940000Y-108260000D02*
X238940000Y-106340000D01*
X238940000Y-106340000D02*
X241800000Y-106340000D01*
%TO.C,D5*%
X190300000Y-106340000D02*
X193160000Y-106340000D01*
X193160000Y-106340000D02*
X193160000Y-108260000D01*
X193160000Y-108260000D02*
X190300000Y-108260000D01*
%TO.C,D6*%
X197300000Y-106340000D02*
X200160000Y-106340000D01*
X200160000Y-106340000D02*
X200160000Y-108260000D01*
X200160000Y-108260000D02*
X197300000Y-108260000D01*
%TO.C,D7*%
X210440000Y-106340000D02*
X213300000Y-106340000D01*
X210440000Y-108260000D02*
X210440000Y-106340000D01*
X213300000Y-108260000D02*
X210440000Y-108260000D01*
%TO.C,D8*%
X206300000Y-108260000D02*
X203440000Y-108260000D01*
X203440000Y-108260000D02*
X203440000Y-106340000D01*
X203440000Y-106340000D02*
X206300000Y-106340000D01*
%TO.C,D9*%
X154800000Y-106340000D02*
X157660000Y-106340000D01*
X157660000Y-106340000D02*
X157660000Y-108260000D01*
X157660000Y-108260000D02*
X154800000Y-108260000D01*
%TO.C,D10*%
X164660000Y-108260000D02*
X161800000Y-108260000D01*
X164660000Y-106340000D02*
X164660000Y-108260000D01*
X161800000Y-106340000D02*
X164660000Y-106340000D01*
%TO.C,D11*%
X174940000Y-106340000D02*
X177800000Y-106340000D01*
X174940000Y-108260000D02*
X174940000Y-106340000D01*
X177800000Y-108260000D02*
X174940000Y-108260000D01*
%TO.C,D12*%
X167940000Y-106340000D02*
X170800000Y-106340000D01*
X167940000Y-108260000D02*
X167940000Y-106340000D01*
X170800000Y-108260000D02*
X167940000Y-108260000D01*
%TO.C,D13*%
X119300000Y-106340000D02*
X122160000Y-106340000D01*
X122160000Y-106340000D02*
X122160000Y-108260000D01*
X122160000Y-108260000D02*
X119300000Y-108260000D01*
%TO.C,D14*%
X129160000Y-108260000D02*
X126300000Y-108260000D01*
X129160000Y-106340000D02*
X129160000Y-108260000D01*
X126300000Y-106340000D02*
X129160000Y-106340000D01*
%TO.C,D15*%
X142300000Y-108260000D02*
X139440000Y-108260000D01*
X139440000Y-108260000D02*
X139440000Y-106340000D01*
X139440000Y-106340000D02*
X142300000Y-106340000D01*
%TO.C,D16*%
X132440000Y-106340000D02*
X135300000Y-106340000D01*
X132440000Y-108260000D02*
X132440000Y-106340000D01*
X135300000Y-108260000D02*
X132440000Y-108260000D01*
D12*
%TO.C,SW1*%
X234549455Y-114298997D02*
G75*
G03*
X240050000Y-114300000I2750546J1498996D01*
G01*
X240050546Y-111301004D02*
G75*
G03*
X234550001Y-111300001I-2750546J-1498996D01*
G01*
%TO.C,SW2*%
X204550546Y-111301004D02*
G75*
G03*
X199050001Y-111300001I-2750546J-1498996D01*
G01*
X199049455Y-114298997D02*
G75*
G03*
X204550000Y-114300000I2750546J1498996D01*
G01*
%TO.C,SW3*%
X169050546Y-111301004D02*
G75*
G03*
X163550001Y-111300001I-2750546J-1498996D01*
G01*
X163549455Y-114298997D02*
G75*
G03*
X169050000Y-114300000I2750546J1498996D01*
G01*
%TO.C,SW4*%
X128049455Y-114298997D02*
G75*
G03*
X133550000Y-114300000I2750546J1498996D01*
G01*
X133550546Y-111301004D02*
G75*
G03*
X128050001Y-111300001I-2750546J-1498996D01*
G01*
%TO.C,SW5*%
X96549454Y-106998996D02*
G75*
G03*
X102049999Y-106999999I2750546J1498996D01*
G01*
X102050545Y-104001003D02*
G75*
G03*
X96550000Y-104000000I-2750546J-1498996D01*
G01*
%TO.C,SW6*%
X81650545Y-104001003D02*
G75*
G03*
X76150000Y-104000000I-2750546J-1498996D01*
G01*
X76149454Y-106998996D02*
G75*
G03*
X81649999Y-106999999I2750546J1498996D01*
G01*
%TO.C,D1*%
D13*
X227390476Y-102657142D02*
X227390476Y-101757142D01*
X227200000Y-101757142D01*
X227085714Y-101800000D01*
X227009523Y-101885714D01*
X226971428Y-101971428D01*
X226933333Y-102142857D01*
X226933333Y-102271428D01*
X226971428Y-102442857D01*
X227009523Y-102528571D01*
X227085714Y-102614285D01*
X227200000Y-102657142D01*
X227390476Y-102657142D01*
X226171428Y-102657142D02*
X226628571Y-102657142D01*
X226400000Y-102657142D02*
X226400000Y-101757142D01*
X226476190Y-101885714D01*
X226552380Y-101971428D01*
X226628571Y-102014285D01*
%TO.C,D2*%
X234390476Y-102657142D02*
X234390476Y-101757142D01*
X234200000Y-101757142D01*
X234085714Y-101800000D01*
X234009523Y-101885714D01*
X233971428Y-101971428D01*
X233933333Y-102142857D01*
X233933333Y-102271428D01*
X233971428Y-102442857D01*
X234009523Y-102528571D01*
X234085714Y-102614285D01*
X234200000Y-102657142D01*
X234390476Y-102657142D01*
X233628571Y-101842857D02*
X233590476Y-101800000D01*
X233514285Y-101757142D01*
X233323809Y-101757142D01*
X233247619Y-101800000D01*
X233209523Y-101842857D01*
X233171428Y-101928571D01*
X233171428Y-102014285D01*
X233209523Y-102142857D01*
X233666666Y-102657142D01*
X233171428Y-102657142D01*
%TO.C,D3*%
X248390476Y-102657142D02*
X248390476Y-101757142D01*
X248200000Y-101757142D01*
X248085714Y-101800000D01*
X248009523Y-101885714D01*
X247971428Y-101971428D01*
X247933333Y-102142857D01*
X247933333Y-102271428D01*
X247971428Y-102442857D01*
X248009523Y-102528571D01*
X248085714Y-102614285D01*
X248200000Y-102657142D01*
X248390476Y-102657142D01*
X247666666Y-101757142D02*
X247171428Y-101757142D01*
X247438095Y-102100000D01*
X247323809Y-102100000D01*
X247247619Y-102142857D01*
X247209523Y-102185714D01*
X247171428Y-102271428D01*
X247171428Y-102485714D01*
X247209523Y-102571428D01*
X247247619Y-102614285D01*
X247323809Y-102657142D01*
X247552380Y-102657142D01*
X247628571Y-102614285D01*
X247666666Y-102571428D01*
%TO.C,D4*%
X241390476Y-102657142D02*
X241390476Y-101757142D01*
X241200000Y-101757142D01*
X241085714Y-101800000D01*
X241009523Y-101885714D01*
X240971428Y-101971428D01*
X240933333Y-102142857D01*
X240933333Y-102271428D01*
X240971428Y-102442857D01*
X241009523Y-102528571D01*
X241085714Y-102614285D01*
X241200000Y-102657142D01*
X241390476Y-102657142D01*
X240247619Y-102057142D02*
X240247619Y-102657142D01*
X240438095Y-101714285D02*
X240628571Y-102357142D01*
X240133333Y-102357142D01*
%TO.C,D5*%
X191890476Y-102657142D02*
X191890476Y-101757142D01*
X191700000Y-101757142D01*
X191585714Y-101800000D01*
X191509523Y-101885714D01*
X191471428Y-101971428D01*
X191433333Y-102142857D01*
X191433333Y-102271428D01*
X191471428Y-102442857D01*
X191509523Y-102528571D01*
X191585714Y-102614285D01*
X191700000Y-102657142D01*
X191890476Y-102657142D01*
X190709523Y-101757142D02*
X191090476Y-101757142D01*
X191128571Y-102185714D01*
X191090476Y-102142857D01*
X191014285Y-102100000D01*
X190823809Y-102100000D01*
X190747619Y-102142857D01*
X190709523Y-102185714D01*
X190671428Y-102271428D01*
X190671428Y-102485714D01*
X190709523Y-102571428D01*
X190747619Y-102614285D01*
X190823809Y-102657142D01*
X191014285Y-102657142D01*
X191090476Y-102614285D01*
X191128571Y-102571428D01*
%TO.C,D6*%
X198890476Y-102657142D02*
X198890476Y-101757142D01*
X198700000Y-101757142D01*
X198585714Y-101800000D01*
X198509523Y-101885714D01*
X198471428Y-101971428D01*
X198433333Y-102142857D01*
X198433333Y-102271428D01*
X198471428Y-102442857D01*
X198509523Y-102528571D01*
X198585714Y-102614285D01*
X198700000Y-102657142D01*
X198890476Y-102657142D01*
X197747619Y-101757142D02*
X197900000Y-101757142D01*
X197976190Y-101800000D01*
X198014285Y-101842857D01*
X198090476Y-101971428D01*
X198128571Y-102142857D01*
X198128571Y-102485714D01*
X198090476Y-102571428D01*
X198052380Y-102614285D01*
X197976190Y-102657142D01*
X197823809Y-102657142D01*
X197747619Y-102614285D01*
X197709523Y-102571428D01*
X197671428Y-102485714D01*
X197671428Y-102271428D01*
X197709523Y-102185714D01*
X197747619Y-102142857D01*
X197823809Y-102100000D01*
X197976190Y-102100000D01*
X198052380Y-102142857D01*
X198090476Y-102185714D01*
X198128571Y-102271428D01*
%TO.C,D7*%
X212890476Y-102657142D02*
X212890476Y-101757142D01*
X212700000Y-101757142D01*
X212585714Y-101800000D01*
X212509523Y-101885714D01*
X212471428Y-101971428D01*
X212433333Y-102142857D01*
X212433333Y-102271428D01*
X212471428Y-102442857D01*
X212509523Y-102528571D01*
X212585714Y-102614285D01*
X212700000Y-102657142D01*
X212890476Y-102657142D01*
X212166666Y-101757142D02*
X211633333Y-101757142D01*
X211976190Y-102657142D01*
%TO.C,D8*%
X205890476Y-102657142D02*
X205890476Y-101757142D01*
X205700000Y-101757142D01*
X205585714Y-101800000D01*
X205509523Y-101885714D01*
X205471428Y-101971428D01*
X205433333Y-102142857D01*
X205433333Y-102271428D01*
X205471428Y-102442857D01*
X205509523Y-102528571D01*
X205585714Y-102614285D01*
X205700000Y-102657142D01*
X205890476Y-102657142D01*
X204976190Y-102142857D02*
X205052380Y-102100000D01*
X205090476Y-102057142D01*
X205128571Y-101971428D01*
X205128571Y-101928571D01*
X205090476Y-101842857D01*
X205052380Y-101800000D01*
X204976190Y-101757142D01*
X204823809Y-101757142D01*
X204747619Y-101800000D01*
X204709523Y-101842857D01*
X204671428Y-101928571D01*
X204671428Y-101971428D01*
X204709523Y-102057142D01*
X204747619Y-102100000D01*
X204823809Y-102142857D01*
X204976190Y-102142857D01*
X205052380Y-102185714D01*
X205090476Y-102228571D01*
X205128571Y-102314285D01*
X205128571Y-102485714D01*
X205090476Y-102571428D01*
X205052380Y-102614285D01*
X204976190Y-102657142D01*
X204823809Y-102657142D01*
X204747619Y-102614285D01*
X204709523Y-102571428D01*
X204671428Y-102485714D01*
X204671428Y-102314285D01*
X204709523Y-102228571D01*
X204747619Y-102185714D01*
X204823809Y-102142857D01*
%TO.C,D9*%
X156390476Y-102657142D02*
X156390476Y-101757142D01*
X156200000Y-101757142D01*
X156085714Y-101800000D01*
X156009523Y-101885714D01*
X155971428Y-101971428D01*
X155933333Y-102142857D01*
X155933333Y-102271428D01*
X155971428Y-102442857D01*
X156009523Y-102528571D01*
X156085714Y-102614285D01*
X156200000Y-102657142D01*
X156390476Y-102657142D01*
X155552380Y-102657142D02*
X155400000Y-102657142D01*
X155323809Y-102614285D01*
X155285714Y-102571428D01*
X155209523Y-102442857D01*
X155171428Y-102271428D01*
X155171428Y-101928571D01*
X155209523Y-101842857D01*
X155247619Y-101800000D01*
X155323809Y-101757142D01*
X155476190Y-101757142D01*
X155552380Y-101800000D01*
X155590476Y-101842857D01*
X155628571Y-101928571D01*
X155628571Y-102142857D01*
X155590476Y-102228571D01*
X155552380Y-102271428D01*
X155476190Y-102314285D01*
X155323809Y-102314285D01*
X155247619Y-102271428D01*
X155209523Y-102228571D01*
X155171428Y-102142857D01*
%TO.C,D10*%
X163771428Y-102657142D02*
X163771428Y-101757142D01*
X163580952Y-101757142D01*
X163466666Y-101800000D01*
X163390476Y-101885714D01*
X163352380Y-101971428D01*
X163314285Y-102142857D01*
X163314285Y-102271428D01*
X163352380Y-102442857D01*
X163390476Y-102528571D01*
X163466666Y-102614285D01*
X163580952Y-102657142D01*
X163771428Y-102657142D01*
X162552380Y-102657142D02*
X163009523Y-102657142D01*
X162780952Y-102657142D02*
X162780952Y-101757142D01*
X162857142Y-101885714D01*
X162933333Y-101971428D01*
X163009523Y-102014285D01*
X162057142Y-101757142D02*
X161980952Y-101757142D01*
X161904761Y-101800000D01*
X161866666Y-101842857D01*
X161828571Y-101928571D01*
X161790476Y-102100000D01*
X161790476Y-102314285D01*
X161828571Y-102485714D01*
X161866666Y-102571428D01*
X161904761Y-102614285D01*
X161980952Y-102657142D01*
X162057142Y-102657142D01*
X162133333Y-102614285D01*
X162171428Y-102571428D01*
X162209523Y-102485714D01*
X162247619Y-102314285D01*
X162247619Y-102100000D01*
X162209523Y-101928571D01*
X162171428Y-101842857D01*
X162133333Y-101800000D01*
X162057142Y-101757142D01*
%TO.C,D11*%
X177771428Y-102657142D02*
X177771428Y-101757142D01*
X177580952Y-101757142D01*
X177466666Y-101800000D01*
X177390476Y-101885714D01*
X177352380Y-101971428D01*
X177314285Y-102142857D01*
X177314285Y-102271428D01*
X177352380Y-102442857D01*
X177390476Y-102528571D01*
X177466666Y-102614285D01*
X177580952Y-102657142D01*
X177771428Y-102657142D01*
X176552380Y-102657142D02*
X177009523Y-102657142D01*
X176780952Y-102657142D02*
X176780952Y-101757142D01*
X176857142Y-101885714D01*
X176933333Y-101971428D01*
X177009523Y-102014285D01*
X175790476Y-102657142D02*
X176247619Y-102657142D01*
X176019047Y-102657142D02*
X176019047Y-101757142D01*
X176095238Y-101885714D01*
X176171428Y-101971428D01*
X176247619Y-102014285D01*
%TO.C,D12*%
X170771428Y-102657142D02*
X170771428Y-101757142D01*
X170580952Y-101757142D01*
X170466666Y-101800000D01*
X170390476Y-101885714D01*
X170352380Y-101971428D01*
X170314285Y-102142857D01*
X170314285Y-102271428D01*
X170352380Y-102442857D01*
X170390476Y-102528571D01*
X170466666Y-102614285D01*
X170580952Y-102657142D01*
X170771428Y-102657142D01*
X169552380Y-102657142D02*
X170009523Y-102657142D01*
X169780952Y-102657142D02*
X169780952Y-101757142D01*
X169857142Y-101885714D01*
X169933333Y-101971428D01*
X170009523Y-102014285D01*
X169247619Y-101842857D02*
X169209523Y-101800000D01*
X169133333Y-101757142D01*
X168942857Y-101757142D01*
X168866666Y-101800000D01*
X168828571Y-101842857D01*
X168790476Y-101928571D01*
X168790476Y-102014285D01*
X168828571Y-102142857D01*
X169285714Y-102657142D01*
X168790476Y-102657142D01*
%TO.C,D13*%
X121271428Y-102657142D02*
X121271428Y-101757142D01*
X121080952Y-101757142D01*
X120966666Y-101800000D01*
X120890476Y-101885714D01*
X120852380Y-101971428D01*
X120814285Y-102142857D01*
X120814285Y-102271428D01*
X120852380Y-102442857D01*
X120890476Y-102528571D01*
X120966666Y-102614285D01*
X121080952Y-102657142D01*
X121271428Y-102657142D01*
X120052380Y-102657142D02*
X120509523Y-102657142D01*
X120280952Y-102657142D02*
X120280952Y-101757142D01*
X120357142Y-101885714D01*
X120433333Y-101971428D01*
X120509523Y-102014285D01*
X119785714Y-101757142D02*
X119290476Y-101757142D01*
X119557142Y-102100000D01*
X119442857Y-102100000D01*
X119366666Y-102142857D01*
X119328571Y-102185714D01*
X119290476Y-102271428D01*
X119290476Y-102485714D01*
X119328571Y-102571428D01*
X119366666Y-102614285D01*
X119442857Y-102657142D01*
X119671428Y-102657142D01*
X119747619Y-102614285D01*
X119785714Y-102571428D01*
%TO.C,D14*%
X128271428Y-102657142D02*
X128271428Y-101757142D01*
X128080952Y-101757142D01*
X127966666Y-101800000D01*
X127890476Y-101885714D01*
X127852380Y-101971428D01*
X127814285Y-102142857D01*
X127814285Y-102271428D01*
X127852380Y-102442857D01*
X127890476Y-102528571D01*
X127966666Y-102614285D01*
X128080952Y-102657142D01*
X128271428Y-102657142D01*
X127052380Y-102657142D02*
X127509523Y-102657142D01*
X127280952Y-102657142D02*
X127280952Y-101757142D01*
X127357142Y-101885714D01*
X127433333Y-101971428D01*
X127509523Y-102014285D01*
X126366666Y-102057142D02*
X126366666Y-102657142D01*
X126557142Y-101714285D02*
X126747619Y-102357142D01*
X126252380Y-102357142D01*
%TO.C,D15*%
X142271428Y-102657142D02*
X142271428Y-101757142D01*
X142080952Y-101757142D01*
X141966666Y-101800000D01*
X141890476Y-101885714D01*
X141852380Y-101971428D01*
X141814285Y-102142857D01*
X141814285Y-102271428D01*
X141852380Y-102442857D01*
X141890476Y-102528571D01*
X141966666Y-102614285D01*
X142080952Y-102657142D01*
X142271428Y-102657142D01*
X141052380Y-102657142D02*
X141509523Y-102657142D01*
X141280952Y-102657142D02*
X141280952Y-101757142D01*
X141357142Y-101885714D01*
X141433333Y-101971428D01*
X141509523Y-102014285D01*
X140328571Y-101757142D02*
X140709523Y-101757142D01*
X140747619Y-102185714D01*
X140709523Y-102142857D01*
X140633333Y-102100000D01*
X140442857Y-102100000D01*
X140366666Y-102142857D01*
X140328571Y-102185714D01*
X140290476Y-102271428D01*
X140290476Y-102485714D01*
X140328571Y-102571428D01*
X140366666Y-102614285D01*
X140442857Y-102657142D01*
X140633333Y-102657142D01*
X140709523Y-102614285D01*
X140747619Y-102571428D01*
%TO.C,D16*%
X135271428Y-102657142D02*
X135271428Y-101757142D01*
X135080952Y-101757142D01*
X134966666Y-101800000D01*
X134890476Y-101885714D01*
X134852380Y-101971428D01*
X134814285Y-102142857D01*
X134814285Y-102271428D01*
X134852380Y-102442857D01*
X134890476Y-102528571D01*
X134966666Y-102614285D01*
X135080952Y-102657142D01*
X135271428Y-102657142D01*
X134052380Y-102657142D02*
X134509523Y-102657142D01*
X134280952Y-102657142D02*
X134280952Y-101757142D01*
X134357142Y-101885714D01*
X134433333Y-101971428D01*
X134509523Y-102014285D01*
X133366666Y-101757142D02*
X133519047Y-101757142D01*
X133595238Y-101800000D01*
X133633333Y-101842857D01*
X133709523Y-101971428D01*
X133747619Y-102142857D01*
X133747619Y-102485714D01*
X133709523Y-102571428D01*
X133671428Y-102614285D01*
X133595238Y-102657142D01*
X133442857Y-102657142D01*
X133366666Y-102614285D01*
X133328571Y-102571428D01*
X133290476Y-102485714D01*
X133290476Y-102271428D01*
X133328571Y-102185714D01*
X133366666Y-102142857D01*
X133442857Y-102100000D01*
X133595238Y-102100000D01*
X133671428Y-102142857D01*
X133709523Y-102185714D01*
X133747619Y-102271428D01*
%TO.C,SW1*%
X232766666Y-112964285D02*
X232652380Y-113007142D01*
X232461904Y-113007142D01*
X232385714Y-112964285D01*
X232347619Y-112921428D01*
X232309523Y-112835714D01*
X232309523Y-112750000D01*
X232347619Y-112664285D01*
X232385714Y-112621428D01*
X232461904Y-112578571D01*
X232614285Y-112535714D01*
X232690476Y-112492857D01*
X232728571Y-112450000D01*
X232766666Y-112364285D01*
X232766666Y-112278571D01*
X232728571Y-112192857D01*
X232690476Y-112150000D01*
X232614285Y-112107142D01*
X232423809Y-112107142D01*
X232309523Y-112150000D01*
X232042857Y-112107142D02*
X231852380Y-113007142D01*
X231700000Y-112364285D01*
X231547619Y-113007142D01*
X231357142Y-112107142D01*
X230633333Y-113007142D02*
X231090476Y-113007142D01*
X230861904Y-113007142D02*
X230861904Y-112107142D01*
X230938095Y-112235714D01*
X231014285Y-112321428D01*
X231090476Y-112364285D01*
%TO.C,SW2*%
X196616666Y-112964285D02*
X196502380Y-113007142D01*
X196311904Y-113007142D01*
X196235714Y-112964285D01*
X196197619Y-112921428D01*
X196159523Y-112835714D01*
X196159523Y-112750000D01*
X196197619Y-112664285D01*
X196235714Y-112621428D01*
X196311904Y-112578571D01*
X196464285Y-112535714D01*
X196540476Y-112492857D01*
X196578571Y-112450000D01*
X196616666Y-112364285D01*
X196616666Y-112278571D01*
X196578571Y-112192857D01*
X196540476Y-112150000D01*
X196464285Y-112107142D01*
X196273809Y-112107142D01*
X196159523Y-112150000D01*
X195892857Y-112107142D02*
X195702380Y-113007142D01*
X195550000Y-112364285D01*
X195397619Y-113007142D01*
X195207142Y-112107142D01*
X194940476Y-112192857D02*
X194902380Y-112150000D01*
X194826190Y-112107142D01*
X194635714Y-112107142D01*
X194559523Y-112150000D01*
X194521428Y-112192857D01*
X194483333Y-112278571D01*
X194483333Y-112364285D01*
X194521428Y-112492857D01*
X194978571Y-113007142D01*
X194483333Y-113007142D01*
%TO.C,SW3*%
X160616666Y-112964285D02*
X160502380Y-113007142D01*
X160311904Y-113007142D01*
X160235714Y-112964285D01*
X160197619Y-112921428D01*
X160159523Y-112835714D01*
X160159523Y-112750000D01*
X160197619Y-112664285D01*
X160235714Y-112621428D01*
X160311904Y-112578571D01*
X160464285Y-112535714D01*
X160540476Y-112492857D01*
X160578571Y-112450000D01*
X160616666Y-112364285D01*
X160616666Y-112278571D01*
X160578571Y-112192857D01*
X160540476Y-112150000D01*
X160464285Y-112107142D01*
X160273809Y-112107142D01*
X160159523Y-112150000D01*
X159892857Y-112107142D02*
X159702380Y-113007142D01*
X159550000Y-112364285D01*
X159397619Y-113007142D01*
X159207142Y-112107142D01*
X158978571Y-112107142D02*
X158483333Y-112107142D01*
X158750000Y-112450000D01*
X158635714Y-112450000D01*
X158559523Y-112492857D01*
X158521428Y-112535714D01*
X158483333Y-112621428D01*
X158483333Y-112835714D01*
X158521428Y-112921428D01*
X158559523Y-112964285D01*
X158635714Y-113007142D01*
X158864285Y-113007142D01*
X158940476Y-112964285D01*
X158978571Y-112921428D01*
%TO.C,SW4*%
X125616666Y-113214285D02*
X125502380Y-113257142D01*
X125311904Y-113257142D01*
X125235714Y-113214285D01*
X125197619Y-113171428D01*
X125159523Y-113085714D01*
X125159523Y-113000000D01*
X125197619Y-112914285D01*
X125235714Y-112871428D01*
X125311904Y-112828571D01*
X125464285Y-112785714D01*
X125540476Y-112742857D01*
X125578571Y-112700000D01*
X125616666Y-112614285D01*
X125616666Y-112528571D01*
X125578571Y-112442857D01*
X125540476Y-112400000D01*
X125464285Y-112357142D01*
X125273809Y-112357142D01*
X125159523Y-112400000D01*
X124892857Y-112357142D02*
X124702380Y-113257142D01*
X124550000Y-112614285D01*
X124397619Y-113257142D01*
X124207142Y-112357142D01*
X123559523Y-112657142D02*
X123559523Y-113257142D01*
X123750000Y-112314285D02*
X123940476Y-112957142D01*
X123445238Y-112957142D01*
%TO.C,SW5*%
X100366666Y-101314285D02*
X100252380Y-101357142D01*
X100061904Y-101357142D01*
X99985714Y-101314285D01*
X99947619Y-101271428D01*
X99909523Y-101185714D01*
X99909523Y-101100000D01*
X99947619Y-101014285D01*
X99985714Y-100971428D01*
X100061904Y-100928571D01*
X100214285Y-100885714D01*
X100290476Y-100842857D01*
X100328571Y-100800000D01*
X100366666Y-100714285D01*
X100366666Y-100628571D01*
X100328571Y-100542857D01*
X100290476Y-100500000D01*
X100214285Y-100457142D01*
X100023809Y-100457142D01*
X99909523Y-100500000D01*
X99642857Y-100457142D02*
X99452380Y-101357142D01*
X99300000Y-100714285D01*
X99147619Y-101357142D01*
X98957142Y-100457142D01*
X98271428Y-100457142D02*
X98652380Y-100457142D01*
X98690476Y-100885714D01*
X98652380Y-100842857D01*
X98576190Y-100800000D01*
X98385714Y-100800000D01*
X98309523Y-100842857D01*
X98271428Y-100885714D01*
X98233333Y-100971428D01*
X98233333Y-101185714D01*
X98271428Y-101271428D01*
X98309523Y-101314285D01*
X98385714Y-101357142D01*
X98576190Y-101357142D01*
X98652380Y-101314285D01*
X98690476Y-101271428D01*
%TO.C,SW6*%
X79966666Y-101314285D02*
X79852380Y-101357142D01*
X79661904Y-101357142D01*
X79585714Y-101314285D01*
X79547619Y-101271428D01*
X79509523Y-101185714D01*
X79509523Y-101100000D01*
X79547619Y-101014285D01*
X79585714Y-100971428D01*
X79661904Y-100928571D01*
X79814285Y-100885714D01*
X79890476Y-100842857D01*
X79928571Y-100800000D01*
X79966666Y-100714285D01*
X79966666Y-100628571D01*
X79928571Y-100542857D01*
X79890476Y-100500000D01*
X79814285Y-100457142D01*
X79623809Y-100457142D01*
X79509523Y-100500000D01*
X79242857Y-100457142D02*
X79052380Y-101357142D01*
X78900000Y-100714285D01*
X78747619Y-101357142D01*
X78557142Y-100457142D01*
X77909523Y-100457142D02*
X78061904Y-100457142D01*
X78138095Y-100500000D01*
X78176190Y-100542857D01*
X78252380Y-100671428D01*
X78290476Y-100842857D01*
X78290476Y-101185714D01*
X78252380Y-101271428D01*
X78214285Y-101314285D01*
X78138095Y-101357142D01*
X77985714Y-101357142D01*
X77909523Y-101314285D01*
X77871428Y-101271428D01*
X77833333Y-101185714D01*
X77833333Y-100971428D01*
X77871428Y-100885714D01*
X77909523Y-100842857D01*
X77985714Y-100800000D01*
X78138095Y-100800000D01*
X78214285Y-100842857D01*
X78252380Y-100885714D01*
X78290476Y-100971428D01*
%TD*%
M02*
