%TF.GenerationSoftware,KiCad,Pcbnew,(5.1.10)-1*%
%TF.CreationDate,2025-10-24T10:03:21+03:00*%
%TF.ProjectId,PANEL ASSY,50414e45-4c20-4415-9353-592e6b696361,rev?*%
%TF.SameCoordinates,Original*%
%TF.FileFunction,Soldermask,Top*%
%TF.FilePolarity,Negative*%
%FSLAX46Y46*%
G04 Gerber Fmt 4.6, Leading zero omitted, Abs format (unit mm)*
G04 Created by KiCad (PCBNEW (5.1.10)-1) date 2025-10-24 10:03:21*
%MOMM*%
%LPD*%
G01*
G04 APERTURE LIST*
%ADD10C,2.100000*%
%ADD11C,2.400000*%
G04 APERTURE END LIST*
D10*
%TO.C,J1*%
X88260000Y-114240000D03*
X90800000Y-114240000D03*
X93340000Y-114240000D03*
X95880000Y-114240000D03*
X98420000Y-114240000D03*
X100960000Y-114240000D03*
X103500000Y-114240000D03*
X88260000Y-111700000D03*
X90800000Y-111700000D03*
X93340000Y-111700000D03*
X95880000Y-111700000D03*
X98420000Y-111700000D03*
X100960000Y-111700000D03*
G36*
G01*
X102758823Y-110650000D02*
X104241177Y-110650000D01*
G75*
G02*
X104550000Y-110958823I0J-308823D01*
G01*
X104550000Y-112441177D01*
G75*
G02*
X104241177Y-112750000I-308823J0D01*
G01*
X102758823Y-112750000D01*
G75*
G02*
X102450000Y-112441177I0J308823D01*
G01*
X102450000Y-110958823D01*
G75*
G02*
X102758823Y-110650000I308823J0D01*
G01*
G37*
%TD*%
%TO.C,C1*%
G36*
G01*
X159157000Y-111000000D02*
X157843000Y-111000000D01*
G75*
G02*
X157675000Y-110832000I0J168000D01*
G01*
X157675000Y-109768000D01*
G75*
G02*
X157843000Y-109600000I168000J0D01*
G01*
X159157000Y-109600000D01*
G75*
G02*
X159325000Y-109768000I0J-168000D01*
G01*
X159325000Y-110832000D01*
G75*
G02*
X159157000Y-111000000I-168000J0D01*
G01*
G37*
G36*
G01*
X159157000Y-109000000D02*
X157843000Y-109000000D01*
G75*
G02*
X157675000Y-108832000I0J168000D01*
G01*
X157675000Y-107768000D01*
G75*
G02*
X157843000Y-107600000I168000J0D01*
G01*
X159157000Y-107600000D01*
G75*
G02*
X159325000Y-107768000I0J-168000D01*
G01*
X159325000Y-108832000D01*
G75*
G02*
X159157000Y-109000000I-168000J0D01*
G01*
G37*
%TD*%
%TO.C,C2*%
G36*
G01*
X93000000Y-106157000D02*
X93000000Y-104843000D01*
G75*
G02*
X93168000Y-104675000I168000J0D01*
G01*
X94232000Y-104675000D01*
G75*
G02*
X94400000Y-104843000I0J-168000D01*
G01*
X94400000Y-106157000D01*
G75*
G02*
X94232000Y-106325000I-168000J0D01*
G01*
X93168000Y-106325000D01*
G75*
G02*
X93000000Y-106157000I0J168000D01*
G01*
G37*
G36*
G01*
X91000000Y-106157000D02*
X91000000Y-104843000D01*
G75*
G02*
X91168000Y-104675000I168000J0D01*
G01*
X92232000Y-104675000D01*
G75*
G02*
X92400000Y-104843000I0J-168000D01*
G01*
X92400000Y-106157000D01*
G75*
G02*
X92232000Y-106325000I-168000J0D01*
G01*
X91168000Y-106325000D01*
G75*
G02*
X91000000Y-106157000I0J168000D01*
G01*
G37*
%TD*%
%TO.C,Q1*%
G36*
G01*
X233600000Y-104940000D02*
X233600000Y-103960000D01*
G75*
G02*
X233810000Y-103750000I210000J0D01*
G01*
X235190000Y-103750000D01*
G75*
G02*
X235400000Y-103960000I0J-210000D01*
G01*
X235400000Y-104940000D01*
G75*
G02*
X235190000Y-105150000I-210000J0D01*
G01*
X233810000Y-105150000D01*
G75*
G02*
X233600000Y-104940000I0J210000D01*
G01*
G37*
G36*
G01*
X233600000Y-106840000D02*
X233600000Y-105860000D01*
G75*
G02*
X233810000Y-105650000I210000J0D01*
G01*
X235190000Y-105650000D01*
G75*
G02*
X235400000Y-105860000I0J-210000D01*
G01*
X235400000Y-106840000D01*
G75*
G02*
X235190000Y-107050000I-210000J0D01*
G01*
X233810000Y-107050000D01*
G75*
G02*
X233600000Y-106840000I0J210000D01*
G01*
G37*
G36*
G01*
X235800000Y-105890000D02*
X235800000Y-104910000D01*
G75*
G02*
X236010000Y-104700000I210000J0D01*
G01*
X237390000Y-104700000D01*
G75*
G02*
X237600000Y-104910000I0J-210000D01*
G01*
X237600000Y-105890000D01*
G75*
G02*
X237390000Y-106100000I-210000J0D01*
G01*
X236010000Y-106100000D01*
G75*
G02*
X235800000Y-105890000I0J210000D01*
G01*
G37*
%TD*%
%TO.C,Q2*%
G36*
G01*
X200300000Y-105890000D02*
X200300000Y-104910000D01*
G75*
G02*
X200510000Y-104700000I210000J0D01*
G01*
X201890000Y-104700000D01*
G75*
G02*
X202100000Y-104910000I0J-210000D01*
G01*
X202100000Y-105890000D01*
G75*
G02*
X201890000Y-106100000I-210000J0D01*
G01*
X200510000Y-106100000D01*
G75*
G02*
X200300000Y-105890000I0J210000D01*
G01*
G37*
G36*
G01*
X198100000Y-106840000D02*
X198100000Y-105860000D01*
G75*
G02*
X198310000Y-105650000I210000J0D01*
G01*
X199690000Y-105650000D01*
G75*
G02*
X199900000Y-105860000I0J-210000D01*
G01*
X199900000Y-106840000D01*
G75*
G02*
X199690000Y-107050000I-210000J0D01*
G01*
X198310000Y-107050000D01*
G75*
G02*
X198100000Y-106840000I0J210000D01*
G01*
G37*
G36*
G01*
X198100000Y-104940000D02*
X198100000Y-103960000D01*
G75*
G02*
X198310000Y-103750000I210000J0D01*
G01*
X199690000Y-103750000D01*
G75*
G02*
X199900000Y-103960000I0J-210000D01*
G01*
X199900000Y-104940000D01*
G75*
G02*
X199690000Y-105150000I-210000J0D01*
G01*
X198310000Y-105150000D01*
G75*
G02*
X198100000Y-104940000I0J210000D01*
G01*
G37*
%TD*%
%TO.C,Q3*%
G36*
G01*
X164800000Y-105890000D02*
X164800000Y-104910000D01*
G75*
G02*
X165010000Y-104700000I210000J0D01*
G01*
X166390000Y-104700000D01*
G75*
G02*
X166600000Y-104910000I0J-210000D01*
G01*
X166600000Y-105890000D01*
G75*
G02*
X166390000Y-106100000I-210000J0D01*
G01*
X165010000Y-106100000D01*
G75*
G02*
X164800000Y-105890000I0J210000D01*
G01*
G37*
G36*
G01*
X162600000Y-106840000D02*
X162600000Y-105860000D01*
G75*
G02*
X162810000Y-105650000I210000J0D01*
G01*
X164190000Y-105650000D01*
G75*
G02*
X164400000Y-105860000I0J-210000D01*
G01*
X164400000Y-106840000D01*
G75*
G02*
X164190000Y-107050000I-210000J0D01*
G01*
X162810000Y-107050000D01*
G75*
G02*
X162600000Y-106840000I0J210000D01*
G01*
G37*
G36*
G01*
X162600000Y-104940000D02*
X162600000Y-103960000D01*
G75*
G02*
X162810000Y-103750000I210000J0D01*
G01*
X164190000Y-103750000D01*
G75*
G02*
X164400000Y-103960000I0J-210000D01*
G01*
X164400000Y-104940000D01*
G75*
G02*
X164190000Y-105150000I-210000J0D01*
G01*
X162810000Y-105150000D01*
G75*
G02*
X162600000Y-104940000I0J210000D01*
G01*
G37*
%TD*%
%TO.C,Q4*%
G36*
G01*
X127100000Y-104940000D02*
X127100000Y-103960000D01*
G75*
G02*
X127310000Y-103750000I210000J0D01*
G01*
X128690000Y-103750000D01*
G75*
G02*
X128900000Y-103960000I0J-210000D01*
G01*
X128900000Y-104940000D01*
G75*
G02*
X128690000Y-105150000I-210000J0D01*
G01*
X127310000Y-105150000D01*
G75*
G02*
X127100000Y-104940000I0J210000D01*
G01*
G37*
G36*
G01*
X127100000Y-106840000D02*
X127100000Y-105860000D01*
G75*
G02*
X127310000Y-105650000I210000J0D01*
G01*
X128690000Y-105650000D01*
G75*
G02*
X128900000Y-105860000I0J-210000D01*
G01*
X128900000Y-106840000D01*
G75*
G02*
X128690000Y-107050000I-210000J0D01*
G01*
X127310000Y-107050000D01*
G75*
G02*
X127100000Y-106840000I0J210000D01*
G01*
G37*
G36*
G01*
X129300000Y-105890000D02*
X129300000Y-104910000D01*
G75*
G02*
X129510000Y-104700000I210000J0D01*
G01*
X130890000Y-104700000D01*
G75*
G02*
X131100000Y-104910000I0J-210000D01*
G01*
X131100000Y-105890000D01*
G75*
G02*
X130890000Y-106100000I-210000J0D01*
G01*
X129510000Y-106100000D01*
G75*
G02*
X129300000Y-105890000I0J210000D01*
G01*
G37*
%TD*%
%TO.C,R1*%
G36*
G01*
X117315000Y-108000000D02*
X116285000Y-108000000D01*
G75*
G02*
X116150000Y-107865000I0J135000D01*
G01*
X116150000Y-107235000D01*
G75*
G02*
X116285000Y-107100000I135000J0D01*
G01*
X117315000Y-107100000D01*
G75*
G02*
X117450000Y-107235000I0J-135000D01*
G01*
X117450000Y-107865000D01*
G75*
G02*
X117315000Y-108000000I-135000J0D01*
G01*
G37*
G36*
G01*
X117315000Y-109500000D02*
X116285000Y-109500000D01*
G75*
G02*
X116150000Y-109365000I0J135000D01*
G01*
X116150000Y-108735000D01*
G75*
G02*
X116285000Y-108600000I135000J0D01*
G01*
X117315000Y-108600000D01*
G75*
G02*
X117450000Y-108735000I0J-135000D01*
G01*
X117450000Y-109365000D01*
G75*
G02*
X117315000Y-109500000I-135000J0D01*
G01*
G37*
%TD*%
%TO.C,R2*%
G36*
G01*
X116285000Y-110600000D02*
X117315000Y-110600000D01*
G75*
G02*
X117450000Y-110735000I0J-135000D01*
G01*
X117450000Y-111365000D01*
G75*
G02*
X117315000Y-111500000I-135000J0D01*
G01*
X116285000Y-111500000D01*
G75*
G02*
X116150000Y-111365000I0J135000D01*
G01*
X116150000Y-110735000D01*
G75*
G02*
X116285000Y-110600000I135000J0D01*
G01*
G37*
G36*
G01*
X116285000Y-112100000D02*
X117315000Y-112100000D01*
G75*
G02*
X117450000Y-112235000I0J-135000D01*
G01*
X117450000Y-112865000D01*
G75*
G02*
X117315000Y-113000000I-135000J0D01*
G01*
X116285000Y-113000000D01*
G75*
G02*
X116150000Y-112865000I0J135000D01*
G01*
X116150000Y-112235000D01*
G75*
G02*
X116285000Y-112100000I135000J0D01*
G01*
G37*
%TD*%
%TO.C,R3*%
G36*
G01*
X233215000Y-104200000D02*
X232185000Y-104200000D01*
G75*
G02*
X232050000Y-104065000I0J135000D01*
G01*
X232050000Y-103435000D01*
G75*
G02*
X232185000Y-103300000I135000J0D01*
G01*
X233215000Y-103300000D01*
G75*
G02*
X233350000Y-103435000I0J-135000D01*
G01*
X233350000Y-104065000D01*
G75*
G02*
X233215000Y-104200000I-135000J0D01*
G01*
G37*
G36*
G01*
X233215000Y-102700000D02*
X232185000Y-102700000D01*
G75*
G02*
X232050000Y-102565000I0J135000D01*
G01*
X232050000Y-101935000D01*
G75*
G02*
X232185000Y-101800000I135000J0D01*
G01*
X233215000Y-101800000D01*
G75*
G02*
X233350000Y-101935000I0J-135000D01*
G01*
X233350000Y-102565000D01*
G75*
G02*
X233215000Y-102700000I-135000J0D01*
G01*
G37*
%TD*%
%TO.C,R4*%
G36*
G01*
X233215000Y-106800000D02*
X232185000Y-106800000D01*
G75*
G02*
X232050000Y-106665000I0J135000D01*
G01*
X232050000Y-106035000D01*
G75*
G02*
X232185000Y-105900000I135000J0D01*
G01*
X233215000Y-105900000D01*
G75*
G02*
X233350000Y-106035000I0J-135000D01*
G01*
X233350000Y-106665000D01*
G75*
G02*
X233215000Y-106800000I-135000J0D01*
G01*
G37*
G36*
G01*
X233215000Y-105300000D02*
X232185000Y-105300000D01*
G75*
G02*
X232050000Y-105165000I0J135000D01*
G01*
X232050000Y-104535000D01*
G75*
G02*
X232185000Y-104400000I135000J0D01*
G01*
X233215000Y-104400000D01*
G75*
G02*
X233350000Y-104535000I0J-135000D01*
G01*
X233350000Y-105165000D01*
G75*
G02*
X233215000Y-105300000I-135000J0D01*
G01*
G37*
%TD*%
%TO.C,R5*%
G36*
G01*
X121285000Y-111200000D02*
X122315000Y-111200000D01*
G75*
G02*
X122450000Y-111335000I0J-135000D01*
G01*
X122450000Y-111965000D01*
G75*
G02*
X122315000Y-112100000I-135000J0D01*
G01*
X121285000Y-112100000D01*
G75*
G02*
X121150000Y-111965000I0J135000D01*
G01*
X121150000Y-111335000D01*
G75*
G02*
X121285000Y-111200000I135000J0D01*
G01*
G37*
G36*
G01*
X121285000Y-112700000D02*
X122315000Y-112700000D01*
G75*
G02*
X122450000Y-112835000I0J-135000D01*
G01*
X122450000Y-113465000D01*
G75*
G02*
X122315000Y-113600000I-135000J0D01*
G01*
X121285000Y-113600000D01*
G75*
G02*
X121150000Y-113465000I0J135000D01*
G01*
X121150000Y-112835000D01*
G75*
G02*
X121285000Y-112700000I135000J0D01*
G01*
G37*
%TD*%
%TO.C,R6*%
G36*
G01*
X239015000Y-106300000D02*
X237985000Y-106300000D01*
G75*
G02*
X237850000Y-106165000I0J135000D01*
G01*
X237850000Y-105535000D01*
G75*
G02*
X237985000Y-105400000I135000J0D01*
G01*
X239015000Y-105400000D01*
G75*
G02*
X239150000Y-105535000I0J-135000D01*
G01*
X239150000Y-106165000D01*
G75*
G02*
X239015000Y-106300000I-135000J0D01*
G01*
G37*
G36*
G01*
X239015000Y-107800000D02*
X237985000Y-107800000D01*
G75*
G02*
X237850000Y-107665000I0J135000D01*
G01*
X237850000Y-107035000D01*
G75*
G02*
X237985000Y-106900000I135000J0D01*
G01*
X239015000Y-106900000D01*
G75*
G02*
X239150000Y-107035000I0J-135000D01*
G01*
X239150000Y-107665000D01*
G75*
G02*
X239015000Y-107800000I-135000J0D01*
G01*
G37*
%TD*%
%TO.C,R7*%
G36*
G01*
X226585000Y-108400000D02*
X227615000Y-108400000D01*
G75*
G02*
X227750000Y-108535000I0J-135000D01*
G01*
X227750000Y-109165000D01*
G75*
G02*
X227615000Y-109300000I-135000J0D01*
G01*
X226585000Y-109300000D01*
G75*
G02*
X226450000Y-109165000I0J135000D01*
G01*
X226450000Y-108535000D01*
G75*
G02*
X226585000Y-108400000I135000J0D01*
G01*
G37*
G36*
G01*
X226585000Y-109900000D02*
X227615000Y-109900000D01*
G75*
G02*
X227750000Y-110035000I0J-135000D01*
G01*
X227750000Y-110665000D01*
G75*
G02*
X227615000Y-110800000I-135000J0D01*
G01*
X226585000Y-110800000D01*
G75*
G02*
X226450000Y-110665000I0J135000D01*
G01*
X226450000Y-110035000D01*
G75*
G02*
X226585000Y-109900000I135000J0D01*
G01*
G37*
%TD*%
%TO.C,R8*%
G36*
G01*
X234600000Y-108915000D02*
X234600000Y-107885000D01*
G75*
G02*
X234735000Y-107750000I135000J0D01*
G01*
X235365000Y-107750000D01*
G75*
G02*
X235500000Y-107885000I0J-135000D01*
G01*
X235500000Y-108915000D01*
G75*
G02*
X235365000Y-109050000I-135000J0D01*
G01*
X234735000Y-109050000D01*
G75*
G02*
X234600000Y-108915000I0J135000D01*
G01*
G37*
G36*
G01*
X236100000Y-108915000D02*
X236100000Y-107885000D01*
G75*
G02*
X236235000Y-107750000I135000J0D01*
G01*
X236865000Y-107750000D01*
G75*
G02*
X237000000Y-107885000I0J-135000D01*
G01*
X237000000Y-108915000D01*
G75*
G02*
X236865000Y-109050000I-135000J0D01*
G01*
X236235000Y-109050000D01*
G75*
G02*
X236100000Y-108915000I0J135000D01*
G01*
G37*
%TD*%
%TO.C,R9*%
G36*
G01*
X126600000Y-112285000D02*
X126600000Y-113315000D01*
G75*
G02*
X126465000Y-113450000I-135000J0D01*
G01*
X125835000Y-113450000D01*
G75*
G02*
X125700000Y-113315000I0J135000D01*
G01*
X125700000Y-112285000D01*
G75*
G02*
X125835000Y-112150000I135000J0D01*
G01*
X126465000Y-112150000D01*
G75*
G02*
X126600000Y-112285000I0J-135000D01*
G01*
G37*
G36*
G01*
X125100000Y-112285000D02*
X125100000Y-113315000D01*
G75*
G02*
X124965000Y-113450000I-135000J0D01*
G01*
X124335000Y-113450000D01*
G75*
G02*
X124200000Y-113315000I0J135000D01*
G01*
X124200000Y-112285000D01*
G75*
G02*
X124335000Y-112150000I135000J0D01*
G01*
X124965000Y-112150000D01*
G75*
G02*
X125100000Y-112285000I0J-135000D01*
G01*
G37*
%TD*%
%TO.C,R10*%
G36*
G01*
X240100000Y-109085000D02*
X240100000Y-110115000D01*
G75*
G02*
X239965000Y-110250000I-135000J0D01*
G01*
X239335000Y-110250000D01*
G75*
G02*
X239200000Y-110115000I0J135000D01*
G01*
X239200000Y-109085000D01*
G75*
G02*
X239335000Y-108950000I135000J0D01*
G01*
X239965000Y-108950000D01*
G75*
G02*
X240100000Y-109085000I0J-135000D01*
G01*
G37*
G36*
G01*
X241600000Y-109085000D02*
X241600000Y-110115000D01*
G75*
G02*
X241465000Y-110250000I-135000J0D01*
G01*
X240835000Y-110250000D01*
G75*
G02*
X240700000Y-110115000I0J135000D01*
G01*
X240700000Y-109085000D01*
G75*
G02*
X240835000Y-108950000I135000J0D01*
G01*
X241465000Y-108950000D01*
G75*
G02*
X241600000Y-109085000I0J-135000D01*
G01*
G37*
%TD*%
%TO.C,R11*%
G36*
G01*
X197715000Y-102700000D02*
X196685000Y-102700000D01*
G75*
G02*
X196550000Y-102565000I0J135000D01*
G01*
X196550000Y-101935000D01*
G75*
G02*
X196685000Y-101800000I135000J0D01*
G01*
X197715000Y-101800000D01*
G75*
G02*
X197850000Y-101935000I0J-135000D01*
G01*
X197850000Y-102565000D01*
G75*
G02*
X197715000Y-102700000I-135000J0D01*
G01*
G37*
G36*
G01*
X197715000Y-104200000D02*
X196685000Y-104200000D01*
G75*
G02*
X196550000Y-104065000I0J135000D01*
G01*
X196550000Y-103435000D01*
G75*
G02*
X196685000Y-103300000I135000J0D01*
G01*
X197715000Y-103300000D01*
G75*
G02*
X197850000Y-103435000I0J-135000D01*
G01*
X197850000Y-104065000D01*
G75*
G02*
X197715000Y-104200000I-135000J0D01*
G01*
G37*
%TD*%
%TO.C,R12*%
G36*
G01*
X197715000Y-105300000D02*
X196685000Y-105300000D01*
G75*
G02*
X196550000Y-105165000I0J135000D01*
G01*
X196550000Y-104535000D01*
G75*
G02*
X196685000Y-104400000I135000J0D01*
G01*
X197715000Y-104400000D01*
G75*
G02*
X197850000Y-104535000I0J-135000D01*
G01*
X197850000Y-105165000D01*
G75*
G02*
X197715000Y-105300000I-135000J0D01*
G01*
G37*
G36*
G01*
X197715000Y-106800000D02*
X196685000Y-106800000D01*
G75*
G02*
X196550000Y-106665000I0J135000D01*
G01*
X196550000Y-106035000D01*
G75*
G02*
X196685000Y-105900000I135000J0D01*
G01*
X197715000Y-105900000D01*
G75*
G02*
X197850000Y-106035000I0J-135000D01*
G01*
X197850000Y-106665000D01*
G75*
G02*
X197715000Y-106800000I-135000J0D01*
G01*
G37*
%TD*%
%TO.C,R13*%
G36*
G01*
X102315000Y-104000000D02*
X101285000Y-104000000D01*
G75*
G02*
X101150000Y-103865000I0J135000D01*
G01*
X101150000Y-103235000D01*
G75*
G02*
X101285000Y-103100000I135000J0D01*
G01*
X102315000Y-103100000D01*
G75*
G02*
X102450000Y-103235000I0J-135000D01*
G01*
X102450000Y-103865000D01*
G75*
G02*
X102315000Y-104000000I-135000J0D01*
G01*
G37*
G36*
G01*
X102315000Y-102500000D02*
X101285000Y-102500000D01*
G75*
G02*
X101150000Y-102365000I0J135000D01*
G01*
X101150000Y-101735000D01*
G75*
G02*
X101285000Y-101600000I135000J0D01*
G01*
X102315000Y-101600000D01*
G75*
G02*
X102450000Y-101735000I0J-135000D01*
G01*
X102450000Y-102365000D01*
G75*
G02*
X102315000Y-102500000I-135000J0D01*
G01*
G37*
%TD*%
%TO.C,R14*%
G36*
G01*
X203515000Y-106300000D02*
X202485000Y-106300000D01*
G75*
G02*
X202350000Y-106165000I0J135000D01*
G01*
X202350000Y-105535000D01*
G75*
G02*
X202485000Y-105400000I135000J0D01*
G01*
X203515000Y-105400000D01*
G75*
G02*
X203650000Y-105535000I0J-135000D01*
G01*
X203650000Y-106165000D01*
G75*
G02*
X203515000Y-106300000I-135000J0D01*
G01*
G37*
G36*
G01*
X203515000Y-107800000D02*
X202485000Y-107800000D01*
G75*
G02*
X202350000Y-107665000I0J135000D01*
G01*
X202350000Y-107035000D01*
G75*
G02*
X202485000Y-106900000I135000J0D01*
G01*
X203515000Y-106900000D01*
G75*
G02*
X203650000Y-107035000I0J-135000D01*
G01*
X203650000Y-107665000D01*
G75*
G02*
X203515000Y-107800000I-135000J0D01*
G01*
G37*
%TD*%
%TO.C,R15*%
G36*
G01*
X191085000Y-109900000D02*
X192115000Y-109900000D01*
G75*
G02*
X192250000Y-110035000I0J-135000D01*
G01*
X192250000Y-110665000D01*
G75*
G02*
X192115000Y-110800000I-135000J0D01*
G01*
X191085000Y-110800000D01*
G75*
G02*
X190950000Y-110665000I0J135000D01*
G01*
X190950000Y-110035000D01*
G75*
G02*
X191085000Y-109900000I135000J0D01*
G01*
G37*
G36*
G01*
X191085000Y-108400000D02*
X192115000Y-108400000D01*
G75*
G02*
X192250000Y-108535000I0J-135000D01*
G01*
X192250000Y-109165000D01*
G75*
G02*
X192115000Y-109300000I-135000J0D01*
G01*
X191085000Y-109300000D01*
G75*
G02*
X190950000Y-109165000I0J135000D01*
G01*
X190950000Y-108535000D01*
G75*
G02*
X191085000Y-108400000I135000J0D01*
G01*
G37*
%TD*%
%TO.C,R16*%
G36*
G01*
X200600000Y-108915000D02*
X200600000Y-107885000D01*
G75*
G02*
X200735000Y-107750000I135000J0D01*
G01*
X201365000Y-107750000D01*
G75*
G02*
X201500000Y-107885000I0J-135000D01*
G01*
X201500000Y-108915000D01*
G75*
G02*
X201365000Y-109050000I-135000J0D01*
G01*
X200735000Y-109050000D01*
G75*
G02*
X200600000Y-108915000I0J135000D01*
G01*
G37*
G36*
G01*
X199100000Y-108915000D02*
X199100000Y-107885000D01*
G75*
G02*
X199235000Y-107750000I135000J0D01*
G01*
X199865000Y-107750000D01*
G75*
G02*
X200000000Y-107885000I0J-135000D01*
G01*
X200000000Y-108915000D01*
G75*
G02*
X199865000Y-109050000I-135000J0D01*
G01*
X199235000Y-109050000D01*
G75*
G02*
X199100000Y-108915000I0J135000D01*
G01*
G37*
%TD*%
%TO.C,R17*%
G36*
G01*
X211485000Y-109900000D02*
X212515000Y-109900000D01*
G75*
G02*
X212650000Y-110035000I0J-135000D01*
G01*
X212650000Y-110665000D01*
G75*
G02*
X212515000Y-110800000I-135000J0D01*
G01*
X211485000Y-110800000D01*
G75*
G02*
X211350000Y-110665000I0J135000D01*
G01*
X211350000Y-110035000D01*
G75*
G02*
X211485000Y-109900000I135000J0D01*
G01*
G37*
G36*
G01*
X211485000Y-108400000D02*
X212515000Y-108400000D01*
G75*
G02*
X212650000Y-108535000I0J-135000D01*
G01*
X212650000Y-109165000D01*
G75*
G02*
X212515000Y-109300000I-135000J0D01*
G01*
X211485000Y-109300000D01*
G75*
G02*
X211350000Y-109165000I0J135000D01*
G01*
X211350000Y-108535000D01*
G75*
G02*
X211485000Y-108400000I135000J0D01*
G01*
G37*
%TD*%
%TO.C,R18*%
G36*
G01*
X83400000Y-106015000D02*
X83400000Y-104985000D01*
G75*
G02*
X83535000Y-104850000I135000J0D01*
G01*
X84165000Y-104850000D01*
G75*
G02*
X84300000Y-104985000I0J-135000D01*
G01*
X84300000Y-106015000D01*
G75*
G02*
X84165000Y-106150000I-135000J0D01*
G01*
X83535000Y-106150000D01*
G75*
G02*
X83400000Y-106015000I0J135000D01*
G01*
G37*
G36*
G01*
X84900000Y-106015000D02*
X84900000Y-104985000D01*
G75*
G02*
X85035000Y-104850000I135000J0D01*
G01*
X85665000Y-104850000D01*
G75*
G02*
X85800000Y-104985000I0J-135000D01*
G01*
X85800000Y-106015000D01*
G75*
G02*
X85665000Y-106150000I-135000J0D01*
G01*
X85035000Y-106150000D01*
G75*
G02*
X84900000Y-106015000I0J135000D01*
G01*
G37*
%TD*%
%TO.C,R19*%
G36*
G01*
X162215000Y-102700000D02*
X161185000Y-102700000D01*
G75*
G02*
X161050000Y-102565000I0J135000D01*
G01*
X161050000Y-101935000D01*
G75*
G02*
X161185000Y-101800000I135000J0D01*
G01*
X162215000Y-101800000D01*
G75*
G02*
X162350000Y-101935000I0J-135000D01*
G01*
X162350000Y-102565000D01*
G75*
G02*
X162215000Y-102700000I-135000J0D01*
G01*
G37*
G36*
G01*
X162215000Y-104200000D02*
X161185000Y-104200000D01*
G75*
G02*
X161050000Y-104065000I0J135000D01*
G01*
X161050000Y-103435000D01*
G75*
G02*
X161185000Y-103300000I135000J0D01*
G01*
X162215000Y-103300000D01*
G75*
G02*
X162350000Y-103435000I0J-135000D01*
G01*
X162350000Y-104065000D01*
G75*
G02*
X162215000Y-104200000I-135000J0D01*
G01*
G37*
%TD*%
%TO.C,R20*%
G36*
G01*
X162215000Y-106800000D02*
X161185000Y-106800000D01*
G75*
G02*
X161050000Y-106665000I0J135000D01*
G01*
X161050000Y-106035000D01*
G75*
G02*
X161185000Y-105900000I135000J0D01*
G01*
X162215000Y-105900000D01*
G75*
G02*
X162350000Y-106035000I0J-135000D01*
G01*
X162350000Y-106665000D01*
G75*
G02*
X162215000Y-106800000I-135000J0D01*
G01*
G37*
G36*
G01*
X162215000Y-105300000D02*
X161185000Y-105300000D01*
G75*
G02*
X161050000Y-105165000I0J135000D01*
G01*
X161050000Y-104535000D01*
G75*
G02*
X161185000Y-104400000I135000J0D01*
G01*
X162215000Y-104400000D01*
G75*
G02*
X162350000Y-104535000I0J-135000D01*
G01*
X162350000Y-105165000D01*
G75*
G02*
X162215000Y-105300000I-135000J0D01*
G01*
G37*
%TD*%
%TO.C,R21*%
G36*
G01*
X168015000Y-107800000D02*
X166985000Y-107800000D01*
G75*
G02*
X166850000Y-107665000I0J135000D01*
G01*
X166850000Y-107035000D01*
G75*
G02*
X166985000Y-106900000I135000J0D01*
G01*
X168015000Y-106900000D01*
G75*
G02*
X168150000Y-107035000I0J-135000D01*
G01*
X168150000Y-107665000D01*
G75*
G02*
X168015000Y-107800000I-135000J0D01*
G01*
G37*
G36*
G01*
X168015000Y-106300000D02*
X166985000Y-106300000D01*
G75*
G02*
X166850000Y-106165000I0J135000D01*
G01*
X166850000Y-105535000D01*
G75*
G02*
X166985000Y-105400000I135000J0D01*
G01*
X168015000Y-105400000D01*
G75*
G02*
X168150000Y-105535000I0J-135000D01*
G01*
X168150000Y-106165000D01*
G75*
G02*
X168015000Y-106300000I-135000J0D01*
G01*
G37*
%TD*%
%TO.C,R22*%
G36*
G01*
X155585000Y-109900000D02*
X156615000Y-109900000D01*
G75*
G02*
X156750000Y-110035000I0J-135000D01*
G01*
X156750000Y-110665000D01*
G75*
G02*
X156615000Y-110800000I-135000J0D01*
G01*
X155585000Y-110800000D01*
G75*
G02*
X155450000Y-110665000I0J135000D01*
G01*
X155450000Y-110035000D01*
G75*
G02*
X155585000Y-109900000I135000J0D01*
G01*
G37*
G36*
G01*
X155585000Y-108400000D02*
X156615000Y-108400000D01*
G75*
G02*
X156750000Y-108535000I0J-135000D01*
G01*
X156750000Y-109165000D01*
G75*
G02*
X156615000Y-109300000I-135000J0D01*
G01*
X155585000Y-109300000D01*
G75*
G02*
X155450000Y-109165000I0J135000D01*
G01*
X155450000Y-108535000D01*
G75*
G02*
X155585000Y-108400000I135000J0D01*
G01*
G37*
%TD*%
%TO.C,R23*%
G36*
G01*
X165200000Y-108815000D02*
X165200000Y-107785000D01*
G75*
G02*
X165335000Y-107650000I135000J0D01*
G01*
X165965000Y-107650000D01*
G75*
G02*
X166100000Y-107785000I0J-135000D01*
G01*
X166100000Y-108815000D01*
G75*
G02*
X165965000Y-108950000I-135000J0D01*
G01*
X165335000Y-108950000D01*
G75*
G02*
X165200000Y-108815000I0J135000D01*
G01*
G37*
G36*
G01*
X163700000Y-108815000D02*
X163700000Y-107785000D01*
G75*
G02*
X163835000Y-107650000I135000J0D01*
G01*
X164465000Y-107650000D01*
G75*
G02*
X164600000Y-107785000I0J-135000D01*
G01*
X164600000Y-108815000D01*
G75*
G02*
X164465000Y-108950000I-135000J0D01*
G01*
X163835000Y-108950000D01*
G75*
G02*
X163700000Y-108815000I0J135000D01*
G01*
G37*
%TD*%
%TO.C,R24*%
G36*
G01*
X175985000Y-108400000D02*
X177015000Y-108400000D01*
G75*
G02*
X177150000Y-108535000I0J-135000D01*
G01*
X177150000Y-109165000D01*
G75*
G02*
X177015000Y-109300000I-135000J0D01*
G01*
X175985000Y-109300000D01*
G75*
G02*
X175850000Y-109165000I0J135000D01*
G01*
X175850000Y-108535000D01*
G75*
G02*
X175985000Y-108400000I135000J0D01*
G01*
G37*
G36*
G01*
X175985000Y-109900000D02*
X177015000Y-109900000D01*
G75*
G02*
X177150000Y-110035000I0J-135000D01*
G01*
X177150000Y-110665000D01*
G75*
G02*
X177015000Y-110800000I-135000J0D01*
G01*
X175985000Y-110800000D01*
G75*
G02*
X175850000Y-110665000I0J135000D01*
G01*
X175850000Y-110035000D01*
G75*
G02*
X175985000Y-109900000I135000J0D01*
G01*
G37*
%TD*%
%TO.C,R25*%
G36*
G01*
X123800000Y-104385000D02*
X123800000Y-105415000D01*
G75*
G02*
X123665000Y-105550000I-135000J0D01*
G01*
X123035000Y-105550000D01*
G75*
G02*
X122900000Y-105415000I0J135000D01*
G01*
X122900000Y-104385000D01*
G75*
G02*
X123035000Y-104250000I135000J0D01*
G01*
X123665000Y-104250000D01*
G75*
G02*
X123800000Y-104385000I0J-135000D01*
G01*
G37*
G36*
G01*
X125300000Y-104385000D02*
X125300000Y-105415000D01*
G75*
G02*
X125165000Y-105550000I-135000J0D01*
G01*
X124535000Y-105550000D01*
G75*
G02*
X124400000Y-105415000I0J135000D01*
G01*
X124400000Y-104385000D01*
G75*
G02*
X124535000Y-104250000I135000J0D01*
G01*
X125165000Y-104250000D01*
G75*
G02*
X125300000Y-104385000I0J-135000D01*
G01*
G37*
%TD*%
%TO.C,R26*%
G36*
G01*
X126715000Y-106800000D02*
X125685000Y-106800000D01*
G75*
G02*
X125550000Y-106665000I0J135000D01*
G01*
X125550000Y-106035000D01*
G75*
G02*
X125685000Y-105900000I135000J0D01*
G01*
X126715000Y-105900000D01*
G75*
G02*
X126850000Y-106035000I0J-135000D01*
G01*
X126850000Y-106665000D01*
G75*
G02*
X126715000Y-106800000I-135000J0D01*
G01*
G37*
G36*
G01*
X126715000Y-105300000D02*
X125685000Y-105300000D01*
G75*
G02*
X125550000Y-105165000I0J135000D01*
G01*
X125550000Y-104535000D01*
G75*
G02*
X125685000Y-104400000I135000J0D01*
G01*
X126715000Y-104400000D01*
G75*
G02*
X126850000Y-104535000I0J-135000D01*
G01*
X126850000Y-105165000D01*
G75*
G02*
X126715000Y-105300000I-135000J0D01*
G01*
G37*
%TD*%
%TO.C,R27*%
G36*
G01*
X132515000Y-106300000D02*
X131485000Y-106300000D01*
G75*
G02*
X131350000Y-106165000I0J135000D01*
G01*
X131350000Y-105535000D01*
G75*
G02*
X131485000Y-105400000I135000J0D01*
G01*
X132515000Y-105400000D01*
G75*
G02*
X132650000Y-105535000I0J-135000D01*
G01*
X132650000Y-106165000D01*
G75*
G02*
X132515000Y-106300000I-135000J0D01*
G01*
G37*
G36*
G01*
X132515000Y-107800000D02*
X131485000Y-107800000D01*
G75*
G02*
X131350000Y-107665000I0J135000D01*
G01*
X131350000Y-107035000D01*
G75*
G02*
X131485000Y-106900000I135000J0D01*
G01*
X132515000Y-106900000D01*
G75*
G02*
X132650000Y-107035000I0J-135000D01*
G01*
X132650000Y-107665000D01*
G75*
G02*
X132515000Y-107800000I-135000J0D01*
G01*
G37*
%TD*%
%TO.C,R28*%
G36*
G01*
X118800000Y-108115000D02*
X118800000Y-107085000D01*
G75*
G02*
X118935000Y-106950000I135000J0D01*
G01*
X119565000Y-106950000D01*
G75*
G02*
X119700000Y-107085000I0J-135000D01*
G01*
X119700000Y-108115000D01*
G75*
G02*
X119565000Y-108250000I-135000J0D01*
G01*
X118935000Y-108250000D01*
G75*
G02*
X118800000Y-108115000I0J135000D01*
G01*
G37*
G36*
G01*
X120300000Y-108115000D02*
X120300000Y-107085000D01*
G75*
G02*
X120435000Y-106950000I135000J0D01*
G01*
X121065000Y-106950000D01*
G75*
G02*
X121200000Y-107085000I0J-135000D01*
G01*
X121200000Y-108115000D01*
G75*
G02*
X121065000Y-108250000I-135000J0D01*
G01*
X120435000Y-108250000D01*
G75*
G02*
X120300000Y-108115000I0J135000D01*
G01*
G37*
%TD*%
%TO.C,R29*%
G36*
G01*
X128600000Y-108415000D02*
X128600000Y-107385000D01*
G75*
G02*
X128735000Y-107250000I135000J0D01*
G01*
X129365000Y-107250000D01*
G75*
G02*
X129500000Y-107385000I0J-135000D01*
G01*
X129500000Y-108415000D01*
G75*
G02*
X129365000Y-108550000I-135000J0D01*
G01*
X128735000Y-108550000D01*
G75*
G02*
X128600000Y-108415000I0J135000D01*
G01*
G37*
G36*
G01*
X127100000Y-108415000D02*
X127100000Y-107385000D01*
G75*
G02*
X127235000Y-107250000I135000J0D01*
G01*
X127865000Y-107250000D01*
G75*
G02*
X128000000Y-107385000I0J-135000D01*
G01*
X128000000Y-108415000D01*
G75*
G02*
X127865000Y-108550000I-135000J0D01*
G01*
X127235000Y-108550000D01*
G75*
G02*
X127100000Y-108415000I0J135000D01*
G01*
G37*
%TD*%
%TO.C,R30*%
G36*
G01*
X140485000Y-108400000D02*
X141515000Y-108400000D01*
G75*
G02*
X141650000Y-108535000I0J-135000D01*
G01*
X141650000Y-109165000D01*
G75*
G02*
X141515000Y-109300000I-135000J0D01*
G01*
X140485000Y-109300000D01*
G75*
G02*
X140350000Y-109165000I0J135000D01*
G01*
X140350000Y-108535000D01*
G75*
G02*
X140485000Y-108400000I135000J0D01*
G01*
G37*
G36*
G01*
X140485000Y-109900000D02*
X141515000Y-109900000D01*
G75*
G02*
X141650000Y-110035000I0J-135000D01*
G01*
X141650000Y-110665000D01*
G75*
G02*
X141515000Y-110800000I-135000J0D01*
G01*
X140485000Y-110800000D01*
G75*
G02*
X140350000Y-110665000I0J135000D01*
G01*
X140350000Y-110035000D01*
G75*
G02*
X140485000Y-109900000I135000J0D01*
G01*
G37*
%TD*%
D11*
%TO.C,SW1*%
X234760000Y-112800000D03*
X239840000Y-112800000D03*
%TD*%
%TO.C,SW2*%
X204340000Y-112800000D03*
X199260000Y-112800000D03*
%TD*%
%TO.C,SW3*%
X168840000Y-112800000D03*
X163760000Y-112800000D03*
%TD*%
%TO.C,SW4*%
X128260000Y-112800000D03*
X133340000Y-112800000D03*
%TD*%
%TO.C,SW5*%
X96760000Y-105500000D03*
X101840000Y-105500000D03*
%TD*%
%TO.C,SW6*%
X81440000Y-105500000D03*
X76360000Y-105500000D03*
%TD*%
%TO.C,TP1*%
X89200000Y-104400000D03*
%TD*%
%TO.C,TP2*%
X173900000Y-114500000D03*
%TD*%
%TO.C,TP3*%
X243800000Y-114500000D03*
%TD*%
%TO.C,TP4*%
X77500000Y-113900000D03*
%TD*%
M02*
