%TF.GenerationSoftware,KiCad,Pcbnew,(5.1.10)-1*%
%TF.CreationDate,2025-10-24T10:03:21+03:00*%
%TF.ProjectId,PANEL ASSY,50414e45-4c20-4415-9353-592e6b696361,rev?*%
%TF.SameCoordinates,Original*%
%TF.FileFunction,Soldermask,Bot*%
%TF.FilePolarity,Negative*%
%FSLAX46Y46*%
G04 Gerber Fmt 4.6, Leading zero omitted, Abs format (unit mm)*
G04 Created by KiCad (PCBNEW (5.1.10)-1) date 2025-10-24 10:03:21*
%MOMM*%
%LPD*%
G01*
G04 APERTURE LIST*
%ADD10C,2.100000*%
%ADD11C,2.400000*%
G04 APERTURE END LIST*
D10*
%TO.C,J1*%
X88260000Y-114240000D03*
X90800000Y-114240000D03*
X93340000Y-114240000D03*
X95880000Y-114240000D03*
X98420000Y-114240000D03*
X100960000Y-114240000D03*
X103500000Y-114240000D03*
X88260000Y-111700000D03*
X90800000Y-111700000D03*
X93340000Y-111700000D03*
X95880000Y-111700000D03*
X98420000Y-111700000D03*
X100960000Y-111700000D03*
G36*
G01*
X102758823Y-110650000D02*
X104241177Y-110650000D01*
G75*
G02*
X104550000Y-110958823I0J-308823D01*
G01*
X104550000Y-112441177D01*
G75*
G02*
X104241177Y-112750000I-308823J0D01*
G01*
X102758823Y-112750000D01*
G75*
G02*
X102450000Y-112441177I0J308823D01*
G01*
X102450000Y-110958823D01*
G75*
G02*
X102758823Y-110650000I308823J0D01*
G01*
G37*
%TD*%
%TO.C,D1*%
G36*
G01*
X226550000Y-106736955D02*
X226550000Y-107863045D01*
G75*
G02*
X226213045Y-108200000I-336955J0D01*
G01*
X225336955Y-108200000D01*
G75*
G02*
X225000000Y-107863045I0J336955D01*
G01*
X225000000Y-106736955D01*
G75*
G02*
X225336955Y-106400000I336955J0D01*
G01*
X226213045Y-106400000D01*
G75*
G02*
X226550000Y-106736955I0J-336955D01*
G01*
G37*
G36*
G01*
X228600000Y-106736955D02*
X228600000Y-107863045D01*
G75*
G02*
X228263045Y-108200000I-336955J0D01*
G01*
X227386955Y-108200000D01*
G75*
G02*
X227050000Y-107863045I0J336955D01*
G01*
X227050000Y-106736955D01*
G75*
G02*
X227386955Y-106400000I336955J0D01*
G01*
X228263045Y-106400000D01*
G75*
G02*
X228600000Y-106736955I0J-336955D01*
G01*
G37*
%TD*%
%TO.C,D2*%
G36*
G01*
X233550000Y-106736955D02*
X233550000Y-107863045D01*
G75*
G02*
X233213045Y-108200000I-336955J0D01*
G01*
X232336955Y-108200000D01*
G75*
G02*
X232000000Y-107863045I0J336955D01*
G01*
X232000000Y-106736955D01*
G75*
G02*
X232336955Y-106400000I336955J0D01*
G01*
X233213045Y-106400000D01*
G75*
G02*
X233550000Y-106736955I0J-336955D01*
G01*
G37*
G36*
G01*
X235600000Y-106736955D02*
X235600000Y-107863045D01*
G75*
G02*
X235263045Y-108200000I-336955J0D01*
G01*
X234386955Y-108200000D01*
G75*
G02*
X234050000Y-107863045I0J336955D01*
G01*
X234050000Y-106736955D01*
G75*
G02*
X234386955Y-106400000I336955J0D01*
G01*
X235263045Y-106400000D01*
G75*
G02*
X235600000Y-106736955I0J-336955D01*
G01*
G37*
%TD*%
%TO.C,D3*%
G36*
G01*
X246000000Y-107863045D02*
X246000000Y-106736955D01*
G75*
G02*
X246336955Y-106400000I336955J0D01*
G01*
X247213045Y-106400000D01*
G75*
G02*
X247550000Y-106736955I0J-336955D01*
G01*
X247550000Y-107863045D01*
G75*
G02*
X247213045Y-108200000I-336955J0D01*
G01*
X246336955Y-108200000D01*
G75*
G02*
X246000000Y-107863045I0J336955D01*
G01*
G37*
G36*
G01*
X248050000Y-107863045D02*
X248050000Y-106736955D01*
G75*
G02*
X248386955Y-106400000I336955J0D01*
G01*
X249263045Y-106400000D01*
G75*
G02*
X249600000Y-106736955I0J-336955D01*
G01*
X249600000Y-107863045D01*
G75*
G02*
X249263045Y-108200000I-336955J0D01*
G01*
X248386955Y-108200000D01*
G75*
G02*
X248050000Y-107863045I0J336955D01*
G01*
G37*
%TD*%
%TO.C,D4*%
G36*
G01*
X239000000Y-107863045D02*
X239000000Y-106736955D01*
G75*
G02*
X239336955Y-106400000I336955J0D01*
G01*
X240213045Y-106400000D01*
G75*
G02*
X240550000Y-106736955I0J-336955D01*
G01*
X240550000Y-107863045D01*
G75*
G02*
X240213045Y-108200000I-336955J0D01*
G01*
X239336955Y-108200000D01*
G75*
G02*
X239000000Y-107863045I0J336955D01*
G01*
G37*
G36*
G01*
X241050000Y-107863045D02*
X241050000Y-106736955D01*
G75*
G02*
X241386955Y-106400000I336955J0D01*
G01*
X242263045Y-106400000D01*
G75*
G02*
X242600000Y-106736955I0J-336955D01*
G01*
X242600000Y-107863045D01*
G75*
G02*
X242263045Y-108200000I-336955J0D01*
G01*
X241386955Y-108200000D01*
G75*
G02*
X241050000Y-107863045I0J336955D01*
G01*
G37*
%TD*%
%TO.C,D5*%
G36*
G01*
X193100000Y-106736955D02*
X193100000Y-107863045D01*
G75*
G02*
X192763045Y-108200000I-336955J0D01*
G01*
X191886955Y-108200000D01*
G75*
G02*
X191550000Y-107863045I0J336955D01*
G01*
X191550000Y-106736955D01*
G75*
G02*
X191886955Y-106400000I336955J0D01*
G01*
X192763045Y-106400000D01*
G75*
G02*
X193100000Y-106736955I0J-336955D01*
G01*
G37*
G36*
G01*
X191050000Y-106736955D02*
X191050000Y-107863045D01*
G75*
G02*
X190713045Y-108200000I-336955J0D01*
G01*
X189836955Y-108200000D01*
G75*
G02*
X189500000Y-107863045I0J336955D01*
G01*
X189500000Y-106736955D01*
G75*
G02*
X189836955Y-106400000I336955J0D01*
G01*
X190713045Y-106400000D01*
G75*
G02*
X191050000Y-106736955I0J-336955D01*
G01*
G37*
%TD*%
%TO.C,D6*%
G36*
G01*
X200100000Y-106736955D02*
X200100000Y-107863045D01*
G75*
G02*
X199763045Y-108200000I-336955J0D01*
G01*
X198886955Y-108200000D01*
G75*
G02*
X198550000Y-107863045I0J336955D01*
G01*
X198550000Y-106736955D01*
G75*
G02*
X198886955Y-106400000I336955J0D01*
G01*
X199763045Y-106400000D01*
G75*
G02*
X200100000Y-106736955I0J-336955D01*
G01*
G37*
G36*
G01*
X198050000Y-106736955D02*
X198050000Y-107863045D01*
G75*
G02*
X197713045Y-108200000I-336955J0D01*
G01*
X196836955Y-108200000D01*
G75*
G02*
X196500000Y-107863045I0J336955D01*
G01*
X196500000Y-106736955D01*
G75*
G02*
X196836955Y-106400000I336955J0D01*
G01*
X197713045Y-106400000D01*
G75*
G02*
X198050000Y-106736955I0J-336955D01*
G01*
G37*
%TD*%
%TO.C,D7*%
G36*
G01*
X212550000Y-107863045D02*
X212550000Y-106736955D01*
G75*
G02*
X212886955Y-106400000I336955J0D01*
G01*
X213763045Y-106400000D01*
G75*
G02*
X214100000Y-106736955I0J-336955D01*
G01*
X214100000Y-107863045D01*
G75*
G02*
X213763045Y-108200000I-336955J0D01*
G01*
X212886955Y-108200000D01*
G75*
G02*
X212550000Y-107863045I0J336955D01*
G01*
G37*
G36*
G01*
X210500000Y-107863045D02*
X210500000Y-106736955D01*
G75*
G02*
X210836955Y-106400000I336955J0D01*
G01*
X211713045Y-106400000D01*
G75*
G02*
X212050000Y-106736955I0J-336955D01*
G01*
X212050000Y-107863045D01*
G75*
G02*
X211713045Y-108200000I-336955J0D01*
G01*
X210836955Y-108200000D01*
G75*
G02*
X210500000Y-107863045I0J336955D01*
G01*
G37*
%TD*%
%TO.C,D8*%
G36*
G01*
X203500000Y-107863045D02*
X203500000Y-106736955D01*
G75*
G02*
X203836955Y-106400000I336955J0D01*
G01*
X204713045Y-106400000D01*
G75*
G02*
X205050000Y-106736955I0J-336955D01*
G01*
X205050000Y-107863045D01*
G75*
G02*
X204713045Y-108200000I-336955J0D01*
G01*
X203836955Y-108200000D01*
G75*
G02*
X203500000Y-107863045I0J336955D01*
G01*
G37*
G36*
G01*
X205550000Y-107863045D02*
X205550000Y-106736955D01*
G75*
G02*
X205886955Y-106400000I336955J0D01*
G01*
X206763045Y-106400000D01*
G75*
G02*
X207100000Y-106736955I0J-336955D01*
G01*
X207100000Y-107863045D01*
G75*
G02*
X206763045Y-108200000I-336955J0D01*
G01*
X205886955Y-108200000D01*
G75*
G02*
X205550000Y-107863045I0J336955D01*
G01*
G37*
%TD*%
%TO.C,D9*%
G36*
G01*
X157600000Y-106736955D02*
X157600000Y-107863045D01*
G75*
G02*
X157263045Y-108200000I-336955J0D01*
G01*
X156386955Y-108200000D01*
G75*
G02*
X156050000Y-107863045I0J336955D01*
G01*
X156050000Y-106736955D01*
G75*
G02*
X156386955Y-106400000I336955J0D01*
G01*
X157263045Y-106400000D01*
G75*
G02*
X157600000Y-106736955I0J-336955D01*
G01*
G37*
G36*
G01*
X155550000Y-106736955D02*
X155550000Y-107863045D01*
G75*
G02*
X155213045Y-108200000I-336955J0D01*
G01*
X154336955Y-108200000D01*
G75*
G02*
X154000000Y-107863045I0J336955D01*
G01*
X154000000Y-106736955D01*
G75*
G02*
X154336955Y-106400000I336955J0D01*
G01*
X155213045Y-106400000D01*
G75*
G02*
X155550000Y-106736955I0J-336955D01*
G01*
G37*
%TD*%
%TO.C,D10*%
G36*
G01*
X162550000Y-106736955D02*
X162550000Y-107863045D01*
G75*
G02*
X162213045Y-108200000I-336955J0D01*
G01*
X161336955Y-108200000D01*
G75*
G02*
X161000000Y-107863045I0J336955D01*
G01*
X161000000Y-106736955D01*
G75*
G02*
X161336955Y-106400000I336955J0D01*
G01*
X162213045Y-106400000D01*
G75*
G02*
X162550000Y-106736955I0J-336955D01*
G01*
G37*
G36*
G01*
X164600000Y-106736955D02*
X164600000Y-107863045D01*
G75*
G02*
X164263045Y-108200000I-336955J0D01*
G01*
X163386955Y-108200000D01*
G75*
G02*
X163050000Y-107863045I0J336955D01*
G01*
X163050000Y-106736955D01*
G75*
G02*
X163386955Y-106400000I336955J0D01*
G01*
X164263045Y-106400000D01*
G75*
G02*
X164600000Y-106736955I0J-336955D01*
G01*
G37*
%TD*%
%TO.C,D11*%
G36*
G01*
X177050000Y-107863045D02*
X177050000Y-106736955D01*
G75*
G02*
X177386955Y-106400000I336955J0D01*
G01*
X178263045Y-106400000D01*
G75*
G02*
X178600000Y-106736955I0J-336955D01*
G01*
X178600000Y-107863045D01*
G75*
G02*
X178263045Y-108200000I-336955J0D01*
G01*
X177386955Y-108200000D01*
G75*
G02*
X177050000Y-107863045I0J336955D01*
G01*
G37*
G36*
G01*
X175000000Y-107863045D02*
X175000000Y-106736955D01*
G75*
G02*
X175336955Y-106400000I336955J0D01*
G01*
X176213045Y-106400000D01*
G75*
G02*
X176550000Y-106736955I0J-336955D01*
G01*
X176550000Y-107863045D01*
G75*
G02*
X176213045Y-108200000I-336955J0D01*
G01*
X175336955Y-108200000D01*
G75*
G02*
X175000000Y-107863045I0J336955D01*
G01*
G37*
%TD*%
%TO.C,D12*%
G36*
G01*
X170050000Y-107863045D02*
X170050000Y-106736955D01*
G75*
G02*
X170386955Y-106400000I336955J0D01*
G01*
X171263045Y-106400000D01*
G75*
G02*
X171600000Y-106736955I0J-336955D01*
G01*
X171600000Y-107863045D01*
G75*
G02*
X171263045Y-108200000I-336955J0D01*
G01*
X170386955Y-108200000D01*
G75*
G02*
X170050000Y-107863045I0J336955D01*
G01*
G37*
G36*
G01*
X168000000Y-107863045D02*
X168000000Y-106736955D01*
G75*
G02*
X168336955Y-106400000I336955J0D01*
G01*
X169213045Y-106400000D01*
G75*
G02*
X169550000Y-106736955I0J-336955D01*
G01*
X169550000Y-107863045D01*
G75*
G02*
X169213045Y-108200000I-336955J0D01*
G01*
X168336955Y-108200000D01*
G75*
G02*
X168000000Y-107863045I0J336955D01*
G01*
G37*
%TD*%
%TO.C,D13*%
G36*
G01*
X122100000Y-106736955D02*
X122100000Y-107863045D01*
G75*
G02*
X121763045Y-108200000I-336955J0D01*
G01*
X120886955Y-108200000D01*
G75*
G02*
X120550000Y-107863045I0J336955D01*
G01*
X120550000Y-106736955D01*
G75*
G02*
X120886955Y-106400000I336955J0D01*
G01*
X121763045Y-106400000D01*
G75*
G02*
X122100000Y-106736955I0J-336955D01*
G01*
G37*
G36*
G01*
X120050000Y-106736955D02*
X120050000Y-107863045D01*
G75*
G02*
X119713045Y-108200000I-336955J0D01*
G01*
X118836955Y-108200000D01*
G75*
G02*
X118500000Y-107863045I0J336955D01*
G01*
X118500000Y-106736955D01*
G75*
G02*
X118836955Y-106400000I336955J0D01*
G01*
X119713045Y-106400000D01*
G75*
G02*
X120050000Y-106736955I0J-336955D01*
G01*
G37*
%TD*%
%TO.C,D14*%
G36*
G01*
X127050000Y-106736955D02*
X127050000Y-107863045D01*
G75*
G02*
X126713045Y-108200000I-336955J0D01*
G01*
X125836955Y-108200000D01*
G75*
G02*
X125500000Y-107863045I0J336955D01*
G01*
X125500000Y-106736955D01*
G75*
G02*
X125836955Y-106400000I336955J0D01*
G01*
X126713045Y-106400000D01*
G75*
G02*
X127050000Y-106736955I0J-336955D01*
G01*
G37*
G36*
G01*
X129100000Y-106736955D02*
X129100000Y-107863045D01*
G75*
G02*
X128763045Y-108200000I-336955J0D01*
G01*
X127886955Y-108200000D01*
G75*
G02*
X127550000Y-107863045I0J336955D01*
G01*
X127550000Y-106736955D01*
G75*
G02*
X127886955Y-106400000I336955J0D01*
G01*
X128763045Y-106400000D01*
G75*
G02*
X129100000Y-106736955I0J-336955D01*
G01*
G37*
%TD*%
%TO.C,D15*%
G36*
G01*
X139500000Y-107863045D02*
X139500000Y-106736955D01*
G75*
G02*
X139836955Y-106400000I336955J0D01*
G01*
X140713045Y-106400000D01*
G75*
G02*
X141050000Y-106736955I0J-336955D01*
G01*
X141050000Y-107863045D01*
G75*
G02*
X140713045Y-108200000I-336955J0D01*
G01*
X139836955Y-108200000D01*
G75*
G02*
X139500000Y-107863045I0J336955D01*
G01*
G37*
G36*
G01*
X141550000Y-107863045D02*
X141550000Y-106736955D01*
G75*
G02*
X141886955Y-106400000I336955J0D01*
G01*
X142763045Y-106400000D01*
G75*
G02*
X143100000Y-106736955I0J-336955D01*
G01*
X143100000Y-107863045D01*
G75*
G02*
X142763045Y-108200000I-336955J0D01*
G01*
X141886955Y-108200000D01*
G75*
G02*
X141550000Y-107863045I0J336955D01*
G01*
G37*
%TD*%
%TO.C,D16*%
G36*
G01*
X134550000Y-107863045D02*
X134550000Y-106736955D01*
G75*
G02*
X134886955Y-106400000I336955J0D01*
G01*
X135763045Y-106400000D01*
G75*
G02*
X136100000Y-106736955I0J-336955D01*
G01*
X136100000Y-107863045D01*
G75*
G02*
X135763045Y-108200000I-336955J0D01*
G01*
X134886955Y-108200000D01*
G75*
G02*
X134550000Y-107863045I0J336955D01*
G01*
G37*
G36*
G01*
X132500000Y-107863045D02*
X132500000Y-106736955D01*
G75*
G02*
X132836955Y-106400000I336955J0D01*
G01*
X133713045Y-106400000D01*
G75*
G02*
X134050000Y-106736955I0J-336955D01*
G01*
X134050000Y-107863045D01*
G75*
G02*
X133713045Y-108200000I-336955J0D01*
G01*
X132836955Y-108200000D01*
G75*
G02*
X132500000Y-107863045I0J336955D01*
G01*
G37*
%TD*%
D11*
%TO.C,SW1*%
X234760000Y-112800000D03*
X239840000Y-112800000D03*
%TD*%
%TO.C,SW2*%
X204340000Y-112800000D03*
X199260000Y-112800000D03*
%TD*%
%TO.C,SW3*%
X168840000Y-112800000D03*
X163760000Y-112800000D03*
%TD*%
%TO.C,SW4*%
X128260000Y-112800000D03*
X133340000Y-112800000D03*
%TD*%
%TO.C,SW5*%
X96760000Y-105500000D03*
X101840000Y-105500000D03*
%TD*%
%TO.C,SW6*%
X81440000Y-105500000D03*
X76360000Y-105500000D03*
%TD*%
%TO.C,TP1*%
X89200000Y-104400000D03*
%TD*%
%TO.C,TP2*%
X173900000Y-114500000D03*
%TD*%
%TO.C,TP3*%
X243800000Y-114500000D03*
%TD*%
%TO.C,TP4*%
X77500000Y-113900000D03*
%TD*%
M02*
