%TF.GenerationSoftware,KiCad,Pcbnew,(5.1.10)-1*%
%TF.CreationDate,2025-10-16T12:24:03+03:00*%
%TF.ProjectId,PADS,50414453-2e6b-4696-9361-645f70636258,rev?*%
%TF.SameCoordinates,Original*%
%TF.FileFunction,Copper,L2,Bot*%
%TF.FilePolarity,Positive*%
%FSLAX46Y46*%
G04 Gerber Fmt 4.6, Leading zero omitted, Abs format (unit mm)*
G04 Created by KiCad (PCBNEW (5.1.10)-1) date 2025-10-16 12:24:03*
%MOMM*%
%LPD*%
G01*
G04 APERTURE LIST*
%TA.AperFunction,ComponentPad*%
%ADD10C,2.000000*%
%TD*%
%TA.AperFunction,ViaPad*%
%ADD11C,0.800000*%
%TD*%
%TA.AperFunction,ViaPad*%
%ADD12C,0.600000*%
%TD*%
%TA.AperFunction,Conductor*%
%ADD13C,1.500000*%
%TD*%
%TA.AperFunction,Conductor*%
%ADD14C,0.300000*%
%TD*%
%TA.AperFunction,Conductor*%
%ADD15C,0.250000*%
%TD*%
%TA.AperFunction,Conductor*%
%ADD16C,0.700000*%
%TD*%
%TA.AperFunction,Conductor*%
%ADD17C,0.254000*%
%TD*%
%TA.AperFunction,Conductor*%
%ADD18C,0.100000*%
%TD*%
G04 APERTURE END LIST*
D10*
%TO.P,SW5,2*%
%TO.N,GNDD*%
X169400000Y-101790000D03*
%TO.P,SW5,1*%
%TO.N,PAD_4*%
X169400000Y-96710000D03*
%TD*%
%TO.P,SW1,2*%
%TO.N,GNDD*%
X169400000Y-70790000D03*
%TO.P,SW1,1*%
%TO.N,PAD_0*%
X169400000Y-65710000D03*
%TD*%
%TO.P,SW8,2*%
%TO.N,GNDD*%
X76400000Y-101790000D03*
%TO.P,SW8,1*%
%TO.N,PAD_7*%
X76400000Y-96710000D03*
%TD*%
%TO.P,SW4,2*%
%TO.N,GNDD*%
X76400000Y-70790000D03*
%TO.P,SW4,1*%
%TO.N,PAD_3*%
X76400000Y-65710000D03*
%TD*%
%TO.P,SW2,2*%
%TO.N,GNDD*%
X138400000Y-70790000D03*
%TO.P,SW2,1*%
%TO.N,PAD_1*%
X138400000Y-65710000D03*
%TD*%
%TO.P,SW3,2*%
%TO.N,GNDD*%
X107400000Y-70790000D03*
%TO.P,SW3,1*%
%TO.N,PAD_2*%
X107400000Y-65710000D03*
%TD*%
%TO.P,SW6,2*%
%TO.N,GNDD*%
X138400000Y-101790000D03*
%TO.P,SW6,1*%
%TO.N,PAD_5*%
X138400000Y-96710000D03*
%TD*%
%TO.P,SW7,2*%
%TO.N,GNDD*%
X107400000Y-101790000D03*
%TO.P,SW7,1*%
%TO.N,PAD_6*%
X107400000Y-96710000D03*
%TD*%
D11*
%TO.N,GNDD*%
X136350000Y-80150000D03*
X132850000Y-80150000D03*
X116150000Y-80150000D03*
X94100000Y-55800000D03*
X96200000Y-55800000D03*
D12*
X78000000Y-115000000D03*
X88000000Y-115000000D03*
X98000000Y-115000000D03*
X108000000Y-115000000D03*
X118000000Y-115000000D03*
X128000000Y-115000000D03*
X138000000Y-115000000D03*
X148000000Y-115000000D03*
X158000000Y-115000000D03*
X168000000Y-115000000D03*
X80800000Y-85800000D03*
X86500000Y-85800000D03*
X92800000Y-85800000D03*
X105000000Y-85800000D03*
X106200000Y-55800000D03*
X113200000Y-55800000D03*
X149000000Y-53000000D03*
X159000000Y-53000000D03*
X169000000Y-53000000D03*
X96850000Y-80150000D03*
X86850000Y-80150000D03*
X123850000Y-80150000D03*
X163850000Y-80150000D03*
X153850000Y-80150000D03*
X123800000Y-85300000D03*
X123800000Y-91100000D03*
X123800000Y-97900000D03*
X123800000Y-102100000D03*
X154800000Y-65300000D03*
X154800000Y-75300000D03*
D11*
%TO.N,+5VD*%
X131000000Y-78300000D03*
X130100000Y-78300000D03*
X110500000Y-78300000D03*
X109500000Y-78300000D03*
D12*
%TO.N,Net-(D1-Pad2)*%
X80700000Y-90350000D03*
X106100000Y-105600000D03*
%TO.N,Net-(D1-Pad4)*%
X110700000Y-88800000D03*
X110700000Y-86900000D03*
%TO.N,Net-(D2-Pad2)*%
X106100000Y-93050000D03*
X137100000Y-105700000D03*
%TO.N,Net-(D3-Pad2)*%
X167100000Y-106500000D03*
X136500000Y-94400000D03*
%TO.N,Net-(D4-Pad2)*%
X167100000Y-93450000D03*
X80000000Y-81550000D03*
%TO.N,Net-(D5-Pad2)*%
X75500000Y-61400000D03*
X106100000Y-74700000D03*
%TO.N,Net-(D6-Pad2)*%
X137000000Y-74700000D03*
X110650000Y-61550000D03*
%TO.N,Net-(D7-Pad2)*%
X137300000Y-63600000D03*
X167500000Y-75400000D03*
D11*
%TO.N,Net-(J1-Pad5)*%
X135200000Y-61700000D03*
X135200000Y-62500000D03*
X129900000Y-75900000D03*
X130800000Y-75900000D03*
D12*
%TO.N,PAD_2*%
X137400000Y-61800000D03*
%TO.N,PAD_4*%
X149200000Y-90200000D03*
%TD*%
D13*
%TO.N,GNDD*%
X169400000Y-101790000D02*
X169400000Y-106300000D01*
X169400000Y-106300000D02*
X166500000Y-109200000D01*
X76400000Y-105550000D02*
X76400000Y-101790000D01*
X80050000Y-109200000D02*
X76400000Y-105550000D01*
X107400000Y-108400000D02*
X108200000Y-109200000D01*
X107400000Y-101790000D02*
X107400000Y-108400000D01*
X138400000Y-109150000D02*
X138450000Y-109200000D01*
X138400000Y-101790000D02*
X138400000Y-109150000D01*
X138450000Y-109200000D02*
X108200000Y-109200000D01*
X166500000Y-109200000D02*
X138450000Y-109200000D01*
X76400000Y-70790000D02*
X76400000Y-75350000D01*
X169400000Y-75400000D02*
X169400000Y-70790000D01*
X164650000Y-80150000D02*
X169400000Y-75400000D01*
X138400000Y-70790000D02*
X138400000Y-80150000D01*
X138400000Y-80150000D02*
X153850000Y-80150000D01*
X107400000Y-79900000D02*
X107650000Y-80150000D01*
X76400000Y-101790000D02*
X76760000Y-101790000D01*
X87550000Y-109200000D02*
X87550000Y-94650000D01*
X108200000Y-109200000D02*
X87550000Y-109200000D01*
X87550000Y-109200000D02*
X80050000Y-109200000D01*
X87550000Y-94650000D02*
X85100000Y-92200000D01*
X85100000Y-92200000D02*
X80250000Y-92200000D01*
X80250000Y-92200000D02*
X76400000Y-88350000D01*
X76400000Y-80150000D02*
X86850000Y-80150000D01*
X76400000Y-75350000D02*
X76400000Y-80150000D01*
X136350000Y-80150000D02*
X138400000Y-80150000D01*
X132850000Y-80150000D02*
X136350000Y-80150000D01*
X116150000Y-80150000D02*
X123850000Y-80150000D01*
X107650000Y-80150000D02*
X116150000Y-80150000D01*
D14*
X107400000Y-73400000D02*
X105300000Y-73400000D01*
D13*
X107400000Y-70790000D02*
X107400000Y-73400000D01*
X107400000Y-73400000D02*
X107400000Y-79900000D01*
D14*
X105300000Y-73400000D02*
X104300000Y-74400000D01*
X104300000Y-74400000D02*
X98300000Y-74400000D01*
X94100000Y-70200000D02*
X94100000Y-55800000D01*
X98300000Y-74400000D02*
X94100000Y-70200000D01*
X94100000Y-55800000D02*
X96200000Y-55800000D01*
X78000000Y-115000000D02*
X78000000Y-115000000D01*
X78000000Y-115000000D02*
X168000000Y-115000000D01*
X76400000Y-85800000D02*
X80800000Y-85800000D01*
D13*
X76400000Y-88350000D02*
X76400000Y-85800000D01*
X76400000Y-85800000D02*
X76400000Y-75350000D01*
D14*
X86500000Y-85800000D02*
X92800000Y-85800000D01*
D13*
X96850000Y-80150000D02*
X107650000Y-80150000D01*
X86850000Y-80150000D02*
X96850000Y-80150000D01*
X123850000Y-80150000D02*
X132850000Y-80150000D01*
X163850000Y-80150000D02*
X164650000Y-80150000D01*
X153850000Y-80150000D02*
X163850000Y-80150000D01*
D14*
X169400000Y-113600000D02*
X168000000Y-115000000D01*
X169400000Y-101790000D02*
X169400000Y-113600000D01*
X77000000Y-115000000D02*
X78000000Y-115000000D01*
X76400000Y-114400000D02*
X77000000Y-115000000D01*
X76400000Y-101790000D02*
X76400000Y-114400000D01*
D15*
X123850000Y-85250000D02*
X123800000Y-85300000D01*
X123850000Y-80150000D02*
X123850000Y-85250000D01*
X123800000Y-97900000D02*
X123800000Y-102100000D01*
D16*
%TO.N,+5VD*%
X130100000Y-78300000D02*
X131000000Y-78300000D01*
X126400000Y-78300000D02*
X130100000Y-78300000D01*
X110500000Y-78300000D02*
X126400000Y-78300000D01*
X110500000Y-78300000D02*
X109500000Y-78300000D01*
D15*
%TO.N,Net-(D1-Pad2)*%
X88850000Y-90350000D02*
X80700000Y-90350000D01*
X94500000Y-96000000D02*
X88850000Y-90350000D01*
X94500000Y-101800000D02*
X94500000Y-96000000D01*
X98300000Y-105600000D02*
X94500000Y-101800000D01*
X106100000Y-105600000D02*
X98300000Y-105600000D01*
D14*
%TO.N,Net-(D1-Pad4)*%
X110700000Y-88800000D02*
X110700000Y-86900000D01*
D15*
%TO.N,Net-(D2-Pad2)*%
X115450000Y-93050000D02*
X106100000Y-93050000D01*
X118750000Y-96350000D02*
X115450000Y-93050000D01*
X118750000Y-103250000D02*
X118750000Y-96350000D01*
X121200000Y-105700000D02*
X118750000Y-103250000D01*
X137100000Y-105700000D02*
X121200000Y-105700000D01*
%TO.N,Net-(D3-Pad2)*%
X152100000Y-102650000D02*
X155950000Y-106500000D01*
X155950000Y-106500000D02*
X167100000Y-106500000D01*
X148550000Y-92500000D02*
X152100000Y-96050000D01*
X140000000Y-92500000D02*
X148550000Y-92500000D01*
X152100000Y-96050000D02*
X152100000Y-102650000D01*
X138100000Y-94400000D02*
X140000000Y-92500000D01*
X136500000Y-94400000D02*
X138100000Y-94400000D01*
D14*
%TO.N,Net-(D4-Pad2)*%
X164850000Y-91200000D02*
X167100000Y-93450000D01*
X126250000Y-91200000D02*
X164850000Y-91200000D01*
X116600000Y-81550000D02*
X126250000Y-91200000D01*
X80000000Y-81550000D02*
X116600000Y-81550000D01*
%TO.N,Net-(D5-Pad2)*%
X92650000Y-67350000D02*
X86700000Y-61400000D01*
X95400000Y-75350000D02*
X92650000Y-72600000D01*
X86700000Y-61400000D02*
X75500000Y-61400000D01*
X105450000Y-75350000D02*
X95400000Y-75350000D01*
X106100000Y-74700000D02*
X105450000Y-75350000D01*
X92650000Y-72600000D02*
X92650000Y-67350000D01*
%TO.N,Net-(D6-Pad2)*%
X124200000Y-74500000D02*
X126800000Y-77100000D01*
X124200000Y-67950000D02*
X124200000Y-74500000D01*
X117800000Y-61550000D02*
X124200000Y-67950000D01*
X134600000Y-77100000D02*
X137000000Y-74700000D01*
X110650000Y-61550000D02*
X117800000Y-61550000D01*
X126800000Y-77100000D02*
X134600000Y-77100000D01*
%TO.N,Net-(D7-Pad2)*%
X139400000Y-61500000D02*
X137300000Y-63600000D01*
X151600000Y-65400000D02*
X147700000Y-61500000D01*
X147700000Y-61500000D02*
X139400000Y-61500000D01*
X151600000Y-68850000D02*
X151600000Y-65400000D01*
X158150000Y-75400000D02*
X151600000Y-68850000D01*
X167500000Y-75400000D02*
X158150000Y-75400000D01*
D16*
%TO.N,Net-(J1-Pad5)*%
X135200000Y-61700000D02*
X135200000Y-62500000D01*
X135200000Y-61700000D02*
X130800000Y-61700000D01*
X130800000Y-61700000D02*
X127800000Y-64700000D01*
X127800000Y-73800000D02*
X129900000Y-75900000D01*
X127800000Y-64700000D02*
X127800000Y-73800000D01*
X129900000Y-75900000D02*
X130800000Y-75900000D01*
D15*
%TO.N,PAD_2*%
X107400000Y-63200000D02*
X107400000Y-65710000D01*
X110000000Y-60600000D02*
X107400000Y-63200000D01*
X136300000Y-60600000D02*
X110000000Y-60600000D01*
X137400000Y-61700000D02*
X136300000Y-60600000D01*
X137400000Y-61800000D02*
X137400000Y-61700000D01*
D14*
%TO.N,PAD_4*%
X169400000Y-93900000D02*
X169400000Y-96710000D01*
X165700000Y-90200000D02*
X169400000Y-93900000D01*
X149200000Y-90200000D02*
X165700000Y-90200000D01*
%TD*%
D17*
%TO.N,GNDD*%
X171233850Y-50694022D02*
X171384672Y-50774638D01*
X171516870Y-50883130D01*
X171625362Y-51015328D01*
X171705978Y-51166150D01*
X171740001Y-51278309D01*
X171740000Y-116221694D01*
X171705978Y-116333850D01*
X171625362Y-116484672D01*
X171516870Y-116616870D01*
X171384672Y-116725362D01*
X171233850Y-116805978D01*
X171121694Y-116840000D01*
X74678306Y-116840000D01*
X74566150Y-116805978D01*
X74415328Y-116725362D01*
X74283130Y-116616870D01*
X74174638Y-116484672D01*
X74094022Y-116333850D01*
X74060000Y-116221694D01*
X74060000Y-96548967D01*
X74765000Y-96548967D01*
X74765000Y-96871033D01*
X74827832Y-97186912D01*
X74951082Y-97484463D01*
X75130013Y-97752252D01*
X75357748Y-97979987D01*
X75625537Y-98158918D01*
X75923088Y-98282168D01*
X76238967Y-98345000D01*
X76561033Y-98345000D01*
X76876912Y-98282168D01*
X77174463Y-98158918D01*
X77442252Y-97979987D01*
X77669987Y-97752252D01*
X77848918Y-97484463D01*
X77972168Y-97186912D01*
X78035000Y-96871033D01*
X78035000Y-96548967D01*
X77972168Y-96233088D01*
X77848918Y-95935537D01*
X77669987Y-95667748D01*
X77442252Y-95440013D01*
X77174463Y-95261082D01*
X76876912Y-95137832D01*
X76561033Y-95075000D01*
X76238967Y-95075000D01*
X75923088Y-95137832D01*
X75625537Y-95261082D01*
X75357748Y-95440013D01*
X75130013Y-95667748D01*
X74951082Y-95935537D01*
X74827832Y-96233088D01*
X74765000Y-96548967D01*
X74060000Y-96548967D01*
X74060000Y-95000938D01*
X78936615Y-95000938D01*
X78939038Y-95060709D01*
X78940626Y-95120505D01*
X78941832Y-95129641D01*
X78967524Y-95314294D01*
X78981507Y-95372443D01*
X78994683Y-95430807D01*
X78997641Y-95439534D01*
X79058710Y-95615681D01*
X79083710Y-95669981D01*
X79107980Y-95724696D01*
X79112577Y-95732683D01*
X79206696Y-95893613D01*
X79241778Y-95942038D01*
X79276204Y-95990985D01*
X79282265Y-95997927D01*
X79401210Y-96132270D01*
X79931918Y-96757920D01*
X80317410Y-97422756D01*
X80579073Y-98145344D01*
X80708643Y-98902852D01*
X80702021Y-99671338D01*
X80559419Y-100426499D01*
X80285341Y-101144476D01*
X79886972Y-101805024D01*
X79413389Y-102353675D01*
X79360588Y-102407870D01*
X79333010Y-102442349D01*
X79303369Y-102475054D01*
X79297928Y-102482492D01*
X79188907Y-102633724D01*
X79158832Y-102685426D01*
X79128033Y-102736709D01*
X79124140Y-102745061D01*
X79046570Y-102914588D01*
X79027116Y-102971127D01*
X79006854Y-103027445D01*
X79004658Y-103036395D01*
X78961494Y-103217761D01*
X78953393Y-103277001D01*
X78944457Y-103336175D01*
X78944042Y-103345381D01*
X78936927Y-103531677D01*
X78940486Y-103591364D01*
X78943214Y-103651144D01*
X78944595Y-103660256D01*
X78973800Y-103844386D01*
X78988888Y-103902259D01*
X79003173Y-103960361D01*
X79006297Y-103969031D01*
X79070711Y-104143981D01*
X79096744Y-104197803D01*
X79122050Y-104252040D01*
X79126798Y-104259938D01*
X79223966Y-104419045D01*
X79259979Y-104466813D01*
X79295317Y-104515074D01*
X79301509Y-104521899D01*
X79427730Y-104659103D01*
X79472327Y-104698960D01*
X79516375Y-104739446D01*
X79523769Y-104744934D01*
X79523774Y-104744938D01*
X79523779Y-104744941D01*
X79674243Y-104855012D01*
X79725732Y-104885447D01*
X79776802Y-104916605D01*
X79785128Y-104920556D01*
X79954110Y-104999308D01*
X80010506Y-105019154D01*
X80066681Y-105039808D01*
X80075615Y-105042067D01*
X80256676Y-105086497D01*
X80315910Y-105095019D01*
X80374972Y-105104360D01*
X80384172Y-105104840D01*
X80384175Y-105104840D01*
X80569931Y-105113233D01*
X80601249Y-105114722D01*
X82667854Y-105009942D01*
X82673244Y-105009923D01*
X82678246Y-105009415D01*
X82715797Y-105007511D01*
X82718375Y-105007124D01*
X82730761Y-105007211D01*
X82739933Y-105006311D01*
X83322222Y-104945111D01*
X83380832Y-104933079D01*
X83439580Y-104921873D01*
X83448402Y-104919209D01*
X84007715Y-104746072D01*
X84062833Y-104722902D01*
X84118322Y-104700484D01*
X84126458Y-104696157D01*
X84641490Y-104417681D01*
X84691064Y-104384243D01*
X84741138Y-104351476D01*
X84748279Y-104345652D01*
X85199412Y-103972442D01*
X85241588Y-103929971D01*
X85284301Y-103888143D01*
X85290175Y-103881043D01*
X85660227Y-103427314D01*
X85693320Y-103377506D01*
X85727127Y-103328132D01*
X85731510Y-103320026D01*
X86006384Y-102803061D01*
X86029182Y-102747749D01*
X86052744Y-102692775D01*
X86055469Y-102683972D01*
X86224696Y-102123464D01*
X86236316Y-102064776D01*
X86248752Y-102006273D01*
X86249715Y-101997108D01*
X86306850Y-101414406D01*
X86306850Y-101414402D01*
X86310000Y-101382419D01*
X86310000Y-97117581D01*
X86307080Y-97087937D01*
X86307211Y-97069238D01*
X86306311Y-97060067D01*
X86245110Y-96477777D01*
X86233084Y-96419191D01*
X86221873Y-96360420D01*
X86219210Y-96351598D01*
X86046072Y-95792285D01*
X86022902Y-95737167D01*
X86000484Y-95681678D01*
X85996157Y-95673542D01*
X85717681Y-95158510D01*
X85684243Y-95108936D01*
X85651476Y-95058862D01*
X85645652Y-95051721D01*
X85272442Y-94600588D01*
X85229990Y-94558431D01*
X85188144Y-94515699D01*
X85181043Y-94509825D01*
X84727315Y-94139773D01*
X84677504Y-94106679D01*
X84628132Y-94072873D01*
X84620026Y-94068490D01*
X84103062Y-93793616D01*
X84047735Y-93770812D01*
X83992775Y-93747256D01*
X83983971Y-93744531D01*
X83423464Y-93575304D01*
X83364769Y-93563682D01*
X83306273Y-93551248D01*
X83297108Y-93550285D01*
X82731168Y-93494794D01*
X82715797Y-93492489D01*
X80601249Y-93385278D01*
X80585392Y-93386032D01*
X80506335Y-93385830D01*
X80462390Y-93390026D01*
X80418260Y-93391506D01*
X80409133Y-93392776D01*
X80224664Y-93419757D01*
X80166602Y-93434149D01*
X80108345Y-93447728D01*
X80099638Y-93450747D01*
X79923924Y-93513044D01*
X79869756Y-93538442D01*
X79815255Y-93563074D01*
X79807305Y-93567725D01*
X79807298Y-93567728D01*
X79807292Y-93567732D01*
X79647031Y-93662967D01*
X79598827Y-93698404D01*
X79550146Y-93733154D01*
X79543246Y-93739263D01*
X79404528Y-93863820D01*
X79364130Y-93907940D01*
X79323122Y-93951488D01*
X79317540Y-93958821D01*
X79205658Y-94107949D01*
X79174592Y-94159086D01*
X79142832Y-94209757D01*
X79138781Y-94218034D01*
X79057995Y-94386054D01*
X79037472Y-94442199D01*
X79016139Y-94498126D01*
X79013773Y-94507033D01*
X78967160Y-94687544D01*
X78957932Y-94746618D01*
X78947869Y-94805616D01*
X78947278Y-94814812D01*
X78936615Y-95000938D01*
X74060000Y-95000938D01*
X74060000Y-90257911D01*
X79765000Y-90257911D01*
X79765000Y-90442089D01*
X79800932Y-90622729D01*
X79871414Y-90792889D01*
X79973738Y-90946028D01*
X80103972Y-91076262D01*
X80257111Y-91178586D01*
X80427271Y-91249068D01*
X80607911Y-91285000D01*
X80792089Y-91285000D01*
X80972729Y-91249068D01*
X81142889Y-91178586D01*
X81245535Y-91110000D01*
X88535199Y-91110000D01*
X93740001Y-96314803D01*
X93740000Y-101762677D01*
X93736324Y-101800000D01*
X93740000Y-101837322D01*
X93740000Y-101837332D01*
X93750997Y-101948985D01*
X93791231Y-102081620D01*
X93794454Y-102092246D01*
X93865026Y-102224276D01*
X93880026Y-102242553D01*
X93959999Y-102340001D01*
X93989003Y-102363804D01*
X97736201Y-106111003D01*
X97759999Y-106140001D01*
X97788997Y-106163799D01*
X97875724Y-106234974D01*
X98007753Y-106305546D01*
X98151014Y-106349003D01*
X98300000Y-106363677D01*
X98337333Y-106360000D01*
X105554465Y-106360000D01*
X105657111Y-106428586D01*
X105827271Y-106499068D01*
X106007911Y-106535000D01*
X106192089Y-106535000D01*
X106372729Y-106499068D01*
X106542889Y-106428586D01*
X106696028Y-106326262D01*
X106826262Y-106196028D01*
X106928586Y-106042889D01*
X106999068Y-105872729D01*
X107035000Y-105692089D01*
X107035000Y-105507911D01*
X106999068Y-105327271D01*
X106928586Y-105157111D01*
X106826262Y-105003972D01*
X106696028Y-104873738D01*
X106542889Y-104771414D01*
X106372729Y-104700932D01*
X106192089Y-104665000D01*
X106007911Y-104665000D01*
X105827271Y-104700932D01*
X105657111Y-104771414D01*
X105554465Y-104840000D01*
X104147976Y-104840000D01*
X104152969Y-104837033D01*
X104201158Y-104801607D01*
X104249854Y-104766846D01*
X104256754Y-104760737D01*
X104395472Y-104636180D01*
X104435871Y-104592059D01*
X104476878Y-104548511D01*
X104482460Y-104541179D01*
X104594342Y-104392050D01*
X104625408Y-104340913D01*
X104657168Y-104290242D01*
X104661219Y-104281965D01*
X104742005Y-104113946D01*
X104762528Y-104057801D01*
X104783861Y-104001874D01*
X104786227Y-103992967D01*
X104832840Y-103812457D01*
X104842069Y-103753376D01*
X104852131Y-103694384D01*
X104852722Y-103685188D01*
X104863385Y-103499062D01*
X104860962Y-103439290D01*
X104859374Y-103379495D01*
X104858168Y-103370359D01*
X104832476Y-103185706D01*
X104818493Y-103127557D01*
X104805317Y-103069193D01*
X104802359Y-103060466D01*
X104741290Y-102884320D01*
X104716297Y-102830034D01*
X104692020Y-102775304D01*
X104687423Y-102767317D01*
X104593304Y-102606387D01*
X104558222Y-102557962D01*
X104523796Y-102509015D01*
X104517735Y-102502073D01*
X104398790Y-102367730D01*
X103868082Y-101742080D01*
X103482590Y-101077244D01*
X103220927Y-100354656D01*
X103091357Y-99597148D01*
X103097979Y-98828662D01*
X103240581Y-98073501D01*
X103514658Y-97355527D01*
X103913028Y-96694976D01*
X104039059Y-96548967D01*
X105765000Y-96548967D01*
X105765000Y-96871033D01*
X105827832Y-97186912D01*
X105951082Y-97484463D01*
X106130013Y-97752252D01*
X106357748Y-97979987D01*
X106625537Y-98158918D01*
X106923088Y-98282168D01*
X107238967Y-98345000D01*
X107561033Y-98345000D01*
X107876912Y-98282168D01*
X108174463Y-98158918D01*
X108442252Y-97979987D01*
X108669987Y-97752252D01*
X108848918Y-97484463D01*
X108972168Y-97186912D01*
X109035000Y-96871033D01*
X109035000Y-96548967D01*
X108972168Y-96233088D01*
X108848918Y-95935537D01*
X108669987Y-95667748D01*
X108442252Y-95440013D01*
X108174463Y-95261082D01*
X107876912Y-95137832D01*
X107561033Y-95075000D01*
X107238967Y-95075000D01*
X106923088Y-95137832D01*
X106625537Y-95261082D01*
X106357748Y-95440013D01*
X106130013Y-95667748D01*
X105951082Y-95935537D01*
X105827832Y-96233088D01*
X105765000Y-96548967D01*
X104039059Y-96548967D01*
X104386611Y-96146325D01*
X104439412Y-96092130D01*
X104466987Y-96057653D01*
X104496631Y-96024946D01*
X104502072Y-96017509D01*
X104611093Y-95866276D01*
X104641173Y-95814566D01*
X104671967Y-95763292D01*
X104675859Y-95754939D01*
X104753430Y-95585412D01*
X104772884Y-95528873D01*
X104793146Y-95472555D01*
X104795342Y-95463605D01*
X104838506Y-95282239D01*
X104846607Y-95222999D01*
X104855543Y-95163825D01*
X104855958Y-95154619D01*
X104863073Y-94968323D01*
X104859514Y-94908636D01*
X104856786Y-94848856D01*
X104855406Y-94839745D01*
X104826200Y-94655614D01*
X104811114Y-94597748D01*
X104796827Y-94539639D01*
X104793703Y-94530969D01*
X104729289Y-94356018D01*
X104703234Y-94302151D01*
X104677950Y-94247960D01*
X104673202Y-94240062D01*
X104576034Y-94080955D01*
X104540033Y-94033202D01*
X104504683Y-93984926D01*
X104498491Y-93978101D01*
X104372269Y-93840897D01*
X104327708Y-93801073D01*
X104283625Y-93760554D01*
X104276225Y-93755062D01*
X104125757Y-93644988D01*
X104074268Y-93614553D01*
X104023198Y-93583395D01*
X104014873Y-93579444D01*
X103845890Y-93500692D01*
X103789483Y-93480842D01*
X103733319Y-93460192D01*
X103724385Y-93457934D01*
X103543325Y-93413503D01*
X103484080Y-93404979D01*
X103425028Y-93395640D01*
X103415830Y-93395160D01*
X103415825Y-93395160D01*
X103230056Y-93386766D01*
X103198750Y-93385278D01*
X101132146Y-93490058D01*
X101126756Y-93490077D01*
X101121754Y-93490585D01*
X101084203Y-93492489D01*
X101081625Y-93492876D01*
X101069238Y-93492789D01*
X101060067Y-93493689D01*
X100477777Y-93554890D01*
X100419191Y-93566916D01*
X100360420Y-93578127D01*
X100351598Y-93580790D01*
X99792285Y-93753928D01*
X99737167Y-93777098D01*
X99681678Y-93799516D01*
X99673542Y-93803843D01*
X99158510Y-94082319D01*
X99108936Y-94115757D01*
X99058862Y-94148524D01*
X99051721Y-94154348D01*
X98600588Y-94527558D01*
X98558431Y-94570010D01*
X98515699Y-94611856D01*
X98509825Y-94618957D01*
X98139773Y-95072685D01*
X98106679Y-95122496D01*
X98072873Y-95171868D01*
X98068490Y-95179974D01*
X97793616Y-95696938D01*
X97770812Y-95752265D01*
X97747256Y-95807225D01*
X97744531Y-95816029D01*
X97575304Y-96376536D01*
X97563682Y-96435231D01*
X97551248Y-96493727D01*
X97550285Y-96502892D01*
X97493150Y-97085595D01*
X97490000Y-97117582D01*
X97490001Y-101382419D01*
X97492920Y-101412054D01*
X97492789Y-101430761D01*
X97493689Y-101439933D01*
X97554889Y-102022222D01*
X97566921Y-102080832D01*
X97578127Y-102139580D01*
X97580791Y-102148402D01*
X97753928Y-102707715D01*
X97777098Y-102762833D01*
X97799516Y-102818322D01*
X97803843Y-102826458D01*
X98082319Y-103341490D01*
X98115757Y-103391064D01*
X98148524Y-103441138D01*
X98154348Y-103448279D01*
X98527558Y-103899412D01*
X98570029Y-103941588D01*
X98611857Y-103984301D01*
X98618957Y-103990175D01*
X99072686Y-104360227D01*
X99122494Y-104393320D01*
X99171868Y-104427127D01*
X99179974Y-104431510D01*
X99696939Y-104706384D01*
X99752251Y-104729182D01*
X99807225Y-104752744D01*
X99816028Y-104755469D01*
X100096009Y-104840000D01*
X98614802Y-104840000D01*
X95260000Y-101485199D01*
X95260000Y-96037333D01*
X95263677Y-96000000D01*
X95249003Y-95851014D01*
X95205546Y-95707753D01*
X95134974Y-95575724D01*
X95063799Y-95488997D01*
X95040001Y-95459999D01*
X95011003Y-95436201D01*
X89413804Y-89839003D01*
X89390001Y-89809999D01*
X89274276Y-89715026D01*
X89142247Y-89644454D01*
X88998986Y-89600997D01*
X88887333Y-89590000D01*
X88887322Y-89590000D01*
X88850000Y-89586324D01*
X88812678Y-89590000D01*
X81245535Y-89590000D01*
X81142889Y-89521414D01*
X80972729Y-89450932D01*
X80792089Y-89415000D01*
X80607911Y-89415000D01*
X80427271Y-89450932D01*
X80257111Y-89521414D01*
X80103972Y-89623738D01*
X79973738Y-89753972D01*
X79871414Y-89907111D01*
X79800932Y-90077271D01*
X79765000Y-90257911D01*
X74060000Y-90257911D01*
X74060000Y-86807911D01*
X109765000Y-86807911D01*
X109765000Y-86992089D01*
X109800932Y-87172729D01*
X109871414Y-87342889D01*
X109915001Y-87408121D01*
X109915000Y-88291879D01*
X109871414Y-88357111D01*
X109800932Y-88527271D01*
X109765000Y-88707911D01*
X109765000Y-88892089D01*
X109800932Y-89072729D01*
X109871414Y-89242889D01*
X109973738Y-89396028D01*
X110103972Y-89526262D01*
X110257111Y-89628586D01*
X110427271Y-89699068D01*
X110607911Y-89735000D01*
X110792089Y-89735000D01*
X110972729Y-89699068D01*
X111142889Y-89628586D01*
X111296028Y-89526262D01*
X111426262Y-89396028D01*
X111528586Y-89242889D01*
X111599068Y-89072729D01*
X111635000Y-88892089D01*
X111635000Y-88707911D01*
X111599068Y-88527271D01*
X111528586Y-88357111D01*
X111485000Y-88291880D01*
X111485000Y-87408120D01*
X111528586Y-87342889D01*
X111599068Y-87172729D01*
X111635000Y-86992089D01*
X111635000Y-86807911D01*
X111599068Y-86627271D01*
X111528586Y-86457111D01*
X111426262Y-86303972D01*
X111296028Y-86173738D01*
X111142889Y-86071414D01*
X110972729Y-86000932D01*
X110792089Y-85965000D01*
X110607911Y-85965000D01*
X110427271Y-86000932D01*
X110257111Y-86071414D01*
X110103972Y-86173738D01*
X109973738Y-86303972D01*
X109871414Y-86457111D01*
X109800932Y-86627271D01*
X109765000Y-86807911D01*
X74060000Y-86807911D01*
X74060000Y-81457911D01*
X79065000Y-81457911D01*
X79065000Y-81642089D01*
X79100932Y-81822729D01*
X79171414Y-81992889D01*
X79273738Y-82146028D01*
X79403972Y-82276262D01*
X79557111Y-82378586D01*
X79727271Y-82449068D01*
X79907911Y-82485000D01*
X80092089Y-82485000D01*
X80272729Y-82449068D01*
X80442889Y-82378586D01*
X80508120Y-82335000D01*
X116274843Y-82335000D01*
X125667653Y-91727810D01*
X125692236Y-91757764D01*
X125811767Y-91855862D01*
X125948140Y-91928754D01*
X126096113Y-91973642D01*
X126171026Y-91981020D01*
X126211439Y-91985000D01*
X126211444Y-91985000D01*
X126250000Y-91988797D01*
X126288556Y-91985000D01*
X139439481Y-91985000D01*
X139436201Y-91988997D01*
X137785199Y-93640000D01*
X137045535Y-93640000D01*
X136942889Y-93571414D01*
X136772729Y-93500932D01*
X136592089Y-93465000D01*
X136407911Y-93465000D01*
X136227271Y-93500932D01*
X136057111Y-93571414D01*
X135903972Y-93673738D01*
X135773738Y-93803972D01*
X135671414Y-93957111D01*
X135602301Y-94123966D01*
X135576034Y-94080955D01*
X135540033Y-94033202D01*
X135504683Y-93984926D01*
X135498491Y-93978101D01*
X135372269Y-93840897D01*
X135327708Y-93801073D01*
X135283625Y-93760554D01*
X135276225Y-93755062D01*
X135125757Y-93644988D01*
X135074268Y-93614553D01*
X135023198Y-93583395D01*
X135014873Y-93579444D01*
X134845890Y-93500692D01*
X134789483Y-93480842D01*
X134733319Y-93460192D01*
X134724385Y-93457934D01*
X134543325Y-93413503D01*
X134484080Y-93404979D01*
X134425028Y-93395640D01*
X134415830Y-93395160D01*
X134415825Y-93395160D01*
X134230056Y-93386766D01*
X134198750Y-93385278D01*
X132132146Y-93490058D01*
X132126756Y-93490077D01*
X132121754Y-93490585D01*
X132084203Y-93492489D01*
X132081625Y-93492876D01*
X132069238Y-93492789D01*
X132060067Y-93493689D01*
X131477777Y-93554890D01*
X131419191Y-93566916D01*
X131360420Y-93578127D01*
X131351598Y-93580790D01*
X130792285Y-93753928D01*
X130737167Y-93777098D01*
X130681678Y-93799516D01*
X130673542Y-93803843D01*
X130158510Y-94082319D01*
X130108936Y-94115757D01*
X130058862Y-94148524D01*
X130051721Y-94154348D01*
X129600588Y-94527558D01*
X129558431Y-94570010D01*
X129515699Y-94611856D01*
X129509825Y-94618957D01*
X129139773Y-95072685D01*
X129106679Y-95122496D01*
X129072873Y-95171868D01*
X129068490Y-95179974D01*
X128793616Y-95696938D01*
X128770812Y-95752265D01*
X128747256Y-95807225D01*
X128744531Y-95816029D01*
X128575304Y-96376536D01*
X128563682Y-96435231D01*
X128551248Y-96493727D01*
X128550285Y-96502892D01*
X128493150Y-97085595D01*
X128490000Y-97117582D01*
X128490001Y-101382419D01*
X128492920Y-101412054D01*
X128492789Y-101430761D01*
X128493689Y-101439933D01*
X128554889Y-102022222D01*
X128566921Y-102080832D01*
X128578127Y-102139580D01*
X128580791Y-102148402D01*
X128753928Y-102707715D01*
X128777098Y-102762833D01*
X128799516Y-102818322D01*
X128803843Y-102826458D01*
X129082319Y-103341490D01*
X129115757Y-103391064D01*
X129148524Y-103441138D01*
X129154348Y-103448279D01*
X129527558Y-103899412D01*
X129570029Y-103941588D01*
X129611857Y-103984301D01*
X129618957Y-103990175D01*
X130072686Y-104360227D01*
X130122494Y-104393320D01*
X130171868Y-104427127D01*
X130179974Y-104431510D01*
X130696939Y-104706384D01*
X130752251Y-104729182D01*
X130807225Y-104752744D01*
X130816028Y-104755469D01*
X131376536Y-104924696D01*
X131435224Y-104936316D01*
X131452554Y-104940000D01*
X121514802Y-104940000D01*
X119510000Y-102935199D01*
X119510000Y-96387325D01*
X119513676Y-96350000D01*
X119510000Y-96312675D01*
X119510000Y-96312667D01*
X119499003Y-96201014D01*
X119455546Y-96057753D01*
X119384974Y-95925724D01*
X119290001Y-95809999D01*
X119261003Y-95786201D01*
X116013804Y-92539003D01*
X115990001Y-92509999D01*
X115874276Y-92415026D01*
X115742247Y-92344454D01*
X115598986Y-92300997D01*
X115487333Y-92290000D01*
X115487322Y-92290000D01*
X115450000Y-92286324D01*
X115412678Y-92290000D01*
X106645535Y-92290000D01*
X106542889Y-92221414D01*
X106372729Y-92150932D01*
X106192089Y-92115000D01*
X106007911Y-92115000D01*
X105827271Y-92150932D01*
X105657111Y-92221414D01*
X105503972Y-92323738D01*
X105373738Y-92453972D01*
X105271414Y-92607111D01*
X105200932Y-92777271D01*
X105165000Y-92957911D01*
X105165000Y-93142089D01*
X105200932Y-93322729D01*
X105271414Y-93492889D01*
X105373738Y-93646028D01*
X105503972Y-93776262D01*
X105657111Y-93878586D01*
X105827271Y-93949068D01*
X106007911Y-93985000D01*
X106192089Y-93985000D01*
X106372729Y-93949068D01*
X106542889Y-93878586D01*
X106645535Y-93810000D01*
X110464467Y-93810000D01*
X110404528Y-93863820D01*
X110364130Y-93907940D01*
X110323122Y-93951488D01*
X110317540Y-93958821D01*
X110205658Y-94107949D01*
X110174592Y-94159086D01*
X110142832Y-94209757D01*
X110138781Y-94218034D01*
X110057995Y-94386054D01*
X110037472Y-94442199D01*
X110016139Y-94498126D01*
X110013773Y-94507033D01*
X109967160Y-94687544D01*
X109957932Y-94746618D01*
X109947869Y-94805616D01*
X109947278Y-94814812D01*
X109936615Y-95000938D01*
X109939038Y-95060709D01*
X109940626Y-95120505D01*
X109941832Y-95129641D01*
X109967524Y-95314294D01*
X109981507Y-95372443D01*
X109994683Y-95430807D01*
X109997641Y-95439534D01*
X110058710Y-95615681D01*
X110083710Y-95669981D01*
X110107980Y-95724696D01*
X110112577Y-95732683D01*
X110206696Y-95893613D01*
X110241778Y-95942038D01*
X110276204Y-95990985D01*
X110282265Y-95997927D01*
X110401210Y-96132270D01*
X110931918Y-96757920D01*
X111317410Y-97422756D01*
X111579073Y-98145344D01*
X111708643Y-98902852D01*
X111702021Y-99671338D01*
X111559419Y-100426499D01*
X111285341Y-101144476D01*
X110886972Y-101805024D01*
X110413389Y-102353675D01*
X110360588Y-102407870D01*
X110333010Y-102442349D01*
X110303369Y-102475054D01*
X110297928Y-102482492D01*
X110188907Y-102633724D01*
X110158832Y-102685426D01*
X110128033Y-102736709D01*
X110124140Y-102745061D01*
X110046570Y-102914588D01*
X110027116Y-102971127D01*
X110006854Y-103027445D01*
X110004658Y-103036395D01*
X109961494Y-103217761D01*
X109953393Y-103277001D01*
X109944457Y-103336175D01*
X109944042Y-103345381D01*
X109936927Y-103531677D01*
X109940486Y-103591364D01*
X109943214Y-103651144D01*
X109944595Y-103660256D01*
X109973800Y-103844386D01*
X109988888Y-103902259D01*
X110003173Y-103960361D01*
X110006297Y-103969031D01*
X110070711Y-104143981D01*
X110096744Y-104197803D01*
X110122050Y-104252040D01*
X110126798Y-104259938D01*
X110223966Y-104419045D01*
X110259979Y-104466813D01*
X110295317Y-104515074D01*
X110301509Y-104521899D01*
X110427730Y-104659103D01*
X110472327Y-104698960D01*
X110516375Y-104739446D01*
X110523769Y-104744934D01*
X110523774Y-104744938D01*
X110523779Y-104744941D01*
X110674243Y-104855012D01*
X110725732Y-104885447D01*
X110776802Y-104916605D01*
X110785128Y-104920556D01*
X110954110Y-104999308D01*
X111010506Y-105019154D01*
X111066681Y-105039808D01*
X111075615Y-105042067D01*
X111256676Y-105086497D01*
X111315910Y-105095019D01*
X111374972Y-105104360D01*
X111384172Y-105104840D01*
X111384175Y-105104840D01*
X111569931Y-105113233D01*
X111601249Y-105114722D01*
X113667854Y-105009942D01*
X113673244Y-105009923D01*
X113678246Y-105009415D01*
X113715797Y-105007511D01*
X113718375Y-105007124D01*
X113730761Y-105007211D01*
X113739933Y-105006311D01*
X114322222Y-104945111D01*
X114380832Y-104933079D01*
X114439580Y-104921873D01*
X114448402Y-104919209D01*
X115007715Y-104746072D01*
X115062833Y-104722902D01*
X115118322Y-104700484D01*
X115126458Y-104696157D01*
X115641490Y-104417681D01*
X115691064Y-104384243D01*
X115741138Y-104351476D01*
X115748279Y-104345652D01*
X116199412Y-103972442D01*
X116241588Y-103929971D01*
X116284301Y-103888143D01*
X116290175Y-103881043D01*
X116660227Y-103427314D01*
X116693320Y-103377506D01*
X116727127Y-103328132D01*
X116731510Y-103320026D01*
X117006384Y-102803061D01*
X117029182Y-102747749D01*
X117052744Y-102692775D01*
X117055469Y-102683972D01*
X117224696Y-102123464D01*
X117236316Y-102064776D01*
X117248752Y-102006273D01*
X117249715Y-101997108D01*
X117306850Y-101414406D01*
X117306850Y-101414402D01*
X117310000Y-101382419D01*
X117310000Y-97117581D01*
X117307080Y-97087937D01*
X117307211Y-97069238D01*
X117306311Y-97060067D01*
X117245110Y-96477777D01*
X117233084Y-96419191D01*
X117221873Y-96360420D01*
X117219210Y-96351598D01*
X117046072Y-95792285D01*
X117022902Y-95737167D01*
X117000484Y-95681678D01*
X116996157Y-95673542D01*
X116993116Y-95667917D01*
X117990001Y-96664803D01*
X117990000Y-103212677D01*
X117986324Y-103250000D01*
X117990000Y-103287322D01*
X117990000Y-103287332D01*
X118000997Y-103398985D01*
X118043482Y-103539041D01*
X118044454Y-103542246D01*
X118115026Y-103674276D01*
X118144322Y-103709973D01*
X118209999Y-103790001D01*
X118239003Y-103813804D01*
X120636201Y-106211003D01*
X120659999Y-106240001D01*
X120775724Y-106334974D01*
X120907753Y-106405546D01*
X121051014Y-106449003D01*
X121162667Y-106460000D01*
X121162676Y-106460000D01*
X121199999Y-106463676D01*
X121237322Y-106460000D01*
X136554465Y-106460000D01*
X136657111Y-106528586D01*
X136827271Y-106599068D01*
X137007911Y-106635000D01*
X137192089Y-106635000D01*
X137372729Y-106599068D01*
X137542889Y-106528586D01*
X137696028Y-106426262D01*
X137826262Y-106296028D01*
X137928586Y-106142889D01*
X137999068Y-105972729D01*
X138035000Y-105792089D01*
X138035000Y-105607911D01*
X137999068Y-105427271D01*
X137928586Y-105257111D01*
X137826262Y-105103972D01*
X137696028Y-104973738D01*
X137542889Y-104871414D01*
X137372729Y-104800932D01*
X137192089Y-104765000D01*
X137007911Y-104765000D01*
X136827271Y-104800932D01*
X136657111Y-104871414D01*
X136554465Y-104940000D01*
X134977943Y-104940000D01*
X134984745Y-104936926D01*
X134992700Y-104932273D01*
X135152969Y-104837033D01*
X135201158Y-104801607D01*
X135249854Y-104766846D01*
X135256754Y-104760737D01*
X135395472Y-104636180D01*
X135435871Y-104592059D01*
X135476878Y-104548511D01*
X135482460Y-104541179D01*
X135594342Y-104392050D01*
X135625408Y-104340913D01*
X135657168Y-104290242D01*
X135661219Y-104281965D01*
X135742005Y-104113946D01*
X135762528Y-104057801D01*
X135783861Y-104001874D01*
X135786227Y-103992967D01*
X135832840Y-103812457D01*
X135842069Y-103753376D01*
X135852131Y-103694384D01*
X135852722Y-103685188D01*
X135863385Y-103499062D01*
X135860962Y-103439290D01*
X135859374Y-103379495D01*
X135858168Y-103370359D01*
X135832476Y-103185706D01*
X135818493Y-103127557D01*
X135805317Y-103069193D01*
X135802359Y-103060466D01*
X135741290Y-102884320D01*
X135716297Y-102830034D01*
X135692020Y-102775304D01*
X135687423Y-102767317D01*
X135593304Y-102606387D01*
X135558222Y-102557962D01*
X135523796Y-102509015D01*
X135517735Y-102502073D01*
X135398790Y-102367730D01*
X134868082Y-101742080D01*
X134482590Y-101077244D01*
X134220927Y-100354656D01*
X134091357Y-99597148D01*
X134097979Y-98828662D01*
X134240581Y-98073501D01*
X134514658Y-97355527D01*
X134913028Y-96694976D01*
X135386611Y-96146325D01*
X135439412Y-96092130D01*
X135466987Y-96057653D01*
X135496631Y-96024946D01*
X135502072Y-96017509D01*
X135611093Y-95866276D01*
X135641173Y-95814566D01*
X135671967Y-95763292D01*
X135675859Y-95754939D01*
X135753430Y-95585412D01*
X135772884Y-95528873D01*
X135793146Y-95472555D01*
X135795342Y-95463605D01*
X135838506Y-95282239D01*
X135846607Y-95222999D01*
X135855543Y-95163825D01*
X135855958Y-95154619D01*
X135858767Y-95081057D01*
X135903972Y-95126262D01*
X136057111Y-95228586D01*
X136227271Y-95299068D01*
X136407911Y-95335000D01*
X136592089Y-95335000D01*
X136772729Y-95299068D01*
X136942889Y-95228586D01*
X137045535Y-95160000D01*
X137869570Y-95160000D01*
X137625537Y-95261082D01*
X137357748Y-95440013D01*
X137130013Y-95667748D01*
X136951082Y-95935537D01*
X136827832Y-96233088D01*
X136765000Y-96548967D01*
X136765000Y-96871033D01*
X136827832Y-97186912D01*
X136951082Y-97484463D01*
X137130013Y-97752252D01*
X137357748Y-97979987D01*
X137625537Y-98158918D01*
X137923088Y-98282168D01*
X138238967Y-98345000D01*
X138561033Y-98345000D01*
X138876912Y-98282168D01*
X139174463Y-98158918D01*
X139442252Y-97979987D01*
X139669987Y-97752252D01*
X139848918Y-97484463D01*
X139972168Y-97186912D01*
X140035000Y-96871033D01*
X140035000Y-96548967D01*
X139972168Y-96233088D01*
X139848918Y-95935537D01*
X139669987Y-95667748D01*
X139442252Y-95440013D01*
X139174463Y-95261082D01*
X138876912Y-95137832D01*
X138561033Y-95075000D01*
X138449394Y-95075000D01*
X138524276Y-95034974D01*
X138565749Y-95000938D01*
X140936615Y-95000938D01*
X140939038Y-95060709D01*
X140940626Y-95120505D01*
X140941832Y-95129641D01*
X140967524Y-95314294D01*
X140981507Y-95372443D01*
X140994683Y-95430807D01*
X140997641Y-95439534D01*
X141058710Y-95615681D01*
X141083710Y-95669981D01*
X141107980Y-95724696D01*
X141112577Y-95732683D01*
X141206696Y-95893613D01*
X141241778Y-95942038D01*
X141276204Y-95990985D01*
X141282265Y-95997927D01*
X141401210Y-96132270D01*
X141931918Y-96757920D01*
X142317410Y-97422756D01*
X142579073Y-98145344D01*
X142708643Y-98902852D01*
X142702021Y-99671338D01*
X142559419Y-100426499D01*
X142285341Y-101144476D01*
X141886972Y-101805024D01*
X141413389Y-102353675D01*
X141360588Y-102407870D01*
X141333010Y-102442349D01*
X141303369Y-102475054D01*
X141297928Y-102482492D01*
X141188907Y-102633724D01*
X141158832Y-102685426D01*
X141128033Y-102736709D01*
X141124140Y-102745061D01*
X141046570Y-102914588D01*
X141027116Y-102971127D01*
X141006854Y-103027445D01*
X141004658Y-103036395D01*
X140961494Y-103217761D01*
X140953393Y-103277001D01*
X140944457Y-103336175D01*
X140944042Y-103345381D01*
X140936927Y-103531677D01*
X140940486Y-103591364D01*
X140943214Y-103651144D01*
X140944595Y-103660256D01*
X140973800Y-103844386D01*
X140988888Y-103902259D01*
X141003173Y-103960361D01*
X141006297Y-103969031D01*
X141070711Y-104143981D01*
X141096744Y-104197803D01*
X141122050Y-104252040D01*
X141126798Y-104259938D01*
X141223966Y-104419045D01*
X141259979Y-104466813D01*
X141295317Y-104515074D01*
X141301509Y-104521899D01*
X141427730Y-104659103D01*
X141472327Y-104698960D01*
X141516375Y-104739446D01*
X141523769Y-104744934D01*
X141523774Y-104744938D01*
X141523779Y-104744941D01*
X141674243Y-104855012D01*
X141725732Y-104885447D01*
X141776802Y-104916605D01*
X141785128Y-104920556D01*
X141954110Y-104999308D01*
X142010506Y-105019154D01*
X142066681Y-105039808D01*
X142075615Y-105042067D01*
X142256676Y-105086497D01*
X142315910Y-105095019D01*
X142374972Y-105104360D01*
X142384172Y-105104840D01*
X142384175Y-105104840D01*
X142569931Y-105113233D01*
X142601249Y-105114722D01*
X144667854Y-105009942D01*
X144673244Y-105009923D01*
X144678246Y-105009415D01*
X144715797Y-105007511D01*
X144718375Y-105007124D01*
X144730761Y-105007211D01*
X144739933Y-105006311D01*
X145322222Y-104945111D01*
X145380832Y-104933079D01*
X145439580Y-104921873D01*
X145448402Y-104919209D01*
X146007715Y-104746072D01*
X146062833Y-104722902D01*
X146118322Y-104700484D01*
X146126458Y-104696157D01*
X146641490Y-104417681D01*
X146691064Y-104384243D01*
X146741138Y-104351476D01*
X146748279Y-104345652D01*
X147199412Y-103972442D01*
X147241588Y-103929971D01*
X147284301Y-103888143D01*
X147290175Y-103881043D01*
X147660227Y-103427314D01*
X147693320Y-103377506D01*
X147727127Y-103328132D01*
X147731510Y-103320026D01*
X148006384Y-102803061D01*
X148029182Y-102747749D01*
X148052744Y-102692775D01*
X148055469Y-102683972D01*
X148224696Y-102123464D01*
X148236316Y-102064776D01*
X148248752Y-102006273D01*
X148249715Y-101997108D01*
X148306850Y-101414406D01*
X148306850Y-101414402D01*
X148310000Y-101382419D01*
X148310000Y-97117581D01*
X148307080Y-97087937D01*
X148307211Y-97069238D01*
X148306311Y-97060067D01*
X148245110Y-96477777D01*
X148233084Y-96419191D01*
X148221873Y-96360420D01*
X148219210Y-96351598D01*
X148046072Y-95792285D01*
X148022902Y-95737167D01*
X148000484Y-95681678D01*
X147996157Y-95673542D01*
X147717681Y-95158510D01*
X147684243Y-95108936D01*
X147651476Y-95058862D01*
X147645652Y-95051721D01*
X147272442Y-94600588D01*
X147229990Y-94558431D01*
X147188144Y-94515699D01*
X147181043Y-94509825D01*
X146727315Y-94139773D01*
X146677504Y-94106679D01*
X146628132Y-94072873D01*
X146620026Y-94068490D01*
X146103062Y-93793616D01*
X146047735Y-93770812D01*
X145992775Y-93747256D01*
X145983971Y-93744531D01*
X145423464Y-93575304D01*
X145364769Y-93563682D01*
X145306273Y-93551248D01*
X145297108Y-93550285D01*
X144731168Y-93494794D01*
X144715797Y-93492489D01*
X142601249Y-93385278D01*
X142585392Y-93386032D01*
X142506335Y-93385830D01*
X142462390Y-93390026D01*
X142418260Y-93391506D01*
X142409133Y-93392776D01*
X142224664Y-93419757D01*
X142166602Y-93434149D01*
X142108345Y-93447728D01*
X142099638Y-93450747D01*
X141923924Y-93513044D01*
X141869756Y-93538442D01*
X141815255Y-93563074D01*
X141807305Y-93567725D01*
X141807298Y-93567728D01*
X141807292Y-93567732D01*
X141647031Y-93662967D01*
X141598827Y-93698404D01*
X141550146Y-93733154D01*
X141543246Y-93739263D01*
X141404528Y-93863820D01*
X141364130Y-93907940D01*
X141323122Y-93951488D01*
X141317540Y-93958821D01*
X141205658Y-94107949D01*
X141174592Y-94159086D01*
X141142832Y-94209757D01*
X141138781Y-94218034D01*
X141057995Y-94386054D01*
X141037472Y-94442199D01*
X141016139Y-94498126D01*
X141013773Y-94507033D01*
X140967160Y-94687544D01*
X140957932Y-94746618D01*
X140947869Y-94805616D01*
X140947278Y-94814812D01*
X140936615Y-95000938D01*
X138565749Y-95000938D01*
X138640001Y-94940001D01*
X138663804Y-94910997D01*
X140314802Y-93260000D01*
X148235199Y-93260000D01*
X151340000Y-96364802D01*
X151340001Y-102612668D01*
X151336324Y-102650000D01*
X151340001Y-102687333D01*
X151350998Y-102798986D01*
X151361443Y-102833419D01*
X151394454Y-102942246D01*
X151465026Y-103074276D01*
X151530497Y-103154052D01*
X151560000Y-103190001D01*
X151588998Y-103213799D01*
X155386201Y-107011003D01*
X155409999Y-107040001D01*
X155525724Y-107134974D01*
X155657753Y-107205546D01*
X155801014Y-107249003D01*
X155912667Y-107260000D01*
X155912676Y-107260000D01*
X155949999Y-107263676D01*
X155987322Y-107260000D01*
X166554465Y-107260000D01*
X166657111Y-107328586D01*
X166827271Y-107399068D01*
X167007911Y-107435000D01*
X167192089Y-107435000D01*
X167372729Y-107399068D01*
X167542889Y-107328586D01*
X167696028Y-107226262D01*
X167826262Y-107096028D01*
X167928586Y-106942889D01*
X167999068Y-106772729D01*
X168035000Y-106592089D01*
X168035000Y-106407911D01*
X167999068Y-106227271D01*
X167928586Y-106057111D01*
X167826262Y-105903972D01*
X167696028Y-105773738D01*
X167542889Y-105671414D01*
X167372729Y-105600932D01*
X167192089Y-105565000D01*
X167007911Y-105565000D01*
X166827271Y-105600932D01*
X166657111Y-105671414D01*
X166554465Y-105740000D01*
X156264802Y-105740000D01*
X152860000Y-102335199D01*
X152860000Y-96087322D01*
X152863676Y-96049999D01*
X152860000Y-96012676D01*
X152860000Y-96012667D01*
X152849003Y-95901014D01*
X152805546Y-95757753D01*
X152789459Y-95727657D01*
X152734974Y-95625723D01*
X152666332Y-95542083D01*
X152640001Y-95509999D01*
X152611004Y-95486202D01*
X149113804Y-91989003D01*
X149110519Y-91985000D01*
X164524843Y-91985000D01*
X166185626Y-93645783D01*
X166195637Y-93696108D01*
X166125757Y-93644988D01*
X166074268Y-93614553D01*
X166023198Y-93583395D01*
X166014873Y-93579444D01*
X165845890Y-93500692D01*
X165789483Y-93480842D01*
X165733319Y-93460192D01*
X165724385Y-93457934D01*
X165543325Y-93413503D01*
X165484080Y-93404979D01*
X165425028Y-93395640D01*
X165415830Y-93395160D01*
X165415825Y-93395160D01*
X165230056Y-93386766D01*
X165198750Y-93385278D01*
X163132146Y-93490058D01*
X163126756Y-93490077D01*
X163121754Y-93490585D01*
X163084203Y-93492489D01*
X163081625Y-93492876D01*
X163069238Y-93492789D01*
X163060067Y-93493689D01*
X162477777Y-93554890D01*
X162419191Y-93566916D01*
X162360420Y-93578127D01*
X162351598Y-93580790D01*
X161792285Y-93753928D01*
X161737167Y-93777098D01*
X161681678Y-93799516D01*
X161673542Y-93803843D01*
X161158510Y-94082319D01*
X161108936Y-94115757D01*
X161058862Y-94148524D01*
X161051721Y-94154348D01*
X160600588Y-94527558D01*
X160558431Y-94570010D01*
X160515699Y-94611856D01*
X160509825Y-94618957D01*
X160139773Y-95072685D01*
X160106679Y-95122496D01*
X160072873Y-95171868D01*
X160068490Y-95179974D01*
X159793616Y-95696938D01*
X159770812Y-95752265D01*
X159747256Y-95807225D01*
X159744531Y-95816029D01*
X159575304Y-96376536D01*
X159563682Y-96435231D01*
X159551248Y-96493727D01*
X159550285Y-96502892D01*
X159493150Y-97085595D01*
X159490000Y-97117582D01*
X159490001Y-101382419D01*
X159492920Y-101412054D01*
X159492789Y-101430761D01*
X159493689Y-101439933D01*
X159554889Y-102022222D01*
X159566921Y-102080832D01*
X159578127Y-102139580D01*
X159580791Y-102148402D01*
X159753928Y-102707715D01*
X159777098Y-102762833D01*
X159799516Y-102818322D01*
X159803843Y-102826458D01*
X160082319Y-103341490D01*
X160115757Y-103391064D01*
X160148524Y-103441138D01*
X160154348Y-103448279D01*
X160527558Y-103899412D01*
X160570029Y-103941588D01*
X160611857Y-103984301D01*
X160618957Y-103990175D01*
X161072686Y-104360227D01*
X161122494Y-104393320D01*
X161171868Y-104427127D01*
X161179974Y-104431510D01*
X161696939Y-104706384D01*
X161752251Y-104729182D01*
X161807225Y-104752744D01*
X161816028Y-104755469D01*
X162376536Y-104924696D01*
X162435224Y-104936316D01*
X162493727Y-104948752D01*
X162502892Y-104949715D01*
X163068834Y-105005207D01*
X163084203Y-105007511D01*
X165198750Y-105114722D01*
X165214607Y-105113968D01*
X165293664Y-105114170D01*
X165337608Y-105109974D01*
X165381740Y-105108494D01*
X165390867Y-105107224D01*
X165575337Y-105080243D01*
X165633407Y-105065849D01*
X165691655Y-105052272D01*
X165700361Y-105049253D01*
X165876076Y-104986956D01*
X165930232Y-104961563D01*
X165984745Y-104936926D01*
X165992700Y-104932273D01*
X166152969Y-104837033D01*
X166201158Y-104801607D01*
X166249854Y-104766846D01*
X166256754Y-104760737D01*
X166395472Y-104636180D01*
X166435871Y-104592059D01*
X166476878Y-104548511D01*
X166482460Y-104541179D01*
X166594342Y-104392050D01*
X166625408Y-104340913D01*
X166657168Y-104290242D01*
X166661219Y-104281965D01*
X166742005Y-104113946D01*
X166762528Y-104057801D01*
X166783861Y-104001874D01*
X166786227Y-103992967D01*
X166832840Y-103812457D01*
X166842069Y-103753376D01*
X166852131Y-103694384D01*
X166852722Y-103685188D01*
X166863385Y-103499062D01*
X166860962Y-103439290D01*
X166859374Y-103379495D01*
X166858168Y-103370359D01*
X166832476Y-103185706D01*
X166818493Y-103127557D01*
X166805317Y-103069193D01*
X166802359Y-103060466D01*
X166741290Y-102884320D01*
X166716297Y-102830034D01*
X166692020Y-102775304D01*
X166687423Y-102767317D01*
X166593304Y-102606387D01*
X166558222Y-102557962D01*
X166523796Y-102509015D01*
X166517735Y-102502073D01*
X166398790Y-102367730D01*
X165868082Y-101742080D01*
X165482590Y-101077244D01*
X165220927Y-100354656D01*
X165091357Y-99597148D01*
X165097979Y-98828662D01*
X165240581Y-98073501D01*
X165514658Y-97355527D01*
X165913028Y-96694976D01*
X166386611Y-96146325D01*
X166439412Y-96092130D01*
X166466987Y-96057653D01*
X166496631Y-96024946D01*
X166502072Y-96017509D01*
X166611093Y-95866276D01*
X166641173Y-95814566D01*
X166671967Y-95763292D01*
X166675859Y-95754939D01*
X166753430Y-95585412D01*
X166772884Y-95528873D01*
X166793146Y-95472555D01*
X166795342Y-95463605D01*
X166838506Y-95282239D01*
X166846607Y-95222999D01*
X166855543Y-95163825D01*
X166855958Y-95154619D01*
X166863073Y-94968323D01*
X166859514Y-94908636D01*
X166856786Y-94848856D01*
X166855406Y-94839745D01*
X166826200Y-94655614D01*
X166811114Y-94597748D01*
X166796827Y-94539639D01*
X166793703Y-94530969D01*
X166729289Y-94356018D01*
X166703234Y-94302151D01*
X166700655Y-94296622D01*
X166827271Y-94349068D01*
X167007911Y-94385000D01*
X167192089Y-94385000D01*
X167372729Y-94349068D01*
X167542889Y-94278586D01*
X167696028Y-94176262D01*
X167826262Y-94046028D01*
X167928586Y-93892889D01*
X167999068Y-93722729D01*
X168017900Y-93628057D01*
X168615000Y-94225158D01*
X168615000Y-95268122D01*
X168357748Y-95440013D01*
X168130013Y-95667748D01*
X167951082Y-95935537D01*
X167827832Y-96233088D01*
X167765000Y-96548967D01*
X167765000Y-96871033D01*
X167827832Y-97186912D01*
X167951082Y-97484463D01*
X168130013Y-97752252D01*
X168357748Y-97979987D01*
X168625537Y-98158918D01*
X168923088Y-98282168D01*
X169238967Y-98345000D01*
X169561033Y-98345000D01*
X169876912Y-98282168D01*
X170174463Y-98158918D01*
X170442252Y-97979987D01*
X170669987Y-97752252D01*
X170848918Y-97484463D01*
X170972168Y-97186912D01*
X171035000Y-96871033D01*
X171035000Y-96548967D01*
X170972168Y-96233088D01*
X170848918Y-95935537D01*
X170669987Y-95667748D01*
X170442252Y-95440013D01*
X170185000Y-95268123D01*
X170185000Y-93938552D01*
X170188797Y-93899999D01*
X170185000Y-93861446D01*
X170185000Y-93861439D01*
X170173641Y-93746113D01*
X170171669Y-93739610D01*
X170128754Y-93598140D01*
X170113448Y-93569505D01*
X170055862Y-93461767D01*
X169999242Y-93392776D01*
X169982345Y-93372187D01*
X169982342Y-93372184D01*
X169957764Y-93342236D01*
X169927817Y-93317659D01*
X166282347Y-89672190D01*
X166257764Y-89642236D01*
X166138233Y-89544138D01*
X166001860Y-89471246D01*
X165853887Y-89426359D01*
X165738561Y-89415000D01*
X165738553Y-89415000D01*
X165700000Y-89411203D01*
X165661447Y-89415000D01*
X149708120Y-89415000D01*
X149642889Y-89371414D01*
X149472729Y-89300932D01*
X149292089Y-89265000D01*
X149107911Y-89265000D01*
X148927271Y-89300932D01*
X148757111Y-89371414D01*
X148603972Y-89473738D01*
X148473738Y-89603972D01*
X148371414Y-89757111D01*
X148300932Y-89927271D01*
X148265000Y-90107911D01*
X148265000Y-90292089D01*
X148289449Y-90415000D01*
X126575157Y-90415000D01*
X117182347Y-81022190D01*
X117157764Y-80992236D01*
X117038233Y-80894138D01*
X116901860Y-80821246D01*
X116753887Y-80776359D01*
X116638561Y-80765000D01*
X116638553Y-80765000D01*
X116600000Y-80761203D01*
X116561447Y-80765000D01*
X80508120Y-80765000D01*
X80442889Y-80721414D01*
X80272729Y-80650932D01*
X80092089Y-80615000D01*
X79907911Y-80615000D01*
X79727271Y-80650932D01*
X79557111Y-80721414D01*
X79403972Y-80823738D01*
X79273738Y-80953972D01*
X79171414Y-81107111D01*
X79100932Y-81277271D01*
X79065000Y-81457911D01*
X74060000Y-81457911D01*
X74060000Y-65548967D01*
X74765000Y-65548967D01*
X74765000Y-65871033D01*
X74827832Y-66186912D01*
X74951082Y-66484463D01*
X75130013Y-66752252D01*
X75357748Y-66979987D01*
X75625537Y-67158918D01*
X75923088Y-67282168D01*
X76238967Y-67345000D01*
X76561033Y-67345000D01*
X76876912Y-67282168D01*
X77174463Y-67158918D01*
X77442252Y-66979987D01*
X77669987Y-66752252D01*
X77848918Y-66484463D01*
X77972168Y-66186912D01*
X78035000Y-65871033D01*
X78035000Y-65548967D01*
X77972168Y-65233088D01*
X77848918Y-64935537D01*
X77669987Y-64667748D01*
X77442252Y-64440013D01*
X77174463Y-64261082D01*
X76876912Y-64137832D01*
X76561033Y-64075000D01*
X76238967Y-64075000D01*
X75923088Y-64137832D01*
X75625537Y-64261082D01*
X75357748Y-64440013D01*
X75130013Y-64667748D01*
X74951082Y-64935537D01*
X74827832Y-65233088D01*
X74765000Y-65548967D01*
X74060000Y-65548967D01*
X74060000Y-64000938D01*
X78936615Y-64000938D01*
X78939038Y-64060709D01*
X78940626Y-64120505D01*
X78941832Y-64129641D01*
X78967524Y-64314294D01*
X78981507Y-64372443D01*
X78994683Y-64430807D01*
X78997641Y-64439534D01*
X79058710Y-64615681D01*
X79083710Y-64669981D01*
X79107980Y-64724696D01*
X79112577Y-64732683D01*
X79206696Y-64893613D01*
X79241778Y-64942038D01*
X79276204Y-64990985D01*
X79282265Y-64997927D01*
X79401210Y-65132270D01*
X79931918Y-65757920D01*
X80317410Y-66422756D01*
X80579073Y-67145344D01*
X80708643Y-67902852D01*
X80702021Y-68671338D01*
X80559419Y-69426499D01*
X80285341Y-70144476D01*
X79886972Y-70805024D01*
X79413389Y-71353675D01*
X79360588Y-71407870D01*
X79333010Y-71442349D01*
X79303369Y-71475054D01*
X79297928Y-71482492D01*
X79188907Y-71633724D01*
X79158832Y-71685426D01*
X79128033Y-71736709D01*
X79124140Y-71745061D01*
X79046570Y-71914588D01*
X79027116Y-71971127D01*
X79006854Y-72027445D01*
X79004658Y-72036395D01*
X78961494Y-72217761D01*
X78953393Y-72277001D01*
X78944457Y-72336175D01*
X78944042Y-72345381D01*
X78936927Y-72531677D01*
X78940486Y-72591364D01*
X78943214Y-72651144D01*
X78944595Y-72660256D01*
X78973800Y-72844386D01*
X78988888Y-72902259D01*
X79003173Y-72960361D01*
X79006297Y-72969031D01*
X79070711Y-73143981D01*
X79096744Y-73197803D01*
X79122050Y-73252040D01*
X79126798Y-73259938D01*
X79223966Y-73419045D01*
X79259979Y-73466813D01*
X79295317Y-73515074D01*
X79301509Y-73521899D01*
X79427730Y-73659103D01*
X79472327Y-73698960D01*
X79516375Y-73739446D01*
X79523769Y-73744934D01*
X79523774Y-73744938D01*
X79523779Y-73744941D01*
X79674243Y-73855012D01*
X79725732Y-73885447D01*
X79776802Y-73916605D01*
X79785128Y-73920556D01*
X79954110Y-73999308D01*
X80010506Y-74019154D01*
X80066681Y-74039808D01*
X80075615Y-74042067D01*
X80256676Y-74086497D01*
X80315910Y-74095019D01*
X80374972Y-74104360D01*
X80384172Y-74104840D01*
X80384175Y-74104840D01*
X80569931Y-74113233D01*
X80601249Y-74114722D01*
X82667854Y-74009942D01*
X82673244Y-74009923D01*
X82678246Y-74009415D01*
X82715797Y-74007511D01*
X82718375Y-74007124D01*
X82730761Y-74007211D01*
X82739933Y-74006311D01*
X83322222Y-73945111D01*
X83380832Y-73933079D01*
X83439580Y-73921873D01*
X83448402Y-73919209D01*
X84007715Y-73746072D01*
X84062833Y-73722902D01*
X84118322Y-73700484D01*
X84126458Y-73696157D01*
X84641490Y-73417681D01*
X84691064Y-73384243D01*
X84741138Y-73351476D01*
X84748279Y-73345652D01*
X85199412Y-72972442D01*
X85241588Y-72929971D01*
X85284301Y-72888143D01*
X85290175Y-72881043D01*
X85660227Y-72427314D01*
X85693320Y-72377506D01*
X85727127Y-72328132D01*
X85731510Y-72320026D01*
X86006384Y-71803061D01*
X86029182Y-71747749D01*
X86052744Y-71692775D01*
X86055469Y-71683972D01*
X86224696Y-71123464D01*
X86236316Y-71064776D01*
X86248752Y-71006273D01*
X86249715Y-70997108D01*
X86306850Y-70414406D01*
X86306850Y-70414402D01*
X86310000Y-70382419D01*
X86310000Y-66117581D01*
X86307080Y-66087937D01*
X86307211Y-66069238D01*
X86306311Y-66060067D01*
X86245110Y-65477777D01*
X86233084Y-65419191D01*
X86221873Y-65360420D01*
X86219210Y-65351598D01*
X86046072Y-64792285D01*
X86022902Y-64737167D01*
X86000484Y-64681678D01*
X85996157Y-64673542D01*
X85717681Y-64158510D01*
X85684243Y-64108936D01*
X85651476Y-64058862D01*
X85645652Y-64051721D01*
X85272442Y-63600588D01*
X85229990Y-63558431D01*
X85188144Y-63515699D01*
X85181043Y-63509825D01*
X84727315Y-63139773D01*
X84677504Y-63106679D01*
X84628132Y-63072873D01*
X84620026Y-63068490D01*
X84103062Y-62793616D01*
X84047735Y-62770812D01*
X83992775Y-62747256D01*
X83983971Y-62744531D01*
X83423464Y-62575304D01*
X83364769Y-62563682D01*
X83306273Y-62551248D01*
X83297108Y-62550285D01*
X82731168Y-62494794D01*
X82715797Y-62492489D01*
X80601249Y-62385278D01*
X80585392Y-62386032D01*
X80506335Y-62385830D01*
X80462390Y-62390026D01*
X80418260Y-62391506D01*
X80409133Y-62392776D01*
X80224664Y-62419757D01*
X80166602Y-62434149D01*
X80108345Y-62447728D01*
X80099638Y-62450747D01*
X79923924Y-62513044D01*
X79869756Y-62538442D01*
X79815255Y-62563074D01*
X79807305Y-62567725D01*
X79807298Y-62567728D01*
X79807292Y-62567732D01*
X79647031Y-62662967D01*
X79598827Y-62698404D01*
X79550146Y-62733154D01*
X79543246Y-62739263D01*
X79404528Y-62863820D01*
X79364130Y-62907940D01*
X79323122Y-62951488D01*
X79317540Y-62958821D01*
X79205658Y-63107949D01*
X79174592Y-63159086D01*
X79142832Y-63209757D01*
X79138781Y-63218034D01*
X79057995Y-63386054D01*
X79037472Y-63442199D01*
X79016139Y-63498126D01*
X79013773Y-63507033D01*
X78967160Y-63687544D01*
X78957932Y-63746618D01*
X78947869Y-63805616D01*
X78947278Y-63814812D01*
X78936615Y-64000938D01*
X74060000Y-64000938D01*
X74060000Y-61307911D01*
X74565000Y-61307911D01*
X74565000Y-61492089D01*
X74600932Y-61672729D01*
X74671414Y-61842889D01*
X74773738Y-61996028D01*
X74903972Y-62126262D01*
X75057111Y-62228586D01*
X75227271Y-62299068D01*
X75407911Y-62335000D01*
X75592089Y-62335000D01*
X75772729Y-62299068D01*
X75942889Y-62228586D01*
X76008120Y-62185000D01*
X86374843Y-62185000D01*
X91865001Y-67675158D01*
X91865000Y-72561447D01*
X91861203Y-72600000D01*
X91865000Y-72638553D01*
X91865000Y-72638560D01*
X91876359Y-72753886D01*
X91921246Y-72901859D01*
X91994138Y-73038232D01*
X92092236Y-73157764D01*
X92122190Y-73182347D01*
X94817658Y-75877816D01*
X94842236Y-75907764D01*
X94872184Y-75932342D01*
X94872187Y-75932345D01*
X94901559Y-75956450D01*
X94961767Y-76005862D01*
X95098140Y-76078754D01*
X95211672Y-76113194D01*
X95246112Y-76123641D01*
X95260490Y-76125057D01*
X95361439Y-76135000D01*
X95361446Y-76135000D01*
X95399999Y-76138797D01*
X95438552Y-76135000D01*
X105411447Y-76135000D01*
X105450000Y-76138797D01*
X105488553Y-76135000D01*
X105488561Y-76135000D01*
X105603887Y-76123641D01*
X105751860Y-76078754D01*
X105888233Y-76005862D01*
X106007764Y-75907764D01*
X106032347Y-75877810D01*
X106295783Y-75614374D01*
X106372729Y-75599068D01*
X106542889Y-75528586D01*
X106696028Y-75426262D01*
X106826262Y-75296028D01*
X106928586Y-75142889D01*
X106999068Y-74972729D01*
X107035000Y-74792089D01*
X107035000Y-74607911D01*
X106999068Y-74427271D01*
X106928586Y-74257111D01*
X106826262Y-74103972D01*
X106696028Y-73973738D01*
X106542889Y-73871414D01*
X106372729Y-73800932D01*
X106192089Y-73765000D01*
X106007911Y-73765000D01*
X105827271Y-73800932D01*
X105657111Y-73871414D01*
X105503972Y-73973738D01*
X105373738Y-74103972D01*
X105271414Y-74257111D01*
X105200932Y-74427271D01*
X105185626Y-74504217D01*
X105124843Y-74565000D01*
X95725158Y-74565000D01*
X93435000Y-72274843D01*
X93435000Y-67388556D01*
X93438797Y-67350000D01*
X93435000Y-67311444D01*
X93435000Y-67311439D01*
X93426409Y-67224212D01*
X93423642Y-67196113D01*
X93378754Y-67048140D01*
X93359317Y-67011776D01*
X93305862Y-66911767D01*
X93207764Y-66792236D01*
X93177810Y-66767653D01*
X92527739Y-66117582D01*
X97490000Y-66117582D01*
X97490001Y-70382419D01*
X97492920Y-70412054D01*
X97492789Y-70430761D01*
X97493689Y-70439933D01*
X97554889Y-71022222D01*
X97566921Y-71080832D01*
X97578127Y-71139580D01*
X97580791Y-71148402D01*
X97753928Y-71707715D01*
X97777098Y-71762833D01*
X97799516Y-71818322D01*
X97803843Y-71826458D01*
X98082319Y-72341490D01*
X98115757Y-72391064D01*
X98148524Y-72441138D01*
X98154348Y-72448279D01*
X98527558Y-72899412D01*
X98570029Y-72941588D01*
X98611857Y-72984301D01*
X98618957Y-72990175D01*
X99072686Y-73360227D01*
X99122494Y-73393320D01*
X99171868Y-73427127D01*
X99179974Y-73431510D01*
X99696939Y-73706384D01*
X99752251Y-73729182D01*
X99807225Y-73752744D01*
X99816028Y-73755469D01*
X100376536Y-73924696D01*
X100435224Y-73936316D01*
X100493727Y-73948752D01*
X100502892Y-73949715D01*
X101068834Y-74005207D01*
X101084203Y-74007511D01*
X103198750Y-74114722D01*
X103214607Y-74113968D01*
X103293664Y-74114170D01*
X103337608Y-74109974D01*
X103381740Y-74108494D01*
X103390867Y-74107224D01*
X103575337Y-74080243D01*
X103633407Y-74065849D01*
X103691655Y-74052272D01*
X103700361Y-74049253D01*
X103876076Y-73986956D01*
X103930232Y-73961563D01*
X103984745Y-73936926D01*
X103992700Y-73932273D01*
X104152969Y-73837033D01*
X104201158Y-73801607D01*
X104249854Y-73766846D01*
X104256754Y-73760737D01*
X104395472Y-73636180D01*
X104435871Y-73592059D01*
X104476878Y-73548511D01*
X104482460Y-73541179D01*
X104594342Y-73392050D01*
X104625408Y-73340913D01*
X104657168Y-73290242D01*
X104661219Y-73281965D01*
X104742005Y-73113946D01*
X104762528Y-73057801D01*
X104783861Y-73001874D01*
X104786227Y-72992967D01*
X104832840Y-72812457D01*
X104842069Y-72753376D01*
X104852131Y-72694384D01*
X104852722Y-72685188D01*
X104863385Y-72499062D01*
X104860962Y-72439290D01*
X104859374Y-72379495D01*
X104858168Y-72370359D01*
X104832476Y-72185706D01*
X104818493Y-72127557D01*
X104805317Y-72069193D01*
X104802359Y-72060466D01*
X104741290Y-71884320D01*
X104716297Y-71830034D01*
X104692020Y-71775304D01*
X104687423Y-71767317D01*
X104593304Y-71606387D01*
X104558222Y-71557962D01*
X104523796Y-71509015D01*
X104517735Y-71502073D01*
X104398790Y-71367730D01*
X103868082Y-70742080D01*
X103482590Y-70077244D01*
X103220927Y-69354656D01*
X103091357Y-68597148D01*
X103097979Y-67828662D01*
X103240581Y-67073501D01*
X103514658Y-66355527D01*
X103913028Y-65694976D01*
X104039059Y-65548967D01*
X105765000Y-65548967D01*
X105765000Y-65871033D01*
X105827832Y-66186912D01*
X105951082Y-66484463D01*
X106130013Y-66752252D01*
X106357748Y-66979987D01*
X106625537Y-67158918D01*
X106923088Y-67282168D01*
X107238967Y-67345000D01*
X107561033Y-67345000D01*
X107876912Y-67282168D01*
X108174463Y-67158918D01*
X108442252Y-66979987D01*
X108669987Y-66752252D01*
X108848918Y-66484463D01*
X108972168Y-66186912D01*
X109035000Y-65871033D01*
X109035000Y-65548967D01*
X108972168Y-65233088D01*
X108848918Y-64935537D01*
X108669987Y-64667748D01*
X108442252Y-64440013D01*
X108174463Y-64261082D01*
X108160000Y-64255091D01*
X108160000Y-64000938D01*
X109936615Y-64000938D01*
X109939038Y-64060709D01*
X109940626Y-64120505D01*
X109941832Y-64129641D01*
X109967524Y-64314294D01*
X109981507Y-64372443D01*
X109994683Y-64430807D01*
X109997641Y-64439534D01*
X110058710Y-64615681D01*
X110083710Y-64669981D01*
X110107980Y-64724696D01*
X110112577Y-64732683D01*
X110206696Y-64893613D01*
X110241778Y-64942038D01*
X110276204Y-64990985D01*
X110282265Y-64997927D01*
X110401210Y-65132270D01*
X110931918Y-65757920D01*
X111317410Y-66422756D01*
X111579073Y-67145344D01*
X111708643Y-67902852D01*
X111702021Y-68671338D01*
X111559419Y-69426499D01*
X111285341Y-70144476D01*
X110886972Y-70805024D01*
X110413389Y-71353675D01*
X110360588Y-71407870D01*
X110333010Y-71442349D01*
X110303369Y-71475054D01*
X110297928Y-71482492D01*
X110188907Y-71633724D01*
X110158832Y-71685426D01*
X110128033Y-71736709D01*
X110124140Y-71745061D01*
X110046570Y-71914588D01*
X110027116Y-71971127D01*
X110006854Y-72027445D01*
X110004658Y-72036395D01*
X109961494Y-72217761D01*
X109953393Y-72277001D01*
X109944457Y-72336175D01*
X109944042Y-72345381D01*
X109936927Y-72531677D01*
X109940486Y-72591364D01*
X109943214Y-72651144D01*
X109944595Y-72660256D01*
X109973800Y-72844386D01*
X109988888Y-72902259D01*
X110003173Y-72960361D01*
X110006297Y-72969031D01*
X110070711Y-73143981D01*
X110096744Y-73197803D01*
X110122050Y-73252040D01*
X110126798Y-73259938D01*
X110223966Y-73419045D01*
X110259979Y-73466813D01*
X110295317Y-73515074D01*
X110301509Y-73521899D01*
X110427730Y-73659103D01*
X110472327Y-73698960D01*
X110516375Y-73739446D01*
X110523769Y-73744934D01*
X110523774Y-73744938D01*
X110523779Y-73744941D01*
X110674243Y-73855012D01*
X110725732Y-73885447D01*
X110776802Y-73916605D01*
X110785128Y-73920556D01*
X110954110Y-73999308D01*
X111010506Y-74019154D01*
X111066681Y-74039808D01*
X111075615Y-74042067D01*
X111256676Y-74086497D01*
X111315910Y-74095019D01*
X111374972Y-74104360D01*
X111384172Y-74104840D01*
X111384175Y-74104840D01*
X111569931Y-74113233D01*
X111601249Y-74114722D01*
X113667854Y-74009942D01*
X113673244Y-74009923D01*
X113678246Y-74009415D01*
X113715797Y-74007511D01*
X113718375Y-74007124D01*
X113730761Y-74007211D01*
X113739933Y-74006311D01*
X114322222Y-73945111D01*
X114380832Y-73933079D01*
X114439580Y-73921873D01*
X114448402Y-73919209D01*
X115007715Y-73746072D01*
X115062833Y-73722902D01*
X115118322Y-73700484D01*
X115126458Y-73696157D01*
X115641490Y-73417681D01*
X115691064Y-73384243D01*
X115741138Y-73351476D01*
X115748279Y-73345652D01*
X116199412Y-72972442D01*
X116241588Y-72929971D01*
X116284301Y-72888143D01*
X116290175Y-72881043D01*
X116660227Y-72427314D01*
X116693320Y-72377506D01*
X116727127Y-72328132D01*
X116731510Y-72320026D01*
X117006384Y-71803061D01*
X117029182Y-71747749D01*
X117052744Y-71692775D01*
X117055469Y-71683972D01*
X117224696Y-71123464D01*
X117236316Y-71064776D01*
X117248752Y-71006273D01*
X117249715Y-70997108D01*
X117306850Y-70414406D01*
X117306850Y-70414402D01*
X117310000Y-70382419D01*
X117310000Y-66117581D01*
X117307080Y-66087937D01*
X117307211Y-66069238D01*
X117306311Y-66060067D01*
X117245110Y-65477777D01*
X117233084Y-65419191D01*
X117221873Y-65360420D01*
X117219210Y-65351598D01*
X117046072Y-64792285D01*
X117022902Y-64737167D01*
X117000484Y-64681678D01*
X116996157Y-64673542D01*
X116717681Y-64158510D01*
X116684243Y-64108936D01*
X116651476Y-64058862D01*
X116645652Y-64051721D01*
X116272442Y-63600588D01*
X116229990Y-63558431D01*
X116188144Y-63515699D01*
X116181043Y-63509825D01*
X115727315Y-63139773D01*
X115677504Y-63106679D01*
X115628132Y-63072873D01*
X115620026Y-63068490D01*
X115103062Y-62793616D01*
X115047735Y-62770812D01*
X114992775Y-62747256D01*
X114983971Y-62744531D01*
X114423464Y-62575304D01*
X114364769Y-62563682D01*
X114306273Y-62551248D01*
X114297108Y-62550285D01*
X113731168Y-62494794D01*
X113715797Y-62492489D01*
X111601249Y-62385278D01*
X111585392Y-62386032D01*
X111506335Y-62385830D01*
X111462390Y-62390026D01*
X111418260Y-62391506D01*
X111409133Y-62392776D01*
X111224664Y-62419757D01*
X111166602Y-62434149D01*
X111108345Y-62447728D01*
X111099638Y-62450747D01*
X110923924Y-62513044D01*
X110869756Y-62538442D01*
X110815255Y-62563074D01*
X110807305Y-62567725D01*
X110807298Y-62567728D01*
X110807292Y-62567732D01*
X110647031Y-62662967D01*
X110598827Y-62698404D01*
X110550146Y-62733154D01*
X110543246Y-62739263D01*
X110404528Y-62863820D01*
X110364130Y-62907940D01*
X110323122Y-62951488D01*
X110317540Y-62958821D01*
X110205658Y-63107949D01*
X110174592Y-63159086D01*
X110142832Y-63209757D01*
X110138781Y-63218034D01*
X110057995Y-63386054D01*
X110037472Y-63442199D01*
X110016139Y-63498126D01*
X110013773Y-63507033D01*
X109967160Y-63687544D01*
X109957932Y-63746618D01*
X109947869Y-63805616D01*
X109947278Y-63814812D01*
X109936615Y-64000938D01*
X108160000Y-64000938D01*
X108160000Y-63514801D01*
X109780555Y-61894246D01*
X109821414Y-61992889D01*
X109923738Y-62146028D01*
X110053972Y-62276262D01*
X110207111Y-62378586D01*
X110377271Y-62449068D01*
X110557911Y-62485000D01*
X110742089Y-62485000D01*
X110922729Y-62449068D01*
X111092889Y-62378586D01*
X111158120Y-62335000D01*
X117474843Y-62335000D01*
X123415000Y-68275157D01*
X123415001Y-74461437D01*
X123411203Y-74500000D01*
X123426359Y-74653886D01*
X123471246Y-74801859D01*
X123482112Y-74822187D01*
X123544139Y-74938233D01*
X123572450Y-74972729D01*
X123617655Y-75027812D01*
X123617659Y-75027816D01*
X123642237Y-75057764D01*
X123672185Y-75082342D01*
X125904842Y-77315000D01*
X110826586Y-77315000D01*
X110801898Y-77304774D01*
X110601939Y-77265000D01*
X110398061Y-77265000D01*
X110198102Y-77304774D01*
X110173414Y-77315000D01*
X109826586Y-77315000D01*
X109801898Y-77304774D01*
X109601939Y-77265000D01*
X109398061Y-77265000D01*
X109198102Y-77304774D01*
X109009744Y-77382795D01*
X108840226Y-77496063D01*
X108696063Y-77640226D01*
X108582795Y-77809744D01*
X108504774Y-77998102D01*
X108465000Y-78198061D01*
X108465000Y-78401939D01*
X108504774Y-78601898D01*
X108582795Y-78790256D01*
X108696063Y-78959774D01*
X108840226Y-79103937D01*
X109009744Y-79217205D01*
X109198102Y-79295226D01*
X109398061Y-79335000D01*
X109601939Y-79335000D01*
X109801898Y-79295226D01*
X109826586Y-79285000D01*
X110173414Y-79285000D01*
X110198102Y-79295226D01*
X110398061Y-79335000D01*
X110601939Y-79335000D01*
X110801898Y-79295226D01*
X110826586Y-79285000D01*
X129773414Y-79285000D01*
X129798102Y-79295226D01*
X129998061Y-79335000D01*
X130201939Y-79335000D01*
X130401898Y-79295226D01*
X130426586Y-79285000D01*
X130673414Y-79285000D01*
X130698102Y-79295226D01*
X130898061Y-79335000D01*
X131101939Y-79335000D01*
X131301898Y-79295226D01*
X131490256Y-79217205D01*
X131659774Y-79103937D01*
X131803937Y-78959774D01*
X131917205Y-78790256D01*
X131995226Y-78601898D01*
X132035000Y-78401939D01*
X132035000Y-78198061D01*
X131995226Y-77998102D01*
X131948377Y-77885000D01*
X134561447Y-77885000D01*
X134600000Y-77888797D01*
X134638553Y-77885000D01*
X134638561Y-77885000D01*
X134753887Y-77873641D01*
X134901860Y-77828754D01*
X135038233Y-77755862D01*
X135157764Y-77657764D01*
X135182347Y-77627810D01*
X137195783Y-75614374D01*
X137272729Y-75599068D01*
X137442889Y-75528586D01*
X137596028Y-75426262D01*
X137726262Y-75296028D01*
X137828586Y-75142889D01*
X137899068Y-74972729D01*
X137935000Y-74792089D01*
X137935000Y-74607911D01*
X137899068Y-74427271D01*
X137828586Y-74257111D01*
X137726262Y-74103972D01*
X137596028Y-73973738D01*
X137442889Y-73871414D01*
X137272729Y-73800932D01*
X137092089Y-73765000D01*
X136907911Y-73765000D01*
X136727271Y-73800932D01*
X136557111Y-73871414D01*
X136403972Y-73973738D01*
X136273738Y-74103972D01*
X136171414Y-74257111D01*
X136100932Y-74427271D01*
X136085626Y-74504217D01*
X134274843Y-76315000D01*
X131748377Y-76315000D01*
X131795226Y-76201898D01*
X131835000Y-76001939D01*
X131835000Y-75798061D01*
X131795226Y-75598102D01*
X131717205Y-75409744D01*
X131603937Y-75240226D01*
X131459774Y-75096063D01*
X131290256Y-74982795D01*
X131101898Y-74904774D01*
X130901939Y-74865000D01*
X130698061Y-74865000D01*
X130498102Y-74904774D01*
X130473414Y-74915000D01*
X130308000Y-74915000D01*
X128785000Y-73392000D01*
X128785000Y-71782393D01*
X128799516Y-71818322D01*
X128803843Y-71826458D01*
X129082319Y-72341490D01*
X129115757Y-72391064D01*
X129148524Y-72441138D01*
X129154348Y-72448279D01*
X129527558Y-72899412D01*
X129570029Y-72941588D01*
X129611857Y-72984301D01*
X129618957Y-72990175D01*
X130072686Y-73360227D01*
X130122494Y-73393320D01*
X130171868Y-73427127D01*
X130179974Y-73431510D01*
X130696939Y-73706384D01*
X130752251Y-73729182D01*
X130807225Y-73752744D01*
X130816028Y-73755469D01*
X131376536Y-73924696D01*
X131435224Y-73936316D01*
X131493727Y-73948752D01*
X131502892Y-73949715D01*
X132068834Y-74005207D01*
X132084203Y-74007511D01*
X134198750Y-74114722D01*
X134214607Y-74113968D01*
X134293664Y-74114170D01*
X134337608Y-74109974D01*
X134381740Y-74108494D01*
X134390867Y-74107224D01*
X134575337Y-74080243D01*
X134633407Y-74065849D01*
X134691655Y-74052272D01*
X134700361Y-74049253D01*
X134876076Y-73986956D01*
X134930232Y-73961563D01*
X134984745Y-73936926D01*
X134992700Y-73932273D01*
X135152969Y-73837033D01*
X135201158Y-73801607D01*
X135249854Y-73766846D01*
X135256754Y-73760737D01*
X135395472Y-73636180D01*
X135435871Y-73592059D01*
X135476878Y-73548511D01*
X135482460Y-73541179D01*
X135594342Y-73392050D01*
X135625408Y-73340913D01*
X135657168Y-73290242D01*
X135661219Y-73281965D01*
X135742005Y-73113946D01*
X135762528Y-73057801D01*
X135783861Y-73001874D01*
X135786227Y-72992967D01*
X135832840Y-72812457D01*
X135842069Y-72753376D01*
X135852131Y-72694384D01*
X135852722Y-72685188D01*
X135863385Y-72499062D01*
X135860962Y-72439290D01*
X135859374Y-72379495D01*
X135858168Y-72370359D01*
X135832476Y-72185706D01*
X135818493Y-72127557D01*
X135805317Y-72069193D01*
X135802359Y-72060466D01*
X135741290Y-71884320D01*
X135716297Y-71830034D01*
X135692020Y-71775304D01*
X135687423Y-71767317D01*
X135593304Y-71606387D01*
X135558222Y-71557962D01*
X135523796Y-71509015D01*
X135517735Y-71502073D01*
X135398790Y-71367730D01*
X134868082Y-70742080D01*
X134482590Y-70077244D01*
X134220927Y-69354656D01*
X134091357Y-68597148D01*
X134097979Y-67828662D01*
X134240581Y-67073501D01*
X134514658Y-66355527D01*
X134913028Y-65694976D01*
X135386611Y-65146325D01*
X135439412Y-65092130D01*
X135466987Y-65057653D01*
X135496631Y-65024946D01*
X135502072Y-65017509D01*
X135611093Y-64866276D01*
X135641173Y-64814566D01*
X135671967Y-64763292D01*
X135675859Y-64754939D01*
X135753430Y-64585412D01*
X135772884Y-64528873D01*
X135793146Y-64472555D01*
X135795342Y-64463605D01*
X135838506Y-64282239D01*
X135846607Y-64222999D01*
X135855543Y-64163825D01*
X135855958Y-64154619D01*
X135863073Y-63968323D01*
X135859514Y-63908636D01*
X135856786Y-63848856D01*
X135855406Y-63839745D01*
X135826200Y-63655614D01*
X135811114Y-63597748D01*
X135796827Y-63539639D01*
X135793703Y-63530969D01*
X135739662Y-63384193D01*
X135859774Y-63303937D01*
X136003937Y-63159774D01*
X136117205Y-62990256D01*
X136195226Y-62801898D01*
X136235000Y-62601939D01*
X136235000Y-62398061D01*
X136195226Y-62198102D01*
X136185000Y-62173414D01*
X136185000Y-62026586D01*
X136195226Y-62001898D01*
X136235000Y-61801939D01*
X136235000Y-61609801D01*
X136465000Y-61839802D01*
X136465000Y-61892089D01*
X136500932Y-62072729D01*
X136571414Y-62242889D01*
X136673738Y-62396028D01*
X136803972Y-62526262D01*
X136957111Y-62628586D01*
X137097868Y-62686889D01*
X137027271Y-62700932D01*
X136857111Y-62771414D01*
X136703972Y-62873738D01*
X136573738Y-63003972D01*
X136471414Y-63157111D01*
X136400932Y-63327271D01*
X136365000Y-63507911D01*
X136365000Y-63692089D01*
X136400932Y-63872729D01*
X136471414Y-64042889D01*
X136573738Y-64196028D01*
X136703972Y-64326262D01*
X136857111Y-64428586D01*
X137027271Y-64499068D01*
X137207911Y-64535000D01*
X137262761Y-64535000D01*
X137130013Y-64667748D01*
X136951082Y-64935537D01*
X136827832Y-65233088D01*
X136765000Y-65548967D01*
X136765000Y-65871033D01*
X136827832Y-66186912D01*
X136951082Y-66484463D01*
X137130013Y-66752252D01*
X137357748Y-66979987D01*
X137625537Y-67158918D01*
X137923088Y-67282168D01*
X138238967Y-67345000D01*
X138561033Y-67345000D01*
X138876912Y-67282168D01*
X139174463Y-67158918D01*
X139442252Y-66979987D01*
X139669987Y-66752252D01*
X139848918Y-66484463D01*
X139972168Y-66186912D01*
X140035000Y-65871033D01*
X140035000Y-65548967D01*
X139972168Y-65233088D01*
X139848918Y-64935537D01*
X139669987Y-64667748D01*
X139442252Y-64440013D01*
X139174463Y-64261082D01*
X138876912Y-64137832D01*
X138561033Y-64075000D01*
X138238967Y-64075000D01*
X138086922Y-64105243D01*
X138128586Y-64042889D01*
X138145962Y-64000938D01*
X140936615Y-64000938D01*
X140939038Y-64060709D01*
X140940626Y-64120505D01*
X140941832Y-64129641D01*
X140967524Y-64314294D01*
X140981507Y-64372443D01*
X140994683Y-64430807D01*
X140997641Y-64439534D01*
X141058710Y-64615681D01*
X141083710Y-64669981D01*
X141107980Y-64724696D01*
X141112577Y-64732683D01*
X141206696Y-64893613D01*
X141241778Y-64942038D01*
X141276204Y-64990985D01*
X141282265Y-64997927D01*
X141401210Y-65132270D01*
X141931918Y-65757920D01*
X142317410Y-66422756D01*
X142579073Y-67145344D01*
X142708643Y-67902852D01*
X142702021Y-68671338D01*
X142559419Y-69426499D01*
X142285341Y-70144476D01*
X141886972Y-70805024D01*
X141413389Y-71353675D01*
X141360588Y-71407870D01*
X141333010Y-71442349D01*
X141303369Y-71475054D01*
X141297928Y-71482492D01*
X141188907Y-71633724D01*
X141158832Y-71685426D01*
X141128033Y-71736709D01*
X141124140Y-71745061D01*
X141046570Y-71914588D01*
X141027116Y-71971127D01*
X141006854Y-72027445D01*
X141004658Y-72036395D01*
X140961494Y-72217761D01*
X140953393Y-72277001D01*
X140944457Y-72336175D01*
X140944042Y-72345381D01*
X140936927Y-72531677D01*
X140940486Y-72591364D01*
X140943214Y-72651144D01*
X140944595Y-72660256D01*
X140973800Y-72844386D01*
X140988888Y-72902259D01*
X141003173Y-72960361D01*
X141006297Y-72969031D01*
X141070711Y-73143981D01*
X141096744Y-73197803D01*
X141122050Y-73252040D01*
X141126798Y-73259938D01*
X141223966Y-73419045D01*
X141259979Y-73466813D01*
X141295317Y-73515074D01*
X141301509Y-73521899D01*
X141427730Y-73659103D01*
X141472327Y-73698960D01*
X141516375Y-73739446D01*
X141523769Y-73744934D01*
X141523774Y-73744938D01*
X141523779Y-73744941D01*
X141674243Y-73855012D01*
X141725732Y-73885447D01*
X141776802Y-73916605D01*
X141785128Y-73920556D01*
X141954110Y-73999308D01*
X142010506Y-74019154D01*
X142066681Y-74039808D01*
X142075615Y-74042067D01*
X142256676Y-74086497D01*
X142315910Y-74095019D01*
X142374972Y-74104360D01*
X142384172Y-74104840D01*
X142384175Y-74104840D01*
X142569931Y-74113233D01*
X142601249Y-74114722D01*
X144667854Y-74009942D01*
X144673244Y-74009923D01*
X144678246Y-74009415D01*
X144715797Y-74007511D01*
X144718375Y-74007124D01*
X144730761Y-74007211D01*
X144739933Y-74006311D01*
X145322222Y-73945111D01*
X145380832Y-73933079D01*
X145439580Y-73921873D01*
X145448402Y-73919209D01*
X146007715Y-73746072D01*
X146062833Y-73722902D01*
X146118322Y-73700484D01*
X146126458Y-73696157D01*
X146641490Y-73417681D01*
X146691064Y-73384243D01*
X146741138Y-73351476D01*
X146748279Y-73345652D01*
X147199412Y-72972442D01*
X147241588Y-72929971D01*
X147284301Y-72888143D01*
X147290175Y-72881043D01*
X147660227Y-72427314D01*
X147693320Y-72377506D01*
X147727127Y-72328132D01*
X147731510Y-72320026D01*
X148006384Y-71803061D01*
X148029182Y-71747749D01*
X148052744Y-71692775D01*
X148055469Y-71683972D01*
X148224696Y-71123464D01*
X148236316Y-71064776D01*
X148248752Y-71006273D01*
X148249715Y-70997108D01*
X148306850Y-70414406D01*
X148306850Y-70414402D01*
X148310000Y-70382419D01*
X148310000Y-66117581D01*
X148307080Y-66087937D01*
X148307211Y-66069238D01*
X148306311Y-66060067D01*
X148245110Y-65477777D01*
X148233084Y-65419191D01*
X148221873Y-65360420D01*
X148219210Y-65351598D01*
X148046072Y-64792285D01*
X148022902Y-64737167D01*
X148000484Y-64681678D01*
X147996157Y-64673542D01*
X147717681Y-64158510D01*
X147684243Y-64108936D01*
X147651476Y-64058862D01*
X147645652Y-64051721D01*
X147272442Y-63600588D01*
X147229990Y-63558431D01*
X147188144Y-63515699D01*
X147181043Y-63509825D01*
X146727315Y-63139773D01*
X146677504Y-63106679D01*
X146628132Y-63072873D01*
X146620026Y-63068490D01*
X146103062Y-62793616D01*
X146047735Y-62770812D01*
X145992775Y-62747256D01*
X145983971Y-62744531D01*
X145423464Y-62575304D01*
X145364769Y-62563682D01*
X145306273Y-62551248D01*
X145297108Y-62550285D01*
X144731168Y-62494794D01*
X144715797Y-62492489D01*
X142601249Y-62385278D01*
X142585392Y-62386032D01*
X142506335Y-62385830D01*
X142462390Y-62390026D01*
X142418260Y-62391506D01*
X142409133Y-62392776D01*
X142224664Y-62419757D01*
X142166602Y-62434149D01*
X142108345Y-62447728D01*
X142099638Y-62450747D01*
X141923924Y-62513044D01*
X141869756Y-62538442D01*
X141815255Y-62563074D01*
X141807305Y-62567725D01*
X141807298Y-62567728D01*
X141807292Y-62567732D01*
X141647031Y-62662967D01*
X141598827Y-62698404D01*
X141550146Y-62733154D01*
X141543246Y-62739263D01*
X141404528Y-62863820D01*
X141364130Y-62907940D01*
X141323122Y-62951488D01*
X141317540Y-62958821D01*
X141205658Y-63107949D01*
X141174592Y-63159086D01*
X141142832Y-63209757D01*
X141138781Y-63218034D01*
X141057995Y-63386054D01*
X141037472Y-63442199D01*
X141016139Y-63498126D01*
X141013773Y-63507033D01*
X140967160Y-63687544D01*
X140957932Y-63746618D01*
X140947869Y-63805616D01*
X140947278Y-63814812D01*
X140936615Y-64000938D01*
X138145962Y-64000938D01*
X138199068Y-63872729D01*
X138214374Y-63795784D01*
X139725158Y-62285000D01*
X147374843Y-62285000D01*
X150815001Y-65725159D01*
X150815000Y-68811447D01*
X150811203Y-68850000D01*
X150815000Y-68888553D01*
X150815000Y-68888560D01*
X150826359Y-69003886D01*
X150871246Y-69151859D01*
X150944138Y-69288232D01*
X151042236Y-69407764D01*
X151072190Y-69432347D01*
X157567653Y-75927810D01*
X157592236Y-75957764D01*
X157711767Y-76055862D01*
X157838574Y-76123641D01*
X157848140Y-76128754D01*
X157996113Y-76173642D01*
X158071026Y-76181020D01*
X158111439Y-76185000D01*
X158111444Y-76185000D01*
X158150000Y-76188797D01*
X158188556Y-76185000D01*
X166991880Y-76185000D01*
X167057111Y-76228586D01*
X167227271Y-76299068D01*
X167407911Y-76335000D01*
X167592089Y-76335000D01*
X167772729Y-76299068D01*
X167942889Y-76228586D01*
X168096028Y-76126262D01*
X168226262Y-75996028D01*
X168328586Y-75842889D01*
X168399068Y-75672729D01*
X168435000Y-75492089D01*
X168435000Y-75307911D01*
X168399068Y-75127271D01*
X168328586Y-74957111D01*
X168226262Y-74803972D01*
X168096028Y-74673738D01*
X167942889Y-74571414D01*
X167772729Y-74500932D01*
X167592089Y-74465000D01*
X167407911Y-74465000D01*
X167227271Y-74500932D01*
X167057111Y-74571414D01*
X166991880Y-74615000D01*
X158475157Y-74615000D01*
X152385000Y-68524843D01*
X152385000Y-66117582D01*
X159490000Y-66117582D01*
X159490001Y-70382419D01*
X159492920Y-70412054D01*
X159492789Y-70430761D01*
X159493689Y-70439933D01*
X159554889Y-71022222D01*
X159566921Y-71080832D01*
X159578127Y-71139580D01*
X159580791Y-71148402D01*
X159753928Y-71707715D01*
X159777098Y-71762833D01*
X159799516Y-71818322D01*
X159803843Y-71826458D01*
X160082319Y-72341490D01*
X160115757Y-72391064D01*
X160148524Y-72441138D01*
X160154348Y-72448279D01*
X160527558Y-72899412D01*
X160570029Y-72941588D01*
X160611857Y-72984301D01*
X160618957Y-72990175D01*
X161072686Y-73360227D01*
X161122494Y-73393320D01*
X161171868Y-73427127D01*
X161179974Y-73431510D01*
X161696939Y-73706384D01*
X161752251Y-73729182D01*
X161807225Y-73752744D01*
X161816028Y-73755469D01*
X162376536Y-73924696D01*
X162435224Y-73936316D01*
X162493727Y-73948752D01*
X162502892Y-73949715D01*
X163068834Y-74005207D01*
X163084203Y-74007511D01*
X165198750Y-74114722D01*
X165214607Y-74113968D01*
X165293664Y-74114170D01*
X165337608Y-74109974D01*
X165381740Y-74108494D01*
X165390867Y-74107224D01*
X165575337Y-74080243D01*
X165633407Y-74065849D01*
X165691655Y-74052272D01*
X165700361Y-74049253D01*
X165876076Y-73986956D01*
X165930232Y-73961563D01*
X165984745Y-73936926D01*
X165992700Y-73932273D01*
X166152969Y-73837033D01*
X166201158Y-73801607D01*
X166249854Y-73766846D01*
X166256754Y-73760737D01*
X166395472Y-73636180D01*
X166435871Y-73592059D01*
X166476878Y-73548511D01*
X166482460Y-73541179D01*
X166594342Y-73392050D01*
X166625408Y-73340913D01*
X166657168Y-73290242D01*
X166661219Y-73281965D01*
X166742005Y-73113946D01*
X166762528Y-73057801D01*
X166783861Y-73001874D01*
X166786227Y-72992967D01*
X166832840Y-72812457D01*
X166842069Y-72753376D01*
X166852131Y-72694384D01*
X166852722Y-72685188D01*
X166863385Y-72499062D01*
X166860962Y-72439290D01*
X166859374Y-72379495D01*
X166858168Y-72370359D01*
X166832476Y-72185706D01*
X166818493Y-72127557D01*
X166805317Y-72069193D01*
X166802359Y-72060466D01*
X166741290Y-71884320D01*
X166716297Y-71830034D01*
X166692020Y-71775304D01*
X166687423Y-71767317D01*
X166593304Y-71606387D01*
X166558222Y-71557962D01*
X166523796Y-71509015D01*
X166517735Y-71502073D01*
X166398790Y-71367730D01*
X165868082Y-70742080D01*
X165482590Y-70077244D01*
X165220927Y-69354656D01*
X165091357Y-68597148D01*
X165097979Y-67828662D01*
X165240581Y-67073501D01*
X165514658Y-66355527D01*
X165913028Y-65694976D01*
X166039059Y-65548967D01*
X167765000Y-65548967D01*
X167765000Y-65871033D01*
X167827832Y-66186912D01*
X167951082Y-66484463D01*
X168130013Y-66752252D01*
X168357748Y-66979987D01*
X168625537Y-67158918D01*
X168923088Y-67282168D01*
X169238967Y-67345000D01*
X169561033Y-67345000D01*
X169876912Y-67282168D01*
X170174463Y-67158918D01*
X170442252Y-66979987D01*
X170669987Y-66752252D01*
X170848918Y-66484463D01*
X170972168Y-66186912D01*
X171035000Y-65871033D01*
X171035000Y-65548967D01*
X170972168Y-65233088D01*
X170848918Y-64935537D01*
X170669987Y-64667748D01*
X170442252Y-64440013D01*
X170174463Y-64261082D01*
X169876912Y-64137832D01*
X169561033Y-64075000D01*
X169238967Y-64075000D01*
X168923088Y-64137832D01*
X168625537Y-64261082D01*
X168357748Y-64440013D01*
X168130013Y-64667748D01*
X167951082Y-64935537D01*
X167827832Y-65233088D01*
X167765000Y-65548967D01*
X166039059Y-65548967D01*
X166386611Y-65146325D01*
X166439412Y-65092130D01*
X166466987Y-65057653D01*
X166496631Y-65024946D01*
X166502072Y-65017509D01*
X166611093Y-64866276D01*
X166641173Y-64814566D01*
X166671967Y-64763292D01*
X166675859Y-64754939D01*
X166753430Y-64585412D01*
X166772884Y-64528873D01*
X166793146Y-64472555D01*
X166795342Y-64463605D01*
X166838506Y-64282239D01*
X166846607Y-64222999D01*
X166855543Y-64163825D01*
X166855958Y-64154619D01*
X166863073Y-63968323D01*
X166859514Y-63908636D01*
X166856786Y-63848856D01*
X166855406Y-63839745D01*
X166826200Y-63655614D01*
X166811114Y-63597748D01*
X166796827Y-63539639D01*
X166793703Y-63530969D01*
X166729289Y-63356018D01*
X166703234Y-63302151D01*
X166677950Y-63247960D01*
X166673202Y-63240062D01*
X166576034Y-63080955D01*
X166540033Y-63033202D01*
X166504683Y-62984926D01*
X166498491Y-62978101D01*
X166372269Y-62840897D01*
X166327708Y-62801073D01*
X166283625Y-62760554D01*
X166276225Y-62755062D01*
X166125757Y-62644988D01*
X166074268Y-62614553D01*
X166023198Y-62583395D01*
X166014873Y-62579444D01*
X165845890Y-62500692D01*
X165789483Y-62480842D01*
X165733319Y-62460192D01*
X165724385Y-62457934D01*
X165543325Y-62413503D01*
X165484080Y-62404979D01*
X165425028Y-62395640D01*
X165415830Y-62395160D01*
X165415825Y-62395160D01*
X165230056Y-62386766D01*
X165198750Y-62385278D01*
X163132146Y-62490058D01*
X163126756Y-62490077D01*
X163121754Y-62490585D01*
X163084203Y-62492489D01*
X163081625Y-62492876D01*
X163069238Y-62492789D01*
X163060067Y-62493689D01*
X162477777Y-62554890D01*
X162419191Y-62566916D01*
X162360420Y-62578127D01*
X162351598Y-62580790D01*
X161792285Y-62753928D01*
X161737167Y-62777098D01*
X161681678Y-62799516D01*
X161673542Y-62803843D01*
X161158510Y-63082319D01*
X161108936Y-63115757D01*
X161058862Y-63148524D01*
X161051721Y-63154348D01*
X160600588Y-63527558D01*
X160558431Y-63570010D01*
X160515699Y-63611856D01*
X160509825Y-63618957D01*
X160139773Y-64072685D01*
X160106679Y-64122496D01*
X160072873Y-64171868D01*
X160068490Y-64179974D01*
X159793616Y-64696938D01*
X159770812Y-64752265D01*
X159747256Y-64807225D01*
X159744531Y-64816029D01*
X159575304Y-65376536D01*
X159563682Y-65435231D01*
X159551248Y-65493727D01*
X159550285Y-65502892D01*
X159493150Y-66085595D01*
X159490000Y-66117582D01*
X152385000Y-66117582D01*
X152385000Y-65438556D01*
X152388797Y-65400000D01*
X152385000Y-65361444D01*
X152385000Y-65361439D01*
X152377384Y-65284114D01*
X152373642Y-65246113D01*
X152328754Y-65098140D01*
X152319819Y-65081423D01*
X152255862Y-64961767D01*
X152196895Y-64889916D01*
X152182345Y-64872187D01*
X152182342Y-64872184D01*
X152157764Y-64842236D01*
X152127816Y-64817658D01*
X148282347Y-60972190D01*
X148257764Y-60942236D01*
X148138233Y-60844138D01*
X148001860Y-60771246D01*
X147853887Y-60726359D01*
X147738561Y-60715000D01*
X147738553Y-60715000D01*
X147700000Y-60711203D01*
X147661447Y-60715000D01*
X139438552Y-60715000D01*
X139399999Y-60711203D01*
X139361446Y-60715000D01*
X139361439Y-60715000D01*
X139260490Y-60724943D01*
X139246112Y-60726359D01*
X139211672Y-60736806D01*
X139098140Y-60771246D01*
X138961767Y-60844138D01*
X138903147Y-60892247D01*
X138872187Y-60917655D01*
X138872184Y-60917658D01*
X138842236Y-60942236D01*
X138817658Y-60972184D01*
X138288378Y-61501464D01*
X138228586Y-61357111D01*
X138126262Y-61203972D01*
X137996028Y-61073738D01*
X137842889Y-60971414D01*
X137677858Y-60903057D01*
X136863804Y-60089002D01*
X136840001Y-60059999D01*
X136724276Y-59965026D01*
X136592247Y-59894454D01*
X136448986Y-59850997D01*
X136337333Y-59840000D01*
X136337322Y-59840000D01*
X136300000Y-59836324D01*
X136262678Y-59840000D01*
X110037322Y-59840000D01*
X109999999Y-59836324D01*
X109962676Y-59840000D01*
X109962667Y-59840000D01*
X109851014Y-59850997D01*
X109707753Y-59894454D01*
X109575724Y-59965026D01*
X109459999Y-60059999D01*
X109436201Y-60088997D01*
X106889003Y-62636196D01*
X106859999Y-62659999D01*
X106809044Y-62722088D01*
X106765026Y-62775724D01*
X106707194Y-62883919D01*
X106694454Y-62907754D01*
X106650997Y-63051015D01*
X106640000Y-63162668D01*
X106640000Y-63162678D01*
X106636324Y-63200000D01*
X106640000Y-63237323D01*
X106640000Y-64255091D01*
X106625537Y-64261082D01*
X106357748Y-64440013D01*
X106130013Y-64667748D01*
X105951082Y-64935537D01*
X105827832Y-65233088D01*
X105765000Y-65548967D01*
X104039059Y-65548967D01*
X104386611Y-65146325D01*
X104439412Y-65092130D01*
X104466987Y-65057653D01*
X104496631Y-65024946D01*
X104502072Y-65017509D01*
X104611093Y-64866276D01*
X104641173Y-64814566D01*
X104671967Y-64763292D01*
X104675859Y-64754939D01*
X104753430Y-64585412D01*
X104772884Y-64528873D01*
X104793146Y-64472555D01*
X104795342Y-64463605D01*
X104838506Y-64282239D01*
X104846607Y-64222999D01*
X104855543Y-64163825D01*
X104855958Y-64154619D01*
X104863073Y-63968323D01*
X104859514Y-63908636D01*
X104856786Y-63848856D01*
X104855406Y-63839745D01*
X104826200Y-63655614D01*
X104811114Y-63597748D01*
X104796827Y-63539639D01*
X104793703Y-63530969D01*
X104729289Y-63356018D01*
X104703234Y-63302151D01*
X104677950Y-63247960D01*
X104673202Y-63240062D01*
X104576034Y-63080955D01*
X104540033Y-63033202D01*
X104504683Y-62984926D01*
X104498491Y-62978101D01*
X104372269Y-62840897D01*
X104327708Y-62801073D01*
X104283625Y-62760554D01*
X104276225Y-62755062D01*
X104125757Y-62644988D01*
X104074268Y-62614553D01*
X104023198Y-62583395D01*
X104014873Y-62579444D01*
X103845890Y-62500692D01*
X103789483Y-62480842D01*
X103733319Y-62460192D01*
X103724385Y-62457934D01*
X103543325Y-62413503D01*
X103484080Y-62404979D01*
X103425028Y-62395640D01*
X103415830Y-62395160D01*
X103415825Y-62395160D01*
X103230056Y-62386766D01*
X103198750Y-62385278D01*
X101132146Y-62490058D01*
X101126756Y-62490077D01*
X101121754Y-62490585D01*
X101084203Y-62492489D01*
X101081625Y-62492876D01*
X101069238Y-62492789D01*
X101060067Y-62493689D01*
X100477777Y-62554890D01*
X100419191Y-62566916D01*
X100360420Y-62578127D01*
X100351598Y-62580790D01*
X99792285Y-62753928D01*
X99737167Y-62777098D01*
X99681678Y-62799516D01*
X99673542Y-62803843D01*
X99158510Y-63082319D01*
X99108936Y-63115757D01*
X99058862Y-63148524D01*
X99051721Y-63154348D01*
X98600588Y-63527558D01*
X98558431Y-63570010D01*
X98515699Y-63611856D01*
X98509825Y-63618957D01*
X98139773Y-64072685D01*
X98106679Y-64122496D01*
X98072873Y-64171868D01*
X98068490Y-64179974D01*
X97793616Y-64696938D01*
X97770812Y-64752265D01*
X97747256Y-64807225D01*
X97744531Y-64816029D01*
X97575304Y-65376536D01*
X97563682Y-65435231D01*
X97551248Y-65493727D01*
X97550285Y-65502892D01*
X97493150Y-66085595D01*
X97490000Y-66117582D01*
X92527739Y-66117582D01*
X87282347Y-60872190D01*
X87257764Y-60842236D01*
X87138233Y-60744138D01*
X87001860Y-60671246D01*
X86853887Y-60626359D01*
X86738561Y-60615000D01*
X86738553Y-60615000D01*
X86700000Y-60611203D01*
X86661447Y-60615000D01*
X76008120Y-60615000D01*
X75942889Y-60571414D01*
X75772729Y-60500932D01*
X75592089Y-60465000D01*
X75407911Y-60465000D01*
X75227271Y-60500932D01*
X75057111Y-60571414D01*
X74903972Y-60673738D01*
X74773738Y-60803972D01*
X74671414Y-60957111D01*
X74600932Y-61127271D01*
X74565000Y-61307911D01*
X74060000Y-61307911D01*
X74060000Y-51278306D01*
X74094022Y-51166150D01*
X74174638Y-51015328D01*
X74283130Y-50883130D01*
X74415328Y-50774638D01*
X74566150Y-50694022D01*
X74678306Y-50660000D01*
X171121694Y-50660000D01*
X171233850Y-50694022D01*
%TA.AperFunction,Conductor*%
D18*
G36*
X171233850Y-50694022D02*
G01*
X171384672Y-50774638D01*
X171516870Y-50883130D01*
X171625362Y-51015328D01*
X171705978Y-51166150D01*
X171740001Y-51278309D01*
X171740000Y-116221694D01*
X171705978Y-116333850D01*
X171625362Y-116484672D01*
X171516870Y-116616870D01*
X171384672Y-116725362D01*
X171233850Y-116805978D01*
X171121694Y-116840000D01*
X74678306Y-116840000D01*
X74566150Y-116805978D01*
X74415328Y-116725362D01*
X74283130Y-116616870D01*
X74174638Y-116484672D01*
X74094022Y-116333850D01*
X74060000Y-116221694D01*
X74060000Y-96548967D01*
X74765000Y-96548967D01*
X74765000Y-96871033D01*
X74827832Y-97186912D01*
X74951082Y-97484463D01*
X75130013Y-97752252D01*
X75357748Y-97979987D01*
X75625537Y-98158918D01*
X75923088Y-98282168D01*
X76238967Y-98345000D01*
X76561033Y-98345000D01*
X76876912Y-98282168D01*
X77174463Y-98158918D01*
X77442252Y-97979987D01*
X77669987Y-97752252D01*
X77848918Y-97484463D01*
X77972168Y-97186912D01*
X78035000Y-96871033D01*
X78035000Y-96548967D01*
X77972168Y-96233088D01*
X77848918Y-95935537D01*
X77669987Y-95667748D01*
X77442252Y-95440013D01*
X77174463Y-95261082D01*
X76876912Y-95137832D01*
X76561033Y-95075000D01*
X76238967Y-95075000D01*
X75923088Y-95137832D01*
X75625537Y-95261082D01*
X75357748Y-95440013D01*
X75130013Y-95667748D01*
X74951082Y-95935537D01*
X74827832Y-96233088D01*
X74765000Y-96548967D01*
X74060000Y-96548967D01*
X74060000Y-95000938D01*
X78936615Y-95000938D01*
X78939038Y-95060709D01*
X78940626Y-95120505D01*
X78941832Y-95129641D01*
X78967524Y-95314294D01*
X78981507Y-95372443D01*
X78994683Y-95430807D01*
X78997641Y-95439534D01*
X79058710Y-95615681D01*
X79083710Y-95669981D01*
X79107980Y-95724696D01*
X79112577Y-95732683D01*
X79206696Y-95893613D01*
X79241778Y-95942038D01*
X79276204Y-95990985D01*
X79282265Y-95997927D01*
X79401210Y-96132270D01*
X79931918Y-96757920D01*
X80317410Y-97422756D01*
X80579073Y-98145344D01*
X80708643Y-98902852D01*
X80702021Y-99671338D01*
X80559419Y-100426499D01*
X80285341Y-101144476D01*
X79886972Y-101805024D01*
X79413389Y-102353675D01*
X79360588Y-102407870D01*
X79333010Y-102442349D01*
X79303369Y-102475054D01*
X79297928Y-102482492D01*
X79188907Y-102633724D01*
X79158832Y-102685426D01*
X79128033Y-102736709D01*
X79124140Y-102745061D01*
X79046570Y-102914588D01*
X79027116Y-102971127D01*
X79006854Y-103027445D01*
X79004658Y-103036395D01*
X78961494Y-103217761D01*
X78953393Y-103277001D01*
X78944457Y-103336175D01*
X78944042Y-103345381D01*
X78936927Y-103531677D01*
X78940486Y-103591364D01*
X78943214Y-103651144D01*
X78944595Y-103660256D01*
X78973800Y-103844386D01*
X78988888Y-103902259D01*
X79003173Y-103960361D01*
X79006297Y-103969031D01*
X79070711Y-104143981D01*
X79096744Y-104197803D01*
X79122050Y-104252040D01*
X79126798Y-104259938D01*
X79223966Y-104419045D01*
X79259979Y-104466813D01*
X79295317Y-104515074D01*
X79301509Y-104521899D01*
X79427730Y-104659103D01*
X79472327Y-104698960D01*
X79516375Y-104739446D01*
X79523769Y-104744934D01*
X79523774Y-104744938D01*
X79523779Y-104744941D01*
X79674243Y-104855012D01*
X79725732Y-104885447D01*
X79776802Y-104916605D01*
X79785128Y-104920556D01*
X79954110Y-104999308D01*
X80010506Y-105019154D01*
X80066681Y-105039808D01*
X80075615Y-105042067D01*
X80256676Y-105086497D01*
X80315910Y-105095019D01*
X80374972Y-105104360D01*
X80384172Y-105104840D01*
X80384175Y-105104840D01*
X80569931Y-105113233D01*
X80601249Y-105114722D01*
X82667854Y-105009942D01*
X82673244Y-105009923D01*
X82678246Y-105009415D01*
X82715797Y-105007511D01*
X82718375Y-105007124D01*
X82730761Y-105007211D01*
X82739933Y-105006311D01*
X83322222Y-104945111D01*
X83380832Y-104933079D01*
X83439580Y-104921873D01*
X83448402Y-104919209D01*
X84007715Y-104746072D01*
X84062833Y-104722902D01*
X84118322Y-104700484D01*
X84126458Y-104696157D01*
X84641490Y-104417681D01*
X84691064Y-104384243D01*
X84741138Y-104351476D01*
X84748279Y-104345652D01*
X85199412Y-103972442D01*
X85241588Y-103929971D01*
X85284301Y-103888143D01*
X85290175Y-103881043D01*
X85660227Y-103427314D01*
X85693320Y-103377506D01*
X85727127Y-103328132D01*
X85731510Y-103320026D01*
X86006384Y-102803061D01*
X86029182Y-102747749D01*
X86052744Y-102692775D01*
X86055469Y-102683972D01*
X86224696Y-102123464D01*
X86236316Y-102064776D01*
X86248752Y-102006273D01*
X86249715Y-101997108D01*
X86306850Y-101414406D01*
X86306850Y-101414402D01*
X86310000Y-101382419D01*
X86310000Y-97117581D01*
X86307080Y-97087937D01*
X86307211Y-97069238D01*
X86306311Y-97060067D01*
X86245110Y-96477777D01*
X86233084Y-96419191D01*
X86221873Y-96360420D01*
X86219210Y-96351598D01*
X86046072Y-95792285D01*
X86022902Y-95737167D01*
X86000484Y-95681678D01*
X85996157Y-95673542D01*
X85717681Y-95158510D01*
X85684243Y-95108936D01*
X85651476Y-95058862D01*
X85645652Y-95051721D01*
X85272442Y-94600588D01*
X85229990Y-94558431D01*
X85188144Y-94515699D01*
X85181043Y-94509825D01*
X84727315Y-94139773D01*
X84677504Y-94106679D01*
X84628132Y-94072873D01*
X84620026Y-94068490D01*
X84103062Y-93793616D01*
X84047735Y-93770812D01*
X83992775Y-93747256D01*
X83983971Y-93744531D01*
X83423464Y-93575304D01*
X83364769Y-93563682D01*
X83306273Y-93551248D01*
X83297108Y-93550285D01*
X82731168Y-93494794D01*
X82715797Y-93492489D01*
X80601249Y-93385278D01*
X80585392Y-93386032D01*
X80506335Y-93385830D01*
X80462390Y-93390026D01*
X80418260Y-93391506D01*
X80409133Y-93392776D01*
X80224664Y-93419757D01*
X80166602Y-93434149D01*
X80108345Y-93447728D01*
X80099638Y-93450747D01*
X79923924Y-93513044D01*
X79869756Y-93538442D01*
X79815255Y-93563074D01*
X79807305Y-93567725D01*
X79807298Y-93567728D01*
X79807292Y-93567732D01*
X79647031Y-93662967D01*
X79598827Y-93698404D01*
X79550146Y-93733154D01*
X79543246Y-93739263D01*
X79404528Y-93863820D01*
X79364130Y-93907940D01*
X79323122Y-93951488D01*
X79317540Y-93958821D01*
X79205658Y-94107949D01*
X79174592Y-94159086D01*
X79142832Y-94209757D01*
X79138781Y-94218034D01*
X79057995Y-94386054D01*
X79037472Y-94442199D01*
X79016139Y-94498126D01*
X79013773Y-94507033D01*
X78967160Y-94687544D01*
X78957932Y-94746618D01*
X78947869Y-94805616D01*
X78947278Y-94814812D01*
X78936615Y-95000938D01*
X74060000Y-95000938D01*
X74060000Y-90257911D01*
X79765000Y-90257911D01*
X79765000Y-90442089D01*
X79800932Y-90622729D01*
X79871414Y-90792889D01*
X79973738Y-90946028D01*
X80103972Y-91076262D01*
X80257111Y-91178586D01*
X80427271Y-91249068D01*
X80607911Y-91285000D01*
X80792089Y-91285000D01*
X80972729Y-91249068D01*
X81142889Y-91178586D01*
X81245535Y-91110000D01*
X88535199Y-91110000D01*
X93740001Y-96314803D01*
X93740000Y-101762677D01*
X93736324Y-101800000D01*
X93740000Y-101837322D01*
X93740000Y-101837332D01*
X93750997Y-101948985D01*
X93791231Y-102081620D01*
X93794454Y-102092246D01*
X93865026Y-102224276D01*
X93880026Y-102242553D01*
X93959999Y-102340001D01*
X93989003Y-102363804D01*
X97736201Y-106111003D01*
X97759999Y-106140001D01*
X97788997Y-106163799D01*
X97875724Y-106234974D01*
X98007753Y-106305546D01*
X98151014Y-106349003D01*
X98300000Y-106363677D01*
X98337333Y-106360000D01*
X105554465Y-106360000D01*
X105657111Y-106428586D01*
X105827271Y-106499068D01*
X106007911Y-106535000D01*
X106192089Y-106535000D01*
X106372729Y-106499068D01*
X106542889Y-106428586D01*
X106696028Y-106326262D01*
X106826262Y-106196028D01*
X106928586Y-106042889D01*
X106999068Y-105872729D01*
X107035000Y-105692089D01*
X107035000Y-105507911D01*
X106999068Y-105327271D01*
X106928586Y-105157111D01*
X106826262Y-105003972D01*
X106696028Y-104873738D01*
X106542889Y-104771414D01*
X106372729Y-104700932D01*
X106192089Y-104665000D01*
X106007911Y-104665000D01*
X105827271Y-104700932D01*
X105657111Y-104771414D01*
X105554465Y-104840000D01*
X104147976Y-104840000D01*
X104152969Y-104837033D01*
X104201158Y-104801607D01*
X104249854Y-104766846D01*
X104256754Y-104760737D01*
X104395472Y-104636180D01*
X104435871Y-104592059D01*
X104476878Y-104548511D01*
X104482460Y-104541179D01*
X104594342Y-104392050D01*
X104625408Y-104340913D01*
X104657168Y-104290242D01*
X104661219Y-104281965D01*
X104742005Y-104113946D01*
X104762528Y-104057801D01*
X104783861Y-104001874D01*
X104786227Y-103992967D01*
X104832840Y-103812457D01*
X104842069Y-103753376D01*
X104852131Y-103694384D01*
X104852722Y-103685188D01*
X104863385Y-103499062D01*
X104860962Y-103439290D01*
X104859374Y-103379495D01*
X104858168Y-103370359D01*
X104832476Y-103185706D01*
X104818493Y-103127557D01*
X104805317Y-103069193D01*
X104802359Y-103060466D01*
X104741290Y-102884320D01*
X104716297Y-102830034D01*
X104692020Y-102775304D01*
X104687423Y-102767317D01*
X104593304Y-102606387D01*
X104558222Y-102557962D01*
X104523796Y-102509015D01*
X104517735Y-102502073D01*
X104398790Y-102367730D01*
X103868082Y-101742080D01*
X103482590Y-101077244D01*
X103220927Y-100354656D01*
X103091357Y-99597148D01*
X103097979Y-98828662D01*
X103240581Y-98073501D01*
X103514658Y-97355527D01*
X103913028Y-96694976D01*
X104039059Y-96548967D01*
X105765000Y-96548967D01*
X105765000Y-96871033D01*
X105827832Y-97186912D01*
X105951082Y-97484463D01*
X106130013Y-97752252D01*
X106357748Y-97979987D01*
X106625537Y-98158918D01*
X106923088Y-98282168D01*
X107238967Y-98345000D01*
X107561033Y-98345000D01*
X107876912Y-98282168D01*
X108174463Y-98158918D01*
X108442252Y-97979987D01*
X108669987Y-97752252D01*
X108848918Y-97484463D01*
X108972168Y-97186912D01*
X109035000Y-96871033D01*
X109035000Y-96548967D01*
X108972168Y-96233088D01*
X108848918Y-95935537D01*
X108669987Y-95667748D01*
X108442252Y-95440013D01*
X108174463Y-95261082D01*
X107876912Y-95137832D01*
X107561033Y-95075000D01*
X107238967Y-95075000D01*
X106923088Y-95137832D01*
X106625537Y-95261082D01*
X106357748Y-95440013D01*
X106130013Y-95667748D01*
X105951082Y-95935537D01*
X105827832Y-96233088D01*
X105765000Y-96548967D01*
X104039059Y-96548967D01*
X104386611Y-96146325D01*
X104439412Y-96092130D01*
X104466987Y-96057653D01*
X104496631Y-96024946D01*
X104502072Y-96017509D01*
X104611093Y-95866276D01*
X104641173Y-95814566D01*
X104671967Y-95763292D01*
X104675859Y-95754939D01*
X104753430Y-95585412D01*
X104772884Y-95528873D01*
X104793146Y-95472555D01*
X104795342Y-95463605D01*
X104838506Y-95282239D01*
X104846607Y-95222999D01*
X104855543Y-95163825D01*
X104855958Y-95154619D01*
X104863073Y-94968323D01*
X104859514Y-94908636D01*
X104856786Y-94848856D01*
X104855406Y-94839745D01*
X104826200Y-94655614D01*
X104811114Y-94597748D01*
X104796827Y-94539639D01*
X104793703Y-94530969D01*
X104729289Y-94356018D01*
X104703234Y-94302151D01*
X104677950Y-94247960D01*
X104673202Y-94240062D01*
X104576034Y-94080955D01*
X104540033Y-94033202D01*
X104504683Y-93984926D01*
X104498491Y-93978101D01*
X104372269Y-93840897D01*
X104327708Y-93801073D01*
X104283625Y-93760554D01*
X104276225Y-93755062D01*
X104125757Y-93644988D01*
X104074268Y-93614553D01*
X104023198Y-93583395D01*
X104014873Y-93579444D01*
X103845890Y-93500692D01*
X103789483Y-93480842D01*
X103733319Y-93460192D01*
X103724385Y-93457934D01*
X103543325Y-93413503D01*
X103484080Y-93404979D01*
X103425028Y-93395640D01*
X103415830Y-93395160D01*
X103415825Y-93395160D01*
X103230056Y-93386766D01*
X103198750Y-93385278D01*
X101132146Y-93490058D01*
X101126756Y-93490077D01*
X101121754Y-93490585D01*
X101084203Y-93492489D01*
X101081625Y-93492876D01*
X101069238Y-93492789D01*
X101060067Y-93493689D01*
X100477777Y-93554890D01*
X100419191Y-93566916D01*
X100360420Y-93578127D01*
X100351598Y-93580790D01*
X99792285Y-93753928D01*
X99737167Y-93777098D01*
X99681678Y-93799516D01*
X99673542Y-93803843D01*
X99158510Y-94082319D01*
X99108936Y-94115757D01*
X99058862Y-94148524D01*
X99051721Y-94154348D01*
X98600588Y-94527558D01*
X98558431Y-94570010D01*
X98515699Y-94611856D01*
X98509825Y-94618957D01*
X98139773Y-95072685D01*
X98106679Y-95122496D01*
X98072873Y-95171868D01*
X98068490Y-95179974D01*
X97793616Y-95696938D01*
X97770812Y-95752265D01*
X97747256Y-95807225D01*
X97744531Y-95816029D01*
X97575304Y-96376536D01*
X97563682Y-96435231D01*
X97551248Y-96493727D01*
X97550285Y-96502892D01*
X97493150Y-97085595D01*
X97490000Y-97117582D01*
X97490001Y-101382419D01*
X97492920Y-101412054D01*
X97492789Y-101430761D01*
X97493689Y-101439933D01*
X97554889Y-102022222D01*
X97566921Y-102080832D01*
X97578127Y-102139580D01*
X97580791Y-102148402D01*
X97753928Y-102707715D01*
X97777098Y-102762833D01*
X97799516Y-102818322D01*
X97803843Y-102826458D01*
X98082319Y-103341490D01*
X98115757Y-103391064D01*
X98148524Y-103441138D01*
X98154348Y-103448279D01*
X98527558Y-103899412D01*
X98570029Y-103941588D01*
X98611857Y-103984301D01*
X98618957Y-103990175D01*
X99072686Y-104360227D01*
X99122494Y-104393320D01*
X99171868Y-104427127D01*
X99179974Y-104431510D01*
X99696939Y-104706384D01*
X99752251Y-104729182D01*
X99807225Y-104752744D01*
X99816028Y-104755469D01*
X100096009Y-104840000D01*
X98614802Y-104840000D01*
X95260000Y-101485199D01*
X95260000Y-96037333D01*
X95263677Y-96000000D01*
X95249003Y-95851014D01*
X95205546Y-95707753D01*
X95134974Y-95575724D01*
X95063799Y-95488997D01*
X95040001Y-95459999D01*
X95011003Y-95436201D01*
X89413804Y-89839003D01*
X89390001Y-89809999D01*
X89274276Y-89715026D01*
X89142247Y-89644454D01*
X88998986Y-89600997D01*
X88887333Y-89590000D01*
X88887322Y-89590000D01*
X88850000Y-89586324D01*
X88812678Y-89590000D01*
X81245535Y-89590000D01*
X81142889Y-89521414D01*
X80972729Y-89450932D01*
X80792089Y-89415000D01*
X80607911Y-89415000D01*
X80427271Y-89450932D01*
X80257111Y-89521414D01*
X80103972Y-89623738D01*
X79973738Y-89753972D01*
X79871414Y-89907111D01*
X79800932Y-90077271D01*
X79765000Y-90257911D01*
X74060000Y-90257911D01*
X74060000Y-86807911D01*
X109765000Y-86807911D01*
X109765000Y-86992089D01*
X109800932Y-87172729D01*
X109871414Y-87342889D01*
X109915001Y-87408121D01*
X109915000Y-88291879D01*
X109871414Y-88357111D01*
X109800932Y-88527271D01*
X109765000Y-88707911D01*
X109765000Y-88892089D01*
X109800932Y-89072729D01*
X109871414Y-89242889D01*
X109973738Y-89396028D01*
X110103972Y-89526262D01*
X110257111Y-89628586D01*
X110427271Y-89699068D01*
X110607911Y-89735000D01*
X110792089Y-89735000D01*
X110972729Y-89699068D01*
X111142889Y-89628586D01*
X111296028Y-89526262D01*
X111426262Y-89396028D01*
X111528586Y-89242889D01*
X111599068Y-89072729D01*
X111635000Y-88892089D01*
X111635000Y-88707911D01*
X111599068Y-88527271D01*
X111528586Y-88357111D01*
X111485000Y-88291880D01*
X111485000Y-87408120D01*
X111528586Y-87342889D01*
X111599068Y-87172729D01*
X111635000Y-86992089D01*
X111635000Y-86807911D01*
X111599068Y-86627271D01*
X111528586Y-86457111D01*
X111426262Y-86303972D01*
X111296028Y-86173738D01*
X111142889Y-86071414D01*
X110972729Y-86000932D01*
X110792089Y-85965000D01*
X110607911Y-85965000D01*
X110427271Y-86000932D01*
X110257111Y-86071414D01*
X110103972Y-86173738D01*
X109973738Y-86303972D01*
X109871414Y-86457111D01*
X109800932Y-86627271D01*
X109765000Y-86807911D01*
X74060000Y-86807911D01*
X74060000Y-81457911D01*
X79065000Y-81457911D01*
X79065000Y-81642089D01*
X79100932Y-81822729D01*
X79171414Y-81992889D01*
X79273738Y-82146028D01*
X79403972Y-82276262D01*
X79557111Y-82378586D01*
X79727271Y-82449068D01*
X79907911Y-82485000D01*
X80092089Y-82485000D01*
X80272729Y-82449068D01*
X80442889Y-82378586D01*
X80508120Y-82335000D01*
X116274843Y-82335000D01*
X125667653Y-91727810D01*
X125692236Y-91757764D01*
X125811767Y-91855862D01*
X125948140Y-91928754D01*
X126096113Y-91973642D01*
X126171026Y-91981020D01*
X126211439Y-91985000D01*
X126211444Y-91985000D01*
X126250000Y-91988797D01*
X126288556Y-91985000D01*
X139439481Y-91985000D01*
X139436201Y-91988997D01*
X137785199Y-93640000D01*
X137045535Y-93640000D01*
X136942889Y-93571414D01*
X136772729Y-93500932D01*
X136592089Y-93465000D01*
X136407911Y-93465000D01*
X136227271Y-93500932D01*
X136057111Y-93571414D01*
X135903972Y-93673738D01*
X135773738Y-93803972D01*
X135671414Y-93957111D01*
X135602301Y-94123966D01*
X135576034Y-94080955D01*
X135540033Y-94033202D01*
X135504683Y-93984926D01*
X135498491Y-93978101D01*
X135372269Y-93840897D01*
X135327708Y-93801073D01*
X135283625Y-93760554D01*
X135276225Y-93755062D01*
X135125757Y-93644988D01*
X135074268Y-93614553D01*
X135023198Y-93583395D01*
X135014873Y-93579444D01*
X134845890Y-93500692D01*
X134789483Y-93480842D01*
X134733319Y-93460192D01*
X134724385Y-93457934D01*
X134543325Y-93413503D01*
X134484080Y-93404979D01*
X134425028Y-93395640D01*
X134415830Y-93395160D01*
X134415825Y-93395160D01*
X134230056Y-93386766D01*
X134198750Y-93385278D01*
X132132146Y-93490058D01*
X132126756Y-93490077D01*
X132121754Y-93490585D01*
X132084203Y-93492489D01*
X132081625Y-93492876D01*
X132069238Y-93492789D01*
X132060067Y-93493689D01*
X131477777Y-93554890D01*
X131419191Y-93566916D01*
X131360420Y-93578127D01*
X131351598Y-93580790D01*
X130792285Y-93753928D01*
X130737167Y-93777098D01*
X130681678Y-93799516D01*
X130673542Y-93803843D01*
X130158510Y-94082319D01*
X130108936Y-94115757D01*
X130058862Y-94148524D01*
X130051721Y-94154348D01*
X129600588Y-94527558D01*
X129558431Y-94570010D01*
X129515699Y-94611856D01*
X129509825Y-94618957D01*
X129139773Y-95072685D01*
X129106679Y-95122496D01*
X129072873Y-95171868D01*
X129068490Y-95179974D01*
X128793616Y-95696938D01*
X128770812Y-95752265D01*
X128747256Y-95807225D01*
X128744531Y-95816029D01*
X128575304Y-96376536D01*
X128563682Y-96435231D01*
X128551248Y-96493727D01*
X128550285Y-96502892D01*
X128493150Y-97085595D01*
X128490000Y-97117582D01*
X128490001Y-101382419D01*
X128492920Y-101412054D01*
X128492789Y-101430761D01*
X128493689Y-101439933D01*
X128554889Y-102022222D01*
X128566921Y-102080832D01*
X128578127Y-102139580D01*
X128580791Y-102148402D01*
X128753928Y-102707715D01*
X128777098Y-102762833D01*
X128799516Y-102818322D01*
X128803843Y-102826458D01*
X129082319Y-103341490D01*
X129115757Y-103391064D01*
X129148524Y-103441138D01*
X129154348Y-103448279D01*
X129527558Y-103899412D01*
X129570029Y-103941588D01*
X129611857Y-103984301D01*
X129618957Y-103990175D01*
X130072686Y-104360227D01*
X130122494Y-104393320D01*
X130171868Y-104427127D01*
X130179974Y-104431510D01*
X130696939Y-104706384D01*
X130752251Y-104729182D01*
X130807225Y-104752744D01*
X130816028Y-104755469D01*
X131376536Y-104924696D01*
X131435224Y-104936316D01*
X131452554Y-104940000D01*
X121514802Y-104940000D01*
X119510000Y-102935199D01*
X119510000Y-96387325D01*
X119513676Y-96350000D01*
X119510000Y-96312675D01*
X119510000Y-96312667D01*
X119499003Y-96201014D01*
X119455546Y-96057753D01*
X119384974Y-95925724D01*
X119290001Y-95809999D01*
X119261003Y-95786201D01*
X116013804Y-92539003D01*
X115990001Y-92509999D01*
X115874276Y-92415026D01*
X115742247Y-92344454D01*
X115598986Y-92300997D01*
X115487333Y-92290000D01*
X115487322Y-92290000D01*
X115450000Y-92286324D01*
X115412678Y-92290000D01*
X106645535Y-92290000D01*
X106542889Y-92221414D01*
X106372729Y-92150932D01*
X106192089Y-92115000D01*
X106007911Y-92115000D01*
X105827271Y-92150932D01*
X105657111Y-92221414D01*
X105503972Y-92323738D01*
X105373738Y-92453972D01*
X105271414Y-92607111D01*
X105200932Y-92777271D01*
X105165000Y-92957911D01*
X105165000Y-93142089D01*
X105200932Y-93322729D01*
X105271414Y-93492889D01*
X105373738Y-93646028D01*
X105503972Y-93776262D01*
X105657111Y-93878586D01*
X105827271Y-93949068D01*
X106007911Y-93985000D01*
X106192089Y-93985000D01*
X106372729Y-93949068D01*
X106542889Y-93878586D01*
X106645535Y-93810000D01*
X110464467Y-93810000D01*
X110404528Y-93863820D01*
X110364130Y-93907940D01*
X110323122Y-93951488D01*
X110317540Y-93958821D01*
X110205658Y-94107949D01*
X110174592Y-94159086D01*
X110142832Y-94209757D01*
X110138781Y-94218034D01*
X110057995Y-94386054D01*
X110037472Y-94442199D01*
X110016139Y-94498126D01*
X110013773Y-94507033D01*
X109967160Y-94687544D01*
X109957932Y-94746618D01*
X109947869Y-94805616D01*
X109947278Y-94814812D01*
X109936615Y-95000938D01*
X109939038Y-95060709D01*
X109940626Y-95120505D01*
X109941832Y-95129641D01*
X109967524Y-95314294D01*
X109981507Y-95372443D01*
X109994683Y-95430807D01*
X109997641Y-95439534D01*
X110058710Y-95615681D01*
X110083710Y-95669981D01*
X110107980Y-95724696D01*
X110112577Y-95732683D01*
X110206696Y-95893613D01*
X110241778Y-95942038D01*
X110276204Y-95990985D01*
X110282265Y-95997927D01*
X110401210Y-96132270D01*
X110931918Y-96757920D01*
X111317410Y-97422756D01*
X111579073Y-98145344D01*
X111708643Y-98902852D01*
X111702021Y-99671338D01*
X111559419Y-100426499D01*
X111285341Y-101144476D01*
X110886972Y-101805024D01*
X110413389Y-102353675D01*
X110360588Y-102407870D01*
X110333010Y-102442349D01*
X110303369Y-102475054D01*
X110297928Y-102482492D01*
X110188907Y-102633724D01*
X110158832Y-102685426D01*
X110128033Y-102736709D01*
X110124140Y-102745061D01*
X110046570Y-102914588D01*
X110027116Y-102971127D01*
X110006854Y-103027445D01*
X110004658Y-103036395D01*
X109961494Y-103217761D01*
X109953393Y-103277001D01*
X109944457Y-103336175D01*
X109944042Y-103345381D01*
X109936927Y-103531677D01*
X109940486Y-103591364D01*
X109943214Y-103651144D01*
X109944595Y-103660256D01*
X109973800Y-103844386D01*
X109988888Y-103902259D01*
X110003173Y-103960361D01*
X110006297Y-103969031D01*
X110070711Y-104143981D01*
X110096744Y-104197803D01*
X110122050Y-104252040D01*
X110126798Y-104259938D01*
X110223966Y-104419045D01*
X110259979Y-104466813D01*
X110295317Y-104515074D01*
X110301509Y-104521899D01*
X110427730Y-104659103D01*
X110472327Y-104698960D01*
X110516375Y-104739446D01*
X110523769Y-104744934D01*
X110523774Y-104744938D01*
X110523779Y-104744941D01*
X110674243Y-104855012D01*
X110725732Y-104885447D01*
X110776802Y-104916605D01*
X110785128Y-104920556D01*
X110954110Y-104999308D01*
X111010506Y-105019154D01*
X111066681Y-105039808D01*
X111075615Y-105042067D01*
X111256676Y-105086497D01*
X111315910Y-105095019D01*
X111374972Y-105104360D01*
X111384172Y-105104840D01*
X111384175Y-105104840D01*
X111569931Y-105113233D01*
X111601249Y-105114722D01*
X113667854Y-105009942D01*
X113673244Y-105009923D01*
X113678246Y-105009415D01*
X113715797Y-105007511D01*
X113718375Y-105007124D01*
X113730761Y-105007211D01*
X113739933Y-105006311D01*
X114322222Y-104945111D01*
X114380832Y-104933079D01*
X114439580Y-104921873D01*
X114448402Y-104919209D01*
X115007715Y-104746072D01*
X115062833Y-104722902D01*
X115118322Y-104700484D01*
X115126458Y-104696157D01*
X115641490Y-104417681D01*
X115691064Y-104384243D01*
X115741138Y-104351476D01*
X115748279Y-104345652D01*
X116199412Y-103972442D01*
X116241588Y-103929971D01*
X116284301Y-103888143D01*
X116290175Y-103881043D01*
X116660227Y-103427314D01*
X116693320Y-103377506D01*
X116727127Y-103328132D01*
X116731510Y-103320026D01*
X117006384Y-102803061D01*
X117029182Y-102747749D01*
X117052744Y-102692775D01*
X117055469Y-102683972D01*
X117224696Y-102123464D01*
X117236316Y-102064776D01*
X117248752Y-102006273D01*
X117249715Y-101997108D01*
X117306850Y-101414406D01*
X117306850Y-101414402D01*
X117310000Y-101382419D01*
X117310000Y-97117581D01*
X117307080Y-97087937D01*
X117307211Y-97069238D01*
X117306311Y-97060067D01*
X117245110Y-96477777D01*
X117233084Y-96419191D01*
X117221873Y-96360420D01*
X117219210Y-96351598D01*
X117046072Y-95792285D01*
X117022902Y-95737167D01*
X117000484Y-95681678D01*
X116996157Y-95673542D01*
X116993116Y-95667917D01*
X117990001Y-96664803D01*
X117990000Y-103212677D01*
X117986324Y-103250000D01*
X117990000Y-103287322D01*
X117990000Y-103287332D01*
X118000997Y-103398985D01*
X118043482Y-103539041D01*
X118044454Y-103542246D01*
X118115026Y-103674276D01*
X118144322Y-103709973D01*
X118209999Y-103790001D01*
X118239003Y-103813804D01*
X120636201Y-106211003D01*
X120659999Y-106240001D01*
X120775724Y-106334974D01*
X120907753Y-106405546D01*
X121051014Y-106449003D01*
X121162667Y-106460000D01*
X121162676Y-106460000D01*
X121199999Y-106463676D01*
X121237322Y-106460000D01*
X136554465Y-106460000D01*
X136657111Y-106528586D01*
X136827271Y-106599068D01*
X137007911Y-106635000D01*
X137192089Y-106635000D01*
X137372729Y-106599068D01*
X137542889Y-106528586D01*
X137696028Y-106426262D01*
X137826262Y-106296028D01*
X137928586Y-106142889D01*
X137999068Y-105972729D01*
X138035000Y-105792089D01*
X138035000Y-105607911D01*
X137999068Y-105427271D01*
X137928586Y-105257111D01*
X137826262Y-105103972D01*
X137696028Y-104973738D01*
X137542889Y-104871414D01*
X137372729Y-104800932D01*
X137192089Y-104765000D01*
X137007911Y-104765000D01*
X136827271Y-104800932D01*
X136657111Y-104871414D01*
X136554465Y-104940000D01*
X134977943Y-104940000D01*
X134984745Y-104936926D01*
X134992700Y-104932273D01*
X135152969Y-104837033D01*
X135201158Y-104801607D01*
X135249854Y-104766846D01*
X135256754Y-104760737D01*
X135395472Y-104636180D01*
X135435871Y-104592059D01*
X135476878Y-104548511D01*
X135482460Y-104541179D01*
X135594342Y-104392050D01*
X135625408Y-104340913D01*
X135657168Y-104290242D01*
X135661219Y-104281965D01*
X135742005Y-104113946D01*
X135762528Y-104057801D01*
X135783861Y-104001874D01*
X135786227Y-103992967D01*
X135832840Y-103812457D01*
X135842069Y-103753376D01*
X135852131Y-103694384D01*
X135852722Y-103685188D01*
X135863385Y-103499062D01*
X135860962Y-103439290D01*
X135859374Y-103379495D01*
X135858168Y-103370359D01*
X135832476Y-103185706D01*
X135818493Y-103127557D01*
X135805317Y-103069193D01*
X135802359Y-103060466D01*
X135741290Y-102884320D01*
X135716297Y-102830034D01*
X135692020Y-102775304D01*
X135687423Y-102767317D01*
X135593304Y-102606387D01*
X135558222Y-102557962D01*
X135523796Y-102509015D01*
X135517735Y-102502073D01*
X135398790Y-102367730D01*
X134868082Y-101742080D01*
X134482590Y-101077244D01*
X134220927Y-100354656D01*
X134091357Y-99597148D01*
X134097979Y-98828662D01*
X134240581Y-98073501D01*
X134514658Y-97355527D01*
X134913028Y-96694976D01*
X135386611Y-96146325D01*
X135439412Y-96092130D01*
X135466987Y-96057653D01*
X135496631Y-96024946D01*
X135502072Y-96017509D01*
X135611093Y-95866276D01*
X135641173Y-95814566D01*
X135671967Y-95763292D01*
X135675859Y-95754939D01*
X135753430Y-95585412D01*
X135772884Y-95528873D01*
X135793146Y-95472555D01*
X135795342Y-95463605D01*
X135838506Y-95282239D01*
X135846607Y-95222999D01*
X135855543Y-95163825D01*
X135855958Y-95154619D01*
X135858767Y-95081057D01*
X135903972Y-95126262D01*
X136057111Y-95228586D01*
X136227271Y-95299068D01*
X136407911Y-95335000D01*
X136592089Y-95335000D01*
X136772729Y-95299068D01*
X136942889Y-95228586D01*
X137045535Y-95160000D01*
X137869570Y-95160000D01*
X137625537Y-95261082D01*
X137357748Y-95440013D01*
X137130013Y-95667748D01*
X136951082Y-95935537D01*
X136827832Y-96233088D01*
X136765000Y-96548967D01*
X136765000Y-96871033D01*
X136827832Y-97186912D01*
X136951082Y-97484463D01*
X137130013Y-97752252D01*
X137357748Y-97979987D01*
X137625537Y-98158918D01*
X137923088Y-98282168D01*
X138238967Y-98345000D01*
X138561033Y-98345000D01*
X138876912Y-98282168D01*
X139174463Y-98158918D01*
X139442252Y-97979987D01*
X139669987Y-97752252D01*
X139848918Y-97484463D01*
X139972168Y-97186912D01*
X140035000Y-96871033D01*
X140035000Y-96548967D01*
X139972168Y-96233088D01*
X139848918Y-95935537D01*
X139669987Y-95667748D01*
X139442252Y-95440013D01*
X139174463Y-95261082D01*
X138876912Y-95137832D01*
X138561033Y-95075000D01*
X138449394Y-95075000D01*
X138524276Y-95034974D01*
X138565749Y-95000938D01*
X140936615Y-95000938D01*
X140939038Y-95060709D01*
X140940626Y-95120505D01*
X140941832Y-95129641D01*
X140967524Y-95314294D01*
X140981507Y-95372443D01*
X140994683Y-95430807D01*
X140997641Y-95439534D01*
X141058710Y-95615681D01*
X141083710Y-95669981D01*
X141107980Y-95724696D01*
X141112577Y-95732683D01*
X141206696Y-95893613D01*
X141241778Y-95942038D01*
X141276204Y-95990985D01*
X141282265Y-95997927D01*
X141401210Y-96132270D01*
X141931918Y-96757920D01*
X142317410Y-97422756D01*
X142579073Y-98145344D01*
X142708643Y-98902852D01*
X142702021Y-99671338D01*
X142559419Y-100426499D01*
X142285341Y-101144476D01*
X141886972Y-101805024D01*
X141413389Y-102353675D01*
X141360588Y-102407870D01*
X141333010Y-102442349D01*
X141303369Y-102475054D01*
X141297928Y-102482492D01*
X141188907Y-102633724D01*
X141158832Y-102685426D01*
X141128033Y-102736709D01*
X141124140Y-102745061D01*
X141046570Y-102914588D01*
X141027116Y-102971127D01*
X141006854Y-103027445D01*
X141004658Y-103036395D01*
X140961494Y-103217761D01*
X140953393Y-103277001D01*
X140944457Y-103336175D01*
X140944042Y-103345381D01*
X140936927Y-103531677D01*
X140940486Y-103591364D01*
X140943214Y-103651144D01*
X140944595Y-103660256D01*
X140973800Y-103844386D01*
X140988888Y-103902259D01*
X141003173Y-103960361D01*
X141006297Y-103969031D01*
X141070711Y-104143981D01*
X141096744Y-104197803D01*
X141122050Y-104252040D01*
X141126798Y-104259938D01*
X141223966Y-104419045D01*
X141259979Y-104466813D01*
X141295317Y-104515074D01*
X141301509Y-104521899D01*
X141427730Y-104659103D01*
X141472327Y-104698960D01*
X141516375Y-104739446D01*
X141523769Y-104744934D01*
X141523774Y-104744938D01*
X141523779Y-104744941D01*
X141674243Y-104855012D01*
X141725732Y-104885447D01*
X141776802Y-104916605D01*
X141785128Y-104920556D01*
X141954110Y-104999308D01*
X142010506Y-105019154D01*
X142066681Y-105039808D01*
X142075615Y-105042067D01*
X142256676Y-105086497D01*
X142315910Y-105095019D01*
X142374972Y-105104360D01*
X142384172Y-105104840D01*
X142384175Y-105104840D01*
X142569931Y-105113233D01*
X142601249Y-105114722D01*
X144667854Y-105009942D01*
X144673244Y-105009923D01*
X144678246Y-105009415D01*
X144715797Y-105007511D01*
X144718375Y-105007124D01*
X144730761Y-105007211D01*
X144739933Y-105006311D01*
X145322222Y-104945111D01*
X145380832Y-104933079D01*
X145439580Y-104921873D01*
X145448402Y-104919209D01*
X146007715Y-104746072D01*
X146062833Y-104722902D01*
X146118322Y-104700484D01*
X146126458Y-104696157D01*
X146641490Y-104417681D01*
X146691064Y-104384243D01*
X146741138Y-104351476D01*
X146748279Y-104345652D01*
X147199412Y-103972442D01*
X147241588Y-103929971D01*
X147284301Y-103888143D01*
X147290175Y-103881043D01*
X147660227Y-103427314D01*
X147693320Y-103377506D01*
X147727127Y-103328132D01*
X147731510Y-103320026D01*
X148006384Y-102803061D01*
X148029182Y-102747749D01*
X148052744Y-102692775D01*
X148055469Y-102683972D01*
X148224696Y-102123464D01*
X148236316Y-102064776D01*
X148248752Y-102006273D01*
X148249715Y-101997108D01*
X148306850Y-101414406D01*
X148306850Y-101414402D01*
X148310000Y-101382419D01*
X148310000Y-97117581D01*
X148307080Y-97087937D01*
X148307211Y-97069238D01*
X148306311Y-97060067D01*
X148245110Y-96477777D01*
X148233084Y-96419191D01*
X148221873Y-96360420D01*
X148219210Y-96351598D01*
X148046072Y-95792285D01*
X148022902Y-95737167D01*
X148000484Y-95681678D01*
X147996157Y-95673542D01*
X147717681Y-95158510D01*
X147684243Y-95108936D01*
X147651476Y-95058862D01*
X147645652Y-95051721D01*
X147272442Y-94600588D01*
X147229990Y-94558431D01*
X147188144Y-94515699D01*
X147181043Y-94509825D01*
X146727315Y-94139773D01*
X146677504Y-94106679D01*
X146628132Y-94072873D01*
X146620026Y-94068490D01*
X146103062Y-93793616D01*
X146047735Y-93770812D01*
X145992775Y-93747256D01*
X145983971Y-93744531D01*
X145423464Y-93575304D01*
X145364769Y-93563682D01*
X145306273Y-93551248D01*
X145297108Y-93550285D01*
X144731168Y-93494794D01*
X144715797Y-93492489D01*
X142601249Y-93385278D01*
X142585392Y-93386032D01*
X142506335Y-93385830D01*
X142462390Y-93390026D01*
X142418260Y-93391506D01*
X142409133Y-93392776D01*
X142224664Y-93419757D01*
X142166602Y-93434149D01*
X142108345Y-93447728D01*
X142099638Y-93450747D01*
X141923924Y-93513044D01*
X141869756Y-93538442D01*
X141815255Y-93563074D01*
X141807305Y-93567725D01*
X141807298Y-93567728D01*
X141807292Y-93567732D01*
X141647031Y-93662967D01*
X141598827Y-93698404D01*
X141550146Y-93733154D01*
X141543246Y-93739263D01*
X141404528Y-93863820D01*
X141364130Y-93907940D01*
X141323122Y-93951488D01*
X141317540Y-93958821D01*
X141205658Y-94107949D01*
X141174592Y-94159086D01*
X141142832Y-94209757D01*
X141138781Y-94218034D01*
X141057995Y-94386054D01*
X141037472Y-94442199D01*
X141016139Y-94498126D01*
X141013773Y-94507033D01*
X140967160Y-94687544D01*
X140957932Y-94746618D01*
X140947869Y-94805616D01*
X140947278Y-94814812D01*
X140936615Y-95000938D01*
X138565749Y-95000938D01*
X138640001Y-94940001D01*
X138663804Y-94910997D01*
X140314802Y-93260000D01*
X148235199Y-93260000D01*
X151340000Y-96364802D01*
X151340001Y-102612668D01*
X151336324Y-102650000D01*
X151340001Y-102687333D01*
X151350998Y-102798986D01*
X151361443Y-102833419D01*
X151394454Y-102942246D01*
X151465026Y-103074276D01*
X151530497Y-103154052D01*
X151560000Y-103190001D01*
X151588998Y-103213799D01*
X155386201Y-107011003D01*
X155409999Y-107040001D01*
X155525724Y-107134974D01*
X155657753Y-107205546D01*
X155801014Y-107249003D01*
X155912667Y-107260000D01*
X155912676Y-107260000D01*
X155949999Y-107263676D01*
X155987322Y-107260000D01*
X166554465Y-107260000D01*
X166657111Y-107328586D01*
X166827271Y-107399068D01*
X167007911Y-107435000D01*
X167192089Y-107435000D01*
X167372729Y-107399068D01*
X167542889Y-107328586D01*
X167696028Y-107226262D01*
X167826262Y-107096028D01*
X167928586Y-106942889D01*
X167999068Y-106772729D01*
X168035000Y-106592089D01*
X168035000Y-106407911D01*
X167999068Y-106227271D01*
X167928586Y-106057111D01*
X167826262Y-105903972D01*
X167696028Y-105773738D01*
X167542889Y-105671414D01*
X167372729Y-105600932D01*
X167192089Y-105565000D01*
X167007911Y-105565000D01*
X166827271Y-105600932D01*
X166657111Y-105671414D01*
X166554465Y-105740000D01*
X156264802Y-105740000D01*
X152860000Y-102335199D01*
X152860000Y-96087322D01*
X152863676Y-96049999D01*
X152860000Y-96012676D01*
X152860000Y-96012667D01*
X152849003Y-95901014D01*
X152805546Y-95757753D01*
X152789459Y-95727657D01*
X152734974Y-95625723D01*
X152666332Y-95542083D01*
X152640001Y-95509999D01*
X152611004Y-95486202D01*
X149113804Y-91989003D01*
X149110519Y-91985000D01*
X164524843Y-91985000D01*
X166185626Y-93645783D01*
X166195637Y-93696108D01*
X166125757Y-93644988D01*
X166074268Y-93614553D01*
X166023198Y-93583395D01*
X166014873Y-93579444D01*
X165845890Y-93500692D01*
X165789483Y-93480842D01*
X165733319Y-93460192D01*
X165724385Y-93457934D01*
X165543325Y-93413503D01*
X165484080Y-93404979D01*
X165425028Y-93395640D01*
X165415830Y-93395160D01*
X165415825Y-93395160D01*
X165230056Y-93386766D01*
X165198750Y-93385278D01*
X163132146Y-93490058D01*
X163126756Y-93490077D01*
X163121754Y-93490585D01*
X163084203Y-93492489D01*
X163081625Y-93492876D01*
X163069238Y-93492789D01*
X163060067Y-93493689D01*
X162477777Y-93554890D01*
X162419191Y-93566916D01*
X162360420Y-93578127D01*
X162351598Y-93580790D01*
X161792285Y-93753928D01*
X161737167Y-93777098D01*
X161681678Y-93799516D01*
X161673542Y-93803843D01*
X161158510Y-94082319D01*
X161108936Y-94115757D01*
X161058862Y-94148524D01*
X161051721Y-94154348D01*
X160600588Y-94527558D01*
X160558431Y-94570010D01*
X160515699Y-94611856D01*
X160509825Y-94618957D01*
X160139773Y-95072685D01*
X160106679Y-95122496D01*
X160072873Y-95171868D01*
X160068490Y-95179974D01*
X159793616Y-95696938D01*
X159770812Y-95752265D01*
X159747256Y-95807225D01*
X159744531Y-95816029D01*
X159575304Y-96376536D01*
X159563682Y-96435231D01*
X159551248Y-96493727D01*
X159550285Y-96502892D01*
X159493150Y-97085595D01*
X159490000Y-97117582D01*
X159490001Y-101382419D01*
X159492920Y-101412054D01*
X159492789Y-101430761D01*
X159493689Y-101439933D01*
X159554889Y-102022222D01*
X159566921Y-102080832D01*
X159578127Y-102139580D01*
X159580791Y-102148402D01*
X159753928Y-102707715D01*
X159777098Y-102762833D01*
X159799516Y-102818322D01*
X159803843Y-102826458D01*
X160082319Y-103341490D01*
X160115757Y-103391064D01*
X160148524Y-103441138D01*
X160154348Y-103448279D01*
X160527558Y-103899412D01*
X160570029Y-103941588D01*
X160611857Y-103984301D01*
X160618957Y-103990175D01*
X161072686Y-104360227D01*
X161122494Y-104393320D01*
X161171868Y-104427127D01*
X161179974Y-104431510D01*
X161696939Y-104706384D01*
X161752251Y-104729182D01*
X161807225Y-104752744D01*
X161816028Y-104755469D01*
X162376536Y-104924696D01*
X162435224Y-104936316D01*
X162493727Y-104948752D01*
X162502892Y-104949715D01*
X163068834Y-105005207D01*
X163084203Y-105007511D01*
X165198750Y-105114722D01*
X165214607Y-105113968D01*
X165293664Y-105114170D01*
X165337608Y-105109974D01*
X165381740Y-105108494D01*
X165390867Y-105107224D01*
X165575337Y-105080243D01*
X165633407Y-105065849D01*
X165691655Y-105052272D01*
X165700361Y-105049253D01*
X165876076Y-104986956D01*
X165930232Y-104961563D01*
X165984745Y-104936926D01*
X165992700Y-104932273D01*
X166152969Y-104837033D01*
X166201158Y-104801607D01*
X166249854Y-104766846D01*
X166256754Y-104760737D01*
X166395472Y-104636180D01*
X166435871Y-104592059D01*
X166476878Y-104548511D01*
X166482460Y-104541179D01*
X166594342Y-104392050D01*
X166625408Y-104340913D01*
X166657168Y-104290242D01*
X166661219Y-104281965D01*
X166742005Y-104113946D01*
X166762528Y-104057801D01*
X166783861Y-104001874D01*
X166786227Y-103992967D01*
X166832840Y-103812457D01*
X166842069Y-103753376D01*
X166852131Y-103694384D01*
X166852722Y-103685188D01*
X166863385Y-103499062D01*
X166860962Y-103439290D01*
X166859374Y-103379495D01*
X166858168Y-103370359D01*
X166832476Y-103185706D01*
X166818493Y-103127557D01*
X166805317Y-103069193D01*
X166802359Y-103060466D01*
X166741290Y-102884320D01*
X166716297Y-102830034D01*
X166692020Y-102775304D01*
X166687423Y-102767317D01*
X166593304Y-102606387D01*
X166558222Y-102557962D01*
X166523796Y-102509015D01*
X166517735Y-102502073D01*
X166398790Y-102367730D01*
X165868082Y-101742080D01*
X165482590Y-101077244D01*
X165220927Y-100354656D01*
X165091357Y-99597148D01*
X165097979Y-98828662D01*
X165240581Y-98073501D01*
X165514658Y-97355527D01*
X165913028Y-96694976D01*
X166386611Y-96146325D01*
X166439412Y-96092130D01*
X166466987Y-96057653D01*
X166496631Y-96024946D01*
X166502072Y-96017509D01*
X166611093Y-95866276D01*
X166641173Y-95814566D01*
X166671967Y-95763292D01*
X166675859Y-95754939D01*
X166753430Y-95585412D01*
X166772884Y-95528873D01*
X166793146Y-95472555D01*
X166795342Y-95463605D01*
X166838506Y-95282239D01*
X166846607Y-95222999D01*
X166855543Y-95163825D01*
X166855958Y-95154619D01*
X166863073Y-94968323D01*
X166859514Y-94908636D01*
X166856786Y-94848856D01*
X166855406Y-94839745D01*
X166826200Y-94655614D01*
X166811114Y-94597748D01*
X166796827Y-94539639D01*
X166793703Y-94530969D01*
X166729289Y-94356018D01*
X166703234Y-94302151D01*
X166700655Y-94296622D01*
X166827271Y-94349068D01*
X167007911Y-94385000D01*
X167192089Y-94385000D01*
X167372729Y-94349068D01*
X167542889Y-94278586D01*
X167696028Y-94176262D01*
X167826262Y-94046028D01*
X167928586Y-93892889D01*
X167999068Y-93722729D01*
X168017900Y-93628057D01*
X168615000Y-94225158D01*
X168615000Y-95268122D01*
X168357748Y-95440013D01*
X168130013Y-95667748D01*
X167951082Y-95935537D01*
X167827832Y-96233088D01*
X167765000Y-96548967D01*
X167765000Y-96871033D01*
X167827832Y-97186912D01*
X167951082Y-97484463D01*
X168130013Y-97752252D01*
X168357748Y-97979987D01*
X168625537Y-98158918D01*
X168923088Y-98282168D01*
X169238967Y-98345000D01*
X169561033Y-98345000D01*
X169876912Y-98282168D01*
X170174463Y-98158918D01*
X170442252Y-97979987D01*
X170669987Y-97752252D01*
X170848918Y-97484463D01*
X170972168Y-97186912D01*
X171035000Y-96871033D01*
X171035000Y-96548967D01*
X170972168Y-96233088D01*
X170848918Y-95935537D01*
X170669987Y-95667748D01*
X170442252Y-95440013D01*
X170185000Y-95268123D01*
X170185000Y-93938552D01*
X170188797Y-93899999D01*
X170185000Y-93861446D01*
X170185000Y-93861439D01*
X170173641Y-93746113D01*
X170171669Y-93739610D01*
X170128754Y-93598140D01*
X170113448Y-93569505D01*
X170055862Y-93461767D01*
X169999242Y-93392776D01*
X169982345Y-93372187D01*
X169982342Y-93372184D01*
X169957764Y-93342236D01*
X169927817Y-93317659D01*
X166282347Y-89672190D01*
X166257764Y-89642236D01*
X166138233Y-89544138D01*
X166001860Y-89471246D01*
X165853887Y-89426359D01*
X165738561Y-89415000D01*
X165738553Y-89415000D01*
X165700000Y-89411203D01*
X165661447Y-89415000D01*
X149708120Y-89415000D01*
X149642889Y-89371414D01*
X149472729Y-89300932D01*
X149292089Y-89265000D01*
X149107911Y-89265000D01*
X148927271Y-89300932D01*
X148757111Y-89371414D01*
X148603972Y-89473738D01*
X148473738Y-89603972D01*
X148371414Y-89757111D01*
X148300932Y-89927271D01*
X148265000Y-90107911D01*
X148265000Y-90292089D01*
X148289449Y-90415000D01*
X126575157Y-90415000D01*
X117182347Y-81022190D01*
X117157764Y-80992236D01*
X117038233Y-80894138D01*
X116901860Y-80821246D01*
X116753887Y-80776359D01*
X116638561Y-80765000D01*
X116638553Y-80765000D01*
X116600000Y-80761203D01*
X116561447Y-80765000D01*
X80508120Y-80765000D01*
X80442889Y-80721414D01*
X80272729Y-80650932D01*
X80092089Y-80615000D01*
X79907911Y-80615000D01*
X79727271Y-80650932D01*
X79557111Y-80721414D01*
X79403972Y-80823738D01*
X79273738Y-80953972D01*
X79171414Y-81107111D01*
X79100932Y-81277271D01*
X79065000Y-81457911D01*
X74060000Y-81457911D01*
X74060000Y-65548967D01*
X74765000Y-65548967D01*
X74765000Y-65871033D01*
X74827832Y-66186912D01*
X74951082Y-66484463D01*
X75130013Y-66752252D01*
X75357748Y-66979987D01*
X75625537Y-67158918D01*
X75923088Y-67282168D01*
X76238967Y-67345000D01*
X76561033Y-67345000D01*
X76876912Y-67282168D01*
X77174463Y-67158918D01*
X77442252Y-66979987D01*
X77669987Y-66752252D01*
X77848918Y-66484463D01*
X77972168Y-66186912D01*
X78035000Y-65871033D01*
X78035000Y-65548967D01*
X77972168Y-65233088D01*
X77848918Y-64935537D01*
X77669987Y-64667748D01*
X77442252Y-64440013D01*
X77174463Y-64261082D01*
X76876912Y-64137832D01*
X76561033Y-64075000D01*
X76238967Y-64075000D01*
X75923088Y-64137832D01*
X75625537Y-64261082D01*
X75357748Y-64440013D01*
X75130013Y-64667748D01*
X74951082Y-64935537D01*
X74827832Y-65233088D01*
X74765000Y-65548967D01*
X74060000Y-65548967D01*
X74060000Y-64000938D01*
X78936615Y-64000938D01*
X78939038Y-64060709D01*
X78940626Y-64120505D01*
X78941832Y-64129641D01*
X78967524Y-64314294D01*
X78981507Y-64372443D01*
X78994683Y-64430807D01*
X78997641Y-64439534D01*
X79058710Y-64615681D01*
X79083710Y-64669981D01*
X79107980Y-64724696D01*
X79112577Y-64732683D01*
X79206696Y-64893613D01*
X79241778Y-64942038D01*
X79276204Y-64990985D01*
X79282265Y-64997927D01*
X79401210Y-65132270D01*
X79931918Y-65757920D01*
X80317410Y-66422756D01*
X80579073Y-67145344D01*
X80708643Y-67902852D01*
X80702021Y-68671338D01*
X80559419Y-69426499D01*
X80285341Y-70144476D01*
X79886972Y-70805024D01*
X79413389Y-71353675D01*
X79360588Y-71407870D01*
X79333010Y-71442349D01*
X79303369Y-71475054D01*
X79297928Y-71482492D01*
X79188907Y-71633724D01*
X79158832Y-71685426D01*
X79128033Y-71736709D01*
X79124140Y-71745061D01*
X79046570Y-71914588D01*
X79027116Y-71971127D01*
X79006854Y-72027445D01*
X79004658Y-72036395D01*
X78961494Y-72217761D01*
X78953393Y-72277001D01*
X78944457Y-72336175D01*
X78944042Y-72345381D01*
X78936927Y-72531677D01*
X78940486Y-72591364D01*
X78943214Y-72651144D01*
X78944595Y-72660256D01*
X78973800Y-72844386D01*
X78988888Y-72902259D01*
X79003173Y-72960361D01*
X79006297Y-72969031D01*
X79070711Y-73143981D01*
X79096744Y-73197803D01*
X79122050Y-73252040D01*
X79126798Y-73259938D01*
X79223966Y-73419045D01*
X79259979Y-73466813D01*
X79295317Y-73515074D01*
X79301509Y-73521899D01*
X79427730Y-73659103D01*
X79472327Y-73698960D01*
X79516375Y-73739446D01*
X79523769Y-73744934D01*
X79523774Y-73744938D01*
X79523779Y-73744941D01*
X79674243Y-73855012D01*
X79725732Y-73885447D01*
X79776802Y-73916605D01*
X79785128Y-73920556D01*
X79954110Y-73999308D01*
X80010506Y-74019154D01*
X80066681Y-74039808D01*
X80075615Y-74042067D01*
X80256676Y-74086497D01*
X80315910Y-74095019D01*
X80374972Y-74104360D01*
X80384172Y-74104840D01*
X80384175Y-74104840D01*
X80569931Y-74113233D01*
X80601249Y-74114722D01*
X82667854Y-74009942D01*
X82673244Y-74009923D01*
X82678246Y-74009415D01*
X82715797Y-74007511D01*
X82718375Y-74007124D01*
X82730761Y-74007211D01*
X82739933Y-74006311D01*
X83322222Y-73945111D01*
X83380832Y-73933079D01*
X83439580Y-73921873D01*
X83448402Y-73919209D01*
X84007715Y-73746072D01*
X84062833Y-73722902D01*
X84118322Y-73700484D01*
X84126458Y-73696157D01*
X84641490Y-73417681D01*
X84691064Y-73384243D01*
X84741138Y-73351476D01*
X84748279Y-73345652D01*
X85199412Y-72972442D01*
X85241588Y-72929971D01*
X85284301Y-72888143D01*
X85290175Y-72881043D01*
X85660227Y-72427314D01*
X85693320Y-72377506D01*
X85727127Y-72328132D01*
X85731510Y-72320026D01*
X86006384Y-71803061D01*
X86029182Y-71747749D01*
X86052744Y-71692775D01*
X86055469Y-71683972D01*
X86224696Y-71123464D01*
X86236316Y-71064776D01*
X86248752Y-71006273D01*
X86249715Y-70997108D01*
X86306850Y-70414406D01*
X86306850Y-70414402D01*
X86310000Y-70382419D01*
X86310000Y-66117581D01*
X86307080Y-66087937D01*
X86307211Y-66069238D01*
X86306311Y-66060067D01*
X86245110Y-65477777D01*
X86233084Y-65419191D01*
X86221873Y-65360420D01*
X86219210Y-65351598D01*
X86046072Y-64792285D01*
X86022902Y-64737167D01*
X86000484Y-64681678D01*
X85996157Y-64673542D01*
X85717681Y-64158510D01*
X85684243Y-64108936D01*
X85651476Y-64058862D01*
X85645652Y-64051721D01*
X85272442Y-63600588D01*
X85229990Y-63558431D01*
X85188144Y-63515699D01*
X85181043Y-63509825D01*
X84727315Y-63139773D01*
X84677504Y-63106679D01*
X84628132Y-63072873D01*
X84620026Y-63068490D01*
X84103062Y-62793616D01*
X84047735Y-62770812D01*
X83992775Y-62747256D01*
X83983971Y-62744531D01*
X83423464Y-62575304D01*
X83364769Y-62563682D01*
X83306273Y-62551248D01*
X83297108Y-62550285D01*
X82731168Y-62494794D01*
X82715797Y-62492489D01*
X80601249Y-62385278D01*
X80585392Y-62386032D01*
X80506335Y-62385830D01*
X80462390Y-62390026D01*
X80418260Y-62391506D01*
X80409133Y-62392776D01*
X80224664Y-62419757D01*
X80166602Y-62434149D01*
X80108345Y-62447728D01*
X80099638Y-62450747D01*
X79923924Y-62513044D01*
X79869756Y-62538442D01*
X79815255Y-62563074D01*
X79807305Y-62567725D01*
X79807298Y-62567728D01*
X79807292Y-62567732D01*
X79647031Y-62662967D01*
X79598827Y-62698404D01*
X79550146Y-62733154D01*
X79543246Y-62739263D01*
X79404528Y-62863820D01*
X79364130Y-62907940D01*
X79323122Y-62951488D01*
X79317540Y-62958821D01*
X79205658Y-63107949D01*
X79174592Y-63159086D01*
X79142832Y-63209757D01*
X79138781Y-63218034D01*
X79057995Y-63386054D01*
X79037472Y-63442199D01*
X79016139Y-63498126D01*
X79013773Y-63507033D01*
X78967160Y-63687544D01*
X78957932Y-63746618D01*
X78947869Y-63805616D01*
X78947278Y-63814812D01*
X78936615Y-64000938D01*
X74060000Y-64000938D01*
X74060000Y-61307911D01*
X74565000Y-61307911D01*
X74565000Y-61492089D01*
X74600932Y-61672729D01*
X74671414Y-61842889D01*
X74773738Y-61996028D01*
X74903972Y-62126262D01*
X75057111Y-62228586D01*
X75227271Y-62299068D01*
X75407911Y-62335000D01*
X75592089Y-62335000D01*
X75772729Y-62299068D01*
X75942889Y-62228586D01*
X76008120Y-62185000D01*
X86374843Y-62185000D01*
X91865001Y-67675158D01*
X91865000Y-72561447D01*
X91861203Y-72600000D01*
X91865000Y-72638553D01*
X91865000Y-72638560D01*
X91876359Y-72753886D01*
X91921246Y-72901859D01*
X91994138Y-73038232D01*
X92092236Y-73157764D01*
X92122190Y-73182347D01*
X94817658Y-75877816D01*
X94842236Y-75907764D01*
X94872184Y-75932342D01*
X94872187Y-75932345D01*
X94901559Y-75956450D01*
X94961767Y-76005862D01*
X95098140Y-76078754D01*
X95211672Y-76113194D01*
X95246112Y-76123641D01*
X95260490Y-76125057D01*
X95361439Y-76135000D01*
X95361446Y-76135000D01*
X95399999Y-76138797D01*
X95438552Y-76135000D01*
X105411447Y-76135000D01*
X105450000Y-76138797D01*
X105488553Y-76135000D01*
X105488561Y-76135000D01*
X105603887Y-76123641D01*
X105751860Y-76078754D01*
X105888233Y-76005862D01*
X106007764Y-75907764D01*
X106032347Y-75877810D01*
X106295783Y-75614374D01*
X106372729Y-75599068D01*
X106542889Y-75528586D01*
X106696028Y-75426262D01*
X106826262Y-75296028D01*
X106928586Y-75142889D01*
X106999068Y-74972729D01*
X107035000Y-74792089D01*
X107035000Y-74607911D01*
X106999068Y-74427271D01*
X106928586Y-74257111D01*
X106826262Y-74103972D01*
X106696028Y-73973738D01*
X106542889Y-73871414D01*
X106372729Y-73800932D01*
X106192089Y-73765000D01*
X106007911Y-73765000D01*
X105827271Y-73800932D01*
X105657111Y-73871414D01*
X105503972Y-73973738D01*
X105373738Y-74103972D01*
X105271414Y-74257111D01*
X105200932Y-74427271D01*
X105185626Y-74504217D01*
X105124843Y-74565000D01*
X95725158Y-74565000D01*
X93435000Y-72274843D01*
X93435000Y-67388556D01*
X93438797Y-67350000D01*
X93435000Y-67311444D01*
X93435000Y-67311439D01*
X93426409Y-67224212D01*
X93423642Y-67196113D01*
X93378754Y-67048140D01*
X93359317Y-67011776D01*
X93305862Y-66911767D01*
X93207764Y-66792236D01*
X93177810Y-66767653D01*
X92527739Y-66117582D01*
X97490000Y-66117582D01*
X97490001Y-70382419D01*
X97492920Y-70412054D01*
X97492789Y-70430761D01*
X97493689Y-70439933D01*
X97554889Y-71022222D01*
X97566921Y-71080832D01*
X97578127Y-71139580D01*
X97580791Y-71148402D01*
X97753928Y-71707715D01*
X97777098Y-71762833D01*
X97799516Y-71818322D01*
X97803843Y-71826458D01*
X98082319Y-72341490D01*
X98115757Y-72391064D01*
X98148524Y-72441138D01*
X98154348Y-72448279D01*
X98527558Y-72899412D01*
X98570029Y-72941588D01*
X98611857Y-72984301D01*
X98618957Y-72990175D01*
X99072686Y-73360227D01*
X99122494Y-73393320D01*
X99171868Y-73427127D01*
X99179974Y-73431510D01*
X99696939Y-73706384D01*
X99752251Y-73729182D01*
X99807225Y-73752744D01*
X99816028Y-73755469D01*
X100376536Y-73924696D01*
X100435224Y-73936316D01*
X100493727Y-73948752D01*
X100502892Y-73949715D01*
X101068834Y-74005207D01*
X101084203Y-74007511D01*
X103198750Y-74114722D01*
X103214607Y-74113968D01*
X103293664Y-74114170D01*
X103337608Y-74109974D01*
X103381740Y-74108494D01*
X103390867Y-74107224D01*
X103575337Y-74080243D01*
X103633407Y-74065849D01*
X103691655Y-74052272D01*
X103700361Y-74049253D01*
X103876076Y-73986956D01*
X103930232Y-73961563D01*
X103984745Y-73936926D01*
X103992700Y-73932273D01*
X104152969Y-73837033D01*
X104201158Y-73801607D01*
X104249854Y-73766846D01*
X104256754Y-73760737D01*
X104395472Y-73636180D01*
X104435871Y-73592059D01*
X104476878Y-73548511D01*
X104482460Y-73541179D01*
X104594342Y-73392050D01*
X104625408Y-73340913D01*
X104657168Y-73290242D01*
X104661219Y-73281965D01*
X104742005Y-73113946D01*
X104762528Y-73057801D01*
X104783861Y-73001874D01*
X104786227Y-72992967D01*
X104832840Y-72812457D01*
X104842069Y-72753376D01*
X104852131Y-72694384D01*
X104852722Y-72685188D01*
X104863385Y-72499062D01*
X104860962Y-72439290D01*
X104859374Y-72379495D01*
X104858168Y-72370359D01*
X104832476Y-72185706D01*
X104818493Y-72127557D01*
X104805317Y-72069193D01*
X104802359Y-72060466D01*
X104741290Y-71884320D01*
X104716297Y-71830034D01*
X104692020Y-71775304D01*
X104687423Y-71767317D01*
X104593304Y-71606387D01*
X104558222Y-71557962D01*
X104523796Y-71509015D01*
X104517735Y-71502073D01*
X104398790Y-71367730D01*
X103868082Y-70742080D01*
X103482590Y-70077244D01*
X103220927Y-69354656D01*
X103091357Y-68597148D01*
X103097979Y-67828662D01*
X103240581Y-67073501D01*
X103514658Y-66355527D01*
X103913028Y-65694976D01*
X104039059Y-65548967D01*
X105765000Y-65548967D01*
X105765000Y-65871033D01*
X105827832Y-66186912D01*
X105951082Y-66484463D01*
X106130013Y-66752252D01*
X106357748Y-66979987D01*
X106625537Y-67158918D01*
X106923088Y-67282168D01*
X107238967Y-67345000D01*
X107561033Y-67345000D01*
X107876912Y-67282168D01*
X108174463Y-67158918D01*
X108442252Y-66979987D01*
X108669987Y-66752252D01*
X108848918Y-66484463D01*
X108972168Y-66186912D01*
X109035000Y-65871033D01*
X109035000Y-65548967D01*
X108972168Y-65233088D01*
X108848918Y-64935537D01*
X108669987Y-64667748D01*
X108442252Y-64440013D01*
X108174463Y-64261082D01*
X108160000Y-64255091D01*
X108160000Y-64000938D01*
X109936615Y-64000938D01*
X109939038Y-64060709D01*
X109940626Y-64120505D01*
X109941832Y-64129641D01*
X109967524Y-64314294D01*
X109981507Y-64372443D01*
X109994683Y-64430807D01*
X109997641Y-64439534D01*
X110058710Y-64615681D01*
X110083710Y-64669981D01*
X110107980Y-64724696D01*
X110112577Y-64732683D01*
X110206696Y-64893613D01*
X110241778Y-64942038D01*
X110276204Y-64990985D01*
X110282265Y-64997927D01*
X110401210Y-65132270D01*
X110931918Y-65757920D01*
X111317410Y-66422756D01*
X111579073Y-67145344D01*
X111708643Y-67902852D01*
X111702021Y-68671338D01*
X111559419Y-69426499D01*
X111285341Y-70144476D01*
X110886972Y-70805024D01*
X110413389Y-71353675D01*
X110360588Y-71407870D01*
X110333010Y-71442349D01*
X110303369Y-71475054D01*
X110297928Y-71482492D01*
X110188907Y-71633724D01*
X110158832Y-71685426D01*
X110128033Y-71736709D01*
X110124140Y-71745061D01*
X110046570Y-71914588D01*
X110027116Y-71971127D01*
X110006854Y-72027445D01*
X110004658Y-72036395D01*
X109961494Y-72217761D01*
X109953393Y-72277001D01*
X109944457Y-72336175D01*
X109944042Y-72345381D01*
X109936927Y-72531677D01*
X109940486Y-72591364D01*
X109943214Y-72651144D01*
X109944595Y-72660256D01*
X109973800Y-72844386D01*
X109988888Y-72902259D01*
X110003173Y-72960361D01*
X110006297Y-72969031D01*
X110070711Y-73143981D01*
X110096744Y-73197803D01*
X110122050Y-73252040D01*
X110126798Y-73259938D01*
X110223966Y-73419045D01*
X110259979Y-73466813D01*
X110295317Y-73515074D01*
X110301509Y-73521899D01*
X110427730Y-73659103D01*
X110472327Y-73698960D01*
X110516375Y-73739446D01*
X110523769Y-73744934D01*
X110523774Y-73744938D01*
X110523779Y-73744941D01*
X110674243Y-73855012D01*
X110725732Y-73885447D01*
X110776802Y-73916605D01*
X110785128Y-73920556D01*
X110954110Y-73999308D01*
X111010506Y-74019154D01*
X111066681Y-74039808D01*
X111075615Y-74042067D01*
X111256676Y-74086497D01*
X111315910Y-74095019D01*
X111374972Y-74104360D01*
X111384172Y-74104840D01*
X111384175Y-74104840D01*
X111569931Y-74113233D01*
X111601249Y-74114722D01*
X113667854Y-74009942D01*
X113673244Y-74009923D01*
X113678246Y-74009415D01*
X113715797Y-74007511D01*
X113718375Y-74007124D01*
X113730761Y-74007211D01*
X113739933Y-74006311D01*
X114322222Y-73945111D01*
X114380832Y-73933079D01*
X114439580Y-73921873D01*
X114448402Y-73919209D01*
X115007715Y-73746072D01*
X115062833Y-73722902D01*
X115118322Y-73700484D01*
X115126458Y-73696157D01*
X115641490Y-73417681D01*
X115691064Y-73384243D01*
X115741138Y-73351476D01*
X115748279Y-73345652D01*
X116199412Y-72972442D01*
X116241588Y-72929971D01*
X116284301Y-72888143D01*
X116290175Y-72881043D01*
X116660227Y-72427314D01*
X116693320Y-72377506D01*
X116727127Y-72328132D01*
X116731510Y-72320026D01*
X117006384Y-71803061D01*
X117029182Y-71747749D01*
X117052744Y-71692775D01*
X117055469Y-71683972D01*
X117224696Y-71123464D01*
X117236316Y-71064776D01*
X117248752Y-71006273D01*
X117249715Y-70997108D01*
X117306850Y-70414406D01*
X117306850Y-70414402D01*
X117310000Y-70382419D01*
X117310000Y-66117581D01*
X117307080Y-66087937D01*
X117307211Y-66069238D01*
X117306311Y-66060067D01*
X117245110Y-65477777D01*
X117233084Y-65419191D01*
X117221873Y-65360420D01*
X117219210Y-65351598D01*
X117046072Y-64792285D01*
X117022902Y-64737167D01*
X117000484Y-64681678D01*
X116996157Y-64673542D01*
X116717681Y-64158510D01*
X116684243Y-64108936D01*
X116651476Y-64058862D01*
X116645652Y-64051721D01*
X116272442Y-63600588D01*
X116229990Y-63558431D01*
X116188144Y-63515699D01*
X116181043Y-63509825D01*
X115727315Y-63139773D01*
X115677504Y-63106679D01*
X115628132Y-63072873D01*
X115620026Y-63068490D01*
X115103062Y-62793616D01*
X115047735Y-62770812D01*
X114992775Y-62747256D01*
X114983971Y-62744531D01*
X114423464Y-62575304D01*
X114364769Y-62563682D01*
X114306273Y-62551248D01*
X114297108Y-62550285D01*
X113731168Y-62494794D01*
X113715797Y-62492489D01*
X111601249Y-62385278D01*
X111585392Y-62386032D01*
X111506335Y-62385830D01*
X111462390Y-62390026D01*
X111418260Y-62391506D01*
X111409133Y-62392776D01*
X111224664Y-62419757D01*
X111166602Y-62434149D01*
X111108345Y-62447728D01*
X111099638Y-62450747D01*
X110923924Y-62513044D01*
X110869756Y-62538442D01*
X110815255Y-62563074D01*
X110807305Y-62567725D01*
X110807298Y-62567728D01*
X110807292Y-62567732D01*
X110647031Y-62662967D01*
X110598827Y-62698404D01*
X110550146Y-62733154D01*
X110543246Y-62739263D01*
X110404528Y-62863820D01*
X110364130Y-62907940D01*
X110323122Y-62951488D01*
X110317540Y-62958821D01*
X110205658Y-63107949D01*
X110174592Y-63159086D01*
X110142832Y-63209757D01*
X110138781Y-63218034D01*
X110057995Y-63386054D01*
X110037472Y-63442199D01*
X110016139Y-63498126D01*
X110013773Y-63507033D01*
X109967160Y-63687544D01*
X109957932Y-63746618D01*
X109947869Y-63805616D01*
X109947278Y-63814812D01*
X109936615Y-64000938D01*
X108160000Y-64000938D01*
X108160000Y-63514801D01*
X109780555Y-61894246D01*
X109821414Y-61992889D01*
X109923738Y-62146028D01*
X110053972Y-62276262D01*
X110207111Y-62378586D01*
X110377271Y-62449068D01*
X110557911Y-62485000D01*
X110742089Y-62485000D01*
X110922729Y-62449068D01*
X111092889Y-62378586D01*
X111158120Y-62335000D01*
X117474843Y-62335000D01*
X123415000Y-68275157D01*
X123415001Y-74461437D01*
X123411203Y-74500000D01*
X123426359Y-74653886D01*
X123471246Y-74801859D01*
X123482112Y-74822187D01*
X123544139Y-74938233D01*
X123572450Y-74972729D01*
X123617655Y-75027812D01*
X123617659Y-75027816D01*
X123642237Y-75057764D01*
X123672185Y-75082342D01*
X125904842Y-77315000D01*
X110826586Y-77315000D01*
X110801898Y-77304774D01*
X110601939Y-77265000D01*
X110398061Y-77265000D01*
X110198102Y-77304774D01*
X110173414Y-77315000D01*
X109826586Y-77315000D01*
X109801898Y-77304774D01*
X109601939Y-77265000D01*
X109398061Y-77265000D01*
X109198102Y-77304774D01*
X109009744Y-77382795D01*
X108840226Y-77496063D01*
X108696063Y-77640226D01*
X108582795Y-77809744D01*
X108504774Y-77998102D01*
X108465000Y-78198061D01*
X108465000Y-78401939D01*
X108504774Y-78601898D01*
X108582795Y-78790256D01*
X108696063Y-78959774D01*
X108840226Y-79103937D01*
X109009744Y-79217205D01*
X109198102Y-79295226D01*
X109398061Y-79335000D01*
X109601939Y-79335000D01*
X109801898Y-79295226D01*
X109826586Y-79285000D01*
X110173414Y-79285000D01*
X110198102Y-79295226D01*
X110398061Y-79335000D01*
X110601939Y-79335000D01*
X110801898Y-79295226D01*
X110826586Y-79285000D01*
X129773414Y-79285000D01*
X129798102Y-79295226D01*
X129998061Y-79335000D01*
X130201939Y-79335000D01*
X130401898Y-79295226D01*
X130426586Y-79285000D01*
X130673414Y-79285000D01*
X130698102Y-79295226D01*
X130898061Y-79335000D01*
X131101939Y-79335000D01*
X131301898Y-79295226D01*
X131490256Y-79217205D01*
X131659774Y-79103937D01*
X131803937Y-78959774D01*
X131917205Y-78790256D01*
X131995226Y-78601898D01*
X132035000Y-78401939D01*
X132035000Y-78198061D01*
X131995226Y-77998102D01*
X131948377Y-77885000D01*
X134561447Y-77885000D01*
X134600000Y-77888797D01*
X134638553Y-77885000D01*
X134638561Y-77885000D01*
X134753887Y-77873641D01*
X134901860Y-77828754D01*
X135038233Y-77755862D01*
X135157764Y-77657764D01*
X135182347Y-77627810D01*
X137195783Y-75614374D01*
X137272729Y-75599068D01*
X137442889Y-75528586D01*
X137596028Y-75426262D01*
X137726262Y-75296028D01*
X137828586Y-75142889D01*
X137899068Y-74972729D01*
X137935000Y-74792089D01*
X137935000Y-74607911D01*
X137899068Y-74427271D01*
X137828586Y-74257111D01*
X137726262Y-74103972D01*
X137596028Y-73973738D01*
X137442889Y-73871414D01*
X137272729Y-73800932D01*
X137092089Y-73765000D01*
X136907911Y-73765000D01*
X136727271Y-73800932D01*
X136557111Y-73871414D01*
X136403972Y-73973738D01*
X136273738Y-74103972D01*
X136171414Y-74257111D01*
X136100932Y-74427271D01*
X136085626Y-74504217D01*
X134274843Y-76315000D01*
X131748377Y-76315000D01*
X131795226Y-76201898D01*
X131835000Y-76001939D01*
X131835000Y-75798061D01*
X131795226Y-75598102D01*
X131717205Y-75409744D01*
X131603937Y-75240226D01*
X131459774Y-75096063D01*
X131290256Y-74982795D01*
X131101898Y-74904774D01*
X130901939Y-74865000D01*
X130698061Y-74865000D01*
X130498102Y-74904774D01*
X130473414Y-74915000D01*
X130308000Y-74915000D01*
X128785000Y-73392000D01*
X128785000Y-71782393D01*
X128799516Y-71818322D01*
X128803843Y-71826458D01*
X129082319Y-72341490D01*
X129115757Y-72391064D01*
X129148524Y-72441138D01*
X129154348Y-72448279D01*
X129527558Y-72899412D01*
X129570029Y-72941588D01*
X129611857Y-72984301D01*
X129618957Y-72990175D01*
X130072686Y-73360227D01*
X130122494Y-73393320D01*
X130171868Y-73427127D01*
X130179974Y-73431510D01*
X130696939Y-73706384D01*
X130752251Y-73729182D01*
X130807225Y-73752744D01*
X130816028Y-73755469D01*
X131376536Y-73924696D01*
X131435224Y-73936316D01*
X131493727Y-73948752D01*
X131502892Y-73949715D01*
X132068834Y-74005207D01*
X132084203Y-74007511D01*
X134198750Y-74114722D01*
X134214607Y-74113968D01*
X134293664Y-74114170D01*
X134337608Y-74109974D01*
X134381740Y-74108494D01*
X134390867Y-74107224D01*
X134575337Y-74080243D01*
X134633407Y-74065849D01*
X134691655Y-74052272D01*
X134700361Y-74049253D01*
X134876076Y-73986956D01*
X134930232Y-73961563D01*
X134984745Y-73936926D01*
X134992700Y-73932273D01*
X135152969Y-73837033D01*
X135201158Y-73801607D01*
X135249854Y-73766846D01*
X135256754Y-73760737D01*
X135395472Y-73636180D01*
X135435871Y-73592059D01*
X135476878Y-73548511D01*
X135482460Y-73541179D01*
X135594342Y-73392050D01*
X135625408Y-73340913D01*
X135657168Y-73290242D01*
X135661219Y-73281965D01*
X135742005Y-73113946D01*
X135762528Y-73057801D01*
X135783861Y-73001874D01*
X135786227Y-72992967D01*
X135832840Y-72812457D01*
X135842069Y-72753376D01*
X135852131Y-72694384D01*
X135852722Y-72685188D01*
X135863385Y-72499062D01*
X135860962Y-72439290D01*
X135859374Y-72379495D01*
X135858168Y-72370359D01*
X135832476Y-72185706D01*
X135818493Y-72127557D01*
X135805317Y-72069193D01*
X135802359Y-72060466D01*
X135741290Y-71884320D01*
X135716297Y-71830034D01*
X135692020Y-71775304D01*
X135687423Y-71767317D01*
X135593304Y-71606387D01*
X135558222Y-71557962D01*
X135523796Y-71509015D01*
X135517735Y-71502073D01*
X135398790Y-71367730D01*
X134868082Y-70742080D01*
X134482590Y-70077244D01*
X134220927Y-69354656D01*
X134091357Y-68597148D01*
X134097979Y-67828662D01*
X134240581Y-67073501D01*
X134514658Y-66355527D01*
X134913028Y-65694976D01*
X135386611Y-65146325D01*
X135439412Y-65092130D01*
X135466987Y-65057653D01*
X135496631Y-65024946D01*
X135502072Y-65017509D01*
X135611093Y-64866276D01*
X135641173Y-64814566D01*
X135671967Y-64763292D01*
X135675859Y-64754939D01*
X135753430Y-64585412D01*
X135772884Y-64528873D01*
X135793146Y-64472555D01*
X135795342Y-64463605D01*
X135838506Y-64282239D01*
X135846607Y-64222999D01*
X135855543Y-64163825D01*
X135855958Y-64154619D01*
X135863073Y-63968323D01*
X135859514Y-63908636D01*
X135856786Y-63848856D01*
X135855406Y-63839745D01*
X135826200Y-63655614D01*
X135811114Y-63597748D01*
X135796827Y-63539639D01*
X135793703Y-63530969D01*
X135739662Y-63384193D01*
X135859774Y-63303937D01*
X136003937Y-63159774D01*
X136117205Y-62990256D01*
X136195226Y-62801898D01*
X136235000Y-62601939D01*
X136235000Y-62398061D01*
X136195226Y-62198102D01*
X136185000Y-62173414D01*
X136185000Y-62026586D01*
X136195226Y-62001898D01*
X136235000Y-61801939D01*
X136235000Y-61609801D01*
X136465000Y-61839802D01*
X136465000Y-61892089D01*
X136500932Y-62072729D01*
X136571414Y-62242889D01*
X136673738Y-62396028D01*
X136803972Y-62526262D01*
X136957111Y-62628586D01*
X137097868Y-62686889D01*
X137027271Y-62700932D01*
X136857111Y-62771414D01*
X136703972Y-62873738D01*
X136573738Y-63003972D01*
X136471414Y-63157111D01*
X136400932Y-63327271D01*
X136365000Y-63507911D01*
X136365000Y-63692089D01*
X136400932Y-63872729D01*
X136471414Y-64042889D01*
X136573738Y-64196028D01*
X136703972Y-64326262D01*
X136857111Y-64428586D01*
X137027271Y-64499068D01*
X137207911Y-64535000D01*
X137262761Y-64535000D01*
X137130013Y-64667748D01*
X136951082Y-64935537D01*
X136827832Y-65233088D01*
X136765000Y-65548967D01*
X136765000Y-65871033D01*
X136827832Y-66186912D01*
X136951082Y-66484463D01*
X137130013Y-66752252D01*
X137357748Y-66979987D01*
X137625537Y-67158918D01*
X137923088Y-67282168D01*
X138238967Y-67345000D01*
X138561033Y-67345000D01*
X138876912Y-67282168D01*
X139174463Y-67158918D01*
X139442252Y-66979987D01*
X139669987Y-66752252D01*
X139848918Y-66484463D01*
X139972168Y-66186912D01*
X140035000Y-65871033D01*
X140035000Y-65548967D01*
X139972168Y-65233088D01*
X139848918Y-64935537D01*
X139669987Y-64667748D01*
X139442252Y-64440013D01*
X139174463Y-64261082D01*
X138876912Y-64137832D01*
X138561033Y-64075000D01*
X138238967Y-64075000D01*
X138086922Y-64105243D01*
X138128586Y-64042889D01*
X138145962Y-64000938D01*
X140936615Y-64000938D01*
X140939038Y-64060709D01*
X140940626Y-64120505D01*
X140941832Y-64129641D01*
X140967524Y-64314294D01*
X140981507Y-64372443D01*
X140994683Y-64430807D01*
X140997641Y-64439534D01*
X141058710Y-64615681D01*
X141083710Y-64669981D01*
X141107980Y-64724696D01*
X141112577Y-64732683D01*
X141206696Y-64893613D01*
X141241778Y-64942038D01*
X141276204Y-64990985D01*
X141282265Y-64997927D01*
X141401210Y-65132270D01*
X141931918Y-65757920D01*
X142317410Y-66422756D01*
X142579073Y-67145344D01*
X142708643Y-67902852D01*
X142702021Y-68671338D01*
X142559419Y-69426499D01*
X142285341Y-70144476D01*
X141886972Y-70805024D01*
X141413389Y-71353675D01*
X141360588Y-71407870D01*
X141333010Y-71442349D01*
X141303369Y-71475054D01*
X141297928Y-71482492D01*
X141188907Y-71633724D01*
X141158832Y-71685426D01*
X141128033Y-71736709D01*
X141124140Y-71745061D01*
X141046570Y-71914588D01*
X141027116Y-71971127D01*
X141006854Y-72027445D01*
X141004658Y-72036395D01*
X140961494Y-72217761D01*
X140953393Y-72277001D01*
X140944457Y-72336175D01*
X140944042Y-72345381D01*
X140936927Y-72531677D01*
X140940486Y-72591364D01*
X140943214Y-72651144D01*
X140944595Y-72660256D01*
X140973800Y-72844386D01*
X140988888Y-72902259D01*
X141003173Y-72960361D01*
X141006297Y-72969031D01*
X141070711Y-73143981D01*
X141096744Y-73197803D01*
X141122050Y-73252040D01*
X141126798Y-73259938D01*
X141223966Y-73419045D01*
X141259979Y-73466813D01*
X141295317Y-73515074D01*
X141301509Y-73521899D01*
X141427730Y-73659103D01*
X141472327Y-73698960D01*
X141516375Y-73739446D01*
X141523769Y-73744934D01*
X141523774Y-73744938D01*
X141523779Y-73744941D01*
X141674243Y-73855012D01*
X141725732Y-73885447D01*
X141776802Y-73916605D01*
X141785128Y-73920556D01*
X141954110Y-73999308D01*
X142010506Y-74019154D01*
X142066681Y-74039808D01*
X142075615Y-74042067D01*
X142256676Y-74086497D01*
X142315910Y-74095019D01*
X142374972Y-74104360D01*
X142384172Y-74104840D01*
X142384175Y-74104840D01*
X142569931Y-74113233D01*
X142601249Y-74114722D01*
X144667854Y-74009942D01*
X144673244Y-74009923D01*
X144678246Y-74009415D01*
X144715797Y-74007511D01*
X144718375Y-74007124D01*
X144730761Y-74007211D01*
X144739933Y-74006311D01*
X145322222Y-73945111D01*
X145380832Y-73933079D01*
X145439580Y-73921873D01*
X145448402Y-73919209D01*
X146007715Y-73746072D01*
X146062833Y-73722902D01*
X146118322Y-73700484D01*
X146126458Y-73696157D01*
X146641490Y-73417681D01*
X146691064Y-73384243D01*
X146741138Y-73351476D01*
X146748279Y-73345652D01*
X147199412Y-72972442D01*
X147241588Y-72929971D01*
X147284301Y-72888143D01*
X147290175Y-72881043D01*
X147660227Y-72427314D01*
X147693320Y-72377506D01*
X147727127Y-72328132D01*
X147731510Y-72320026D01*
X148006384Y-71803061D01*
X148029182Y-71747749D01*
X148052744Y-71692775D01*
X148055469Y-71683972D01*
X148224696Y-71123464D01*
X148236316Y-71064776D01*
X148248752Y-71006273D01*
X148249715Y-70997108D01*
X148306850Y-70414406D01*
X148306850Y-70414402D01*
X148310000Y-70382419D01*
X148310000Y-66117581D01*
X148307080Y-66087937D01*
X148307211Y-66069238D01*
X148306311Y-66060067D01*
X148245110Y-65477777D01*
X148233084Y-65419191D01*
X148221873Y-65360420D01*
X148219210Y-65351598D01*
X148046072Y-64792285D01*
X148022902Y-64737167D01*
X148000484Y-64681678D01*
X147996157Y-64673542D01*
X147717681Y-64158510D01*
X147684243Y-64108936D01*
X147651476Y-64058862D01*
X147645652Y-64051721D01*
X147272442Y-63600588D01*
X147229990Y-63558431D01*
X147188144Y-63515699D01*
X147181043Y-63509825D01*
X146727315Y-63139773D01*
X146677504Y-63106679D01*
X146628132Y-63072873D01*
X146620026Y-63068490D01*
X146103062Y-62793616D01*
X146047735Y-62770812D01*
X145992775Y-62747256D01*
X145983971Y-62744531D01*
X145423464Y-62575304D01*
X145364769Y-62563682D01*
X145306273Y-62551248D01*
X145297108Y-62550285D01*
X144731168Y-62494794D01*
X144715797Y-62492489D01*
X142601249Y-62385278D01*
X142585392Y-62386032D01*
X142506335Y-62385830D01*
X142462390Y-62390026D01*
X142418260Y-62391506D01*
X142409133Y-62392776D01*
X142224664Y-62419757D01*
X142166602Y-62434149D01*
X142108345Y-62447728D01*
X142099638Y-62450747D01*
X141923924Y-62513044D01*
X141869756Y-62538442D01*
X141815255Y-62563074D01*
X141807305Y-62567725D01*
X141807298Y-62567728D01*
X141807292Y-62567732D01*
X141647031Y-62662967D01*
X141598827Y-62698404D01*
X141550146Y-62733154D01*
X141543246Y-62739263D01*
X141404528Y-62863820D01*
X141364130Y-62907940D01*
X141323122Y-62951488D01*
X141317540Y-62958821D01*
X141205658Y-63107949D01*
X141174592Y-63159086D01*
X141142832Y-63209757D01*
X141138781Y-63218034D01*
X141057995Y-63386054D01*
X141037472Y-63442199D01*
X141016139Y-63498126D01*
X141013773Y-63507033D01*
X140967160Y-63687544D01*
X140957932Y-63746618D01*
X140947869Y-63805616D01*
X140947278Y-63814812D01*
X140936615Y-64000938D01*
X138145962Y-64000938D01*
X138199068Y-63872729D01*
X138214374Y-63795784D01*
X139725158Y-62285000D01*
X147374843Y-62285000D01*
X150815001Y-65725159D01*
X150815000Y-68811447D01*
X150811203Y-68850000D01*
X150815000Y-68888553D01*
X150815000Y-68888560D01*
X150826359Y-69003886D01*
X150871246Y-69151859D01*
X150944138Y-69288232D01*
X151042236Y-69407764D01*
X151072190Y-69432347D01*
X157567653Y-75927810D01*
X157592236Y-75957764D01*
X157711767Y-76055862D01*
X157838574Y-76123641D01*
X157848140Y-76128754D01*
X157996113Y-76173642D01*
X158071026Y-76181020D01*
X158111439Y-76185000D01*
X158111444Y-76185000D01*
X158150000Y-76188797D01*
X158188556Y-76185000D01*
X166991880Y-76185000D01*
X167057111Y-76228586D01*
X167227271Y-76299068D01*
X167407911Y-76335000D01*
X167592089Y-76335000D01*
X167772729Y-76299068D01*
X167942889Y-76228586D01*
X168096028Y-76126262D01*
X168226262Y-75996028D01*
X168328586Y-75842889D01*
X168399068Y-75672729D01*
X168435000Y-75492089D01*
X168435000Y-75307911D01*
X168399068Y-75127271D01*
X168328586Y-74957111D01*
X168226262Y-74803972D01*
X168096028Y-74673738D01*
X167942889Y-74571414D01*
X167772729Y-74500932D01*
X167592089Y-74465000D01*
X167407911Y-74465000D01*
X167227271Y-74500932D01*
X167057111Y-74571414D01*
X166991880Y-74615000D01*
X158475157Y-74615000D01*
X152385000Y-68524843D01*
X152385000Y-66117582D01*
X159490000Y-66117582D01*
X159490001Y-70382419D01*
X159492920Y-70412054D01*
X159492789Y-70430761D01*
X159493689Y-70439933D01*
X159554889Y-71022222D01*
X159566921Y-71080832D01*
X159578127Y-71139580D01*
X159580791Y-71148402D01*
X159753928Y-71707715D01*
X159777098Y-71762833D01*
X159799516Y-71818322D01*
X159803843Y-71826458D01*
X160082319Y-72341490D01*
X160115757Y-72391064D01*
X160148524Y-72441138D01*
X160154348Y-72448279D01*
X160527558Y-72899412D01*
X160570029Y-72941588D01*
X160611857Y-72984301D01*
X160618957Y-72990175D01*
X161072686Y-73360227D01*
X161122494Y-73393320D01*
X161171868Y-73427127D01*
X161179974Y-73431510D01*
X161696939Y-73706384D01*
X161752251Y-73729182D01*
X161807225Y-73752744D01*
X161816028Y-73755469D01*
X162376536Y-73924696D01*
X162435224Y-73936316D01*
X162493727Y-73948752D01*
X162502892Y-73949715D01*
X163068834Y-74005207D01*
X163084203Y-74007511D01*
X165198750Y-74114722D01*
X165214607Y-74113968D01*
X165293664Y-74114170D01*
X165337608Y-74109974D01*
X165381740Y-74108494D01*
X165390867Y-74107224D01*
X165575337Y-74080243D01*
X165633407Y-74065849D01*
X165691655Y-74052272D01*
X165700361Y-74049253D01*
X165876076Y-73986956D01*
X165930232Y-73961563D01*
X165984745Y-73936926D01*
X165992700Y-73932273D01*
X166152969Y-73837033D01*
X166201158Y-73801607D01*
X166249854Y-73766846D01*
X166256754Y-73760737D01*
X166395472Y-73636180D01*
X166435871Y-73592059D01*
X166476878Y-73548511D01*
X166482460Y-73541179D01*
X166594342Y-73392050D01*
X166625408Y-73340913D01*
X166657168Y-73290242D01*
X166661219Y-73281965D01*
X166742005Y-73113946D01*
X166762528Y-73057801D01*
X166783861Y-73001874D01*
X166786227Y-72992967D01*
X166832840Y-72812457D01*
X166842069Y-72753376D01*
X166852131Y-72694384D01*
X166852722Y-72685188D01*
X166863385Y-72499062D01*
X166860962Y-72439290D01*
X166859374Y-72379495D01*
X166858168Y-72370359D01*
X166832476Y-72185706D01*
X166818493Y-72127557D01*
X166805317Y-72069193D01*
X166802359Y-72060466D01*
X166741290Y-71884320D01*
X166716297Y-71830034D01*
X166692020Y-71775304D01*
X166687423Y-71767317D01*
X166593304Y-71606387D01*
X166558222Y-71557962D01*
X166523796Y-71509015D01*
X166517735Y-71502073D01*
X166398790Y-71367730D01*
X165868082Y-70742080D01*
X165482590Y-70077244D01*
X165220927Y-69354656D01*
X165091357Y-68597148D01*
X165097979Y-67828662D01*
X165240581Y-67073501D01*
X165514658Y-66355527D01*
X165913028Y-65694976D01*
X166039059Y-65548967D01*
X167765000Y-65548967D01*
X167765000Y-65871033D01*
X167827832Y-66186912D01*
X167951082Y-66484463D01*
X168130013Y-66752252D01*
X168357748Y-66979987D01*
X168625537Y-67158918D01*
X168923088Y-67282168D01*
X169238967Y-67345000D01*
X169561033Y-67345000D01*
X169876912Y-67282168D01*
X170174463Y-67158918D01*
X170442252Y-66979987D01*
X170669987Y-66752252D01*
X170848918Y-66484463D01*
X170972168Y-66186912D01*
X171035000Y-65871033D01*
X171035000Y-65548967D01*
X170972168Y-65233088D01*
X170848918Y-64935537D01*
X170669987Y-64667748D01*
X170442252Y-64440013D01*
X170174463Y-64261082D01*
X169876912Y-64137832D01*
X169561033Y-64075000D01*
X169238967Y-64075000D01*
X168923088Y-64137832D01*
X168625537Y-64261082D01*
X168357748Y-64440013D01*
X168130013Y-64667748D01*
X167951082Y-64935537D01*
X167827832Y-65233088D01*
X167765000Y-65548967D01*
X166039059Y-65548967D01*
X166386611Y-65146325D01*
X166439412Y-65092130D01*
X166466987Y-65057653D01*
X166496631Y-65024946D01*
X166502072Y-65017509D01*
X166611093Y-64866276D01*
X166641173Y-64814566D01*
X166671967Y-64763292D01*
X166675859Y-64754939D01*
X166753430Y-64585412D01*
X166772884Y-64528873D01*
X166793146Y-64472555D01*
X166795342Y-64463605D01*
X166838506Y-64282239D01*
X166846607Y-64222999D01*
X166855543Y-64163825D01*
X166855958Y-64154619D01*
X166863073Y-63968323D01*
X166859514Y-63908636D01*
X166856786Y-63848856D01*
X166855406Y-63839745D01*
X166826200Y-63655614D01*
X166811114Y-63597748D01*
X166796827Y-63539639D01*
X166793703Y-63530969D01*
X166729289Y-63356018D01*
X166703234Y-63302151D01*
X166677950Y-63247960D01*
X166673202Y-63240062D01*
X166576034Y-63080955D01*
X166540033Y-63033202D01*
X166504683Y-62984926D01*
X166498491Y-62978101D01*
X166372269Y-62840897D01*
X166327708Y-62801073D01*
X166283625Y-62760554D01*
X166276225Y-62755062D01*
X166125757Y-62644988D01*
X166074268Y-62614553D01*
X166023198Y-62583395D01*
X166014873Y-62579444D01*
X165845890Y-62500692D01*
X165789483Y-62480842D01*
X165733319Y-62460192D01*
X165724385Y-62457934D01*
X165543325Y-62413503D01*
X165484080Y-62404979D01*
X165425028Y-62395640D01*
X165415830Y-62395160D01*
X165415825Y-62395160D01*
X165230056Y-62386766D01*
X165198750Y-62385278D01*
X163132146Y-62490058D01*
X163126756Y-62490077D01*
X163121754Y-62490585D01*
X163084203Y-62492489D01*
X163081625Y-62492876D01*
X163069238Y-62492789D01*
X163060067Y-62493689D01*
X162477777Y-62554890D01*
X162419191Y-62566916D01*
X162360420Y-62578127D01*
X162351598Y-62580790D01*
X161792285Y-62753928D01*
X161737167Y-62777098D01*
X161681678Y-62799516D01*
X161673542Y-62803843D01*
X161158510Y-63082319D01*
X161108936Y-63115757D01*
X161058862Y-63148524D01*
X161051721Y-63154348D01*
X160600588Y-63527558D01*
X160558431Y-63570010D01*
X160515699Y-63611856D01*
X160509825Y-63618957D01*
X160139773Y-64072685D01*
X160106679Y-64122496D01*
X160072873Y-64171868D01*
X160068490Y-64179974D01*
X159793616Y-64696938D01*
X159770812Y-64752265D01*
X159747256Y-64807225D01*
X159744531Y-64816029D01*
X159575304Y-65376536D01*
X159563682Y-65435231D01*
X159551248Y-65493727D01*
X159550285Y-65502892D01*
X159493150Y-66085595D01*
X159490000Y-66117582D01*
X152385000Y-66117582D01*
X152385000Y-65438556D01*
X152388797Y-65400000D01*
X152385000Y-65361444D01*
X152385000Y-65361439D01*
X152377384Y-65284114D01*
X152373642Y-65246113D01*
X152328754Y-65098140D01*
X152319819Y-65081423D01*
X152255862Y-64961767D01*
X152196895Y-64889916D01*
X152182345Y-64872187D01*
X152182342Y-64872184D01*
X152157764Y-64842236D01*
X152127816Y-64817658D01*
X148282347Y-60972190D01*
X148257764Y-60942236D01*
X148138233Y-60844138D01*
X148001860Y-60771246D01*
X147853887Y-60726359D01*
X147738561Y-60715000D01*
X147738553Y-60715000D01*
X147700000Y-60711203D01*
X147661447Y-60715000D01*
X139438552Y-60715000D01*
X139399999Y-60711203D01*
X139361446Y-60715000D01*
X139361439Y-60715000D01*
X139260490Y-60724943D01*
X139246112Y-60726359D01*
X139211672Y-60736806D01*
X139098140Y-60771246D01*
X138961767Y-60844138D01*
X138903147Y-60892247D01*
X138872187Y-60917655D01*
X138872184Y-60917658D01*
X138842236Y-60942236D01*
X138817658Y-60972184D01*
X138288378Y-61501464D01*
X138228586Y-61357111D01*
X138126262Y-61203972D01*
X137996028Y-61073738D01*
X137842889Y-60971414D01*
X137677858Y-60903057D01*
X136863804Y-60089002D01*
X136840001Y-60059999D01*
X136724276Y-59965026D01*
X136592247Y-59894454D01*
X136448986Y-59850997D01*
X136337333Y-59840000D01*
X136337322Y-59840000D01*
X136300000Y-59836324D01*
X136262678Y-59840000D01*
X110037322Y-59840000D01*
X109999999Y-59836324D01*
X109962676Y-59840000D01*
X109962667Y-59840000D01*
X109851014Y-59850997D01*
X109707753Y-59894454D01*
X109575724Y-59965026D01*
X109459999Y-60059999D01*
X109436201Y-60088997D01*
X106889003Y-62636196D01*
X106859999Y-62659999D01*
X106809044Y-62722088D01*
X106765026Y-62775724D01*
X106707194Y-62883919D01*
X106694454Y-62907754D01*
X106650997Y-63051015D01*
X106640000Y-63162668D01*
X106640000Y-63162678D01*
X106636324Y-63200000D01*
X106640000Y-63237323D01*
X106640000Y-64255091D01*
X106625537Y-64261082D01*
X106357748Y-64440013D01*
X106130013Y-64667748D01*
X105951082Y-64935537D01*
X105827832Y-65233088D01*
X105765000Y-65548967D01*
X104039059Y-65548967D01*
X104386611Y-65146325D01*
X104439412Y-65092130D01*
X104466987Y-65057653D01*
X104496631Y-65024946D01*
X104502072Y-65017509D01*
X104611093Y-64866276D01*
X104641173Y-64814566D01*
X104671967Y-64763292D01*
X104675859Y-64754939D01*
X104753430Y-64585412D01*
X104772884Y-64528873D01*
X104793146Y-64472555D01*
X104795342Y-64463605D01*
X104838506Y-64282239D01*
X104846607Y-64222999D01*
X104855543Y-64163825D01*
X104855958Y-64154619D01*
X104863073Y-63968323D01*
X104859514Y-63908636D01*
X104856786Y-63848856D01*
X104855406Y-63839745D01*
X104826200Y-63655614D01*
X104811114Y-63597748D01*
X104796827Y-63539639D01*
X104793703Y-63530969D01*
X104729289Y-63356018D01*
X104703234Y-63302151D01*
X104677950Y-63247960D01*
X104673202Y-63240062D01*
X104576034Y-63080955D01*
X104540033Y-63033202D01*
X104504683Y-62984926D01*
X104498491Y-62978101D01*
X104372269Y-62840897D01*
X104327708Y-62801073D01*
X104283625Y-62760554D01*
X104276225Y-62755062D01*
X104125757Y-62644988D01*
X104074268Y-62614553D01*
X104023198Y-62583395D01*
X104014873Y-62579444D01*
X103845890Y-62500692D01*
X103789483Y-62480842D01*
X103733319Y-62460192D01*
X103724385Y-62457934D01*
X103543325Y-62413503D01*
X103484080Y-62404979D01*
X103425028Y-62395640D01*
X103415830Y-62395160D01*
X103415825Y-62395160D01*
X103230056Y-62386766D01*
X103198750Y-62385278D01*
X101132146Y-62490058D01*
X101126756Y-62490077D01*
X101121754Y-62490585D01*
X101084203Y-62492489D01*
X101081625Y-62492876D01*
X101069238Y-62492789D01*
X101060067Y-62493689D01*
X100477777Y-62554890D01*
X100419191Y-62566916D01*
X100360420Y-62578127D01*
X100351598Y-62580790D01*
X99792285Y-62753928D01*
X99737167Y-62777098D01*
X99681678Y-62799516D01*
X99673542Y-62803843D01*
X99158510Y-63082319D01*
X99108936Y-63115757D01*
X99058862Y-63148524D01*
X99051721Y-63154348D01*
X98600588Y-63527558D01*
X98558431Y-63570010D01*
X98515699Y-63611856D01*
X98509825Y-63618957D01*
X98139773Y-64072685D01*
X98106679Y-64122496D01*
X98072873Y-64171868D01*
X98068490Y-64179974D01*
X97793616Y-64696938D01*
X97770812Y-64752265D01*
X97747256Y-64807225D01*
X97744531Y-64816029D01*
X97575304Y-65376536D01*
X97563682Y-65435231D01*
X97551248Y-65493727D01*
X97550285Y-65502892D01*
X97493150Y-66085595D01*
X97490000Y-66117582D01*
X92527739Y-66117582D01*
X87282347Y-60872190D01*
X87257764Y-60842236D01*
X87138233Y-60744138D01*
X87001860Y-60671246D01*
X86853887Y-60626359D01*
X86738561Y-60615000D01*
X86738553Y-60615000D01*
X86700000Y-60611203D01*
X86661447Y-60615000D01*
X76008120Y-60615000D01*
X75942889Y-60571414D01*
X75772729Y-60500932D01*
X75592089Y-60465000D01*
X75407911Y-60465000D01*
X75227271Y-60500932D01*
X75057111Y-60571414D01*
X74903972Y-60673738D01*
X74773738Y-60803972D01*
X74671414Y-60957111D01*
X74600932Y-61127271D01*
X74565000Y-61307911D01*
X74060000Y-61307911D01*
X74060000Y-51278306D01*
X74094022Y-51166150D01*
X74174638Y-51015328D01*
X74283130Y-50883130D01*
X74415328Y-50774638D01*
X74566150Y-50694022D01*
X74678306Y-50660000D01*
X171121694Y-50660000D01*
X171233850Y-50694022D01*
G37*
%TD.AperFunction*%
%TD*%
M02*
