%TF.GenerationSoftware,KiCad,Pcbnew,(5.1.10)-1*%
%TF.CreationDate,2025-10-16T12:24:03+03:00*%
%TF.ProjectId,PADS,50414453-2e6b-4696-9361-645f70636258,rev?*%
%TF.SameCoordinates,Original*%
%TF.FileFunction,Soldermask,Top*%
%TF.FilePolarity,Negative*%
%FSLAX46Y46*%
G04 Gerber Fmt 4.6, Leading zero omitted, Abs format (unit mm)*
G04 Created by KiCad (PCBNEW (5.1.10)-1) date 2025-10-16 12:24:03*
%MOMM*%
%LPD*%
G01*
G04 APERTURE LIST*
%ADD10C,2.400000*%
%ADD11C,2.100000*%
G04 APERTURE END LIST*
%TO.C,J1*%
G36*
G01*
X127275000Y-56700000D02*
X128025000Y-56700000D01*
G75*
G02*
X128400000Y-57075000I0J-375000D01*
G01*
X128400000Y-60725000D01*
G75*
G02*
X128025000Y-61100000I-375000J0D01*
G01*
X127275000Y-61100000D01*
G75*
G02*
X126900000Y-60725000I0J375000D01*
G01*
X126900000Y-57075000D01*
G75*
G02*
X127275000Y-56700000I375000J0D01*
G01*
G37*
G36*
G01*
X129815000Y-56700000D02*
X130565000Y-56700000D01*
G75*
G02*
X130940000Y-57075000I0J-375000D01*
G01*
X130940000Y-60725000D01*
G75*
G02*
X130565000Y-61100000I-375000J0D01*
G01*
X129815000Y-61100000D01*
G75*
G02*
X129440000Y-60725000I0J375000D01*
G01*
X129440000Y-57075000D01*
G75*
G02*
X129815000Y-56700000I375000J0D01*
G01*
G37*
G36*
G01*
X132355000Y-56700000D02*
X133105000Y-56700000D01*
G75*
G02*
X133480000Y-57075000I0J-375000D01*
G01*
X133480000Y-60725000D01*
G75*
G02*
X133105000Y-61100000I-375000J0D01*
G01*
X132355000Y-61100000D01*
G75*
G02*
X131980000Y-60725000I0J375000D01*
G01*
X131980000Y-57075000D01*
G75*
G02*
X132355000Y-56700000I375000J0D01*
G01*
G37*
G36*
G01*
X134895000Y-56700000D02*
X135645000Y-56700000D01*
G75*
G02*
X136020000Y-57075000I0J-375000D01*
G01*
X136020000Y-60725000D01*
G75*
G02*
X135645000Y-61100000I-375000J0D01*
G01*
X134895000Y-61100000D01*
G75*
G02*
X134520000Y-60725000I0J375000D01*
G01*
X134520000Y-57075000D01*
G75*
G02*
X134895000Y-56700000I375000J0D01*
G01*
G37*
G36*
G01*
X137435000Y-56700000D02*
X138185000Y-56700000D01*
G75*
G02*
X138560000Y-57075000I0J-375000D01*
G01*
X138560000Y-60725000D01*
G75*
G02*
X138185000Y-61100000I-375000J0D01*
G01*
X137435000Y-61100000D01*
G75*
G02*
X137060000Y-60725000I0J375000D01*
G01*
X137060000Y-57075000D01*
G75*
G02*
X137435000Y-56700000I375000J0D01*
G01*
G37*
G36*
G01*
X139975000Y-56700000D02*
X140725000Y-56700000D01*
G75*
G02*
X141100000Y-57075000I0J-375000D01*
G01*
X141100000Y-60725000D01*
G75*
G02*
X140725000Y-61100000I-375000J0D01*
G01*
X139975000Y-61100000D01*
G75*
G02*
X139600000Y-60725000I0J375000D01*
G01*
X139600000Y-57075000D01*
G75*
G02*
X139975000Y-56700000I375000J0D01*
G01*
G37*
G36*
G01*
X128545000Y-51700000D02*
X129295000Y-51700000D01*
G75*
G02*
X129670000Y-52075000I0J-375000D01*
G01*
X129670000Y-55725000D01*
G75*
G02*
X129295000Y-56100000I-375000J0D01*
G01*
X128545000Y-56100000D01*
G75*
G02*
X128170000Y-55725000I0J375000D01*
G01*
X128170000Y-52075000D01*
G75*
G02*
X128545000Y-51700000I375000J0D01*
G01*
G37*
G36*
G01*
X131085000Y-51700000D02*
X131835000Y-51700000D01*
G75*
G02*
X132210000Y-52075000I0J-375000D01*
G01*
X132210000Y-55725000D01*
G75*
G02*
X131835000Y-56100000I-375000J0D01*
G01*
X131085000Y-56100000D01*
G75*
G02*
X130710000Y-55725000I0J375000D01*
G01*
X130710000Y-52075000D01*
G75*
G02*
X131085000Y-51700000I375000J0D01*
G01*
G37*
G36*
G01*
X133625000Y-51700000D02*
X134375000Y-51700000D01*
G75*
G02*
X134750000Y-52075000I0J-375000D01*
G01*
X134750000Y-55725000D01*
G75*
G02*
X134375000Y-56100000I-375000J0D01*
G01*
X133625000Y-56100000D01*
G75*
G02*
X133250000Y-55725000I0J375000D01*
G01*
X133250000Y-52075000D01*
G75*
G02*
X133625000Y-51700000I375000J0D01*
G01*
G37*
G36*
G01*
X136165000Y-51700000D02*
X136915000Y-51700000D01*
G75*
G02*
X137290000Y-52075000I0J-375000D01*
G01*
X137290000Y-55725000D01*
G75*
G02*
X136915000Y-56100000I-375000J0D01*
G01*
X136165000Y-56100000D01*
G75*
G02*
X135790000Y-55725000I0J375000D01*
G01*
X135790000Y-52075000D01*
G75*
G02*
X136165000Y-51700000I375000J0D01*
G01*
G37*
G36*
G01*
X138705000Y-51700000D02*
X139455000Y-51700000D01*
G75*
G02*
X139830000Y-52075000I0J-375000D01*
G01*
X139830000Y-55725000D01*
G75*
G02*
X139455000Y-56100000I-375000J0D01*
G01*
X138705000Y-56100000D01*
G75*
G02*
X138330000Y-55725000I0J375000D01*
G01*
X138330000Y-52075000D01*
G75*
G02*
X138705000Y-51700000I375000J0D01*
G01*
G37*
%TD*%
D10*
%TO.C,SW5*%
X169400000Y-101790000D03*
X169400000Y-96710000D03*
%TD*%
%TO.C,SW1*%
X169400000Y-70790000D03*
X169400000Y-65710000D03*
%TD*%
%TO.C,SW8*%
X76400000Y-101790000D03*
X76400000Y-96710000D03*
%TD*%
%TO.C,SW4*%
X76400000Y-70790000D03*
X76400000Y-65710000D03*
%TD*%
%TO.C,SW2*%
X138400000Y-70790000D03*
X138400000Y-65710000D03*
%TD*%
%TO.C,SW3*%
X107400000Y-70790000D03*
X107400000Y-65710000D03*
%TD*%
%TO.C,SW6*%
X138400000Y-101790000D03*
X138400000Y-96710000D03*
%TD*%
%TO.C,SW7*%
X107400000Y-101790000D03*
X107400000Y-96710000D03*
%TD*%
D11*
%TO.C,D1*%
X74550000Y-103850000D03*
X74550000Y-94650000D03*
X79850000Y-100950000D03*
X79850000Y-97550000D03*
%TD*%
%TO.C,D5*%
X74550000Y-72850000D03*
X74550000Y-63650000D03*
X79850000Y-69950000D03*
X79850000Y-66550000D03*
%TD*%
%TO.C,D4*%
X165950000Y-100950000D03*
X165950000Y-97550000D03*
X171250000Y-103850000D03*
X171250000Y-94650000D03*
%TD*%
%TO.C,D8*%
X165950000Y-69950000D03*
X165950000Y-66550000D03*
X171250000Y-72850000D03*
X171250000Y-63650000D03*
%TD*%
%TO.C,D2*%
X103950000Y-100950000D03*
X103950000Y-97550000D03*
X110850000Y-100950000D03*
X110850000Y-97550000D03*
%TD*%
%TO.C,D3*%
X134950000Y-100950000D03*
X134950000Y-97550000D03*
X141850000Y-100950000D03*
X141850000Y-97550000D03*
%TD*%
%TO.C,D6*%
X103950000Y-69950000D03*
X103950000Y-66550000D03*
X110850000Y-69950000D03*
X110850000Y-66550000D03*
%TD*%
%TO.C,D7*%
X134950000Y-69950000D03*
X134950000Y-66550000D03*
X141850000Y-69950000D03*
X141850000Y-66550000D03*
%TD*%
%TO.C,C1*%
G36*
G01*
X77750000Y-98847500D02*
X77750000Y-99652500D01*
G75*
G02*
X77577500Y-99825000I-172500J0D01*
G01*
X76722500Y-99825000D01*
G75*
G02*
X76550000Y-99652500I0J172500D01*
G01*
X76550000Y-98847500D01*
G75*
G02*
X76722500Y-98675000I172500J0D01*
G01*
X77577500Y-98675000D01*
G75*
G02*
X77750000Y-98847500I0J-172500D01*
G01*
G37*
G36*
G01*
X76250000Y-98847500D02*
X76250000Y-99652500D01*
G75*
G02*
X76077500Y-99825000I-172500J0D01*
G01*
X75222500Y-99825000D01*
G75*
G02*
X75050000Y-99652500I0J172500D01*
G01*
X75050000Y-98847500D01*
G75*
G02*
X75222500Y-98675000I172500J0D01*
G01*
X76077500Y-98675000D01*
G75*
G02*
X76250000Y-98847500I0J-172500D01*
G01*
G37*
%TD*%
%TO.C,C2*%
G36*
G01*
X135257000Y-80700000D02*
X133943000Y-80700000D01*
G75*
G02*
X133775000Y-80532000I0J168000D01*
G01*
X133775000Y-79468000D01*
G75*
G02*
X133943000Y-79300000I168000J0D01*
G01*
X135257000Y-79300000D01*
G75*
G02*
X135425000Y-79468000I0J-168000D01*
G01*
X135425000Y-80532000D01*
G75*
G02*
X135257000Y-80700000I-168000J0D01*
G01*
G37*
G36*
G01*
X135257000Y-78700000D02*
X133943000Y-78700000D01*
G75*
G02*
X133775000Y-78532000I0J168000D01*
G01*
X133775000Y-77468000D01*
G75*
G02*
X133943000Y-77300000I168000J0D01*
G01*
X135257000Y-77300000D01*
G75*
G02*
X135425000Y-77468000I0J-168000D01*
G01*
X135425000Y-78532000D01*
G75*
G02*
X135257000Y-78700000I-168000J0D01*
G01*
G37*
%TD*%
%TO.C,C3*%
G36*
G01*
X107250000Y-98847500D02*
X107250000Y-99652500D01*
G75*
G02*
X107077500Y-99825000I-172500J0D01*
G01*
X106222500Y-99825000D01*
G75*
G02*
X106050000Y-99652500I0J172500D01*
G01*
X106050000Y-98847500D01*
G75*
G02*
X106222500Y-98675000I172500J0D01*
G01*
X107077500Y-98675000D01*
G75*
G02*
X107250000Y-98847500I0J-172500D01*
G01*
G37*
G36*
G01*
X108750000Y-98847500D02*
X108750000Y-99652500D01*
G75*
G02*
X108577500Y-99825000I-172500J0D01*
G01*
X107722500Y-99825000D01*
G75*
G02*
X107550000Y-99652500I0J172500D01*
G01*
X107550000Y-98847500D01*
G75*
G02*
X107722500Y-98675000I172500J0D01*
G01*
X108577500Y-98675000D01*
G75*
G02*
X108750000Y-98847500I0J-172500D01*
G01*
G37*
%TD*%
%TO.C,C4*%
G36*
G01*
X139750000Y-98847500D02*
X139750000Y-99652500D01*
G75*
G02*
X139577500Y-99825000I-172500J0D01*
G01*
X138722500Y-99825000D01*
G75*
G02*
X138550000Y-99652500I0J172500D01*
G01*
X138550000Y-98847500D01*
G75*
G02*
X138722500Y-98675000I172500J0D01*
G01*
X139577500Y-98675000D01*
G75*
G02*
X139750000Y-98847500I0J-172500D01*
G01*
G37*
G36*
G01*
X138250000Y-98847500D02*
X138250000Y-99652500D01*
G75*
G02*
X138077500Y-99825000I-172500J0D01*
G01*
X137222500Y-99825000D01*
G75*
G02*
X137050000Y-99652500I0J172500D01*
G01*
X137050000Y-98847500D01*
G75*
G02*
X137222500Y-98675000I172500J0D01*
G01*
X138077500Y-98675000D01*
G75*
G02*
X138250000Y-98847500I0J-172500D01*
G01*
G37*
%TD*%
%TO.C,C5*%
G36*
G01*
X169250000Y-98847500D02*
X169250000Y-99652500D01*
G75*
G02*
X169077500Y-99825000I-172500J0D01*
G01*
X168222500Y-99825000D01*
G75*
G02*
X168050000Y-99652500I0J172500D01*
G01*
X168050000Y-98847500D01*
G75*
G02*
X168222500Y-98675000I172500J0D01*
G01*
X169077500Y-98675000D01*
G75*
G02*
X169250000Y-98847500I0J-172500D01*
G01*
G37*
G36*
G01*
X170750000Y-98847500D02*
X170750000Y-99652500D01*
G75*
G02*
X170577500Y-99825000I-172500J0D01*
G01*
X169722500Y-99825000D01*
G75*
G02*
X169550000Y-99652500I0J172500D01*
G01*
X169550000Y-98847500D01*
G75*
G02*
X169722500Y-98675000I172500J0D01*
G01*
X170577500Y-98675000D01*
G75*
G02*
X170750000Y-98847500I0J-172500D01*
G01*
G37*
%TD*%
%TO.C,C6*%
G36*
G01*
X77750000Y-67847500D02*
X77750000Y-68652500D01*
G75*
G02*
X77577500Y-68825000I-172500J0D01*
G01*
X76722500Y-68825000D01*
G75*
G02*
X76550000Y-68652500I0J172500D01*
G01*
X76550000Y-67847500D01*
G75*
G02*
X76722500Y-67675000I172500J0D01*
G01*
X77577500Y-67675000D01*
G75*
G02*
X77750000Y-67847500I0J-172500D01*
G01*
G37*
G36*
G01*
X76250000Y-67847500D02*
X76250000Y-68652500D01*
G75*
G02*
X76077500Y-68825000I-172500J0D01*
G01*
X75222500Y-68825000D01*
G75*
G02*
X75050000Y-68652500I0J172500D01*
G01*
X75050000Y-67847500D01*
G75*
G02*
X75222500Y-67675000I172500J0D01*
G01*
X76077500Y-67675000D01*
G75*
G02*
X76250000Y-67847500I0J-172500D01*
G01*
G37*
%TD*%
%TO.C,C7*%
G36*
G01*
X107250000Y-67847500D02*
X107250000Y-68652500D01*
G75*
G02*
X107077500Y-68825000I-172500J0D01*
G01*
X106222500Y-68825000D01*
G75*
G02*
X106050000Y-68652500I0J172500D01*
G01*
X106050000Y-67847500D01*
G75*
G02*
X106222500Y-67675000I172500J0D01*
G01*
X107077500Y-67675000D01*
G75*
G02*
X107250000Y-67847500I0J-172500D01*
G01*
G37*
G36*
G01*
X108750000Y-67847500D02*
X108750000Y-68652500D01*
G75*
G02*
X108577500Y-68825000I-172500J0D01*
G01*
X107722500Y-68825000D01*
G75*
G02*
X107550000Y-68652500I0J172500D01*
G01*
X107550000Y-67847500D01*
G75*
G02*
X107722500Y-67675000I172500J0D01*
G01*
X108577500Y-67675000D01*
G75*
G02*
X108750000Y-67847500I0J-172500D01*
G01*
G37*
%TD*%
%TO.C,C8*%
G36*
G01*
X139750000Y-67847500D02*
X139750000Y-68652500D01*
G75*
G02*
X139577500Y-68825000I-172500J0D01*
G01*
X138722500Y-68825000D01*
G75*
G02*
X138550000Y-68652500I0J172500D01*
G01*
X138550000Y-67847500D01*
G75*
G02*
X138722500Y-67675000I172500J0D01*
G01*
X139577500Y-67675000D01*
G75*
G02*
X139750000Y-67847500I0J-172500D01*
G01*
G37*
G36*
G01*
X138250000Y-67847500D02*
X138250000Y-68652500D01*
G75*
G02*
X138077500Y-68825000I-172500J0D01*
G01*
X137222500Y-68825000D01*
G75*
G02*
X137050000Y-68652500I0J172500D01*
G01*
X137050000Y-67847500D01*
G75*
G02*
X137222500Y-67675000I172500J0D01*
G01*
X138077500Y-67675000D01*
G75*
G02*
X138250000Y-67847500I0J-172500D01*
G01*
G37*
%TD*%
%TO.C,C9*%
G36*
G01*
X169250000Y-67847500D02*
X169250000Y-68652500D01*
G75*
G02*
X169077500Y-68825000I-172500J0D01*
G01*
X168222500Y-68825000D01*
G75*
G02*
X168050000Y-68652500I0J172500D01*
G01*
X168050000Y-67847500D01*
G75*
G02*
X168222500Y-67675000I172500J0D01*
G01*
X169077500Y-67675000D01*
G75*
G02*
X169250000Y-67847500I0J-172500D01*
G01*
G37*
G36*
G01*
X170750000Y-67847500D02*
X170750000Y-68652500D01*
G75*
G02*
X170577500Y-68825000I-172500J0D01*
G01*
X169722500Y-68825000D01*
G75*
G02*
X169550000Y-68652500I0J172500D01*
G01*
X169550000Y-67847500D01*
G75*
G02*
X169722500Y-67675000I172500J0D01*
G01*
X170577500Y-67675000D01*
G75*
G02*
X170750000Y-67847500I0J-172500D01*
G01*
G37*
%TD*%
%TO.C,R1*%
G36*
G01*
X112200000Y-77785000D02*
X112200000Y-78815000D01*
G75*
G02*
X112065000Y-78950000I-135000J0D01*
G01*
X111435000Y-78950000D01*
G75*
G02*
X111300000Y-78815000I0J135000D01*
G01*
X111300000Y-77785000D01*
G75*
G02*
X111435000Y-77650000I135000J0D01*
G01*
X112065000Y-77650000D01*
G75*
G02*
X112200000Y-77785000I0J-135000D01*
G01*
G37*
G36*
G01*
X113700000Y-77785000D02*
X113700000Y-78815000D01*
G75*
G02*
X113565000Y-78950000I-135000J0D01*
G01*
X112935000Y-78950000D01*
G75*
G02*
X112800000Y-78815000I0J135000D01*
G01*
X112800000Y-77785000D01*
G75*
G02*
X112935000Y-77650000I135000J0D01*
G01*
X113565000Y-77650000D01*
G75*
G02*
X113700000Y-77785000I0J-135000D01*
G01*
G37*
%TD*%
%TO.C,R2*%
G36*
G01*
X115100000Y-77785000D02*
X115100000Y-78815000D01*
G75*
G02*
X114965000Y-78950000I-135000J0D01*
G01*
X114335000Y-78950000D01*
G75*
G02*
X114200000Y-78815000I0J135000D01*
G01*
X114200000Y-77785000D01*
G75*
G02*
X114335000Y-77650000I135000J0D01*
G01*
X114965000Y-77650000D01*
G75*
G02*
X115100000Y-77785000I0J-135000D01*
G01*
G37*
G36*
G01*
X116600000Y-77785000D02*
X116600000Y-78815000D01*
G75*
G02*
X116465000Y-78950000I-135000J0D01*
G01*
X115835000Y-78950000D01*
G75*
G02*
X115700000Y-78815000I0J135000D01*
G01*
X115700000Y-77785000D01*
G75*
G02*
X115835000Y-77650000I135000J0D01*
G01*
X116465000Y-77650000D01*
G75*
G02*
X116600000Y-77785000I0J-135000D01*
G01*
G37*
%TD*%
%TO.C,R3*%
G36*
G01*
X113715000Y-82300000D02*
X112685000Y-82300000D01*
G75*
G02*
X112550000Y-82165000I0J135000D01*
G01*
X112550000Y-81535000D01*
G75*
G02*
X112685000Y-81400000I135000J0D01*
G01*
X113715000Y-81400000D01*
G75*
G02*
X113850000Y-81535000I0J-135000D01*
G01*
X113850000Y-82165000D01*
G75*
G02*
X113715000Y-82300000I-135000J0D01*
G01*
G37*
G36*
G01*
X113715000Y-80800000D02*
X112685000Y-80800000D01*
G75*
G02*
X112550000Y-80665000I0J135000D01*
G01*
X112550000Y-80035000D01*
G75*
G02*
X112685000Y-79900000I135000J0D01*
G01*
X113715000Y-79900000D01*
G75*
G02*
X113850000Y-80035000I0J-135000D01*
G01*
X113850000Y-80665000D01*
G75*
G02*
X113715000Y-80800000I-135000J0D01*
G01*
G37*
%TD*%
%TO.C,R4*%
G36*
G01*
X133350000Y-75269700D02*
X133350000Y-76530300D01*
G75*
G02*
X133080300Y-76800000I-269700J0D01*
G01*
X132069700Y-76800000D01*
G75*
G02*
X131800000Y-76530300I0J269700D01*
G01*
X131800000Y-75269700D01*
G75*
G02*
X132069700Y-75000000I269700J0D01*
G01*
X133080300Y-75000000D01*
G75*
G02*
X133350000Y-75269700I0J-269700D01*
G01*
G37*
G36*
G01*
X135400000Y-75269700D02*
X135400000Y-76530300D01*
G75*
G02*
X135130300Y-76800000I-269700J0D01*
G01*
X134119700Y-76800000D01*
G75*
G02*
X133850000Y-76530300I0J269700D01*
G01*
X133850000Y-75269700D01*
G75*
G02*
X134119700Y-75000000I269700J0D01*
G01*
X135130300Y-75000000D01*
G75*
G02*
X135400000Y-75269700I0J-269700D01*
G01*
G37*
%TD*%
%TO.C,R5*%
G36*
G01*
X110100000Y-105075000D02*
X110100000Y-106105000D01*
G75*
G02*
X109965000Y-106240000I-135000J0D01*
G01*
X109335000Y-106240000D01*
G75*
G02*
X109200000Y-106105000I0J135000D01*
G01*
X109200000Y-105075000D01*
G75*
G02*
X109335000Y-104940000I135000J0D01*
G01*
X109965000Y-104940000D01*
G75*
G02*
X110100000Y-105075000I0J-135000D01*
G01*
G37*
G36*
G01*
X108600000Y-105075000D02*
X108600000Y-106105000D01*
G75*
G02*
X108465000Y-106240000I-135000J0D01*
G01*
X107835000Y-106240000D01*
G75*
G02*
X107700000Y-106105000I0J135000D01*
G01*
X107700000Y-105075000D01*
G75*
G02*
X107835000Y-104940000I135000J0D01*
G01*
X108465000Y-104940000D01*
G75*
G02*
X108600000Y-105075000I0J-135000D01*
G01*
G37*
%TD*%
%TO.C,R6*%
G36*
G01*
X139600000Y-105085000D02*
X139600000Y-106115000D01*
G75*
G02*
X139465000Y-106250000I-135000J0D01*
G01*
X138835000Y-106250000D01*
G75*
G02*
X138700000Y-106115000I0J135000D01*
G01*
X138700000Y-105085000D01*
G75*
G02*
X138835000Y-104950000I135000J0D01*
G01*
X139465000Y-104950000D01*
G75*
G02*
X139600000Y-105085000I0J-135000D01*
G01*
G37*
G36*
G01*
X141100000Y-105085000D02*
X141100000Y-106115000D01*
G75*
G02*
X140965000Y-106250000I-135000J0D01*
G01*
X140335000Y-106250000D01*
G75*
G02*
X140200000Y-106115000I0J135000D01*
G01*
X140200000Y-105085000D01*
G75*
G02*
X140335000Y-104950000I135000J0D01*
G01*
X140965000Y-104950000D01*
G75*
G02*
X141100000Y-105085000I0J-135000D01*
G01*
G37*
%TD*%
%TO.C,R7*%
G36*
G01*
X168785000Y-104600000D02*
X169815000Y-104600000D01*
G75*
G02*
X169950000Y-104735000I0J-135000D01*
G01*
X169950000Y-105365000D01*
G75*
G02*
X169815000Y-105500000I-135000J0D01*
G01*
X168785000Y-105500000D01*
G75*
G02*
X168650000Y-105365000I0J135000D01*
G01*
X168650000Y-104735000D01*
G75*
G02*
X168785000Y-104600000I135000J0D01*
G01*
G37*
G36*
G01*
X168785000Y-106100000D02*
X169815000Y-106100000D01*
G75*
G02*
X169950000Y-106235000I0J-135000D01*
G01*
X169950000Y-106865000D01*
G75*
G02*
X169815000Y-107000000I-135000J0D01*
G01*
X168785000Y-107000000D01*
G75*
G02*
X168650000Y-106865000I0J135000D01*
G01*
X168650000Y-106235000D01*
G75*
G02*
X168785000Y-106100000I135000J0D01*
G01*
G37*
%TD*%
%TO.C,R8*%
G36*
G01*
X78135000Y-75250000D02*
X79165000Y-75250000D01*
G75*
G02*
X79300000Y-75385000I0J-135000D01*
G01*
X79300000Y-76015000D01*
G75*
G02*
X79165000Y-76150000I-135000J0D01*
G01*
X78135000Y-76150000D01*
G75*
G02*
X78000000Y-76015000I0J135000D01*
G01*
X78000000Y-75385000D01*
G75*
G02*
X78135000Y-75250000I135000J0D01*
G01*
G37*
G36*
G01*
X78135000Y-76750000D02*
X79165000Y-76750000D01*
G75*
G02*
X79300000Y-76885000I0J-135000D01*
G01*
X79300000Y-77515000D01*
G75*
G02*
X79165000Y-77650000I-135000J0D01*
G01*
X78135000Y-77650000D01*
G75*
G02*
X78000000Y-77515000I0J135000D01*
G01*
X78000000Y-76885000D01*
G75*
G02*
X78135000Y-76750000I135000J0D01*
G01*
G37*
%TD*%
%TO.C,R9*%
G36*
G01*
X110100000Y-74075000D02*
X110100000Y-75105000D01*
G75*
G02*
X109965000Y-75240000I-135000J0D01*
G01*
X109335000Y-75240000D01*
G75*
G02*
X109200000Y-75105000I0J135000D01*
G01*
X109200000Y-74075000D01*
G75*
G02*
X109335000Y-73940000I135000J0D01*
G01*
X109965000Y-73940000D01*
G75*
G02*
X110100000Y-74075000I0J-135000D01*
G01*
G37*
G36*
G01*
X108600000Y-74075000D02*
X108600000Y-75105000D01*
G75*
G02*
X108465000Y-75240000I-135000J0D01*
G01*
X107835000Y-75240000D01*
G75*
G02*
X107700000Y-75105000I0J135000D01*
G01*
X107700000Y-74075000D01*
G75*
G02*
X107835000Y-73940000I135000J0D01*
G01*
X108465000Y-73940000D01*
G75*
G02*
X108600000Y-74075000I0J-135000D01*
G01*
G37*
%TD*%
%TO.C,R10*%
G36*
G01*
X139600000Y-74085000D02*
X139600000Y-75115000D01*
G75*
G02*
X139465000Y-75250000I-135000J0D01*
G01*
X138835000Y-75250000D01*
G75*
G02*
X138700000Y-75115000I0J135000D01*
G01*
X138700000Y-74085000D01*
G75*
G02*
X138835000Y-73950000I135000J0D01*
G01*
X139465000Y-73950000D01*
G75*
G02*
X139600000Y-74085000I0J-135000D01*
G01*
G37*
G36*
G01*
X141100000Y-74085000D02*
X141100000Y-75115000D01*
G75*
G02*
X140965000Y-75250000I-135000J0D01*
G01*
X140335000Y-75250000D01*
G75*
G02*
X140200000Y-75115000I0J135000D01*
G01*
X140200000Y-74085000D01*
G75*
G02*
X140335000Y-73950000I135000J0D01*
G01*
X140965000Y-73950000D01*
G75*
G02*
X141100000Y-74085000I0J-135000D01*
G01*
G37*
%TD*%
%TO.C,R11*%
G36*
G01*
X168885000Y-74890000D02*
X169915000Y-74890000D01*
G75*
G02*
X170050000Y-75025000I0J-135000D01*
G01*
X170050000Y-75655000D01*
G75*
G02*
X169915000Y-75790000I-135000J0D01*
G01*
X168885000Y-75790000D01*
G75*
G02*
X168750000Y-75655000I0J135000D01*
G01*
X168750000Y-75025000D01*
G75*
G02*
X168885000Y-74890000I135000J0D01*
G01*
G37*
G36*
G01*
X168885000Y-73390000D02*
X169915000Y-73390000D01*
G75*
G02*
X170050000Y-73525000I0J-135000D01*
G01*
X170050000Y-74155000D01*
G75*
G02*
X169915000Y-74290000I-135000J0D01*
G01*
X168885000Y-74290000D01*
G75*
G02*
X168750000Y-74155000I0J135000D01*
G01*
X168750000Y-73525000D01*
G75*
G02*
X168885000Y-73390000I135000J0D01*
G01*
G37*
%TD*%
%TO.C,J2*%
G36*
G01*
X88460000Y-61000000D02*
X84940000Y-61000000D01*
G75*
G02*
X84500000Y-60560000I0J440000D01*
G01*
X84500000Y-51040000D01*
G75*
G02*
X84940000Y-50600000I440000J0D01*
G01*
X88460000Y-50600000D01*
G75*
G02*
X88900000Y-51040000I0J-440000D01*
G01*
X88900000Y-60560000D01*
G75*
G02*
X88460000Y-61000000I-440000J0D01*
G01*
G37*
%TD*%
%TO.C,J3*%
G36*
G01*
X118260000Y-61000000D02*
X114740000Y-61000000D01*
G75*
G02*
X114300000Y-60560000I0J440000D01*
G01*
X114300000Y-51040000D01*
G75*
G02*
X114740000Y-50600000I440000J0D01*
G01*
X118260000Y-50600000D01*
G75*
G02*
X118700000Y-51040000I0J-440000D01*
G01*
X118700000Y-60560000D01*
G75*
G02*
X118260000Y-61000000I-440000J0D01*
G01*
G37*
%TD*%
M02*
