M48
; DRILL file {KiCad (5.1.10)-1} date 10/16/25 12:24:13
; FORMAT={-:-/ absolute / inch / decimal}
; #@! TF.CreationDate,2025-10-16T12:24:13+03:00
; #@! TF.GenerationSoftware,Kicad,Pcbnew,(5.1.10)-1
; #@! TF.FileFunction,Plated,1,2,PTH
FMAT,2
INCH
T1C0.0118
T2C0.0197
T3C0.0394
%
G90
G05
T1
X2.9724Y-2.4173
X3.0709Y-4.5276
X3.1496Y-3.2106
X3.1772Y-3.5571
X3.1811Y-3.378
X3.4055Y-3.378
X3.4193Y-3.1555
X3.4646Y-4.5276
X3.6535Y-3.378
X3.813Y-3.1555
X3.8583Y-4.5276
X4.1339Y-3.378
X4.1772Y-2.9409
X4.1772Y-3.6634
X4.1772Y-4.1575
X4.1811Y-2.1969
X4.252Y-4.5276
X4.3563Y-2.4232
X4.3583Y-3.4213
X4.3583Y-3.4961
X4.4567Y-2.1969
X4.6457Y-4.5276
X4.874Y-3.3583
X4.874Y-3.5866
X4.874Y-3.8543
X4.874Y-4.0197
X4.876Y-3.1555
X5.0394Y-4.5276
X5.374Y-3.7165
X5.3937Y-2.9409
X5.3976Y-4.1614
X5.4055Y-2.5039
X5.4094Y-2.4331
X5.4331Y-4.5276
X5.8268Y-4.5276
X5.8661Y-2.0866
X5.874Y-3.5512
X6.0571Y-3.1555
X6.0945Y-2.5709
X6.0945Y-2.9646
X6.2205Y-4.5276
X6.2598Y-2.0866
X6.4508Y-3.1555
X6.5787Y-3.6791
X6.5787Y-4.1929
X6.5945Y-2.9685
X6.6142Y-4.5276
X6.6535Y-2.0866
T2
X3.7047Y-2.1969
X3.7874Y-2.1969
X4.311Y-3.0827
X4.3504Y-3.0827
X4.5728Y-3.1555
X5.1142Y-2.9882
X5.122Y-3.0827
X5.1496Y-2.9882
X5.1575Y-3.0827
X5.2303Y-3.1555
X5.3228Y-2.4291
X5.3228Y-2.4606
X5.3681Y-3.1555
T3
X3.0079Y-2.587
X3.0079Y-2.787
X3.0079Y-3.8075
X3.0079Y-4.0075
X4.2283Y-2.587
X4.2283Y-2.787
X4.2283Y-3.8075
X4.2283Y-4.0075
X5.4488Y-2.587
X5.4488Y-2.787
X5.4488Y-3.8075
X5.4488Y-4.0075
X6.6693Y-2.587
X6.6693Y-2.787
X6.6693Y-3.8075
X6.6693Y-4.0075
T0
M30
